<?xml version="1.0" encoding="UTF-8"?>
<svg id="Camada_2" data-name="Camada 2" xmlns="http://www.w3.org/2000/svg" viewBox="0 0 108.38 111.26">
  <defs>
    <style>
      .cls-1 {
        fill: #2e303d;
      }
    </style>
  </defs>
  <g id="Camada_1-2" data-name="Camada 1">
    <g>
      <path class="cls-1" d="m37.6,73.09c.17-.72.38-1.45.64-2.14.95-2.55,2.74-4.07,5.51-4.18,1.07-.04,2.15.15,3.23.21,2.11.12,4.24.44,6.33.28,2.26-.17,3.39-1.68,3.49-3.94.02-.41.03-.82.04-1.23.04-1.11.26-2.1,1.18-2.9.82-.71,1.08-1.73.82-2.77-.18-.74-.61-1.41-.97-2.23,1.68-1.15,2.03-2.78,1.28-4.74-.29-.76.03-1.26.79-1.69,3.02-1.75,3.43-4.4,1.22-7.11-.9-1.1-1.77-2.21-2.6-3.37-1.35-1.88-1.93-3.95-1.77-6.32.14-2.07.1-4.19-.16-6.26C54.36,6.53,35.1-4.8,18.1,1.99,6.29,6.7-.86,18.11.08,30.78c.45,5.95,2.62,11.23,6.4,15.84,1.15,1.4,1.87,2.93,2.04,4.75.36,3.81-.04,7.57-1.17,11.19-1.02,3.27-2.36,6.43-3.61,9.62-.64,1.63.01,2.76,1.76,2.84.34.02.67,0,1.01,0,8.67,0,17.34,0,26.01,0,.9,0,1.79,0,2.69,0,1.6-.02,2.02-.39,2.39-1.93Zm-4.19-1.64c-8.14-.03-16.29-.02-24.43-.02-.25,0-.49-.06-.73-.09.86-2.56,1.79-5.03,2.51-7.57,1.19-4.23,1.77-8.54,1.3-12.96-.26-2.42-1.2-4.51-2.74-6.37-3.37-4.09-5.24-8.79-5.69-14.09C2.61,18.44,10.9,7.02,22.61,4.3c14.72-3.42,28.9,6.54,30.6,21.53.16,1.44.22,2.93.05,4.36-.49,3.98.87,7.34,3.24,10.4.64.83,1.3,1.64,1.99,2.43.57.65.61,1.21-.22,1.6-2.6,1.2-3.18,3.26-2.54,5.85.16.63-.02,1.01-.63,1.19-.39.12-.78.28-1.18.35-.87.15-1.44.61-1.58,1.5-.14.88.26,1.49,1.01,1.94.66.4,1.26.88,1.95,1.36-1.72,1.66-2.06,3.67-2.03,5.76.01,1.01-.42,1.39-1.3,1.32-1.56-.12-3.12-.28-4.66-.51-2.09-.31-4.17-.41-6.21.21-3.45,1.05-5.41,3.55-6.47,6.87-.2.62-.41.99-1.19.99Z"/>
      <path class="cls-1" d="m108.37,58.5c0-1.75-.62-2.36-2.37-2.37-3.06,0-6.13,0-9.19,0-1.97,0-2.51.55-2.51,2.54,0,8.37,0,16.74,0,25.11,0,8.41,0,16.82,0,25.23,0,1.61.63,2.24,2.24,2.24,3.14,0,6.28,0,9.42,0,1.82,0,2.42-.59,2.42-2.42,0-16.78,0-33.56,0-50.34Zm-3.65,49.1h-6.76v-47.82h6.76v47.82Z"/>
      <path class="cls-1" d="m86.7,66.02c-3.21-.02-6.42-.02-9.64,0-1.6.01-2.24.67-2.24,2.28,0,13.56,0,27.12,0,40.68,0,1.66.64,2.28,2.33,2.28,3.1,0,6.2,0,9.3,0,1.89,0,2.45-.57,2.45-2.48,0-6.72,0-13.45,0-20.17,0-6.76,0-13.52,0-20.28,0-1.62-.62-2.29-2.21-2.3Zm-1.45,41.59h-6.78v-37.94h6.78v37.94Z"/>
      <path class="cls-1" d="m37.42,81.05c.14-.05.29-.09.43-.14,21.22-7.49,40.87-17.87,58.58-31.82.2-.16.44-.28.78-.5-.24,1.16-.47,2.14-.63,3.13-.17,1.04.45,1.92,1.39,2.11.97.19,1.89-.35,2.11-1.39.58-2.7,1.14-5.41,1.62-8.13.25-1.4-.48-2.22-1.93-2.24-2.65-.04-5.31-.04-7.96,0-1.24.02-2.01.77-1.99,1.81.02,1.04.79,1.72,2.04,1.75.92.03,1.83,0,3.07,0-.58.48-.88.75-1.2.99-15.25,11.95-32.01,21.22-50.03,28.27-2.47.96-4.97,1.83-7.45,2.76-1.15.43-1.65,1.37-1.31,2.36.33.98,1.33,1.39,2.49,1.02Z"/>
      <path class="cls-1" d="m67.23,77.03c-3.21-.02-6.42-.02-9.63,0-1.56,0-2.21.63-2.21,2.17-.01,9.97-.01,19.94,0,29.91,0,1.54.67,2.15,2.22,2.15,3.14,0,6.27,0,9.41,0,1.85,0,2.42-.56,2.42-2.39,0-4.89,0-9.78,0-14.67,0-4.97,0-9.93,0-14.9,0-1.64-.59-2.26-2.2-2.27Zm-1.42,30.58h-6.77v-26.89h6.77v26.89Z"/>
      <path class="cls-1" d="m47.71,87.55c-3.17-.02-6.34-.02-9.52,0-1.63.01-2.23.63-2.24,2.25-.01,3.21,0,6.42,0,9.63,0,3.14,0,6.27,0,9.41,0,1.86.55,2.42,2.38,2.42,3.1,0,6.2,0,9.29,0,1.77,0,2.36-.57,2.36-2.34,0-6.35,0-12.69,0-19.04,0-1.71-.6-2.32-2.27-2.33Zm-1.38,20.03h-6.71v-16.31h6.71v16.31Z"/>
      <path class="cls-1" d="m38.7,54.44c-.15-4.87.98-9.38,3.64-13.51,1.49-2.32,2.1-4.92,2.09-6.57.08-8.38-5.17-15-12.31-16.64-7.39-1.7-14.92,1.88-18.08,8.71-2.24,4.84-2.21,9.69.47,14.39,1.39,2.44,2.8,4.87,3.2,7.7.27,1.92.4,3.86.48,5.79.06,1.52.56,2.74,1.79,3.67.29.22.52.7.55,1.07.1,1.47.65,2.64,1.84,3.55.31.24.53.77.56,1.18.15,2.41,1.73,4.04,4.14,4.13.86.03,1.72.02,2.58,0,2.69-.03,4.28-1.56,4.51-4.26.03-.38.26-.85.55-1.08,1.13-.89,1.72-2,1.79-3.45.02-.44.28-.98.61-1.28,1.04-.93,1.64-2.02,1.6-3.43Zm-11.27,9.89c-.62.1-1.02-.2-.78-.98h3.76c.05.14.1.27.15.41-.76,1.17-2.09.4-3.13.57Zm4.75-4.65c-2.42.05-4.85.05-7.28,0-.29,0-.57-.38-.85-.59.06-.1.12-.2.17-.31h8.55c.06.09.13.18.19.27-.26.22-.52.61-.79.62Zm2.08-4.59c-3.88.04-7.75.04-11.63,0-.31,0-.62-.4-.93-.62.06-.11.12-.21.18-.32h13.13c.07.12.14.23.22.35-.32.21-.64.59-.97.59Zm-6.4-4.66v-11.88h1.17v11.88h-1.17Zm5.69-18.33c.45-.2,1.33-.04,1.66.3.33.34.46,1.24.24,1.68-.56,1.12-1.67.8-2.72.71-.04-1.05-.34-2.18.83-2.69Zm1.76,18.3h-2.55v-11.9c2.15.05,4.31-.17,5.52-2.2.58-.97.97-2.24.92-3.35-.11-2.68-2.35-4.64-4.96-4.66-3.11-.03-4.66,1.87-5.27,6.51h-1.17c.09-2.19-.16-4.32-2.19-5.53-.97-.58-2.24-.94-3.36-.92-2.46.04-4.47,2.2-4.62,4.66-.11,1.76.45,3.39,1.95,4.28,1.32.78,2.92,1.07,4.57,1.64v11.48h-2.42c-.35-1.63-.51-3.31-1.08-4.82-.83-2.19-1.86-4.31-2.98-6.37-2.46-4.5-2.07-9.71,1.15-13.74,3.12-3.9,8.42-5.53,13.22-4.07,4.82,1.47,8.27,5.74,8.72,10.73.22,2.5-.19,4.84-1.52,6.98-2.14,3.44-3.63,7.11-3.94,11.27Zm-11.21-15.63c-1.88.25-2.79-.17-2.88-1.29-.07-.84.65-1.61,1.49-1.61,1.18,0,1.64.93,1.39,2.89Z"/>
      <path class="cls-1" d="m11.01,23.62c-1.07-.73-2.2-1.4-3.37-1.95-.83-.39-1.64-.07-2.11.74-.5.85-.39,1.72.41,2.29,1.03.72,2.13,1.37,3.27,1.9,1.21.57,2.54-.36,2.5-1.91-.14-.23-.32-.8-.7-1.06Z"/>
      <path class="cls-1" d="m28.61,16.05c.91-.08,1.51-.62,1.59-1.58.05-.59,0-1.19,0-1.78h0c0-.67.06-1.35-.02-2.01-.1-.88-.67-1.4-1.55-1.48-.93-.08-1.73.33-1.83,1.25-.15,1.43-.15,2.89,0,4.32.09.93.9,1.36,1.81,1.28Z"/>
      <path class="cls-1" d="m47.74,26.58c1.09-.55,2.17-1.16,3.17-1.86.41-.28.6-.87.76-1.11-.02-1.59-1.34-2.45-2.55-1.87-1.07.52-2.1,1.13-3.1,1.77-.86.56-1.06,1.52-.6,2.34.46.81,1.43,1.17,2.31.73Z"/>
      <path class="cls-1" d="m16.23,18.06c.56.88,1.59,1.11,2.43.62.83-.48,1.12-1.47.62-2.43-.52-.99-1.05-1.98-1.69-2.88-.31-.44-.88-.7-1.1-.87-1.71-.04-2.6,1.3-1.98,2.56.5,1.03,1.1,2.02,1.72,2.99Z"/>
      <path class="cls-1" d="m38.23,18.67c.86.52,1.91.26,2.5-.68.57-.91,1.1-1.85,1.61-2.8.15-.28.2-.63.39-1.23-.38-.4-.76-1.04-1.31-1.32-.75-.38-1.57-.14-2.05.62-.62.97-1.2,1.97-1.74,2.98-.51.96-.24,1.93.6,2.43Z"/>
    </g>
  </g>
</svg>