<?xml version="1.0" encoding="UTF-8"?>
<svg id="Camada_2" data-name="Camada 2" xmlns="http://www.w3.org/2000/svg" viewBox="0 0 112.67 112.71">
  <defs>
    <style>
      .cls-1 {
        fill: #2e303d;
      }
    </style>
  </defs>
  <g id="Camada_1-2" data-name="Camada 1">
    <g>
      <path class="cls-1" d="m111.76,73.63c-.71-1.64-1.31-3.33-1.86-5.04-1.06-3.27-1.93-6.61-3.09-9.84-2.49-6.92-6.23-13.25-9.66-19.72-1.38-2.61-3.83-3.7-6.73-3.53-2.97.18-5.2,1.62-6.45,4.41-.13.29-.27.57-.41.89-2.06-.57-3.99-.46-5.83.51-1.88.98-3.06,2.55-3.77,4.55-3.58-.92-6.47.08-8.87,3.13v-1.49c0-4.7,0-9.39,0-14.09,0-8.81,0-17.61,0-26.42,0-3.54-1.59-5.68-4.95-6.79-.09-.03-.17-.12-.25-.19H19.59c-.78.55-1.26,1.22-.92,2.23.34,1.01,1.16,1.08,2.05,1.08,12.35,0,24.71,0,37.06,0,2.88,0,3.99,1.11,4,3.98,0,1.28,0,2.55,0,3.9H3.36c0-1.78-.12-3.57.04-5.33.13-1.48,1.47-2.48,3.02-2.53,1.32-.04,2.64-.03,3.96,0,.9.01,1.7-.1,2.03-1.1.34-1.02-.16-1.68-.96-2.2h-6.16C2.54.78.79,2.55,0,5.28v102.15c1.78,4.3,3.27,5.28,8.01,5.28,16.62,0,33.23,0,49.85,0,4.61,0,7.21-2.61,7.22-7.24,0-6.02,0-12.03,0-18.05v-1.52c1.68.83,3.15,1.63,4.68,2.29,2.21.96,3.78,2.47,4.96,4.6,2.54,4.6,8.43,6.69,13.22,4.56,3.71-1.65,7.26-3.67,10.83-5.6.43-.23.83-1.01.79-1.5-.04-.51-.54-1.17-1.02-1.39-.43-.2-1.15-.01-1.63.23-3.14,1.59-6.22,3.28-9.36,4.86-3.89,1.97-8.12.68-10.18-3.14-1.31-2.42-3.19-4.13-5.64-5.34-8.09-3.96-16.16-7.97-24.23-11.98-2.24-1.11-2.96-3.34-1.85-5.56,1.1-2.21,3.27-2.89,5.55-1.74.23.12.46.23.68.35,2.63,1.38,5.23,2.81,7.9,4.1.52.25,1.39.18,1.91-.1.37-.2.57-.97.59-1.5.02-.42-.3-.88-.52-1.3-4.99-9.54-9.99-19.09-14.99-28.63-.24-.45-.49-.91-.66-1.39-.78-2.17.26-4.53,2.39-5.48,2-.89,3.8-.16,5,2.05.16.29.31.58.46.88,4.44,8.47,8.87,16.94,13.32,25.41.63,1.2,1.42,1.52,2.38,1.02.96-.49,1.16-1.35.56-2.52-.77-1.5-1.55-2.99-2.35-4.48-.51-.96-.6-1.94-.26-2.97.51-1.52,2.01-2.7,3.61-2.81,1.67-.11,2.87.5,3.6,2.1.7,1.53,1.54,3,2.33,4.49.62,1.17,1.42,1.5,2.39,1.01.96-.48,1.15-1.35.54-2.53-.89-1.72-1.84-3.42-2.68-5.17-.25-.52-.33-1.21-.22-1.78.36-1.8,2.02-3.12,3.86-3.18,1.47-.04,2.61.43,3.28,1.88.69,1.5,1.51,2.93,2.28,4.39.76,1.45,1.51,1.84,2.54,1.34,1.07-.52,1.17-1.37.36-2.92-.8-1.53-1.56-3.07-2.41-4.57-.56-.98-.47-1.9-.02-2.83.73-1.47,1.98-2.23,3.6-2.33,1.66-.1,2.93.6,3.71,2.07,1.71,3.2,3.37,6.42,5.06,9.63,2.76,5.23,4.94,10.7,6.59,16.38.75,2.59,1.48,5.22,2.53,7.7,1.66,3.91.66,7.68-2.94,9.95-1.09.69-1.36,1.45-.84,2.36.53.94,1.42,1.1,2.55.45,4.72-2.7,6.61-8.64,4.42-13.66Zm-50.02,32.68c-.04,1.92-1.38,3.09-3.3,3.09-17.27.01-34.54.01-51.8,0-1.82,0-3.25-1.17-3.28-2.88-.08-4.06-.02-8.13-.02-12.31h58.26c.07.1.16.16.16.21.01,3.96.08,7.92,0,11.88Zm-15.72-43.24c-3.83,1.78-5.38,6.27-3.44,10.03.38.74.22,1.08-.32,1.54-4.7,3.94-9.96,4.94-15.58,2.45-5.67-2.51-8.4-7.15-8.64-12.13.03-8.81,5.86-14.95,13.68-15.58,7.13-.58,13.93,4.89,15.15,12.13.13.81-.05,1.2-.84,1.56Zm8.42-37.18c-.07,1.37-.02,2.75-.02,4.21-6.3-4.09-13.02,1.3-11.99,7.49h-1.08c-9.75,0-19.5,0-29.25,0-1.45,0-1.48-.03-1.48-1.48,0-3.37.03-6.75-.02-10.12-.01-.99.28-1.34,1.32-1.34,13.75.03,27.49.03,41.24,0,.94,0,1.33.25,1.28,1.24Zm7.25,16.91c-1.12-2.12-2.03-3.97-3.06-5.76-.68-1.19-.97-2.38-.93-3.76.08-2.6.04-5.21.02-7.81-.02-2.55-1.59-4.1-4.14-4.1-14.01,0-28.02,0-42.03,0-2.59,0-4.2,1.58-4.21,4.17-.02,3.71-.02,7.41,0,11.12.01,2.65,1.6,4.23,4.27,4.23,10.27,0,20.54.03,30.81-.03,1.21,0,1.77.39,2.31,1.44,3.72,7.23,7.52,14.42,11.29,21.63.2.37.37.76.68,1.39-.63-.3-1.01-.48-1.38-.67-1.14-.58-2.23-1.36-3.44-1.7-1.3-.36-1.67-1.05-1.9-2.3-1.56-8.51-8.94-14.62-17.49-14.59-8.52.03-15.87,6.15-17.47,14.54-1.42,7.46,2.16,15.09,8.85,18.83,6.67,3.73,14.95,2.77,20.65-2.4.3-.27.59-.54.8-.74,5.33,2.58,10.6,5.13,15.86,7.71.25.12.55.45.56.69.04,2.01.03,4.02.03,6.11H3.36V14.62h58.32v28.19Z"/>
      <path class="cls-1" d="m37.35,97.38c-3.19-.09-6.38-.06-9.57,0-2.7.05-4.42,1.85-4.39,4.46.03,2.59,1.7,4.27,4.38,4.35,1.58.04,3.15,0,4.73,0,0-.01,0-.03,0-.04,1.8,0,3.59.04,5.39-.01,1.34-.04,2.37-.7,3.08-1.84,1.91-3.07-.02-6.83-3.61-6.93Zm-.19,5.52c-1.57,0-3.15,0-4.72,0-1.5,0-3,0-4.5,0-.74,0-1.32-.22-1.33-1.1,0-.86.56-1.13,1.3-1.13,3.07,0,6.15,0,9.22,0,.75,0,1.33.29,1.34,1.12.01.83-.56,1.12-1.32,1.12Z"/>
      <path class="cls-1" d="m34.57,62.86c-1.17-.57-2.37-1.08-3.49-1.73-1.52-.89-1.44-2.67.11-3.56,1.24-.71,2.62-.3,3.44,1.01.58.92,1.59,1.21,2.46.7.86-.51,1.1-1.55.57-2.5-.59-1.05-1.4-1.91-2.5-2.4-.65-.29-.98-.59-.99-1.37-.01-.86-.83-1.48-1.69-1.48-.87,0-1.71.62-1.7,1.46,0,.79-.31,1.16-1,1.34-.07.02-.13.06-.2.1-3.52,1.88-4.21,6.5-1.28,8.98.85.72,1.92,1.2,2.91,1.75.94.52,1.94.95,2.87,1.49.57.32.88.87.87,1.4,0,.87-.29,1.44-.82,1.89-1.23,1.05-2.91.73-3.8-.72-.58-.94-1.58-1.24-2.45-.74-.89.51-1.13,1.55-.57,2.53.65,1.16,1.57,2.03,2.8,2.53.46.19.63.39.63.91-.01,1.03.73,1.76,1.7,1.78.97.02,1.78-.69,1.77-1.71,0-.61.26-.79.74-1,3.41-1.48,4.63-5.74,2.46-8.55-.75-.97-1.74-1.61-2.82-2.14Z"/>
    </g>
  </g>
</svg>