<?xml version="1.0" encoding="UTF-8"?>
<svg id="Camada_2" data-name="Camada 2" xmlns="http://www.w3.org/2000/svg" viewBox="0 0 101.62 103.19">
  <defs>
    <style>
      .cls-1 {
        fill: #2e303d;
      }
    </style>
  </defs>
  <g id="Camada_1-2" data-name="Camada 1">
    <g>
      <path class="cls-1" d="m100.9,44.09c-2.9-17.04-12.41-29.47-27.76-37.42-.63-.33-1.28-.62-2.09-1.01,1.66-.7,3.15-1.3,4.6-1.97,1.04-.48,1.41-1.55.98-2.52-.42-.96-1.41-1.44-2.42-1.03-3.11,1.26-6.2,2.55-9.28,3.87-1.02.44-1.43,1.4-1.02,2.42,1.25,3.11,2.55,6.2,3.87,9.28.43.98,1.5,1.35,2.46.97.9-.35,1.37-1.31,1.12-2.31-.08-.32-.22-.63-.35-.94-.56-1.35-1.12-2.7-1.75-4.22.36.14.54.19.71.27,19.51,8.72,30.18,29.1,27.27,49.43-1.58,11-6.42,20.38-14.64,27.85-11.55,10.49-25.15,14.34-40.53,11.68-6.09-1.05-11.69-3.44-16.88-6.79-1.1-.71-2.22-.49-2.84.45-.65.99-.36,2.09.78,2.83,5.78,3.76,12.06,6.28,18.86,7.44,1.91.33,3.85.53,5.77.8h6.25c.29-.06.58-.14.87-.18,2.12-.3,4.28-.46,6.37-.91,26.62-5.63,44.2-31.17,39.63-58.01Z"/>
      <path class="cls-1" d="m20.68,78.71c-.08-1.1-.9-1.83-1.91-1.84-1.01,0-1.81.72-1.95,1.8-.04.33-.03.67-.03,1.01,0,1.54,0,3.08,0,4.62l-.25.13c-.21-.25-.41-.51-.63-.75-7.53-8.52-11.6-18.46-12-29.81-.35-9.92,2.24-19.08,7.76-27.33,6.78-10.13,16.12-16.73,27.95-19.72,6.13-1.55,12.33-1.77,18.58-.82,1.36.21,2.32-.41,2.52-1.55.21-1.2-.5-2.07-1.94-2.29-5.72-.88-11.44-.81-17.14.22C18.63,6.53,1.11,26.38.06,49.67c-.63,14.08,3.81,26.4,13.23,36.91.16.18.3.4.52.7-1.82,0-3.5-.01-5.18,0-1.37.01-2.2.76-2.2,1.95,0,1.19.8,1.92,2.21,1.93,3.26.02,6.51.02,9.77,0,1.62,0,2.3-.72,2.31-2.37.02-2.35,0-4.7,0-7.05,0-1.01.04-2.02-.03-3.02Z"/>
      <path class="cls-1" d="m45.22,34.93c3.68-.05,7.36-.05,11.03,0,2.8.03,3.72,1.04,3.86,3.92.05,1.01.09,2.08.43,3.01.78,2.18,2.52,3.28,4.77,3.16,2.34-.13,4-1.41,4.54-3.82,1.53-6.84-2.77-13.99-9.52-15.76-1.39-.36-2.85-.46-4.24-.67-1.08-6.33-2.03-7.91-5.09-7.86-5.3.09-5.08,4.24-5.36,7.87-.69.1-1.2.18-1.7.24-7.6.87-12.14,5.83-12.34,13.5-.04,1.45-.02,2.91,0,4.36.06,9.08,5.26,14.35,14.3,14.44,3.34.04,6.67-.02,10.01.02,3.19.04,4.16,1.01,4.2,4.11.02,1.62.01,3.25,0,4.87-.02,2.16-1.13,3.44-3.26,3.49-4.02.1-8.04.1-12.06,0-2.13-.05-3.19-1.33-3.27-3.49-.04-1.18-.07-2.43-.46-3.52-.78-2.16-2.52-3.27-4.79-3.11-2.36.16-3.98,1.48-4.49,3.87-1.53,7.1,3,14.25,10.07,15.85,1.23.28,2.5.33,3.72.48.96,6.33,2.1,8,5.32,7.96,3.28-.04,4.45-1.81,5.14-8.02.54-.06.95-.11,1.36-.14,7.39-.56,12.28-5.55,12.62-12.94.09-1.88.06-3.76.03-5.64-.17-8.35-5.58-13.67-13.98-13.74-3.68-.03-7.35,0-11.03-.02-2.3-.01-3.47-1.21-3.49-3.5-.02-1.8-.05-3.59,0-5.39.08-2.48,1.13-3.5,3.69-3.54Z"/>
    </g>
  </g>
</svg>