<?xml version="1.0" encoding="UTF-8"?>
<svg id="Camada_2" data-name="Camada 2" xmlns="http://www.w3.org/2000/svg" viewBox="0 0 98.66 110.59">
  <defs>
    <style>
      .cls-1 {
        fill: #2e303d;
      }
    </style>
  </defs>
  <g id="Camada_1-2" data-name="Camada 1">
    <g>
      <path class="cls-1" d="m98.62,12.99c-.02-1.89-1.4-3.22-3.3-3.33-1.11-.06-2.23-.02-3.35-.03-1.02,0-2.05,0-3.12,0,0-1.27,0-2.34,0-3.42-.02-3.54-2.59-6.2-5.96-6.2-3.37,0-5.91,2.66-5.94,6.21,0,1.1,0,2.2,0,3.31h-10.49c0-1.18.05-2.26-.02-3.33-.05-.81-.14-1.67-.42-2.42-.97-2.6-3.72-4.15-6.39-3.71-2.92.49-4.98,2.84-5.08,5.85-.04,1.21,0,2.41,0,3.63h-10.43c0-.55.02-1.01,0-1.47-.04-1.11.01-2.24-.18-3.33C43.41,1.85,40.71-.16,37.73.03c-2.93.18-5.35,2.58-5.5,5.53-.07,1.32-.01,2.64-.01,3.99h-10.52c0-1.2.01-2.32,0-3.43C21.67,2.65,19.1.02,15.77.02c-3.33,0-5.92,2.65-5.96,6.1-.01,1.14,0,2.28,0,3.53-2.13,0-4.14-.03-6.15,0-2.17.04-3.61,1.36-3.63,3.45-.04,6.05-.06,12.09.03,18.14.01.84.48,1.84,1.06,2.47.57.62.77,1.17.77,1.96-.02,18.47-.02,36.93-.01,55.4,0,4.71,2.9,7.6,7.61,7.6,3.28,0,6.55,0,9.83,0h1.42c.95,2.84,1.93,3.55,4.78,3.55,4.86,0,9.72,0,14.58,0h1.2c.07.53.11.96.17,1.38.48,3.25,2.28,5.43,5.35,6.57.4.15.8.28,1.2.42h2.59c.33-.12.66-.24.99-.35,2.82-.92,4.62-2.83,5.39-5.68.2-.72.24-1.48.37-2.33h1.18c5.04,0,10.08,0,15.12,0,2.17,0,3.43-.96,4.04-3.01.05-.17.13-.32.21-.54,3.8,0,7.57.02,11.35-.01.82,0,1.66-.08,2.45-.3,3.19-.88,5.06-3.6,5.06-7.29,0-18.5,0-37,0-55.51,0-.71.16-1.21.69-1.78.59-.63,1.11-1.61,1.13-2.44.09-6.12.08-12.24.03-18.36Zm-18.42-6.89c.03-1.68,1.19-2.87,2.74-2.85,1.51.02,2.66,1.19,2.67,2.81.03,3.02.03,6.05,0,9.07-.02,1.61-1.18,2.78-2.69,2.79-1.51.01-2.68-1.16-2.71-2.76-.03-1.55,0-3.1,0-4.64,0-1.48-.02-2.95,0-4.43Zm-22.4-.02c.02-1.69,1.23-2.86,2.77-2.83,1.51.03,2.6,1.17,2.64,2.83.04,1.51,0,3.02,0,4.53,0,1.48.03,2.95,0,4.43-.04,1.72-1.16,2.89-2.7,2.88-1.54,0-2.7-1.18-2.72-2.89-.03-2.99-.04-5.97,0-8.96Zm-22.35.03c.04-1.67,1.11-2.81,2.61-2.85,1.55-.04,2.77,1.11,2.8,2.8.05,3.02.05,6.04,0,9.07-.03,1.69-1.25,2.85-2.8,2.8-1.51-.04-2.55-1.19-2.62-2.86,0-.07,0-.14,0-.22,0-1.44,0-2.88,0-4.32,0-1.48-.02-2.95,0-4.43Zm-22.39-.08c.02-1.61,1.2-2.77,2.7-2.78,1.51,0,2.67,1.16,2.7,2.77.03,1.51,0,3.02,0,4.53,0,1.51.02,3.02,0,4.53-.03,1.63-1.14,2.8-2.65,2.83-1.55.03-2.75-1.16-2.76-2.83-.03-3.02-.03-6.05,0-9.07Zm-8.86,6.83c1.83.05,3.66.01,5.61.01,0,.88-.02,1.66,0,2.44.08,3.27,2.73,5.87,5.98,5.86,3.21,0,5.82-2.57,5.91-5.8.02-.78,0-1.57,0-2.42h10.5c0,.68,0,1.35,0,2.01.05,3.59,2.56,6.21,5.93,6.21,3.37,0,5.93-2.66,5.98-6.2,0-.64,0-1.28,0-2.01h10.43c0,.69-.01,1.4,0,2.1.06,3.47,2.64,6.1,5.96,6.11,3.34,0,5.87-2.58,5.95-6.09q.05-2.21,2.32-2.21h8.19c0,.96-.02,1.78,0,2.59.1,3.15,2.73,5.69,5.89,5.71,3.16.02,5.83-2.48,5.98-5.62.04-.85,0-1.71,0-2.66,2.1,0,4.07-.01,6.03.02.18,0,.5.33.5.51.03,3.66.02,7.33.02,11.05H3.25c0-.73,0-1.41,0-2.08,0-2.84.02-5.69-.01-8.53,0-.73.19-1.02.96-1Zm47.72,93.68c-1.61,1.07-3.32,1.12-4.97.13-1.61-.96-2.34-2.43-2.29-4.38h9.34c.06,1.84-.6,3.26-2.08,4.25Zm22.62-8.31c-.01.26-.42.57-.71.72-.23.12-.56.03-.85.03-15.77,0-31.53,0-47.3,0q-1.6,0-1.6-1.61c0-1.12.01-2.23.02-3.35,0-.06.05-.13.14-.32h1.2c6.41,0,12.81,0,19.22,0,.43,0,.88-.01,1.27-.14.79-.26,1.25-.92.98-1.67-.19-.54-.78-1-1.29-1.36-.24-.17-.7-.06-1.06-.06-5.58,0-11.16,0-16.74,0h-1.43c.42-.51.7-.86.98-1.2,2.95-3.54,5.28-7.42,5.82-12.07.3-2.6.12-5.25.25-7.87.11-2.29.05-4.65.58-6.85,1.73-7.2,8.7-12.27,15.92-11.83,7.79.47,14.1,6.05,15.07,13.57.32,2.52.34,5.11.18,7.65-.44,6.93,1.96,12.76,6.46,17.86.16.18.28.38.53.74h-1.31c-5.72,0-11.45,0-17.17,0-.36,0-.73-.02-1.08.04-.81.13-1.29.63-1.35,1.44-.07.82.32,1.4,1.11,1.63.4.12.85.12,1.28.12,6.51,0,13.03,0,19.54,0h1.36c0,1.6.04,3.07-.03,4.53Zm-27.72-54.71c1.53-1.03,3.18-1.08,4.77-.15,1.67.98,2.38,2.49,2.27,4.25h-9.06c-.15-1.61.5-3.09,2.02-4.11Zm48.56-12.62c-.02.22-.38.49-.65.6-.25.1-.57.02-.85.02h-39.95c-.18,0-.36,0-.54,0-1.56,0-2.32.53-2.32,1.61,0,1.08.78,1.63,2.32,1.63,12.92,0,25.84,0,38.76,0h1.39v1.27c0,18.28,0,36.57,0,54.85,0,3.16-1.39,4.54-4.54,4.54-3.67,0-7.33,0-11.18,0,0-.66-.06-1.26.01-1.84.19-1.52-.45-2.57-1.49-3.7-1.97-2.13-3.82-4.4-5.43-6.8-1.78-2.65-2.47-5.71-2.45-8.92.02-2.95.11-5.91-.1-8.85-.49-7.04-3.97-12.26-10.12-15.67-.9-.5-1.17-1-1.16-1.97.03-4.09-2.38-7.17-6.17-8-4.64-1.01-9.27,2.53-9.32,7.27-.02,1.48-.4,2.26-1.76,3.05-6.38,3.75-9.53,9.46-9.63,16.85-.03,2.05-.09,4.11.01,6.15.27,5.42-1.73,9.98-5.17,14.01-.98,1.15-2.01,2.26-3.11,3.29-.81.75-1.2,1.56-1.11,2.66.07.78.01,1.56.01,2.4-.39.03-.67.06-.95.06-3.56,0-7.13.01-10.69,0-2.47-.01-4.06-1.5-4.06-3.92-.02-18.72,0-37.43,0-56.15,0-.14.03-.28.06-.59h1.24c12.6,0,25.19,0,37.79,0,.4,0,.8.04,1.18-.04.88-.18,1.41-.72,1.36-1.66-.05-.93-.59-1.43-1.5-1.52-.36-.03-.72-.01-1.08-.01-13.21,0-26.42-.01-39.63.02-1.01,0-1.45-.22-1.33-1.29.08-.77.02-1.56.02-2.41h92.16c0,1.07.04,2.07-.03,3.06Z"/>
      <path class="cls-1" d="m69.96,43.52c.96.41,1.93.8,2.82,1.33,6.76,3.95,9.8,11.78,7.59,19.47-.38,1.33-.05,2.18.95,2.46,1.02.29,1.81-.21,2.13-1.56.44-1.92.75-3.86,1.12-5.8-.09-.01-.18-.03-.27-.04,0-.54.03-1.08,0-1.62-.03-.5-.1-1-.19-1.5-1.43-7.66-5.74-12.94-13.02-15.77-1.17-.46-2.05-.09-2.4.89-.32.91.14,1.65,1.27,2.14Z"/>
      <path class="cls-1" d="m28.83,43.46c1.06-.4,1.47-1.21,1.14-2.1-.34-.91-1.15-1.26-2.21-.94-.24.07-.48.16-.71.25-7.7,3.01-12.74,10.42-12.99,18.74.42,2.07.78,4.15,1.27,6.19.26,1.06,1.16,1.47,2.08,1.16.85-.28,1.23-1.08.99-2.1-.06-.24-.15-.48-.21-.72-1.61-6.25-.19-11.73,4.23-16.42,1.78-1.89,3.98-3.15,6.41-4.06Z"/>
      <path class="cls-1" d="m67.61,49.87c4.64,1.5,8.03,6.97,6.25,12.58-.33,1.04.12,1.9,1.01,2.16.92.28,1.78-.17,2.06-1.22.34-1.32.54-2.67.8-4-.13-5.58-3.79-10.76-8.96-12.51-1.04-.35-1.87-.03-2.23.86-.36.88.01,1.79,1.07,2.13Z"/>
      <path class="cls-1" d="m30.87,46.5c-.07.06-.14.13-.21.19-.11.01-.22,0-.32.04-.27.08-.55.17-.82.28-3.7,1.51-6.26,4.13-7.64,7.88-1.03,2.8-1.05,5.63-.17,8.47.33,1.06,1.11,1.52,2.04,1.27.91-.25,1.33-1.08,1.08-2.14-.04-.17-.09-.35-.14-.52-1.32-4.97,1.17-9.95,5.93-11.89.33-.13.79-.23.94-.49.3-.52.67-1.2.55-1.69-.14-.54-.8-.94-1.24-1.4Z"/>
    </g>
  </g>
</svg>