<?xml version="1.0" encoding="UTF-8"?>
<svg id="Camada_2" data-name="Camada 2" xmlns="http://www.w3.org/2000/svg" viewBox="0 0 115.27 115.28">
  <defs>
    <style>
      .cls-1 {
        fill: #2e303d;
      }
    </style>
  </defs>
  <g id="Camada_1-2" data-name="Camada 1">
    <g>
      <path class="cls-1" d="m112.38,90.61c-2.28-3.19-5.33-5.28-9.17-6.17-4.94-1.15-9.38.02-13.23,2.88-2.1-2.09-4.12-4.11-6.2-6.18,5.48-6.16,8.49-13.49,9-21.87,2.32,0,4.5,0,6.67,0,.27,0,.54.03.79.04,1.61,5.02,5.62,6.29,8.81,5.76,3.38-.56,6.05-3.63,6.19-7.08.15-3.63-2.18-6.78-5.72-7.68-1.67-.43-3.32-.3-4.9.41-2.31,1.04-3.68,2.89-4.36,5.22h-7.51c-.49-8.39-3.56-15.7-8.98-21.83,2.11-2.1,4.14-4.11,6.19-6.14,7.8,5.79,17.05,3.33,21.76-2.46,4.99-6.14,4.65-15-.79-20.67-5.51-5.74-14.2-6.45-20.6-1.79-5.64,4.1-9.38,13.63-3.04,22.3-2.04,2.04-4.06,4.06-6.13,6.14-6.17-5.48-13.49-8.52-21.86-9.02v-7.45c4.56-1.98,6.5-5,5.76-8.93C64.42,2.67,61.31.06,57.79,0c-3.6-.06-6.74,2.4-7.54,5.92-.89,3.9.99,6.91,5.71,9.15v7.43c-8.38.49-15.7,3.55-21.89,9.04-2.06-2.07-4.07-4.07-6.13-6.15,5.99-8.13,3.15-17.34-2.38-21.85C19.61-1.3,11.01-1.17,5.32,3.9-.49,9.09-1.7,17.56,2.48,24.03c2.08,3.22,4.95,5.45,8.64,6.54,5.25,1.56,10.04.45,14.26-2.67,2.1,2.09,4.1,4.1,6.17,6.17-5.51,6.18-8.55,13.5-9.04,21.87h-7.5c-1.49-4.74-5.34-6.33-8.85-5.74C2.73,50.79.09,53.93.02,57.44c-.07,3.65,2.44,6.84,5.99,7.6,3.91.84,7.07-1.16,9.02-5.69h7.49c.49,8.39,3.55,15.67,8.99,21.81-2.07,2.07-4.1,4.1-6.13,6.14-8.69-6.33-18.03-2.57-22.08,2.76-4.71,6.2-4.3,14.83,1.08,20.39,5.39,5.58,13.94,6.44,20.22,2,3.13-2.21,5.24-5.19,6.18-8.91,1.27-5.04.14-9.61-2.79-13.53,2.11-2.1,4.14-4.12,6.21-6.18,6.13,5.45,13.46,8.45,21.77,8.96v7.48c-4.83,1.53-6.27,5.39-5.78,8.71.5,3.36,3.54,6.1,6.99,6.29,3.58.2,6.75-2.06,7.72-5.51.48-1.71.39-3.39-.31-5.02-1.02-2.36-2.89-3.77-5.25-4.44v-7.52c8.4-.49,15.7-3.57,21.78-8.95,2.11,2.13,4.13,4.15,6.16,6.19-5.59,7.47-3.54,16.68,2.31,21.59,6,5.04,14.84,4.86,20.59-.43,5.84-5.38,6.8-14.16,2.21-20.56Zm-4.63-37.25c2.38.02,4.27,1.94,4.25,4.32-.02,2.37-1.96,4.25-4.34,4.23-2.38-.02-4.29-1.96-4.26-4.32.03-2.36,1.97-4.24,4.35-4.23Zm-20.47-37.71c-.01-6.82,5.55-12.39,12.36-12.39,6.81,0,12.37,5.58,12.36,12.4-.01,6.8-5.62,12.36-12.42,12.33-6.76-.03-12.29-5.58-12.3-12.34ZM15.53,28c-6.75-.06-12.26-5.63-12.25-12.39.01-6.81,5.6-12.36,12.42-12.34,6.8.03,12.35,5.63,12.31,12.45-.04,6.8-5.66,12.34-12.48,12.28Zm-8,33.91c-2.38-.02-4.27-1.94-4.25-4.32.02-2.37,1.95-4.25,4.34-4.23,2.38.02,4.29,1.96,4.26,4.31-.03,2.37-1.97,4.25-4.35,4.23Zm20.47,37.81c-.04,6.8-5.66,12.34-12.47,12.29-6.75-.05-12.26-5.62-12.25-12.39,0-6.81,5.59-12.37,12.41-12.34,6.81.02,12.35,5.62,12.31,12.44ZM53.36,7.54c0-2.38,1.92-4.29,4.29-4.28,2.37,0,4.27,1.93,4.26,4.31,0,2.38-1.94,4.3-4.29,4.29-2.36-.01-4.26-1.94-4.26-4.33Zm8.55,100.18c0,2.38-1.92,4.29-4.29,4.28-2.37,0-4.27-1.93-4.26-4.31,0-2.38,1.93-4.3,4.29-4.29,2.36.01,4.27,1.94,4.26,4.32Zm-3.52-18.19c-17.38.58-32.06-13.44-32.64-31.15-.57-17.4,13.43-32.08,31.14-32.65,17.41-.56,32.03,13.39,32.64,31.15.6,17.38-13.4,32.06-31.14,32.65Zm41.19,22.47c-6.76-.03-12.29-5.58-12.3-12.34-.01-6.82,5.55-12.39,12.36-12.39s12.38,5.58,12.36,12.39c-.01,6.8-5.61,12.37-12.42,12.34Z"/>
      <path class="cls-1" d="m72.62,49.72c-.67-.22-.79-.55-.79-1.17.03-2.25.03-4.51,0-6.77-.03-2.74-1.8-4.84-4.29-5.13-2.61-.3-4.77,1.33-5.44,4.05-.09.36-.34.85-.64.97-2.85,1.21-5.66,2.59-8.61,3.47-2.95.87-5.91,1.84-9.18,1.16-2.08-.44-4.34-.15-6.51-.05-4.31.2-7.67,3.49-8.14,7.87-.43,3.96,2.28,7.86,6.28,8.98.67.19,1.35.29,2.08.44.07.48.14.94.2,1.4.44,3.66.84,7.33,1.34,10.99.25,1.84,1.59,2.85,3.32,2.7,3.21-.28,4.82-1.44,4.85-3.49,0-.12,0-.23-.02-.35-.17-1.47-.35-2.93-.52-4.4-.28-2.42-.55-4.84-.84-7.39,5.68.82,11,2.23,15.87,5.05.25.14.45.51.52.8.73,2.85,2.84,4.48,5.45,4.16,2.59-.32,4.28-2.43,4.29-5.37,0-2.18.02-4.35,0-6.53,0-.62.12-.94.79-1.17,2.35-.78,3.74-2.71,3.76-5.06.02-2.4-1.37-4.37-3.77-5.17Zm-35.31,10.44c-2.89-.17-5.1-2.58-5.05-5.39.05-2.84,2.29-5.15,5.18-5.27,1.55-.06,3.1-.01,4.74-.01v10.68c-1.69,0-3.28.08-4.87-.02Zm4.79,15.16c-.47-3.99-.93-7.86-1.39-11.8h1.75c.44,3.75.88,7.54,1.33,11.44-.59.13-1.1.24-1.69.37Zm19.9-11.03c-2.68-.97-5.32-2.07-8.05-2.87-2.7-.79-5.5-1.27-8.34-1.9v-9.51c5.67-.77,11.15-2.19,16.39-4.84v19.12Zm6.59,3.02c0,.19,0,.39,0,.58-.05,1.16-.67,1.88-1.63,1.88-.97,0-1.6-.71-1.61-1.88-.01-3.26,0-6.53,0-9.79,0-1.09,0-2.18,0-3.26,0-4.2,0-8.39,0-12.59,0-.35-.12-.81.06-1.03.4-.5.93-1.19,1.44-1.23.51-.04,1.18.54,1.58,1.02.25.29.16.89.16,1.35,0,8.31,0,16.63,0,24.94Zm3.36-10.63v-3.62c1.57.92,1.6,2.49,0,3.62Z"/>
      <path class="cls-1" d="m82.09,63.06c-1.47-.93-2.98-1.8-4.52-2.62-.8-.43-1.54-.14-2.01.61-.46.75-.41,1.59.33,2.07,1.53.98,3.1,1.91,4.73,2.71,1.02.51,2.19-.39,2.17-1.78-.14-.21-.33-.75-.71-.99Z"/>
      <path class="cls-1" d="m76.6,49.45c.41-.07.54-.06.63-.12,1.71-.98,3.46-1.89,5.1-2.98.68-.45.71-1.41.11-1.96-.43-.4-1.35-.75-1.79-.55-1.65.76-3.23,1.68-4.73,2.71-.39.27-.61,1.21-.47,1.72.14.51.83.87,1.15,1.17Z"/>
      <path class="cls-1" d="m84.64,53.21c-.73-.04-1.47,0-2.2,0-.81,0-1.63-.04-2.44,0-.99.06-1.6.6-1.6,1.62,0,1.02.62,1.58,1.6,1.62,1.55.05,3.09.05,4.64,0,.99-.03,1.57-.63,1.63-1.62.05-.87-.67-1.56-1.63-1.61Z"/>
      <path class="cls-1" d="m16.63,14.17c-.5-.08-1.01-.09-1.5-.17-1.23-.18-2.09-1.07-2.09-2.13,0-1.11.92-2.01,2.22-2.12,1.2-.1,2.19.35,3.04,1.19.68.67,1.46.69,2.2.1.69-.54.82-1.6.14-2.28-.67-.67-1.48-1.26-2.33-1.67-.69-.33-1.1-.59-1.11-1.46-.01-.98-.68-1.58-1.69-1.52-.94.05-1.53.63-1.49,1.6.02.69-.22.99-.86,1.27-2.37,1.02-3.56,3.02-3.37,5.44.17,2.15,1.8,4.02,4.14,4.66.74.2,1.54.2,2.29.35,1.29.25,2.07,1.11,2.03,2.18-.03,1.08-.98,1.94-2.27,2.11-1.17.15-1.99-.45-2.8-1.16-.76-.66-1.57-.64-2.29.06-.65.63-.59,1.69.18,2.38.6.54,1.26,1.06,1.98,1.41.64.31,1.02.58,1.07,1.39.06.93.75,1.45,1.7,1.38.88-.07,1.4-.6,1.48-1.51.02-.27.03-.54.04-.83.23-.1.44-.2.65-.29,2.59-1.17,3.85-3.27,3.5-5.82-.31-2.25-2.3-4.12-4.85-4.54Z"/>
      <path class="cls-1" d="m97.91,17.06c.74.2,1.54.2,2.29.35,1.29.25,2.07,1.11,2.04,2.17-.03,1.09-.98,1.95-2.26,2.11-1.17.15-1.99-.43-2.8-1.15-.75-.67-1.57-.65-2.29.05-.65.63-.6,1.69.17,2.38.6.54,1.26,1.06,1.98,1.42.63.32,1.04.56,1.08,1.38.05.92.74,1.46,1.69,1.39.88-.07,1.41-.6,1.48-1.51.02-.27.03-.54.04-.84.26-.11.5-.22.75-.33,2.49-1.14,3.74-3.27,3.39-5.77-.3-2.21-2.27-4.1-4.73-4.52-.53-.09-1.08-.11-1.62-.19-1.23-.18-2.09-1.07-2.09-2.13,0-1.11.92-2.01,2.21-2.13,1.2-.11,2.19.35,3.04,1.18.68.67,1.46.7,2.2.11.69-.54.83-1.59.15-2.28-.67-.67-1.48-1.26-2.33-1.68-.69-.33-1.11-.58-1.11-1.46,0-.98-.68-1.58-1.69-1.53-.94.05-1.53.62-1.5,1.59.02.69-.21,1-.85,1.27-2.37,1.02-3.57,3.02-3.37,5.43.17,2.15,1.8,4.03,4.14,4.66Z"/>
      <path class="cls-1" d="m100.6,98.18c-.54-.09-1.09-.09-1.62-.18-1.16-.21-1.97-1.11-1.96-2.13,0-1.03.82-1.9,2-2.08,1.24-.19,2.29.23,3.17,1.09.72.7,1.5.79,2.29.16.72-.58.79-1.64.05-2.38-.62-.62-1.37-1.17-2.16-1.53-.72-.33-1.2-.57-1.21-1.51,0-.98-.69-1.57-1.71-1.51-.94.06-1.52.65-1.48,1.61.03.71-.25.99-.87,1.26-2.32,1.01-3.51,2.96-3.36,5.33.14,2.17,1.74,4.08,4.05,4.73.78.22,1.61.22,2.41.38,1.29.26,2.06,1.12,2.02,2.19-.04,1.08-1,1.94-2.28,2.09-1.11.13-1.92-.4-2.71-1.09-.84-.73-1.74-.69-2.39,0-.64.69-.55,1.72.28,2.47.52.46,1.08.92,1.69,1.22.72.35,1.25.65,1.3,1.61.05.87.79,1.33,1.68,1.25.88-.08,1.4-.62,1.47-1.53.02-.27.03-.54.04-.82.24-.11.45-.2.66-.3,2.57-1.16,3.84-3.28,3.48-5.83-.32-2.25-2.31-4.11-4.86-4.52Z"/>
      <path class="cls-1" d="m16.6,98.17c-.54-.09-1.09-.09-1.62-.18-1.16-.21-1.96-1.12-1.94-2.14.02-1.02.84-1.89,2.02-2.06,1.29-.19,2.34.29,3.26,1.18.69.67,1.49.69,2.2.05.71-.64.81-1.51.17-2.18-.65-.69-1.45-1.31-2.3-1.71-.74-.35-1.18-.61-1.19-1.53-.01-.92-.65-1.52-1.61-1.5-1,.02-1.62.61-1.58,1.63.03.73-.28.98-.89,1.25-2.31,1.01-3.5,2.97-3.34,5.35.15,2.17,1.75,4.07,4.07,4.72.74.21,1.53.21,2.29.35,1.35.25,2.17,1.12,2.12,2.23-.05,1.12-1.09,2.16-2.41,2.02-.92-.1-1.84-.65-2.66-1.15-.86-.52-1.6-.58-2.31.14-.61.62-.58,1.64.14,2.29.63.57,1.32,1.11,2.07,1.49.59.3.99.51,1.02,1.29.04.93.69,1.51,1.64,1.47.99-.04,1.54-.64,1.57-1.67,0-.23.03-.46.04-.69.24-.11.45-.2.67-.3,2.53-1.14,3.78-3.2,3.48-5.72-.28-2.3-2.28-4.21-4.89-4.63Z"/>
    </g>
  </g>
</svg>