<?xml version="1.0" encoding="UTF-8"?>
<svg id="Camada_2" data-name="Camada 2" xmlns="http://www.w3.org/2000/svg" xmlns:xlink="http://www.w3.org/1999/xlink" viewBox="0 0 777.86 618.36">
  <defs>
    <style>
      .cls-1 {
        fill: url(#linear-gradient-2);
      }

      .cls-2 {
        fill: #fff;
      }

      .cls-3 {
        fill: url(#linear-gradient-17);
      }

      .cls-4 {
        fill: url(#linear-gradient-15);
      }

      .cls-5 {
        fill: url(#linear-gradient-18);
      }

      .cls-6 {
        fill: url(#linear-gradient-28);
      }

      .cls-7 {
        fill: url(#linear-gradient-14);
      }

      .cls-8 {
        fill: url(#linear-gradient-36);
      }

      .cls-9 {
        fill: url(#linear-gradient-20);
      }

      .cls-10 {
        fill: url(#linear-gradient-6);
      }

      .cls-11 {
        fill: url(#linear-gradient-35);
      }

      .cls-12 {
        fill: url(#linear-gradient-32);
      }

      .cls-13 {
        fill: url(#linear-gradient-11);
      }

      .cls-14 {
        fill: url(#linear-gradient-39);
      }

      .cls-15 {
        fill: url(#linear-gradient-10);
      }

      .cls-16 {
        fill: #91b3fa;
      }

      .cls-17 {
        fill: url(#linear-gradient-37);
      }

      .cls-18 {
        fill: url(#linear-gradient-16);
      }

      .cls-19 {
        fill: url(#linear-gradient-31);
      }

      .cls-20 {
        fill: #7d97f4;
      }

      .cls-21 {
        fill: url(#linear-gradient-21);
      }

      .cls-22 {
        fill: url(#linear-gradient-25);
      }

      .cls-23 {
        fill: url(#linear-gradient-5);
      }

      .cls-24 {
        fill: url(#linear-gradient-34);
      }

      .cls-25 {
        fill: #ffd110;
      }

      .cls-26 {
        fill: url(#linear-gradient-7);
      }

      .cls-27 {
        fill: url(#linear-gradient-24);
      }

      .cls-28 {
        fill: url(#linear-gradient-9);
      }

      .cls-29 {
        fill: url(#linear-gradient-22);
      }

      .cls-30 {
        fill: url(#linear-gradient-3);
      }

      .cls-31 {
        fill: url(#linear-gradient);
      }

      .cls-32 {
        fill: url(#linear-gradient-27);
      }

      .cls-33 {
        fill: url(#linear-gradient-33);
      }

      .cls-34 {
        fill: url(#linear-gradient-38);
      }

      .cls-35 {
        fill: url(#linear-gradient-29);
      }

      .cls-36 {
        fill: url(#linear-gradient-30);
      }

      .cls-37 {
        fill: #bdd0fb;
      }

      .cls-38 {
        fill: url(#linear-gradient-23);
      }

      .cls-39 {
        fill: url(#linear-gradient-19);
      }

      .cls-40 {
        fill: url(#linear-gradient-4);
      }

      .cls-41 {
        fill: url(#linear-gradient-8);
      }

      .cls-42 {
        fill: url(#linear-gradient-12);
      }

      .cls-43 {
        fill: url(#linear-gradient-13);
      }

      .cls-44 {
        fill: url(#linear-gradient-26);
      }
    </style>
    <linearGradient id="linear-gradient" x1="393.39" y1="195.96" x2="381.8" y2="272.41" gradientUnits="userSpaceOnUse">
      <stop offset="0" stop-color="#4042e2"/>
      <stop offset="1" stop-color="#4f52ff"/>
    </linearGradient>
    <linearGradient id="linear-gradient-2" x1="388.81" y1="230.38" x2="364.11" y2="320.39" gradientUnits="userSpaceOnUse">
      <stop offset="0" stop-color="#09005d"/>
      <stop offset="1" stop-color="#1a0f91"/>
    </linearGradient>
    <linearGradient id="linear-gradient-3" x1="387.9" y1="230.13" x2="363.19" y2="320.14" xlink:href="#linear-gradient-2"/>
    <linearGradient id="linear-gradient-4" x1="385.6" y1="229.5" x2="360.9" y2="319.51" xlink:href="#linear-gradient-2"/>
    <linearGradient id="linear-gradient-5" x1="384.99" y1="229.33" x2="360.28" y2="319.34" xlink:href="#linear-gradient-2"/>
    <linearGradient id="linear-gradient-6" x1="-1184.53" y1="554.12" x2="-1144.46" y2="554.12" gradientTransform="translate(-893.5) rotate(-180) scale(1 -1)" gradientUnits="userSpaceOnUse">
      <stop offset="0" stop-color="#ff928e"/>
      <stop offset="1" stop-color="#feb3b1"/>
    </linearGradient>
    <linearGradient id="linear-gradient-7" x1="-1231.03" y1="-19.48" x2="-1225.26" y2="31.02" gradientTransform="translate(-893.5) rotate(-180) scale(1 -1)" xlink:href="#linear-gradient-2"/>
    <linearGradient id="linear-gradient-8" x1="299.43" y1="594.52" x2="292.65" y2="545.12" gradientTransform="matrix(1,0,0,1,0,0)" xlink:href="#linear-gradient-6"/>
    <linearGradient id="linear-gradient-9" x1="-5878.33" y1="504.07" x2="-5829.28" y2="600.02" gradientTransform="translate(-5635.67) rotate(-180) scale(1 -1)" xlink:href="#linear-gradient-2"/>
    <linearGradient id="linear-gradient-10" x1="-1289.68" y1="-12.78" x2="-1283.91" y2="37.72" gradientTransform="translate(-893.5) rotate(-180) scale(1 -1)" xlink:href="#linear-gradient-2"/>
    <linearGradient id="linear-gradient-11" x1="-1137.69" y1="434.32" x2="-1092.76" y2="532.1" gradientTransform="translate(-893.5) rotate(-180) scale(1 -1)" xlink:href="#linear-gradient"/>
    <linearGradient id="linear-gradient-12" x1="250.36" y1="411.03" x2="241.81" y2="430.13" gradientTransform="matrix(1,0,0,1,0,0)" xlink:href="#linear-gradient-6"/>
    <linearGradient id="linear-gradient-13" x1="262.91" y1="382.07" x2="240.03" y2="410.98" gradientTransform="matrix(1,0,0,1,0,0)" xlink:href="#linear-gradient-6"/>
    <linearGradient id="linear-gradient-14" x1="-1089.69" y1="342.01" x2="-1152.35" y2="407.2" gradientTransform="translate(-893.5) rotate(-180) scale(1 -1)" xlink:href="#linear-gradient-2"/>
    <linearGradient id="linear-gradient-15" x1="-1152.64" y1="386.38" x2="-1115.29" y2="411.76" xlink:href="#linear-gradient-6"/>
    <linearGradient id="linear-gradient-16" x1="210.35" y1="479.01" x2="222.23" y2="485.99" gradientTransform="matrix(1,0,0,1,0,0)" xlink:href="#linear-gradient-6"/>
    <linearGradient id="linear-gradient-17" x1="-1061.84" y1="368.78" x2="-1124.5" y2="433.96" gradientTransform="translate(-893.5) rotate(-180) scale(1 -1)" xlink:href="#linear-gradient-2"/>
    <linearGradient id="linear-gradient-18" x1="-1275.49" y1="649.77" x2="-1325.49" y2="663.47" gradientTransform="translate(-1024.54 -232.37) rotate(-177.17) scale(1 -1)" xlink:href="#linear-gradient-2"/>
    <linearGradient id="linear-gradient-19" x1="-1178.49" y1="447.33" x2="-1213.96" y2="484.82" gradientTransform="translate(-893.5) rotate(-180) scale(1 -1)" xlink:href="#linear-gradient-2"/>
    <linearGradient id="linear-gradient-20" x1="3725.02" y1="591.01" x2="3617.59" y2="707.87" gradientTransform="translate(-3604.99)" xlink:href="#linear-gradient-2"/>
    <linearGradient id="linear-gradient-21" x1="3690.15" y1="599.69" x2="3699.69" y2="599.69" gradientTransform="translate(-3604.99)" xlink:href="#linear-gradient-6"/>
    <linearGradient id="linear-gradient-22" x1="3733.48" y1="458.86" x2="3642.07" y2="582.76" gradientTransform="translate(-3604.99)" xlink:href="#linear-gradient-2"/>
    <linearGradient id="linear-gradient-23" x1="3700.92" y1="568.85" x2="3593.49" y2="685.71" gradientTransform="translate(-3604.99)" xlink:href="#linear-gradient-2"/>
    <linearGradient id="linear-gradient-24" x1="3655.76" y1="599.2" x2="3664" y2="599.2" gradientTransform="translate(-3604.99)" xlink:href="#linear-gradient-6"/>
    <linearGradient id="linear-gradient-25" x1="3717.19" y1="446.84" x2="3625.77" y2="570.74" gradientTransform="translate(-3604.99)" xlink:href="#linear-gradient-2"/>
    <linearGradient id="linear-gradient-26" x1="-5729.17" y1="356.85" x2="-5682.2" y2="610.35" gradientTransform="translate(-5635.67) rotate(-180) scale(1 -1)" xlink:href="#linear-gradient"/>
    <linearGradient id="linear-gradient-27" x1="137.43" y1="364.62" x2="213.78" y2="239.25" gradientTransform="matrix(1,0,0,1,0,0)" xlink:href="#linear-gradient-6"/>
    <linearGradient id="linear-gradient-28" x1="142.43" y1="367.66" x2="218.78" y2="242.29" gradientTransform="matrix(1,0,0,1,0,0)" xlink:href="#linear-gradient-6"/>
    <linearGradient id="linear-gradient-29" x1="-5802.78" y1="329.71" x2="-5815.46" y2="304.12" gradientTransform="translate(-5635.67) rotate(-180) scale(1 -1)" xlink:href="#linear-gradient-6"/>
    <linearGradient id="linear-gradient-30" x1="-5681.76" y1="348.07" x2="-5634.8" y2="601.57" gradientTransform="translate(-5635.67) rotate(-180) scale(1 -1)" xlink:href="#linear-gradient"/>
    <linearGradient id="linear-gradient-31" x1="64.75" y1="401.55" x2="47.78" y2="413.62" gradientTransform="matrix(1,0,0,1,0,0)" xlink:href="#linear-gradient-6"/>
    <linearGradient id="linear-gradient-32" x1="3703.1" y1="375.93" x2="3737.02" y2="517.28" gradientTransform="translate(-3604.99)" xlink:href="#linear-gradient-2"/>
    <linearGradient id="linear-gradient-33" x1="3724.34" y1="353.65" x2="3717.11" y2="385.37" gradientTransform="translate(-3604.99)" gradientUnits="userSpaceOnUse">
      <stop offset="0" stop-color="#fe7062"/>
      <stop offset="1" stop-color="#ff928e"/>
    </linearGradient>
    <linearGradient id="linear-gradient-34" x1="3720.56" y1="366.96" x2="3717.1" y2="387.69" xlink:href="#linear-gradient-33"/>
    <linearGradient id="linear-gradient-35" x1="3679.85" y1="413.32" x2="3699.07" y2="413.32" gradientTransform="translate(-3604.99)" xlink:href="#linear-gradient-6"/>
    <linearGradient id="linear-gradient-36" x1="82.17" y1="346.51" x2="71.99" y2="367.82" gradientTransform="matrix(1,0,0,1,0,0)" xlink:href="#linear-gradient-6"/>
    <linearGradient id="linear-gradient-37" x1="94.11" y1="314.24" x2="79.97" y2="342.71" gradientTransform="matrix(1,0,0,1,0,0)" xlink:href="#linear-gradient-6"/>
    <linearGradient id="linear-gradient-38" x1="-5104.11" y1="1273.89" x2="-5096.48" y2="1317.38" gradientTransform="translate(3013.68 -4044.43) rotate(-41.75)" xlink:href="#linear-gradient-2"/>
    <linearGradient id="linear-gradient-39" x1="-5105.2" y1="1326.13" x2="-5113.4" y2="1299.08" gradientTransform="translate(3013.68 -4044.43) rotate(-41.75)" xlink:href="#linear-gradient-6"/>
  </defs>
  <g id="Camada_1-2" data-name="Camada 1">
    <g>
      <g>
        <path class="cls-20" d="m600.78,254.8c-2.89-5.16-4.13-11.06-3.44-16.93.89-7.55,1.37-16.93.48-27.19-2.48-28.61-14.44-52.8-34.82-70.8-2.68-2.37-4.06-5.9-3.6-9.45.68-5.32.91-11.69,0-18.73-2.15-16.72-11.25-40.27-41.86-59.66-3.13-9.83-12.17-27.75-37.96-41.84-19.14-10.46-37.28-12.97-51.09-7.07-5.7,2.43-10.44,6.27-13.8,11.03-3.97.73-8.17,2.35-12.03,5.29-2.16,1.64-4.08,3.58-5.78,5.81-2.52,3.32-7.5,3.32-10.02,0-1.69-2.23-3.62-4.17-5.78-5.81-3.86-2.94-8.06-4.56-12.03-5.29-3.36-4.76-8.1-8.59-13.8-11.03-13.81-5.9-31.95-3.39-51.09,7.07-25.79,14.09-34.83,32.01-37.96,41.84-30.6,19.39-39.71,42.94-41.86,59.66-.56,4.33-.69,8.41-.54,12.15.29,7.65-2.45,15.14-7.86,20.54-17.46,17.45-27.74,40-30.02,66.29-.9,10.36-.4,19.82.5,27.41.69,5.73-.51,11.51-3.36,16.53-10.69,18.89-12.08,51.64-2.57,88.04,5.69,21.77,15.43,37.71,28.94,47.4.02.02.05.03.07.05,3.78,2.7,6.52,6.57,7.8,11.03.49,1.71,1.15,3.4,1.99,5.07,11.12,22.19,50.62,34.03,84.83,35.92,1.74.1,3.44.14,5.11.14,16.83,0,30.18-4.87,39.73-14.5,7.46-7.52,10.93-16.33,12.51-23.47,13.5-1.65,23.36-6.55,29.38-14.64.36-.48.68-.96.99-1.44.32.48.64.96,1,1.44,6.02,8.09,15.87,12.99,29.38,14.64,1.58,7.14,5.05,15.95,12.51,23.47,9.56,9.63,22.9,14.5,39.73,14.5,1.67,0,3.38-.05,5.11-.14,34.21-1.89,73.71-13.73,84.83-35.92.84-1.67,1.5-3.37,1.99-5.07,1.28-4.46,4.02-8.33,7.8-11.03.02-.02.05-.03.07-.05,13.51-9.68,23.25-25.63,28.94-47.4,9.48-36.27,8.13-68.93-2.46-87.85Z"/>
        <path class="cls-16" d="m383.02,60.86v306s7.87,25.33-33.39,24.93c0,0,2.51,39.84-44.76,37.23-47.28-2.61-86.21-23.19-72.73-43.46,0,0-27.12-1.09-38.92-46.23-11.8-45.14-4.54-79.41,9.34-86.79,0,0-22.09-71.52,37.93-111.25,0,0-20.67-47.5,37.18-80.82,0,0,2.42-22.13,32.8-38.74,28.55-15.61,46.88-7.67,50.41,5.44,0,0,22.14-6.13,22.14,33.7Z"/>
        <path class="cls-16" d="m400.73,60.86v306s-7.87,25.33,33.39,24.93c0,0-2.51,39.84,44.76,37.23,47.28-2.61,86.21-23.19,72.73-43.46,0,0,27.12-1.09,38.92-46.23,11.8-45.14,4.54-79.41-9.34-86.79,0,0,22.09-71.52-37.93-111.25,0,0,20.67-47.5-37.18-80.82,0,0-2.42-22.13-32.8-38.74-28.55-15.61-46.88-7.67-50.41,5.44,0,0-22.14-6.13-22.14,33.7Z"/>
        <path class="cls-37" d="m357.66,65.58c-.14,0-.27-.01-.41-.04-6.53-1.26-18.39-7.6-16.59-22.61,1.71-14.26,13.96-17.92,20.23-17.93,1.2,0,2.16.98,2.16,2.18,0,1.19-.98,2.16-2.17,2.16h-.01c-.57,0-14.23.17-15.91,14.12-1.78,14.8,12.49,17.72,13.1,17.84,1.17.23,1.94,1.36,1.72,2.54-.2,1.04-1.11,1.76-2.13,1.76Z"/>
        <path class="cls-37" d="m322.34,123.55c-3.67,0-7.32-.74-10.3-1.91-4.61-1.81-7.38-4.48-7.81-7.53-.16-1.19.66-2.28,1.85-2.44,1.18-.17,2.28.66,2.44,1.85.14,1.02,1.56,2.7,5.1,4.09,5.46,2.14,13.68,2.45,18.16-1.2,2.93-2.39,3.95-6.22,3.06-11.4-3.01-17.37-17.68-18.71-34.65-20.27-3.74-.34-7.61-.7-11.39-1.24-7.48-1.08-12.27-3.82-14.23-8.13-2.79-6.14,1.45-12.83,1.63-13.12.65-1.01,1.99-1.3,3-.65,1,.65,1.29,1.99.65,2.99-.07.1-3.13,5.04-1.32,8.99,1.64,3.58,6.83,5.03,10.9,5.62,3.67.53,7.48.88,11.16,1.22,17.18,1.58,34.94,3.21,38.53,23.85,1.48,8.51-1.68,13.13-4.59,15.5-3.33,2.71-7.77,3.79-12.19,3.79Z"/>
        <path class="cls-37" d="m283.11,177.03c-4.26,0-7.95-1.83-9.26-4.86-.47-1.1.03-2.37,1.13-2.85,1.1-.48,2.37.03,2.85,1.13.72,1.67,4.06,2.84,7.89,1.94,2.19-.52,9.29-3.04,8.68-13.8-.4-7-2.65-11.77-6.7-14.17-4.98-2.95-12.73-2.2-21.83,2.13-19.05,9.05-25.41-1.31-25.67-1.76-.61-1.03-.26-2.36.77-2.97,1.02-.6,2.34-.27,2.95.75.22.35,4.89,7.29,20.09.06,10.59-5.04,19.55-5.71,25.9-1.94,3.69,2.19,8.22,7.03,8.82,17.65.63,11.22-5.79,16.79-12.01,18.26-1.22.29-2.43.43-3.6.43Z"/>
        <path class="cls-37" d="m268.24,230.89c-1.25,0-2.52-.09-3.82-.3-7.72-1.23-14.31-6.2-19.58-14.78-5.27-8.58-6.85-16.92-4.7-24.78,3.62-13.24,16.48-20.18,17.02-20.47,1.06-.56,2.37-.16,2.93.9.56,1.06.16,2.37-.9,2.93-.16.09-11.78,6.41-14.88,17.81-1.81,6.66-.39,13.84,4.22,21.34,4.58,7.45,10.15,11.75,16.57,12.77,11.14,1.78,21.34-6.76,21.44-6.84.91-.77,2.28-.66,3.05.25.77.91.66,2.28-.25,3.05-.43.37-9.71,8.12-21.11,8.12Z"/>
        <path class="cls-37" d="m349.6,236.52c-.33,0-.66-.08-.98-.23-1.07-.54-1.49-1.84-.95-2.91,0,0,1.19-2.5,1.11-6.95-.07-4.15-1.28-10.9-6.66-19.49-10.21-16.32-29.63-12.75-29.83-12.72-1.18.22-2.31-.54-2.54-1.71-.23-1.17.54-2.31,1.71-2.54.23-.04,22.55-4.14,34.33,14.67,11.64,18.59,5.99,30.21,5.74,30.7-.38.75-1.14,1.19-1.93,1.19Z"/>
        <path class="cls-37" d="m324.97,293.41c-.61,0-1.22-.26-1.65-.76-.78-.91-.67-2.28.24-3.06,2.59-2.21,5.58-5.86,5.11-10.71-.64-6.63-7.51-13.82-19.88-20.8-13.5-7.62-24.54-9.67-32.8-6.11-9.37,4.04-11.98,14.26-12.01,14.36-.29,1.16-1.45,1.88-2.62,1.59-1.16-.28-1.87-1.45-1.59-2.61.12-.5,3.1-12.36,14.45-17.29,9.58-4.16,21.93-2.05,36.7,6.29,13.85,7.82,21.27,15.95,22.07,24.16.5,5.23-1.85,10.35-6.62,14.42-.41.35-.91.52-1.41.52Z"/>
        <path class="cls-37" d="m341.55,348.65c-7.8,0-15.39-4.04-19.57-11.03-.61-1.03-.28-2.36.75-2.97,1.03-.61,2.36-.28,2.97.75,4.6,7.7,14.31,10.97,22.6,7.6,3.61-1.47,15-7.94,9.85-29.63-5.09-21.43-5.19-34.74-.31-41.87,2.44-3.56,6.12-5.64,11.27-6.35,12.23-1.7,15.7,4.95,15.84,5.23.53,1.07.1,2.37-.97,2.91-1.06.53-2.34.11-2.89-.93-.14-.24-2.52-4.14-11.39-2.91-3.92.54-6.56,1.98-8.29,4.51-4.08,5.97-3.77,18.53.95,38.42,3.1,13.05,1.46,29.01-12.43,34.65-2.72,1.11-5.57,1.63-8.39,1.63Z"/>
        <path class="cls-37" d="m264.37,313.52c-17.4,0-25.72-22.65-32.55-41.27-1.75-4.78-3.41-9.29-5.09-13.09-2.59-5.86-5.81-9.23-9.56-10.02-5.39-1.14-10.36,3.3-10.41,3.35-.89.8-2.26.74-3.06-.15-.8-.89-.74-2.26.15-3.06.27-.24,6.69-5.97,14.22-4.38,5.19,1.1,9.43,5.3,12.62,12.5,1.74,3.93,3.42,8.51,5.2,13.35,7.46,20.33,15.92,43.36,34.48,37.41,6.95-2.23,11.05-5.45,12.2-9.57,1.86-6.71-4.45-14.01-4.52-14.08-.79-.9-.7-2.27.2-3.06.9-.79,2.27-.7,3.06.2.32.37,7.91,9.15,5.43,18.09-1.56,5.62-6.62,9.84-15.05,12.54-2.61.84-5.04,1.22-7.32,1.22Z"/>
        <path class="cls-37" d="m234.02,385.95c-.37,0-.74-.09-1.08-.29-1.04-.6-1.39-1.92-.8-2.96,14.02-24.35,34.66-31.88,35.53-32.19,1.13-.41,2.37.19,2.77,1.32.4,1.13-.19,2.36-1.32,2.76h0c-.2.07-20.03,7.37-33.22,30.27-.4.7-1.13,1.09-1.88,1.09Z"/>
        <path class="cls-37" d="m347.73,391.56c-.55,0-1.09-.21-1.51-.62-8.54-8.34-17.32-7.07-26.62-5.72-8.41,1.22-17.11,2.48-24.53-4.56-5.55-5.27-8.25-11.09-8.03-17.31.39-11.21,10.21-19.42,10.62-19.77.92-.76,2.29-.63,3.05.29.76.92.63,2.29-.29,3.05-.11.09-8.74,7.37-9.05,16.6-.17,4.91,2.08,9.62,6.68,13.99,5.89,5.59,12.86,4.58,20.92,3.41,9.47-1.37,20.2-2.93,30.27,6.91.86.84.87,2.21.04,3.06-.42.43-.99.65-1.55.65Z"/>
        <path class="cls-37" d="m441.34,67.84c-3.29,0-6.91-.74-10.81-2.44-6.43-2.81-10.71-7.12-12.71-12.81-3.9-11.1,2.41-23.32,2.68-23.84.56-1.06,1.87-1.47,2.93-.91,1.06.56,1.47,1.86.91,2.92-.08.16-5.69,11.13-2.42,20.41,1.59,4.5,5.07,7.95,10.35,10.25,11.32,4.95,18.86.29,21.88-5.2,2.06-3.75,2.43-9.03-1.63-11.76-.99-.67-1.26-2.02-.59-3.01.67-.99,2.02-1.26,3.01-.59,5.32,3.58,6.59,10.92,3,17.44-2.95,5.38-8.83,9.52-16.6,9.52Z"/>
        <path class="cls-37" d="m457.82,99.21c-.9,0-1.73-.56-2.04-1.45-.14-.4-3.36-9.85,1.68-16.63,3.37-4.53,9.44-6.63,18.04-6.26,14.02.61,22.86-.87,26.27-4.41,1.41-1.46,1.97-3.35,1.76-5.95-.1-1.19.79-2.24,1.98-2.34,1.2-.09,2.24.79,2.34,1.98.31,3.82-.69,6.95-2.96,9.31-4.43,4.6-13.83,6.42-29.58,5.73-7.07-.31-11.9,1.2-14.36,4.5-3.68,4.92-1.11,12.56-1.08,12.63.39,1.13-.21,2.36-1.34,2.76-.24.08-.48.12-.71.12Z"/>
        <path class="cls-37" d="m419.51,139.84c-.08,0-.15,0-.22,0-1.2-.02-2.15-1.01-2.13-2.21.02-1.2,1.03-2.16,2.21-2.13,4.75.04,10.18-4.15,13.18-10.3,3.47-7.11,2.82-14.71-1.74-20.31-3.27-4.02-6.44-5.97-9.45-5.86-3.99.17-6.68,4.07-6.71,4.11-.67.99-2.01,1.25-3,.59-.99-.66-1.26-2-.6-2.99.16-.23,3.88-5.74,10.08-6.03,4.48-.21,8.86,2.29,13.05,7.46,5.65,6.95,6.49,16.27,2.27,24.94-3.73,7.65-10.51,12.74-16.93,12.74Z"/>
        <path class="cls-37" d="m495.9,154.82c-5.19,0-11.46-1.57-18.79-6.07-14.4-8.83-16.37-23.07-13.68-32.58,2.32-8.21,7.92-13.72,13.93-13.72h0c4.82,0,8.3,1.33,10.35,3.93,2.66,3.37,1.71,7.51,1.67,7.68-.28,1.16-1.44,1.89-2.61,1.61-1.16-.28-1.88-1.44-1.61-2.59.02-.07.48-2.36-.87-4.04-1.18-1.47-3.58-2.24-6.93-2.25h0c-3.99,0-8,4.34-9.76,10.56-2.39,8.44-.55,20.15,11.77,27.71,8.83,5.42,16.81,6.82,23.7,4.16,4.95-1.91,7.53-5.35,7.56-5.38.7-.97,2.05-1.19,3.02-.49.97.7,1.19,2.05.49,3.02-.09.12-6.29,8.44-18.24,8.44Z"/>
        <path class="cls-37" d="m494.85,233.56c-6.18,0-13.37-2.18-21.12-8.28-23.83-18.73-3.99-45.73-3.78-46,.72-.96,2.08-1.15,3.03-.43.96.72,1.15,2.08.43,3.03h0c-.05.06-4.56,6.17-6.37,14.19-2.34,10.4.81,19.08,9.37,25.8,20.46,16.08,33.77.95,34.33.3.78-.91,2.14-1.02,3.05-.25.91.77,1.03,2.13.26,3.05-3.33,3.95-10.19,8.59-19.19,8.59Z"/>
        <path class="cls-37" d="m536.79,207.88c-4.1,0-9.32-1.46-15.27-6.37-9.47-7.81-14.32-20.55-12.07-31.7,1.54-7.66,6.22-13.19,12.83-15.17,13.88-4.16,16.75-11.26,16.77-11.33.43-1.11,1.67-1.68,2.78-1.27,1.11.41,1.69,1.63,1.3,2.74-.13.37-3.42,9.15-19.6,14.01-5.1,1.53-8.59,5.75-9.83,11.87-1.62,8.02,1.03,19.63,10.58,27.5,6.86,5.66,14,6.95,19.08,3.45,3.28-2.25,4.82-6.05,3.75-9.24-.38-1.13.23-2.36,1.37-2.74,1.14-.38,2.36.23,2.74,1.37,1.68,5.01-.54,10.84-5.4,14.18-1.33.91-4.51,2.69-9.03,2.69Z"/>
        <path class="cls-37" d="m518.01,310.03h-.12c-6.16-.04-10.86-1.88-13.97-5.47-4.85-5.59-3.88-13.29-3.83-13.61.16-1.19,1.25-2.02,2.44-1.86,1.18.16,2.01,1.25,1.86,2.43h0c0,.06-.74,6.13,2.83,10.22,2.27,2.59,5.87,3.92,10.71,3.95h.09c8.82,0,16.42-7.73,21.26-14.23,5.83-7.83,10.04-17.08,11.49-22.36.23-.85.46-1.74.7-2.66,1.73-6.75,3.87-15.16,10.71-18.29,4.77-2.19,10.84-1.39,18.54,2.43,1.07.53,1.51,1.83.98,2.9-.53,1.07-1.83,1.51-2.9.98-6.37-3.16-11.35-3.96-14.81-2.37-4.96,2.27-6.74,9.26-8.32,15.43-.24.94-.48,1.86-.71,2.73-2.8,10.21-17.31,39.77-36.93,39.77Z"/>
        <path class="cls-37" d="m451.98,341.49c-.18,0-.37-.02-.55-.07-20.22-5.31-33.14-17.24-36.4-33.6-3.46-17.38,4.71-34.39,14.15-41.56,10.84-8.24,24.48-6.69,40.54,4.61.39.28.83.59,1.04.72.88.35,1.46,1.24,1.36,2.22-.11,1.19-1.18,2.06-2.36,1.95-.72-.07-1.14-.37-2.53-1.35-5.34-3.76-21.6-15.21-35.42-4.71-8.51,6.47-15.52,22.18-12.52,37.27,2.06,10.36,9.51,24.02,33.25,30.25,1.16.3,1.85,1.49,1.55,2.65-.26.97-1.13,1.62-2.09,1.62Zm18.19-70.04h0,0Zm0,0h0,0Z"/>
        <path class="cls-37" d="m434.57,391.56c-1.18,0-2.14-.94-2.17-2.12,0-.26-.07-6.43,5.05-11.6,4.54-4.59,11.59-6.87,20.89-6.79,15.92.18,27.48-3.31,30.19-9.01,1.7-3.59.11-8.36-4.73-14.19-.76-.92-.64-2.29.28-3.05.92-.77,2.29-.64,3.05.28,6.02,7.24,7.8,13.57,5.31,18.81-5.03,10.6-25.56,11.55-34.14,11.49-8.12-.06-14.08,1.78-17.77,5.51-3.78,3.82-3.8,8.42-3.79,8.47.02,1.2-.93,2.19-2.12,2.21h-.04Z"/>
        <path class="cls-37" d="m549.74,386.49c-.85,0-1.66-.5-2-1.34-9.55-23.12-30.35-25.74-30.56-25.77-1.19-.14-2.04-1.21-1.91-2.4.14-1.19,1.22-2.04,2.4-1.91.96.11,23.56,2.96,34.07,28.42.46,1.11-.07,2.37-1.18,2.83-.27.11-.55.17-.83.17Z"/>
      </g>
      <g>
        <path class="cls-25" d="m491.28,546.72l146.24-280.17h-29.96c-5.53,0-8.56-6.42-5.06-10.7l155.87-189.97c6.76-8.23,20.1-3.01,19.47,7.62l-10.96,185.77c-.63,10.63-10.06,18.56-20.64,17.35l-20.89-2.39-145.1,314.24c-3.78,8.18-11.97,13.42-20.98,13.42h-50.29l-17.7-55.17Z"/>
        <path class="cls-25" d="m370.36,350.23l103.25,229.35c6.12,13.58,19.63,22.32,34.53,22.32h53.23c7.06,0,13.57-3.83,16.99-10.01l1.89-3.41h0c-5.72,0-10.95-3.21-13.55-8.3l-137.56-269.53-58.77,39.58Z"/>
        <path class="cls-25" d="m443.02,337.87h0c-10.35-8.18-25.48-5.77-32.79,5.21l-151.8,228.07c-12.16,18.27-32.65,29.24-54.59,29.24h-21.36l-17.38-50.08s141.12-216.38,177.49-249.12c0,0,36.22-32.65,71.94-7.96,9.44,6.52,16.6,15.83,20.98,26.43l7.51,18.21Z"/>
        <path class="cls-25" d="m0,415.63s25.41-31.76,74.65-36.7c0,0,23.39,7.97,69.98,91.45,46.59,83.49,77.52,121.56,113.81,100.76l-3,4.99c-9.9,16.44-27.69,26.49-46.88,26.49h-20.07c-22.1,0-42.84-10.62-55.75-28.56C96.47,523.65,22.28,423.46,0,415.63Z"/>
        <path class="cls-25" d="m760.25,132.42c-.06,0-.12,0-.19-.01-.89-.1-1.53-.91-1.43-1.8l1.03-9.07c.1-.89.9-1.54,1.8-1.43.89.1,1.53.91,1.43,1.8l-1.03,9.07c-.09.83-.8,1.44-1.61,1.44Z"/>
        <path class="cls-25" d="m630.14,246.92c-.35,0-.69-.11-.99-.34-.71-.55-.84-1.57-.3-2.28l128.71-167.24c1.55-2.01,4.16-2.72,6.51-1.77,2.35.95,3.73,3.28,3.45,5.8l-2.27,20.05c-.1.89-.91,1.53-1.8,1.43-.89-.1-1.53-.91-1.43-1.8l2.27-20.05c.15-1.29-.65-2.1-1.44-2.42-.79-.32-1.92-.3-2.71.74l-128.71,167.24c-.32.42-.8.63-1.29.63Z"/>
        <path class="cls-25" d="m338.15,422.24c-.31,0-.63-.09-.91-.28-.74-.5-.94-1.51-.44-2.26l66.56-98.67c2.42-3.59,6.45-5.53,10.77-5.22,4.32.33,8.01,2.86,9.86,6.78.38.81.04,1.78-.77,2.16-.81.39-1.78.04-2.16-.77-1.35-2.85-4.03-4.69-7.17-4.93-3.15-.23-6.07,1.18-7.83,3.79l-66.56,98.67c-.31.47-.83.72-1.35.72Z"/>
        <path class="cls-25" d="m320.85,447.88c-.31,0-.63-.09-.91-.28-.74-.5-.94-1.51-.44-2.26l4.27-6.33c.5-.74,1.51-.94,2.26-.44.74.5.94,1.51.44,2.26l-4.27,6.33c-.31.47-.83.72-1.35.72Z"/>
      </g>
      <g>
        <path class="cls-31" d="m420.11,201.81c-.1-1.25-1.38-2.33-3.53-3.2,2.35-1.29,3.64-2.68,3.53-4.04-.33-4.12-13.37-6.42-29.11-5.15-15.75,1.27-28.24,5.64-27.91,9.75.1,1.25,1.38,2.33,3.53,3.2-2.35,1.29-3.64,2.68-3.53,4.04.1,1.25,1.38,2.33,3.53,3.19-2.35,1.29-3.64,2.68-3.53,4.04.1,1.25,1.38,2.33,3.53,3.19-2.35,1.29-3.64,2.68-3.53,4.04.15,1.82,2.78,3.29,7.03,4.25-.06,1.35-.02,2.82.11,4.45.62,7.58,9.15,13.53,20.43,13.53s21.05-8.11,21.16-15.72c.03-1.86-.05-3.51-.22-4.96,5.4-1.8,8.69-4,8.51-6.14-.1-1.25-1.38-2.33-3.53-3.2,2.35-1.29,3.64-2.68,3.53-4.04-.1-1.25-1.38-2.33-3.53-3.2,2.35-1.29,3.64-2.68,3.53-4.04Z"/>
        <g>
          <path class="cls-1" d="m383.72,226.77c-4.68,0-8.96-.34-12.49-1.02-.21-.04-.34-.24-.3-.44.04-.2.24-.34.44-.3,5.53,1.06,12.92,1.29,20.81.66,6.45-.52,12.49-1.56,17.45-3.01.2-.06.41.06.47.26.06.2-.06.41-.26.47-5.01,1.46-11.1,2.51-17.6,3.04-2.93.24-5.79.35-8.52.35Z"/>
          <path class="cls-30" d="m383.8,219.52c-6.08,0-11.51-.57-15.34-1.66-.2-.06-.32-.27-.26-.47.06-.2.27-.32.47-.26,5.46,1.55,14.24,2.04,23.51,1.29,9.16-.74,17.71-2.6,22.86-4.97.19-.09.41,0,.5.18.09.19,0,.41-.19.5-5.23,2.41-13.87,4.29-23.11,5.04-2.89.23-5.73.35-8.44.35Z"/>
          <path class="cls-40" d="m383.72,212.29c-6.56,0-12.3-.67-16.16-1.95-.2-.07-.31-.28-.24-.48.07-.2.28-.31.48-.24,5.38,1.77,14.49,2.36,24.38,1.56,9.16-.74,17.71-2.6,22.86-4.97.19-.09.41,0,.5.18.09.19,0,.41-.19.5-5.23,2.41-13.87,4.3-23.11,5.04-2.93.24-5.79.35-8.52.35Z"/>
          <path class="cls-23" d="m383.77,205.05c-5.2,0-9.94-.42-13.62-1.24-.2-.05-.33-.25-.29-.45.05-.2.25-.33.45-.29,5.53,1.23,13.5,1.55,21.86.87,9.08-.73,17.58-2.57,22.74-4.92.19-.09.41,0,.5.19.09.19,0,.41-.19.5-5.23,2.38-13.83,4.25-22.99,4.99-2.9.23-5.75.35-8.47.35Z"/>
        </g>
        <path class="cls-25" d="m352.53,165.29c-1.91-6.77-5.16-13.1-9.54-18.62-9.37-11.81-24.67-35.84-26.55-68.63-2.74-47.7,39.56-71.58,78.16-68.33,38.6,3.24,76.69,31.98,72.52,76.35-2.57,27.3-17.85,48.01-29.22,59.9-7.22,7.55-12.38,16.8-15.17,26.87-3.41,12.33-11.54,27.69-30.85,28.63-24.99,1.21-35.37-22.08-39.35-36.18Z"/>
        <path class="cls-2" d="m398.26,191.96l13.51-87.85c.28-1.81,1.17-3.03,1.99-2.72.82.31,1.26,2.04.98,3.85,0,.05-.02.11-.03.16l-15.38,87.03c-.12.65-.45,1.07-.74.92-.29-.14-.43-.76-.33-1.39Z"/>
        <path class="cls-2" d="m384.24,192.65l-13.51-87.85c-.28-1.81-1.17-3.03-1.99-2.72-.82.31-1.26,2.04-.98,3.85,0,.05.02.11.03.16l15.38,87.03c.12.65.45,1.07.74.92.29-.14.43-.76.33-1.39Z"/>
        <path class="cls-2" d="m411.67,96.57c-.34-.55-1.14-.76-1.77-.46l-7.52,3.51-2.61-7.44c-.14-.39-.46-.73-.91-.92-.87-.36-1.9-.04-2.31.71v.02s-6.2,11.28-6.2,11.28l-5.74-16.05v-.03c-.15-.39-.45-.74-.88-.98-.96-.53-2.23-.27-2.84.56l-8.65,11.9c-.35.49-.23,1.14.3,1.5.57.38,1.39.3,1.84-.2l7.61-8.49,6.85,15.27h0c.11.26.32.47.6.6.64.3,1.45.09,1.79-.46l6.61-10.61,2.49,5.37.02.05s.04.08.06.11c.34.55,1.14.76,1.77.46l8.93-4.17c.64-.3.87-.99.53-1.54Z"/>
        <path class="cls-2" d="m438.19,134.55c-.34,0-.68-.1-.97-.32-.72-.54-.87-1.55-.34-2.27,2.3-3.1,4.41-6.3,6.27-9.53.45-.78,1.44-1.04,2.22-.59.78.45,1.04,1.44.59,2.22-1.93,3.33-4.1,6.64-6.48,9.84-.32.43-.81.66-1.31.66Z"/>
        <path class="cls-2" d="m449.3,115.48c-.22,0-.44-.04-.65-.13-.82-.36-1.2-1.31-.84-2.14,14.29-32.9,1.96-60.53,1.84-60.8-.37-.82-.02-1.78.8-2.15.82-.37,1.78-.02,2.15.8.54,1.18,13.05,29.23-1.81,63.45-.27.61-.86.98-1.49.98Z"/>
      </g>
      <g>
        <path class="cls-16" d="m648.66,53.78c.11-2.62-1.93-4.83-4.56-4.91-8.66-.28-27.75,2.21-45.59,25.67-24.04,31.6-4.45,75.07,46.27,75.89,46.61.76,62.56-34.43,61.83-55.73-.09-2.71-2.81-4.54-5.38-3.69l-49.71,16.38c-2.54.84-5.14-1.13-5.02-3.8l2.18-49.79Z"/>
        <path class="cls-16" d="m660.93,47.82l-7.85,46.68c-.41,2.46,2.1,4.38,4.36,3.33l42.8-19.77c2.84-1.31,4.28-4.54,3.31-7.51-2.73-8.34-11.16-23.76-36.57-27.23-2.89-.39-5.56,1.62-6.05,4.49Z"/>
      </g>
      <g>
        <g>
          <rect class="cls-16" x="226.72" y="544.76" width="5.63" height="60.94" transform="translate(459.07 1150.45) rotate(180)"/>
          <path class="cls-16" d="m204.86,603.2h49.35v1.02c0,1.46-1.19,2.65-2.65,2.65h-44.05c-1.46,0-2.65-1.19-2.65-2.65v-1.02h0Z" transform="translate(459.07 1210.07) rotate(180)"/>
          <rect class="cls-16" x="197.53" y="531.1" width="62.05" height="17.6" rx="6.06" ry="6.06"/>
        </g>
        <g>
          <path class="cls-10" d="m271.13,504.13s8.37,1.3,17.79,7.59c1.48.99,2.29,2.72,2.07,4.48-1.13,8.93-5.76,37.83-21.05,66.06-.81,1.49-1.04,3.22-.68,4.88l2.66,12.36,4.92,4.62h-12.68l-8.44-22.85,3.61-1.14c2.8-.89,4.72-3.46,4.77-6.4l.42-24.52c-.36-10.92,6.7-18.46,6.7-18.46l-20.26-.99,20.17-25.63Z"/>
          <path class="cls-26" d="m281.8,606.34c1.16,1.51-12.43,3.51-19.3.2,0,0-9.52-16.56-9.52-25.08,0,0,.76-1.74,6.34-1.34,0,0,3.2,19.6,6.57,21.8,3.37,2.2,9.44.22,9.44.22,0,0,4.76,1.97,6.46,4.2Z"/>
          <path class="cls-41" d="m253.53,531.1c.11-.19,21.81-2.61,21.81-2.61,0,0-.71,6.6,1.51,15.68,2.22,9.08,34.08,48.44,34.08,48.44l-3.34,10.59c10.33,3.6,20.49,4.17,30.49,1.83l-20.7-12.42s-19.38-66.03-31.25-77.81l-21.75-7.53-10.84,23.83Z"/>
          <path class="cls-28" d="m204.86,492.68s-12.5,18.6-13.53,27.08c-1.03,8.48,3.42,11.93,16.54,12.5,13.12.57,48.14.56,48.14.56l29.89-25.55s-21.78-7.77-27.45-9.97c-5.66-2.2-53.6-4.62-53.6-4.62Z"/>
          <path class="cls-15" d="m308.85,599.64s-3.6,3.48-1.17,7.36c0,0,28.49,5.05,36.23,2.76,0,0-1.61-3.67-10.32-7.84l.64.49c.81.62.34,1.93-.69,1.87-5.74-.33-17.62-1.38-24.7-4.64Z"/>
        </g>
        <g>
          <path class="cls-13" d="m238.67,490.22s14.56-13.86,21.73-23.05c3.87-4.96,5.09-11.5,3.3-17.53-3.27-11.02-9.09-22.44-9.62-24.22-.81-2.72-17.14-2.61-17.14-2.61,0,0-32.12,20.85-44.75,56.17l14.18,4.41s8.39-14.07,16.68-23.02c0,0-14.34,18.94-14.85,26.7l30.47,3.15Z"/>
          <path class="cls-42" d="m256.05,410.2c-.17.57-4.43,14.69-4.76,14.99-.33.29-9.34.78-13.59-2.12l7.2-15.06,11.15,2.2Z"/>
          <path class="cls-43" d="m249.05,380.53s7.69,3.25,12.92,14.36c5.23,11.12,1.32,16.25-3.58,16.95-4.91.7-12.24.6-20-6.58-7.76-7.18.66-28.58,10.66-24.73Z"/>
          <path class="cls-7" d="m243.61,399.33s-5.8-16.26,8.61-16.45l3.39,2.37s5.29-9.02-3.39-13.32c-8.68-4.3-21.64-.47-25.33,11.23-3.69,11.7-1.53,19.25,4.62,24.85,6.15,5.6,8.68-.75,8.68-.75,0,0-3.35-5.23-1.98-8.04,1.36-2.8,4.51.58,4.51.58l.9-.47Z"/>
          <path class="cls-4" d="m241.99,401.14s-2.93-8.38-6.85-5.04c-3.91,3.34,3.18,7.74,5.96,9.16l.89-4.12Z"/>
          <path class="cls-18" d="m268.33,491.25l-10.7-10.31-14.8,6.25s-14.73,2.28-23.16,0l-8.43-2.28-19.05-5.93-2.99,8.46c-.76,2.15,0,4.53,1.86,5.85,1.65,1.17,3.58,2.46,4.81,3,2.51,1.1,61.85-.76,61.85-.76l10.61-4.27Z"/>
          <path class="cls-3" d="m228.02,384.98c1.85-1.89.65-5.09-1.97-5.5-8.45-1.32-21.34.03-26.75,18.12-6.1,20.38-10.07,30.57-14.14,32.36-2.67,1.17-2.85,4.89-.18,6.08,1.97.88,4.79,1.2,8.83.31,31.15-6.85,23.34-40.27,34.21-51.37Z"/>
        </g>
        <g>
          <path class="cls-5" d="m227.85,496.11s.09,0,.14,0l62.05-.07c1.53,0,2.78-1.25,2.77-2.78,0-1.53-1.25-2.8-2.78-2.77l-62.05.07c-1.53,0-2.78,1.25-2.77,2.78,0,1.49,1.17,2.7,2.64,2.77Z"/>
          <path class="cls-39" d="m345.83,439.77h-51.68c-3.81,0-7.28,2.2-8.91,5.65l-23.89,50.66h64.22c2.46,0,4.66-1.5,5.57-3.79l18.53-46.88c1.07-2.71-.93-5.64-3.84-5.64Z"/>
        </g>
        <g>
          <path class="cls-16" d="m141.12,498.38c-.15-.7.05-1.43.54-1.98.49-.55,1.21-.87,1.98-.87h258.94c1.01,0,1.94.48,2.48,1.27.54.79.61,1.79.19,2.65l-2.81,5.69c-.64,1.3-2.03,2.14-3.57,2.14h-253.47c-1.43,0-2.65-.95-2.92-2.26l-1.37-6.64Z"/>
          <g>
            <path class="cls-16" d="m388.07,618.36c.3,0,.6-.06.9-.19,1.15-.51,1.69-1.87,1.19-3.05l-47.66-113.36c-.5-1.18-1.83-1.72-2.99-1.22-1.15.51-1.69,1.88-1.19,3.05l47.66,113.36c.37.88,1.21,1.41,2.09,1.41Z"/>
            <path class="cls-16" d="m334.38,618.36c.88,0,1.72-.53,2.09-1.41l47.66-113.36c.5-1.18-.04-2.55-1.19-3.05-1.15-.51-2.49.04-2.99,1.22l-47.66,113.36c-.5,1.18.04,2.55,1.19,3.05.29.13.6.19.9.19Z"/>
            <path class="cls-16" d="m200.39,618.36c.3,0,.6-.06.9-.19,1.15-.51,1.69-1.87,1.19-3.05l-47.66-113.36c-.5-1.18-1.83-1.72-2.99-1.22-1.15.51-1.69,1.88-1.19,3.05l47.66,113.36c.37.88,1.21,1.41,2.09,1.41Z"/>
            <path class="cls-16" d="m146.7,618.36c.88,0,1.72-.53,2.09-1.41l47.66-113.36c.5-1.18-.04-2.55-1.19-3.05-1.15-.51-2.49.04-2.99,1.22l-47.66,113.36c-.5,1.18.04,2.55,1.19,3.05.29.13.6.19.9.19Z"/>
          </g>
        </g>
      </g>
      <g>
        <path class="cls-9" d="m86.07,599.72s-1.11,6.3-1.66,12.53c-.21,2.44,1.67,4.55,4.11,4.65,8.3.35,26.06,1.02,32.44.73.96-.04,1.58-1.02,1.23-1.91h0c-.3-.75-.87-1.35-1.6-1.69l-29.34-13.48-5.18-.84Z"/>
        <path class="cls-21" d="m85.16,596.02l.89,7.53s5.14,2.39,8.65-.3l-2.13-8.4-7.41,1.16Z"/>
        <path class="cls-29" d="m85.83,454.38c-.39,1.97-2.07,98.18,8.21,141.29.17.7-.19,1.43-.86,1.7-1.58.64-4.67,1.58-8.38,1.7-1.15.04-2.18-.71-2.5-1.81-2.94-10-17.03-60.12-18.86-108-2.05-53.5,0-1.82,0-1.82l1.2-33.07h21.18Z"/>
        <path class="cls-38" d="m52.32,603s-1.77,3.18-3.49,11.63c-.31,1.53.76,2.99,2.31,3.14,2.74.27,6.96.62,10.34.59,1.56-.01,2.77-1.37,2.59-2.91-.37-3.08-1.54-8.14-5.15-12.09l-6.61-.36Z"/>
        <path class="cls-27" d="m50.77,593.31l2.09,11.39s2.07,1.54,6.15.42l-1-12.26-7.24.44Z"/>
        <path class="cls-22" d="m45.13,457.33c-8.41,50.76,1.82,125.46,5.28,140.08.21.9.93,1.58,1.84,1.73,1.54.26,4.08.46,6.58-.26.86-.25,1.47-1.03,1.5-1.92.46-11.82-.37-84.39,7.47-113.06.4-1.45,1.28-2.72,2.51-3.59l15.21-10.81,1.17-17.48-41.56,5.32Z"/>
        <g>
          <path class="cls-44" d="m98.72,361.14c-25.21-.42-53.02,6.62-53.02,6.62-7.51,43.84-1.31,94.41-1.31,94.41,19.51,5.12,41.53-3.13,41.53-3.13,3.24-18.32,18.38-69.9,18.38-69.9,12.32-1.53,22.46-5.08,30.82-9.78-6.37-7.39-9.38-16.79-10.68-22.34-8.91,2.77-17.93,4.25-25.71,4.12Z"/>
          <path class="cls-32" d="m173.18,324.02c-2.48-2.99-4.97-3.67-4.97-3.67-3.71,15.67-23.8,30.46-43.79,36.67,1.3,5.56,4.31,14.96,10.68,22.34,33.16-18.65,38.07-55.35,38.07-55.35Z"/>
        </g>
        <g>
          <path class="cls-6" d="m172.58,324.78c.26.82-2.74,2.08-4.51-1.29-.06-1.61-1.04-8.53-.08-9.85,5.14-7.01,15.1-15.79,15.1-15.79,1.68,1.66.3,3.29.3,3.29l-4.83,5.03c1.01,1.83,2.24,3.37,2.82,5.58.44,1.67.17,3.46-.68,4.98-.85,1.53-2.01,3.51-3.1,5.07-2.07,2.94-5.02,2.96-5.02,2.96Z"/>
          <path class="cls-35" d="m176.44,309.45l-4.4,3.73-1.38,3.72,3.93,4.36s1.32-7.38,2.3-8.97c.98-1.6.47-2.37-.44-2.83Z"/>
        </g>
        <path class="cls-36" d="m55.37,392.17l-9.67-24.41s-23.54,16-27.42,36.28c4.45.33,12.54,1.48,20.47,5.49,1.74-9.58,16.62-17.36,16.62-17.36Z"/>
        <path class="cls-19" d="m75.95,415.14s-26.43,14.94-35.35,2.18c-1.85-2.65-2.29-5.28-1.84-7.79-7.92-4-16.02-5.16-20.47-5.49-1.17,6.11-.55,12.62,3.04,19.19,15.62,28.58,58.12-1.58,58.12-1.58l-3.5-6.52Z"/>
        <g>
          <path class="cls-12" d="m72.77,434.04l14.43-50.38c.16-.57.65-.99,1.24-1.06,2.61-.3,10.19-1.16,18.93-1.9,10.53-.89,22.77-1.61,30.08-1,1.04.09,1.67,1.19,1.21,2.12-4.16,8.41-21.26,42.62-29.82,53.83-.28.37-.72.59-1.19.58l-33.47-.31c-.97,0-1.67-.94-1.4-1.88Z"/>
          <path class="cls-33" d="m108.87,376.33l10.46-1.74c.56-.09,1.01.44.84.98l-1.04,3.14c-.09.27-.33.47-.61.51l-10.07,1.34c-.52.07-.95-.4-.83-.92l.64-2.74c.07-.29.31-.52.61-.57Z"/>
          <path class="cls-24" d="m101.04,385.18l.86-4.49c.09-.45.46-.79.91-.84l21.13-2.14c.71-.07,1.28.58,1.11,1.27l-1.34,5.59c-.11.45-.5.77-.96.79l-20.64,1.04c-.67.03-1.2-.57-1.07-1.23Z"/>
          <path class="cls-11" d="m76.26,421.87s-2.01-8.26-1.2-11.2c.81-2.93,2.38-6.7,7.62-5.86,5.24.84,11.41,3.04,11.41,3.04,0,0-.31,3.82-4.29,2.59l2.47,1.91s-.35,3.06-3.71,1.42l2.3,2.53s-1.44,2.51-3.92.9c-2.47-1.61-3.66,5.66-10.67,4.66Z"/>
        </g>
        <path class="cls-8" d="m73.19,340.68l-8.02,23.19c-.13.38.03.81.38,1.01,2.19,1.21,10.06,4.7,19.56-1.32.99-.63,1.66-1.65,1.81-2.81l2.6-20.07h-16.33Z"/>
        <g>
          <path class="cls-17" d="m90.64,319.2s8.81,16.58,7.68,23.28c-1.13,6.7-12.04,6.22-21.58.78l-6.66-17.9,20.56-6.15Z"/>
          <path class="cls-34" d="m77.16,334.46c.39-.17.53-.65.3-1-.71-1.08-2.03-3.28-2.45-5.2,0,0-1.58-1.01,4.03-2.36,5.61-1.34,13.98-3.43,15.74-8.21,1.72-4.66-2.79-16.37-9.98-7.04-.27.35-.81.36-1.08,0-1.18-1.53-4.28-4.72-8.58-2.79-4.03,1.81-4.48,4.76-4.42,6.24.02.44-.38.78-.8.7-2.04-.39-6.92-.72-9.2,4.29-1.88,4.13-.66,6.46.45,7.61.36.37.2.98-.29,1.13-1.34.41-3.07,1.54-2.89,4.68.24,4.33,5.08,3.95,6.46,3.75.23-.03.45.05.61.21,1.18,1.31,6.51,6.87,12.28,7.54.5.06.89-.44.72-.91l-2.5-7.26c-.12-.34.05-.71.37-.85l1.24-.55Z"/>
          <path class="cls-14" d="m78.17,335.49s-6.27-4.3-6.73-.68c-.46,3.62,5.65,5.25,8.67,3.9l-1.94-3.22Z"/>
        </g>
      </g>
    </g>
  </g>
</svg>