<?xml version="1.0" encoding="UTF-8"?>
<svg id="Camada_2" data-name="Camada 2" xmlns="http://www.w3.org/2000/svg" viewBox="0 0 854.79 564.49">
  <defs>
    <style>
      .cls-1 {
        fill: #fff;
      }

      .cls-2 {
        fill: #f9a07b;
      }

      .cls-3 {
        fill: #0a2240;
      }

      .cls-4 {
        fill: #225570;
      }

      .cls-5 {
        fill: #fb3;
      }

      .cls-6 {
        stroke: #f2ae30;
      }

      .cls-6, .cls-7, .cls-8, .cls-9, .cls-10 {
        fill: none;
        stroke-linecap: round;
        stroke-miterlimit: 10;
      }

      .cls-11 {
        fill: #ffd77a;
      }

      .cls-12 {
        fill: #ffc448;
      }

      .cls-13 {
        fill: #0b2d50;
      }

      .cls-14 {
        fill: #654735;
      }

      .cls-15 {
        fill: #3c738c;
      }

      .cls-7 {
        stroke: #0b2d50;
      }

      .cls-7, .cls-8, .cls-9 {
        stroke-width: 2px;
      }

      .cls-8, .cls-10 {
        stroke: #cc454e;
      }

      .cls-16 {
        fill: #262d40;
      }

      .cls-9 {
        stroke: #3a92c9;
      }

      .cls-17 {
        fill: #f0f1f1;
      }

      .cls-18 {
        fill: #cc454e;
      }

      .cls-19 {
        fill: #2c2c2c;
      }

      .cls-20 {
        fill: #3d86e0;
      }

      .cls-21 {
        fill: #e06a58;
      }

      .cls-22 {
        fill: #f2ae30;
      }

      .cls-23 {
        fill: #325f73;
      }

      .cls-24 {
        fill: #ffc73c;
      }

      .cls-25 {
        fill: #fce172;
      }

      .cls-26 {
        fill: #e8729b;
      }

      .cls-27 {
        fill: #3a92c9;
      }

      .cls-28 {
        fill: #ffd053;
      }

      .cls-29 {
        fill: #56c4f9;
      }
    </style>
  </defs>
  <g id="Camada_1-2" data-name="Camada 1">
    <g>
      <g>
        <g>
          <path class="cls-21" d="m368.33,430.91s4.59,42.09,9.73,45.46c9.19,6.06,115.51,20.07,115.51,20.07l-3.48,27.66s-145.62,13.09-151.81,5.81c-10.74-12.62-29.61-73.52-29.61-73.52l59.66-25.48Z"/>
          <path class="cls-22" d="m298.12,322.55l11.76-28.25s31.92,14.99,42.44,33.51c11.26,19.8,25.04,125.05,25.04,125.05,0,0-56.35,12.98-66.71,7.47-10.36-5.52-12.54-137.78-12.54-137.78Z"/>
        </g>
        <path class="cls-3" d="m208.52,191.44c-8.24-3.02-16.97-5.66-25.79-4.99-8.83.67-17.85,5.35-20.84,13.11-2.14,5.49-1.15,11.97-4.53,16.92-3.23,4.74-9.65,6.71-15.64,7.11-6.02.42-12.08-.38-18.06.4-18.45,2.45-31.62,22.5-25.56,38.92,2.41,6.54,7.36,12.79,6.23,19.61-1.2,7.3-8.85,12.1-12,18.87-4.17,9.02.82,19.94,9.06,26.09,8.24,6.12,18.96,8.45,29.36,10,14.32,2.14,29.11,3.15,43.26.13,14.16-3.02,27.68-10.49,35-22.14,3.25-5.16,5.22-10.99,9-15.83,7.8-10,21.62-13.88,32.5-20.97,11.89-7.78,20.61-22.92,13.61-34.77-6.75-11.39-24.33-13.92-31.37-25.14-2.91-4.63-3.61-10.15-5.49-15.2-1.93-5.07-6.54-7.63-18.73-12.1Z"/>
        <g>
          <path class="cls-2" d="m256.54,331.13c2.08,2.39,4.53,5.01,7.93,5.24,3.59.25,6.58-2.29,8.89-4.74,11.91-12.6,19.78-28.08,22.96-44.04-2.96-1.68-5.81-3.29-8.39-4.8-2.39-1.43-4.19-3.42-5.22-5.75-.71-1.72-.96-3.52-.78-5.41,1.68-15.77,3.17-24.56,8.7-40.56-26.3-5.93-51.11-12.98-65.37-24.89-1.74,7.34-3.8,21.7-8.18,35.94-4.68,15.08-11.97,29.99-24.35,36.4,24.28,14.34,45.95,32.17,63.79,52.59Z"/>
          <path class="cls-21" d="m281.93,271.66c-.19,1.89.06,3.71.78,5.41-15.56,18.87-50.35-5.79-65.62-34.92,4.38-14.24,6.44-28.6,8.18-35.94,14.24,11.91,39.07,18.98,65.37,24.89-5.54,16-7.03,24.77-8.7,40.56Z"/>
        </g>
        <g>
          <path class="cls-24" d="m325.26,499.81c-3.44,22.77,21.14,47.29,21.75,59.45-52.2,0-161.54,3.19-217.21-4.38-2.54-14.05,24.95-45.65,24.95-76.86,0-4.13-.17-8.66-.5-13.53-.88-13.92-2.94-30.49-5.22-47.48-6.21-45.57-14.47-94.3-8.37-104.41,11.95-19.69,39.91-33.07,53.77-38.82,4.76-1.97,7.86-3.04,8.09-3.17,17.38,29.65,52.76,54.94,66.12,53.81,3.71-.29,14.72-4.13,22-40.77,2.83,1.61,5.66,3.1,8.47,4.55,13.82,7.19,26.78,13.13,30.51,22.38,9.86,24.35,19.52,85.73,17.38,107.56-2.16,22.02-11.01,38.84-17.22,60.94-1.45,5.18-2.77,10.67-3.84,16.59-.27,1.32-.48,2.7-.69,4.13Z"/>
          <path class="cls-5" d="m347.01,559.27c-52.2,0-161.54,3.19-217.21-4.38-2.54-14.05,24.95-45.65,24.95-76.86,0-4.13-.17-8.66-.5-13.53-.88-13.92-2.94-30.49-5.22-47.48,9.88,10.42,24.28-33.62,30.66-20.72,34.5,69.62,61.7,87.93,108.96,87.93,14.09,0,27.09-1.95,41.14-5.14-1.45,5.18-2.77,10.67-3.84,16.59-.25,1.34-.48,2.73-.69,4.15-3.44,22.73,21.14,47.25,21.75,59.43Z"/>
          <path class="cls-25" d="m299.11,288.22c-2.24,16.29-8.89,38.25-28.23,44.04-26.13,7.82-63.94-41-76.46-58.47,4.76-1.97,7.86-3.04,8.09-3.17,17.38,29.65,52.76,54.94,66.12,53.81,3.71-.29,14.72-4.13,22-40.77,2.83,1.59,5.66,3.08,8.47,4.55Z"/>
        </g>
        <g>
          <g>
            <polygon class="cls-23" points="309.85 544.38 309.66 562.56 634.7 564.49 635.37 543.88 309.85 544.38"/>
            <g>
              <polygon class="cls-23" points="775.58 382.17 768.35 374.83 531.59 373.28 412.81 545.05 419.02 550.04 775.58 382.17"/>
              <polygon class="cls-13" points="536.16 379.64 419.02 550.04 642.77 551.15 775.58 382.17 536.16 379.64"/>
            </g>
          </g>
          <ellipse class="cls-15" cx="592.7" cy="475.39" rx="26.05" ry="13.02"/>
        </g>
        <g>
          <path class="cls-29" d="m314.65,201.79c3.69-19.8,17.27-33.88,30.33-31.45,13.06,2.43,20.66,20.46,16.97,40.26-3.69,19.8-17.27,33.88-30.33,31.44-13.06-2.43-20.66-20.46-16.97-40.26Z"/>
          <path class="cls-13" d="m361.98,148.45c-2.43,17.24-10.13,36.24-21.35,57.23-3.94-17.2-6.46-38.15-9.94-59.09-3.54-20.99-8.05-41.98-15.87-59.14-1.76-3.8-3.67-7.42-5.75-10.78,4.63-.44,9.33,0,13.8,1.24,6.98,1.87,13.53,5.47,18.87,10.3,8.89,7.91,14.85,18.68,18.39,30.05,2.91,9.44,3.44,19.46,1.85,30.2Z"/>
          <g>
            <path class="cls-2" d="m348.81,166.28c-.13,3.4-.36,6.86-.67,10.3-4.78,55.78-28.21,94.05-64.04,94.05-50.6,0-83.4-56.75-83.4-112.34s33.59-94.54,72.91-89.94c22.67,2.6,39.24,10.13,51,21.16,7.78,7.34,13.4,16.21,17.24,26.3,4.38,11.3,6.5,24.1,6.94,37.87,0,.04.04.08.04.13.17,4.07.13,8.22-.02,12.48Z"/>
            <path class="cls-21" d="m348.81,166.28c-1.51-5.39-3.75-10.65-6.82-15.37-29.84,15.6-65.41,21.62-99.13,15.92-6.42,5.35-12.69,10.61-19,15.87.13-25.37.48-42.55,10.38-54.84,9.29-11.53,24.79-15.87,39.47-17.76,16.52-2.16,33.32-2.08,49.8.31,6.31.88,12.85,2.24,18.35,5.43,4.38,11.3,6.5,24.1,6.94,37.87,0,.04.04.08.04.13.15,4.03.1,8.18-.04,12.44Z"/>
          </g>
          <path class="cls-13" d="m356.11,131.93c-6.94,5.87-15.64,10.74-25.42,14.68-27.81,11.22-63.94,14.93-92.1,13.57-13.84,30.41-19.44,41.31-22.98,67.84-13.53-12.69-24.54-35.92-27.81-54.19-3.23-18.2-2.91-37.31,2.16-55.19,7.99-28.21,28.14-43.3,42.11-50.64,3.48-1.91,6.63-3.23,9.06-4.19,17.85-6.9,37.96-6.27,56.26-.67,9.98,3.1,18.39,8.35,25.46,14.81,14.28,12.9,23.11,30.37,28.81,43.45,1.8,4.01,3.25,7.63,4.45,10.55Z"/>
          <path class="cls-4" d="m361.98,148.45c-1.15-6.1-2.87-12.02-5.31-17.72-1.36-3.23-3.04-6.35-4.99-9.37-6.35-9.98-15.6-18.2-26.78-21.83-3.19-4.47-6.54-8.49-10.07-12.06-12.69-12.9-27.58-20.28-43.35-22.86-13.13-2.12-26.78-.92-39.38,3.36,3.48-1.91,6.63-3.23,9.06-4.19,17.85-6.9,37.96-6.27,56.26-.67,9.98,3.1,18.39,8.35,25.46,14.81,6.98,1.87,13.53,5.47,18.87,10.3,8.89,7.91,14.85,18.68,18.39,30.05,2.89,9.44,3.42,19.46,1.82,30.2Z"/>
          <g>
            <g>
              <path class="cls-7" d="m254.71,182.66c9.35-5.35,19.06-7.76,32.67-2.79"/>
              <path class="cls-7" d="m318.76,182.28c8.01-5.98,19.88-6.58,26.07,0"/>
              <path class="cls-8" d="m309.09,212.77c.82,4.24.38,13.61-1.64,17.82"/>
              <ellipse class="cls-16" cx="277.49" cy="209.54" rx="3.86" ry="6.08"/>
              <ellipse class="cls-16" cx="327.92" cy="206.71" rx="3.86" ry="6.08"/>
            </g>
            <g>
              <path class="cls-18" d="m304.31,238.88s-.75,1.47-2.2,3.46c-2.26,3.04-6.12,7.23-11.39,8.87h-.02c-2.22.71-4.63.96-7.32.48-7.88-1.41-9.96-8.68-10.34-14.28-.08-1.09-.08-2.1-.06-3.02.04-2.26.29-3.77.29-3.77,12.56,6.92,31.04,8.26,31.04,8.26Z"/>
              <path class="cls-1" d="m304.31,238.88s-.75,1.47-2.2,3.46c-6.42-.08-19.54-3.38-29.13-7.95.04-2.26.29-3.77.29-3.77,12.56,6.92,31.04,8.26,31.04,8.26Z"/>
              <path class="cls-26" d="m290.7,251.19c-2.22.71-4.63.96-7.32.48-7.88-1.41-9.96-8.68-10.34-14.28,3.82.46,7.51,1.93,10.57,4.26,3.21,2.45,5.66,5.79,7.09,9.54Z"/>
            </g>
          </g>
          <g>
            <path class="cls-20" d="m215.73,173.03s-.44-26.15,10.44-52.13c13.65-32.61,41.48-46.55,68.47-47.5,32.53-1.15,52.89,20.68,52.89,20.68,0,0-10.59-18.68-31.48-24.05-13.71-3.52-34.41-4.09-51.02,2.66-17.11,6.94-38.44,26.21-46.16,46.58-7.7,20.36-11.45,52.07-11.45,52.07l8.3,1.7Z"/>
            <g>
              <ellipse class="cls-29" cx="211.22" cy="202.91" rx="25.35" ry="38.42" transform="translate(-19.85 22.93) rotate(-5.94)"/>
              <path class="cls-20" d="m200.17,177.06c8.99-1.35,18.21,10.38,20.58,26.19,2.38,15.82-2.98,29.73-11.98,31.09-8.99,1.35-18.21-10.38-20.58-26.19-2.38-15.82,2.98-29.73,11.98-31.09Z"/>
            </g>
            <g>
              <ellipse class="cls-27" cx="294.85" cy="262.99" rx="13.51" ry="8.41"/>
              <path class="cls-9" d="m227.01,234.87s19.84,25.5,54.33,28.12"/>
            </g>
          </g>
        </g>
        <g>
          <g>
            <g>
              <g>
                <path class="cls-2" d="m309.66,486.21l-1.3,33.53s-121.27,36.34-141.3,24.85c-9.77-5.62-18.89-36.53-25.71-66.71-7.13-31.71-11.7-62.58-11.7-62.58l71.09-13.92s.04,43.35,2.45,68.41c.86,9.33,2.1,16.13,3.75,17.24,6.27,4.13,102.71-.82,102.71-.82Z"/>
                <path class="cls-21" d="m203.19,469.74c-12.92,4.19-37.85,10.67-61.84,8.12-7.13-31.71-11.7-62.58-11.7-62.58l71.09-13.92s.04,43.33,2.45,68.38Z"/>
              </g>
              <g>
                <path class="cls-2" d="m306.2,486.54c18.03-3.86,48.57-13.13,61.23-16.32,9-2.26,32.42,9.86,38.61,21.29,2.71,4.99,5.26,33.26-4.11,30.34-4.7-1.47-3.92-13.59-5.39-18.54-1.2-4.03-5.01-7.93-10.82-11.28,3.88,9.67,3.73,18.1,3.31,28.54-.08,2.31-.23,4.72-1.34,6.71-1.13,1.99-3.56,3.42-5.66,2.54-2.14-.88-2.87-3.54-3.36-5.87-1.66-8.05-3.33-16.11-4.01-25.21.17,8.95-.02,17.93-.59,26.86-.42,6.84-3.82,10.59-7.99,9.39-1.87-.52-2.62-2.24-3.42-4.51-1.26,4.38-4.4,9.23-8.47,7.38-2.47-1.11-4.01-10.04-3.56-19.23-7.8,4.84-16.61,6.9-26.76,7.36-9.1.42-18.41-1.28-23.89-7.47.55-9.67,3.73-23.97,6.21-32Z"/>
                <path class="cls-10" d="m362.86,529.11c.61-7.26-.02-14.62-1.87-21.62"/>
              </g>
            </g>
            <path class="cls-24" d="m192.75,331.04c-5.16-14.53-24.05-44.27-24.05-44.27,0,0-28.83,12-39.07,32.36-17.32,34.48-8.51,133.46-8.51,133.46,23.34,9.77,70.19,9.92,90.13,7.11,0,0-8.16-99.61-18.5-128.65Z"/>
          </g>
          <path class="cls-6" d="m196.42,337.13c7.86,37.64,12.08,72.75,13.42,107.14"/>
        </g>
      </g>
      <g>
        <g>
          <g>
            <circle class="cls-28" cx="578.09" cy="186.35" r="136.77" transform="translate(37.55 463.35) rotate(-45)"/>
            <path class="cls-12" d="m666.9,82.13c10.16,23.12,14.03,49.32,9.82,76.12-11.72,74.62-81.72,125.62-156.34,113.89-25.92-4.07-48.98-15.18-67.56-31.06,18.12,41.26,56.24,72.71,104.07,80.22,74.62,11.72,144.62-39.27,156.34-113.89,7.65-48.71-11.42-95.44-46.34-125.28Z"/>
            <path class="cls-11" d="m459.1,182.26c10.88-69.28,75.87-116.63,145.16-105.74,40.5,6.36,73.49,31.21,91.75,64.6-15.75-41.01-52.38-72.7-98.9-80.01-69.28-10.88-134.27,36.46-145.16,105.74-4.52,28.79,1.02,56.83,13.99,80.56-7.71-20.07-10.42-42.38-6.85-65.14Z"/>
          </g>
          <path class="cls-14" d="m626.48,211.57c1.44.06,1.97,1.93,1.75,3.24-1.01,5.99-3.57,11.88-7.62,17.48-3.82,5.14-8.83,9.67-14.53,13.14-11.28,6.77-25.28,9.49-38.44,7.48-13.41-1.85-26.03-8.77-34.55-18.86-8.88-10.38-13.16-23.82-11.46-35.94.19-1.39,1.41-3.02,2.9-2.5,1.23.43,2,2.31,2.81,3.24,1.25,1.43,2.57,2.8,3.93,4.12,2.72,2.64,5.63,5.08,8.65,7.35,11.15,8.4,24.4,14.08,38.41,15.04,8.92.61,17.88-.69,26.36-3.47,5.09-1.67,10.01-3.86,14.71-6.41,1.78-.97,4.92-3.83,6.94-3.9.04,0,.09,0,.13,0Z"/>
          <g>
            <path class="cls-19" d="m540.48,155.66c-1.46,9.27-7.09,16.08-12.59,15.22-5.5-.86-8.78-9.08-7.32-18.34,1.46-9.27,7.09-16.08,12.59-15.22,5.5.86,8.78,9.08,7.32,18.35Z"/>
            <path class="cls-19" d="m650.57,178.66c-2.32-10.16-10.48-17.77-20.77-19.38-10.07-1.58-20.07,2.99-25.45,11.65-1.03,1.66-.76,3.76.67,5.1,1.42,1.35,3.54,1.5,5.14.37,8.64-6.09,21.41-10.06,33.18,5.62.66.89,1.61,1.43,2.63,1.59.78.12,1.59.02,2.35-.34,1.76-.82,2.69-2.72,2.25-4.61Z"/>
          </g>
        </g>
        <g>
          <path class="cls-1" d="m705.72,79.25c-17.51,46.69-57.11,52.1-57.11,52.1,0,0,36.03,17.29,38.38,67.1,17.51-46.69,57.11-52.1,57.11-52.1,0,0-36.03-17.29-38.38-67.1Z"/>
          <path class="cls-17" d="m705.72,79.25c-17.51,46.69-57.11,52.1-57.11,52.1,0,0,49.58,15.4,57.11-52.1Z"/>
        </g>
      </g>
      <g>
        <g>
          <g>
            <circle class="cls-28" cx="69.75" cy="79.09" r="69.73" transform="translate(-35.5 72.48) rotate(-45)"/>
            <path class="cls-12" d="m84.05,10.77c10.19,7.87,18.32,18.65,22.98,31.67,12.97,36.26-5.9,76.17-42.16,89.14-12.59,4.51-25.63,5.17-37.82,2.59,18.19,14.04,42.92,18.81,66.16,10.5,36.26-12.97,55.14-52.88,42.16-89.14-8.47-23.67-28.41-39.92-51.33-44.76Z"/>
            <path class="cls-11" d="m15.5,106.31C3.45,72.65,20.98,35.6,54.64,23.55c19.68-7.04,40.51-3.97,56.83,6.51-17.06-14.51-41.19-19.75-63.79-11.66C14.02,30.44-3.51,67.5,8.53,101.16c5,13.99,14.33,25.18,25.93,32.64-8.35-7.1-15.01-16.42-18.97-27.48Z"/>
          </g>
          <path class="cls-14" d="m97.56,78.56c.66-.32,1.35.38,1.58,1.02,1.01,2.93,1.3,6.19.86,9.68-.45,3.23-1.59,6.48-3.29,9.43-3.39,5.78-9,10.42-15.38,12.73-6.45,2.45-13.79,2.43-20.07,0-6.51-2.48-11.71-7.45-13.9-13.29-.25-.67-.11-1.7.69-1.83.66-.11,1.46.55,2.05.76.91.33,1.83.62,2.76.88,1.86.52,3.76.9,5.67,1.18,7.04,1.04,14.36.34,20.86-2.65,4.14-1.9,7.83-4.67,10.95-7.99,1.87-1.99,3.54-4.17,5.02-6.46.56-.87,1.27-2.92,2.16-3.44.02-.01.04-.02.06-.03Z"/>
          <g>
            <path class="cls-19" d="m45.42,74.54c1.61,4.5.75,8.93-1.92,9.88-2.67.96-6.14-1.92-7.75-6.42-1.61-4.5-.75-8.93,1.92-9.88,2.67-.96,6.14,1.92,7.75,6.42Z"/>
            <path class="cls-19" d="m100.31,57.96c-3.52-3.98-9.03-5.39-14.03-3.6-4.89,1.75-8.25,6.24-8.55,11.43-.06.99.58,1.87,1.54,2.12.97.26,1.95-.19,2.39-1.09,2.38-4.84,7.12-9.73,16.22-5.59.51.23,1.07.25,1.57.07.38-.13.72-.38.97-.73.59-.8.54-1.87-.12-2.62Z"/>
          </g>
        </g>
        <g>
          <path class="cls-1" d="m100.72,0c3.56,25.17-12.84,37.26-12.84,37.26,0,0,20.35-1.06,33.56,20.66-3.56-25.17,12.84-37.26,12.84-37.26,0,0-20.35,1.06-33.56-20.66Z"/>
          <path class="cls-17" d="m100.72,0c3.56,25.17-12.84,37.26-12.84,37.26,0,0,25.95-5.21,12.84-37.26Z"/>
        </g>
      </g>
      <g>
        <g>
          <g>
            <circle class="cls-28" cx="795.7" cy="397.87" r="59.07" transform="translate(-48.28 679.18) rotate(-45)"/>
            <path class="cls-12" d="m807.82,340c8.63,6.66,15.52,15.8,19.47,26.83,10.99,30.72-5,64.52-35.72,75.51-10.67,3.82-21.71,4.38-32.04,2.2,15.41,11.89,36.36,15.93,56.05,8.89,30.72-10.99,46.71-44.8,35.72-75.51-7.17-20.05-24.07-33.82-43.48-37.91Z"/>
            <path class="cls-11" d="m749.75,420.94c-10.2-28.52,4.64-59.91,33.16-70.11,16.67-5.96,34.32-3.37,48.14,5.51-14.45-12.29-34.89-16.73-54.04-9.88-28.52,10.2-43.36,41.59-33.16,70.11,4.24,11.85,12.14,21.33,21.97,27.65-7.07-6.01-12.72-13.91-16.07-23.28Z"/>
          </g>
          <path class="cls-14" d="m819.26,397.43c.56-.27,1.15.32,1.33.87.86,2.48,1.1,5.24.73,8.2-.38,2.74-1.35,5.49-2.79,7.99-2.87,4.9-7.62,8.83-13.03,10.78-5.47,2.07-11.68,2.06-17,0-5.51-2.1-9.92-6.31-11.78-11.25-.21-.57-.09-1.44.58-1.55.56-.09,1.24.46,1.73.65.77.28,1.55.53,2.34.75,1.58.44,3.18.76,4.8,1,5.96.88,12.16.29,17.67-2.24,3.51-1.61,6.64-3.96,9.28-6.77,1.58-1.69,3-3.53,4.25-5.47.48-.74,1.07-2.47,1.83-2.91.02,0,.03-.02.05-.03Z"/>
          <g>
            <path class="cls-19" d="m775.1,394.02c1.36,3.81.64,7.56-1.63,8.37s-5.2-1.63-6.57-5.44-.64-7.56,1.63-8.37c2.26-.81,5.2,1.63,6.57,5.44Z"/>
            <path class="cls-19" d="m821.59,379.97c-2.98-3.37-7.65-4.57-11.88-3.05-4.15,1.48-6.99,5.28-7.24,9.68-.05.84.49,1.58,1.31,1.8.82.22,1.65-.16,2.03-.92,2.01-4.1,6.03-8.24,13.74-4.73.44.2.91.21,1.33.06.32-.11.61-.32.82-.61.5-.67.46-1.59-.1-2.22Z"/>
          </g>
        </g>
        <g>
          <path class="cls-1" d="m821.94,330.88c3.02,21.32-10.87,31.56-10.87,31.56,0,0,17.24-.9,28.43,17.5-3.02-21.32,10.87-31.56,10.87-31.56,0,0-17.24.9-28.43-17.5Z"/>
          <path class="cls-17" d="m821.94,330.88c3.02,21.32-10.87,31.56-10.87,31.56,0,0,21.98-4.42,10.87-31.56Z"/>
        </g>
      </g>
    </g>
  </g>
</svg>