<?xml version="1.0" encoding="UTF-8"?>
<svg id="Camada_2" data-name="Camada 2" xmlns="http://www.w3.org/2000/svg" xmlns:xlink="http://www.w3.org/1999/xlink" viewBox="0 0 743.29 610">
  <defs>
    <style>
      .cls-1 {
        fill: #fff;
      }

      .cls-2 {
        fill: #050233;
      }

      .cls-3 {
        fill: #211e87;
      }

      .cls-4 {
        fill: #d5edff;
      }

      .cls-5 {
        fill: #f6f6f6;
      }

      .cls-6 {
        fill: #0c0c0c;
      }

      .cls-7 {
        fill: #ff8a8b;
      }

      .cls-8 {
        fill: #222;
      }

      .cls-9 {
        fill: #ffc5c7;
      }

      .cls-10 {
        filter: url(#drop-shadow-1);
      }

      .cls-11 {
        fill: #9bd9ff;
      }

      .cls-12 {
        fill: #00b0f9;
      }

      .cls-13 {
        fill: #2a2a2a;
      }

      .cls-14 {
        fill: #251462;
      }

      .cls-15 {
        fill: url(#Gradiente_sem_nome_2);
      }

      .cls-16 {
        fill: #ff8384;
      }

      .cls-17 {
        fill: #ff787b;
      }

      .cls-18 {
        fill: #eeab00;
      }

      .cls-19 {
        fill: url(#Gradiente_sem_nome_2-2);
      }

      .cls-20 {
        fill: #c1c1c1;
      }

      .cls-21 {
        fill: #9b9b9b;
      }

      .cls-22 {
        fill: #383838;
      }

      .cls-23 {
        fill: #e21926;
      }

      .cls-24 {
        fill: #666;
      }

      .cls-25 {
        fill: #d3f0ff;
      }
    </style>
    <radialGradient id="Gradiente_sem_nome_2" data-name="Gradiente sem nome 2" cx="310.43" cy="276.84" fx="310.43" fy="276.84" r="229.97" gradientUnits="userSpaceOnUse">
      <stop offset="0" stop-color="#fff"/>
      <stop offset="1" stop-color="#dadada"/>
    </radialGradient>
    <radialGradient id="Gradiente_sem_nome_2-2" data-name="Gradiente sem nome 2" cx="310.43" cy="460.17" fx="310.43" fy="460.17" r="11.75" xlink:href="#Gradiente_sem_nome_2"/>
    <filter id="drop-shadow-1" filterUnits="userSpaceOnUse">
      <feOffset dx="5" dy="5"/>
      <feGaussianBlur result="blur" stdDeviation="0"/>
      <feFlood flood-color="#00214f" flood-opacity=".25"/>
      <feComposite in2="blur" operator="in"/>
      <feComposite in="SourceGraphic"/>
    </filter>
  </defs>
  <g id="Camada_1-2" data-name="Camada 1">
    <g>
      <g>
        <g>
          <rect class="cls-22" x="245.59" y="471.92" width="129.69" height="84.66"/>
          <rect class="cls-18" x="245.59" y="471.92" width="129.69" height="37.57"/>
          <path class="cls-22" d="m19.27,90.61h582.32c10.64,0,19.27,8.63,19.27,19.27v333.03H0V109.88c0-10.64,8.63-19.27,19.27-19.27Z"/>
          <rect class="cls-15" x="21.64" y="127.25" width="577.57" height="299.18"/>
          <path class="cls-22" d="m0,426.42h620.86v43.16c0,10.64-8.63,19.27-19.27,19.27H19.27c-10.64,0-19.27-8.63-19.27-19.27v-43.16h0Z"/>
          <circle class="cls-19" cx="310.43" cy="460.17" r="11.75"/>
          <path class="cls-22" d="m544.34,571.89H76.52c-4.31,0-7.8-3.49-7.8-7.8h0c0-12.6,10.22-22.82,22.82-22.82h437.78c12.6,0,22.82,10.22,22.82,22.82h0c0,4.31-3.49,7.8-7.8,7.8Z"/>
          <g>
            <g>
              <rect class="cls-11" x="445.87" y="172.21" width="128.04" height="32.03" rx="2.19" ry="2.19"/>
              <g>
                <polygon class="cls-18" points="463.9 193.52 459 195.76 459.62 190.41 455.97 186.44 461.26 185.38 463.9 180.68 466.55 185.38 471.83 186.44 468.19 190.41 468.81 195.76 463.9 193.52"/>
                <polygon class="cls-18" points="486.89 193.52 481.99 195.76 482.61 190.41 478.96 186.44 484.25 185.38 486.89 180.68 489.54 185.38 494.82 186.44 491.18 190.41 491.8 195.76 486.89 193.52"/>
                <polygon class="cls-18" points="509.88 193.52 504.98 195.76 505.6 190.41 501.95 186.44 507.24 185.38 509.88 180.68 512.53 185.38 517.81 186.44 514.17 190.41 514.79 195.76 509.88 193.52"/>
                <polygon class="cls-18" points="532.87 193.52 527.97 195.76 528.59 190.41 524.95 186.44 530.23 185.38 532.87 180.68 535.52 185.38 540.8 186.44 537.16 190.41 537.78 195.76 532.87 193.52"/>
                <polygon class="cls-18" points="555.87 193.52 550.96 195.76 551.58 190.41 547.94 186.44 553.22 185.38 555.87 180.68 558.51 185.38 563.8 186.44 560.15 190.41 560.77 195.76 555.87 193.52"/>
              </g>
            </g>
            <g>
              <rect class="cls-11" x="46.96" y="153.59" width="143.11" height="44.51" rx="4.38" ry="4.38"/>
              <g>
                <g>
                  <circle class="cls-17" cx="70.77" cy="175.85" r="12.48" transform="translate(-118.77 173.57) rotate(-67.39)"/>
                  <path class="cls-5" d="m62.4,185.08c2.22,2.01,5.15,3.25,8.38,3.25s6.16-1.24,8.38-3.25c-.26-3.25-2.34-5.98-5.24-7.14,1.24-.95,2.06-2.43,2.06-4.11,0-2.87-2.32-5.19-5.19-5.19s-5.19,2.32-5.19,5.19c0,1.68.81,3.16,2.06,4.11-2.9,1.16-4.98,3.89-5.24,7.14Z"/>
                </g>
                <g>
                  <rect class="cls-25" x="92.31" y="169.34" width="66.51" height="2.38"/>
                  <rect class="cls-25" x="92.31" y="174.66" width="86.43" height="2.38"/>
                  <rect class="cls-25" x="92.31" y="179.98" width="86.43" height="2.38"/>
                </g>
              </g>
            </g>
            <g>
              <rect class="cls-11" x="46.96" y="215.69" width="81.62" height="20.41" rx="2.19" ry="2.19"/>
              <rect class="cls-11" x="46.96" y="244.54" width="81.62" height="20.41" rx="2.19" ry="2.19"/>
              <rect class="cls-25" x="46.96" y="273.38" width="81.62" height="20.41" rx="2.19" ry="2.19"/>
              <rect class="cls-18" x="140.99" y="244.54" width="81.62" height="20.41" rx="2.19" ry="2.19"/>
              <rect class="cls-11" x="140.99" y="273.38" width="81.62" height="20.41" rx="2.19" ry="2.19"/>
            </g>
            <g>
              <rect class="cls-18" x="492.29" y="254.74" width="81.62" height="20.41" rx="2.19" ry="2.19"/>
              <rect class="cls-11" x="492.29" y="283.59" width="81.62" height="20.41" rx="2.19" ry="2.19"/>
              <rect class="cls-25" x="492.29" y="312.43" width="81.62" height="20.41" rx="2.19" ry="2.19"/>
            </g>
          </g>
        </g>
        <g>
          <g>
            <path class="cls-6" d="m212.53,147.29c-3.68,93.07-46.96,102.49,0,169.63,46.96,67.14,208.72,43.35,211.47-7.48,2.75-50.83-31.41-81.45-9.03-145.06,22.38-63.6-202.44-17.1-202.44-17.1Z"/>
            <path class="cls-22" d="m224.58,172.07c-5.46,42.3-19.97,84.02-12.51,106.95,0,0,.82-25.8,5.65-32.01,0,0-4.82,36.21,9.95,65.58,14.77,29.37,174.21,23.78,174.21,23.78,0,0,3.26-32.17,0-55.48-3.26-23.31-9.48-32.37-11.27-44.85,0,0,9.83,20.3,13.66,28.07,3.83,7.77,4.34,19.16,4.34,19.16,0,0,1.04-20.71-7.04-36.56-8.08-15.85-3.23-59.56-.84-76.55,2.39-17-112.46-37.15-124.96-30.34-12.5,6.81-51.18,32.27-51.18,32.27Z"/>
          </g>
          <g>
            <path class="cls-1" d="m261.62,286.96c-55.42,18.77-95.17,25.84-106.66,62.06-11.48,36.22-27.58,77.4-27.58,77.4h374.76s-18.55-85.35-38.87-99.49c-20.32-14.13-99.82-37.82-124.12-41.88-24.29-4.06-77.53,1.9-77.53,1.9Z"/>
            <path class="cls-4" d="m414.38,369s1.41,33.98-3.55,57.42h12.7l-9.15-57.42Z"/>
            <path class="cls-4" d="m217.19,382.39s-1.08,26.06,2.72,44.03h-9.74l7.02-44.03Z"/>
            <path class="cls-4" d="m172.63,338.67c4.86-12.8,20.53-27.83,20.55-27.85-19.02,8.75-32.33,19.64-38.21,38.19-11.48,36.22-27.58,77.4-27.58,77.4h30.23c-1.33-38.57,10.16-74.94,15.02-87.75Z"/>
            <path class="cls-18" d="m329.43,357.41s-26.94-1.77-43.29-14.13c-16.34-12.37-14.13-24.73-14.13-24.73,0,0-11.93.88-16.34,0-4.42-.88,1.92-46.91,27.68-47.75,25.76-.84,79.72,9.84,86.35,10.2,6.63.36,28.48,19.95,22.97,44.76-.88,3.98-11.55-7.22-16.41-1.48-4.86,5.74-8.83,30.04-46.82,33.13Z"/>
            <path class="cls-6" d="m320.49,350.01s-32.36-21.71-46.94-64.34c-2.31-6.74,1.59-10.51,8.75-11.66l38.19,76Z"/>
            <path class="cls-6" d="m330.8,356.54c18.95-12.13,36.4-41.94,41.7-51.88,5.3-9.94,5.51-19.29-10.72-21.02-16.23-1.73-30.98,72.9-30.98,72.9Z"/>
            <path class="cls-9" d="m364.2,223.18c-4.88,39.4-7.68,60.47,5.5,76.81,0,0-23.48,47.7-40.27,57.42,0,0-40.19-28.71-51.24-74.65,0,0,6.63-10.16,7.51-25.18.88-15.02-1.33-41.08-1.33-41.08l79.82,6.67Z"/>
            <path class="cls-7" d="m353.92,328.21c-24.51,29.68-49.77,4.63-59.15-8.1,15.5,23.6,34.67,37.3,34.67,37.3,7.73-4.47,16.87-16.99,24.49-29.2Z"/>
            <path class="cls-7" d="m285.7,257.59c-.76,12.86-5.71,22.13-7.12,24.54,18.18-3.23,57.19-10.71,81.64-19.42.39-10.8,2.01-23.68,3.97-39.53l-48.69-4.07-31.08-2.02c.31,3.89,2.08,26.79,1.28,40.5Z"/>
          </g>
          <g>
            <g>
              <path class="cls-20" d="m427.69,122.78c1.56-24.85,1.97-47.46-17.42-76.44-19.39-28.98-15.3,47.5-14.98,48.37s17.19,33.12,17.19,33.12l15.21-5.05Z"/>
              <path class="cls-21" d="m416.74,162.11c-2.46,14.29-.79,26.09,6.06,27.27,6.85,1.18,14.4-9.45,16.86-23.74,2.46-14.29-1.1-26.83-7.95-28.01-6.85-1.18-12.51,10.19-14.98,24.48Z"/>
              <path class="cls-24" d="m430.13,171.28l-4.31,1.75-4.23,11.71s-.72,1.45-1.6,3.32c.82.66,1.74,1.13,2.8,1.31,6.07,1.05,12.68-7.19,15.83-19.02-5.45,2.83-8.49.92-8.49.92Z"/>
              <path class="cls-21" d="m410.4,118.13c5.32-.98,20.39,3.01,22.1,10.8,3.89,17.71-2.57,58.79-14.44,68.93-4.32,3.7-16.36,2.94-20.63,1.63-10.84-3.33-10.88-20.66-6.92-43.66,3.96-23,12.51-36.33,19.88-37.7Z"/>
              <path class="cls-24" d="m430.13,171.28c-5.52,3.98-8.38,0-8.38,0-3.74,7.95-10.61,7.95-19.29,9.12l-4.87-2.58s-4.75,3.5-9.21,6.66c.8,7.92,3.51,13.3,9.05,15,4.27,1.31,16.31,2.06,20.63-1.63,5.2-4.44,9.36-14.83,12.07-26.58Z"/>
              <path class="cls-20" d="m432.5,128.93c-1.71-7.79-16.79-11.78-22.1-10.8-.44.08-.88.21-1.33.38,9.74-.72,14.84,6.1,15.96,13.91,1.12,7.81,0,43.16-11.47,58.76-1.46,1.99-3.99,7.8-12.52,9.03,5.41.71,13.61.57,17.02-2.35,11.86-10.14,18.33-51.22,14.44-68.93Z"/>
              <path class="cls-21" d="m430.13,171.28c-5.52,3.98-8.38,0-8.38,0,0,0,0,0,0,0-1.82,7.63-4.45,14.81-8.19,19.89-1.46,1.99-3.99,7.8-12.52,9.03,5.41.71,13.61.57,17.02-2.35,5.2-4.44,9.36-14.83,12.07-26.58Z"/>
              <path class="cls-24" d="m411.21,159.06c-2.15,12.48-6.6,22.12-9.94,21.55-3.34-.58-4.31-11.16-2.16-23.63,2.15-12.48,6.6-22.12,9.94-21.55,3.34.58,4.31,11.16,2.16,23.63Z"/>
            </g>
            <path class="cls-9" d="m244.24,198.73c.15.36.3.73.46,1.09,5.44,12.53,15.23,25.57,24.82,35.34,14.17,14.44,33.4,26.99,53.79,29.72,21.91,2.94,42.02-9.25,56.67-24.89,6.73-7.19,12-16.06,14.17-25.73,2.31-10.28,1.06-21.29,2.74-31.79.9-5.64,3.17-10.96,5.08-16.35,5.85-16.52,8.78-35.02,6.77-52.79-.84-7.39-2.04-17.98-6.04-24.38-4.6-7.37-15.23-13.16-22.41-17.65-23-14.39-53.49-19.66-79.63-11.53-26.72,8.32-48.5,29.74-59.76,55.06-5.36,12.06-8.47,23.92-5.87,36.92,3.24,16.19,2.75,31.38,9.2,46.98Z"/>
            <path class="cls-7" d="m238.89,137.86s41.52,11.41,78.18,0c36.66-11.41,49.1-34.38,52.16-46.3,0,0,29.95,23.48,35.93,58.12,0,0,2.06-61.5-17.05-69.16-19.11-7.66-59.11-17.67-63.53-13.69-4.42,3.98-78.62,46.38-78.62,46.38l-7.07,24.66Z"/>
            <g>
              <path class="cls-2" d="m281.14,138.72c3.02-1.48,6.14-2.74,9.36-3.85,3.23-1.07,6.58-1.88,10.03-2.3,3.42-.42,7.02-.91,10.46-.03,4.98,1.36,6.97,2.36,9.39,4.65l-.17.45c-1.81.11-3.47,0-5.12-.06l-4.83-.26c-3.15-.12-6.26-.89-9.49-.89-3.21,0-6.45.29-9.71.78-3.26.45-6.5,1.21-9.77,1.96l-.16-.46Z"/>
              <path class="cls-2" d="m389.21,139.76c-3.1-1.32-6.31-2.23-9.57-2.68-3.25-.49-6.54-.63-9.79-.49-3.27.15-6.41,1.03-9.64,1.23-3.25.23-6.49.55-10.1.43l-.17-.45c2.74-2.41,6.04-3.83,9.45-4.74,3.43-.95,7.05-.6,10.53-.33,3.5.27,6.96.92,10.27,2.01,3.29,1.13,6.48,2.58,9.25,4.61l-.24.42Z"/>
              <ellipse class="cls-2" cx="301.34" cy="157.31" rx="3.15" ry="6.45"/>
              <ellipse class="cls-2" cx="367.71" cy="157.62" rx="3.03" ry="6.45"/>
              <path class="cls-7" d="m344.16,188.32c-.93,2.4-2.5,4.62-4.68,5.98-2.19,1.36-5.02,1.78-7.39.78-3.83-1.62-4.89-6.09.33-5.08,2.04.39,3.97.64,6.05.35,1.07-.15,5.24-.83,5.7-2.02Z"/>
              <g>
                <path class="cls-23" d="m306.16,205.85c13.13,1.7,44.78,2.47,55.12,1.96-4.23,14.03-14.63,27.77-28.89,27.27-14.63-.52-23.13-14.6-26.23-29.23Z"/>
                <path class="cls-16" d="m349.65,227.8c-11.01-9.27-18.95-1.34-18.95-1.34-2.51-1.7-9.45-4.58-15.54-.46,3.37,4.12,7.6,7.16,12.71,8.43,1.59.22,3.25.44,4.91.64,6.52.11,12.21-2.77,16.87-7.27Z"/>
                <path class="cls-1" d="m309.57,206.23c.23,2.35.68,4.68,1.39,6.92,14.23,5.23,30.13,6.05,44.76,2.31.53-2.45.93-4.98,1.22-7.53-11.86.18-34.62-.45-47.36-1.7Z"/>
              </g>
            </g>
            <g>
              <path class="cls-20" d="m391.16,233.15c-1.06.08-2.11.06-3.13-.08-10.03-1.36-15.41-2.11-15.41-2.11l.61-4.4s5.37.75,15.39,2.11c9.24,1.26,21.09-13.42,24.21-30.68.22-1.19,1.3-2.01,2.49-1.85h0c1.23.17,2.11,1.32,1.9,2.55-3.25,18.21-15.2,33.59-26.06,34.46Z"/>
              <path class="cls-21" d="m416.71,196.89c0,.16,0,.32-.03.48-3.25,18.21-15.2,33.59-26.07,34.46-1.06.08-2.11.06-3.13-.08-7.92-1.07-12.92-1.76-14.68-2.01l-.17,1.22s5.38.75,15.41,2.11c1.02.14,2.07.16,3.13.08,10.87-.87,22.82-16.24,26.06-34.46.12-.68-.1-1.32-.52-1.8Z"/>
              <path class="cls-13" d="m372.87,233.47l-8.8-1.2c-3.04-.42-5.16-3.22-4.75-6.25h0c.42-3.04,3.22-5.16,6.25-4.75l8.8,1.2c3.04.42,5.16,3.22,4.75,6.25h0c-.42,3.04-3.22,5.16-6.25,4.75Z"/>
              <path class="cls-8" d="m377.84,224.39c.02.36.01.73-.04,1.1h0c-.42,3.04-3.22,5.16-6.25,4.75l-7.7-1.05c-2.09-.29-3.73-1.72-4.43-3.57-.03.14-.08.26-.1.4h0c-.42,3.04,1.71,5.84,4.75,6.25l8.8,1.2c3.04.42,5.84-1.71,6.25-4.75h0c.22-1.63-.3-3.17-1.29-4.34Z"/>
            </g>
            <g>
              <path class="cls-22" d="m360.79,80.7s44.17,18.55,44.61,79.06c0,0,35.34-38.87,14.58-97.17C399.22,4.28,339.15,6.49,339.15,6.49l21.64,74.2Z"/>
              <path class="cls-14" d="m360.79,80.7s43.08,18.14,44.55,76.92c0-.34,0-.66,0-1.01-.72-59.31-21.28-75.07-41.6-85.87l-4.84,3.46,1.89,6.49Z"/>
              <path class="cls-22" d="m236.38,134.58s121.76,7.07,131.48-54.77c9.72-61.84-21.49-76.85-36.81-78.33-15.31-1.48-45.15-5.03-70.67,19.73-25.52,24.76-54.01,39.75-50.84,119.85l26.85-6.48Z"/>
              <path class="cls-2" d="m233.86,117.83c5.31-2.95,10.61-5.99,15.73-9.33,5.15-3.29,10.22-6.75,15.17-10.38,9.92-7.24,19.53-14.98,28.6-23.36-8.24,9.21-17.1,17.88-26.38,26.11-4.64,4.13-9.41,8.11-14.32,11.95-4.87,3.89-9.98,7.5-15.14,11.05l-3.66-6.05Z"/>
              <path class="cls-2" d="m303.07,26.48c-28.85,15.61-60.58,53.14-61.19,84.23,0,0-12.2-11.33-5.78-27.56,6.42-16.24,25.3-34.22,35.77-41.95,10.47-7.73,31.21-14.72,31.21-14.72Z"/>
              <path class="cls-2" d="m243.63,121.29c-3.86-10.02-1.21-44.2,0-53.92,1.21-9.72,4.8-17.12,5.19-18.94.39-1.82-.45-2.37-.45-2.37,20.09-30.92,48.6-35.34,77.5-44.38l-1.66-.82c-16.34-1.3-41.7-1.11-63.83,20.36-25.52,24.76-54.02,39.75-50.84,119.85l26.85-6.48s41.64,2.41,78.16-7.95c-40.61,7.98-67.05,4.67-70.91-5.35Z"/>
              <path class="cls-2" d="m352.78,79.62c-11.93,18.63-26.7,36.01-83.08,44.11-37.56,5.39-43.49-2.31-43.49-2.31,0,0,65.55-4.37,92.03-17.81,26.48-13.44,34.54-23.99,34.54-23.99Z"/>
            </g>
            <g>
              <path class="cls-20" d="m244.77,47.53c7.3-21.35,43.88-45.45,86.28-46.04,0,0-21.79-5.3-47.11,4.12-25.32,9.42-43.55,24.79-53.58,42.14-10.03,17.35,14.41-.22,14.41-.22Z"/>
              <path class="cls-21" d="m281.72,11.38c-23.19,9.28-36.07,28.93-36.07,28.93-1.17.15-11.75,2.12-11.91,2.15-1.2,1.74-2.35,3.5-3.38,5.28-.36.62-.66,1.19-.94,1.73,3.32-.23,8.18-.45,9.46.12.53.23,1.58.16,3.23-.24,1.59-1.05,2.66-1.82,2.66-1.82,7.3-21.35,43.88-45.45,86.28-46.04-14.27-.18-26.14.62-49.33,9.9Z"/>
              <path class="cls-20" d="m239.11,122.78c-2-39.66,3.61-66.71,8.61-74.07,5.01-7.36-15.54-4.16-19.66,1.62-2.67,3.74-11.71,35.29-8.39,72.73,3.32,37.44,19.44-.28,19.44-.28Z"/>
              <path class="cls-21" d="m244.03,44.43c1.76.67,2.28,1.55,1.03,3.47-1.25,1.91-6.4,18.7-7.73,33.5-1.33,14.8-.66,30.33-.96,32.1-.29,1.77-13.24,5.03-17.15,3.25.11,2.08.26,4.19.44,6.32.24,2.76.56,5.11.93,7.1,3.93.44,9.39.64,14.38.71,2.42-4.1,4.12-8.09,4.12-8.09-2-39.66,3.61-66.71,8.61-74.07,2.02-2.98-.13-4.22-3.69-4.28Z"/>
              <path class="cls-21" d="m235.69,120.86c-5.19-1.53-20.59.9-23.1,8.47-5.69,17.21-3.49,58.74,7.26,70.05,3.92,4.12,15.97,4.61,20.36,3.75,11.13-2.19,12.95-19.43,11.37-42.72-1.57-23.28-8.7-37.43-15.89-39.54Z"/>
              <path class="cls-24" d="m219.85,199.37c3.92,4.12,15.97,4.61,20.36,3.75,6.39-1.26,9.71-7.51,11.07-17-5.35,4.59-19.03,3.12-25.95,0,0,0,1.13-20.67-2.53-32.33,0,0-6.55,14.45-10.53,27.87,1.71,7.74,4.23,14.2,7.58,17.72Z"/>
              <path class="cls-20" d="m233.81,161.6c1.41,20.8-3.51,38.07-10.97,38.57-7.46.5-14.65-15.95-16.06-36.74-1.41-20.8,3.51-38.07,10.97-38.57,7.46-.5,14.65,15.95,16.06,36.74Z"/>
              <path class="cls-21" d="m224.29,170.35s-9.54,1.19-13.22,15.62c3.08,8.89,7.37,14.5,11.77,14.2,3.8-.26,6.93-4.87,8.91-12.06-2.41-.51-4.64-1.2-6.41-2,0,0,.84-3.36-1.04-15.76Z"/>
              <path class="cls-21" d="m224.08,164.03c1.05,15.58-1.76,28.01-8.7,28.48-6.94.47-13.41-11.78-14.47-27.36-1.05-15.58,3.72-28.58,10.65-29.05,6.94-.47,11.46,12.35,12.51,27.93Z"/>
              <path class="cls-24" d="m213.65,187.12c-3.17.21-6.25-1.66-8.98-5.03,2.75,6.58,6.65,10.7,10.72,10.42,5.97-.4,8.88-9.67,8.91-22.16-1.48,9.83-5,16.38-10.64,16.77Z"/>
            </g>
          </g>
        </g>
      </g>
      <g>
        <g>
          <g>
            <path class="cls-9" d="m550.16,245.59c-1.44,5.3,3.12,10.01,4.6,10.9,1.47.88,11.48,5.01,17.67,5.15,6.18.15,15.31-12.96,12.07-14.43-3.24-1.47-25.91-3.09-28.42-3.09s-5.92,1.47-5.92,1.47Z"/>
            <path class="cls-1" d="m566.6,242.8c1.55,15.9,7.07,28.27,9.05,28.49,1.99.22,21.72-6.4,27.2-8.83,5.48-2.43,1.26-39.75-2.09-39.09-3.35.66-11.11,7.83-17.34,11.26-6.23,3.44-16.83,8.17-16.83,8.17Z"/>
            <path class="cls-4" d="m597.83,249.41c-2.09,3.18-17.97,11.25-26.61,14.19,1.74,4.7,3.49,7.58,4.44,7.69,1.7.19,16.41-4.64,24.05-7.56-.19-5.91-1.88-14.32-1.88-14.32Z"/>
            <path class="cls-9" d="m550.19,244.86c-.61,6.31,5.01,7.21,11.93,5.59,6.92-1.62,19.14-16.93,24.59-23.85,5.45-6.92,15.57-19.25,17.56-20.35,1.99-1.1,6.41-1.69,10.6-7.91,4.2-6.22.22-19.25-1.44-20.8-1.66-1.55-17.19,3.62-19.14,6.22s.04,16.63-.63,18.4c-.66,1.77-14.61,16.2-20.5,19.73-5.89,3.53-22.53,18.4-22.97,22.97Z"/>
            <path class="cls-7" d="m604.9,187.95c1.85-.88,2.57-4.9,1.4-4.19-1.17.71-3.13.69-5.78.65-2.65-.04-3.72-.27-3.72-.27,0,0-.4,1.74-.49,3.16,0,0,6.75,1.52,8.6.64Z"/>
            <path class="cls-7" d="m616.64,188.86c-.93-2.01-1.66-3.53-1.66-3.53l-11.16,10.04c-2.67-2.47-6-4.73-6-4.73l-1.04,1.64c1.48,2.85,2.51,8.89,2.44,10.36,0,0,1.47,1.77,2.36,1.91,0,0-12.44,17.67-20.24,26.35-7.76,8.64-13.18,16.1-16.72,18.51,7.07-3.91,17.24-16.66,22.08-22.81,5.45-6.92,15.57-19.25,17.56-20.35s6.41-1.69,10.6-7.91c1.66-2.47,2.03-6.01,1.78-9.48Z"/>
            <path class="cls-2" d="m594.86,189.87c.05,1.03,9.76,10.01,10.77,11.04.08.08.88.2,1.11,0,2.93-2.42,16.55-24.27,16.83-25.06.25-.74-7.19-8.25-9.48-10.26-.31-.27-1.69-.11-1.94.22-2.73,3.65-17.36,22.73-17.29,24.06Z"/>
            <path class="cls-3" d="m595.98,189.87c.05,1.03,9.76,10.01,10.77,11.04,1.01,1.03,17.65-24.21,17.94-25.06.25-.74-8.1-8.13-10.39-10.14-.31-.27-.78-.23-1.03.1-2.73,3.65-17.36,22.73-17.29,24.06Z"/>
            <path class="cls-12" d="m597.83,188.39c.05.96,9.13,9.37,10.07,10.33.94.96,16.51-22.65,16.78-23.44.24-.69-7.58-7.61-9.72-9.49-.29-.26-.73-.22-.96.1-2.55,3.41-16.24,21.26-16.17,22.51Z"/>
            <path class="cls-9" d="m604.94,176.07c1.67-.97,3.88-4.24,4.14-5.35s.22-2.1-.63-2.32c-.85-.22-3.75,3.24-5.15,4.27-1.4,1.03-3.17,3.17-2.61,4.6.55,1.44,3.53.88,3.86.66s.39-1.87.39-1.87Z"/>
            <path class="cls-7" d="m608.93,168.7c.42,1.26-3.26,6.29-6.28,7.74l.99,1.24s.5-.11,1.14-.26c.13-.56.16-1.35.16-1.35,1.67-.97,3.88-4.24,4.14-5.35.2-.84.22-1.61-.15-2.03Z"/>
            <path class="cls-9" d="m600.84,181.16c2.87-1.48,5.02-1.31,6.57-1.92s1.99-2.93.99-3.31c-.99-.39-7.29.61-8.94,1.33-1.66.72-2.66,4.02-2.66,4.02l4.05-.12Z"/>
            <path class="cls-7" d="m602.17,179.44c-1.58.29-2.1,0-2.1,0,0,.61-.6.91-1.31,1.78l2.07-.06c2.87-1.48,5.02-1.31,6.57-1.92.71-.28,1.17-.91,1.38-1.55-.76,1.27-5.04,1.46-6.61,1.75Z"/>
            <path class="cls-9" d="m594.28,183.76c1.33,2.04,8.61,1.16,10.09.93,1.47-.22,2.45-1.14,2.37-2.07-.16-1.87-9.73-1.54-10.54-1.24-.81.29-1.91,2.38-1.91,2.38Z"/>
            <path class="cls-7" d="m606.66,183.08c-1.06.98-3.47,1.54-6.08,1.75-2.25.18-3.54.09-3.83.07,2.69.43,6.59-.04,7.62-.2,1.23-.18,2.08-.86,2.29-1.62Z"/>
          </g>
          <g>
            <g>
              <path class="cls-18" d="m629.88,603.55c.44,3.86,1.99,5.3,7.62,6.07,5.63.77,13.91.66,18.22-3.53,4.31-4.2,6.96-9.05,7.29-11.15.33-2.1.22-4.42.88-5.52.66-1.1,4.17-1.79,3.73-7.95-.43-6.16-37.74,22.08-37.74,22.08Z"/>
              <path class="cls-18" d="m666.34,566.84c-.63-8.55-20.9-5.25-21.01-1.83-.11,3.42-4.86,17.78-9.52,22.14,0,0,0,0,0,0-6.11,2.78-8.41,9.73-5.94,16.39,2.09,5.65,17.78,4.29,21.53,2.21,3.96-2.19,7.87-7.92,9.05-11.02h0c.85-1.83,1.22-4.55,3.1-6.87,1.88-2.32,2.87-1.88,3.75-4.64.88-2.76-.33-7.84-.97-16.39Z"/>
              <path class="cls-18" d="m649.03,566.48c-1.95,8.82-6.15,14.56-4.92,15.59,1.23,1.03,8.82,2.26,10.25,0,1.44-2.26,3.9-11.79,3.9-15.59s-9.23,0-9.23,0Z"/>
            </g>
            <g>
              <path class="cls-18" d="m604.19,573.71c.51-3.84.56-9.47-2.7-15.87-3.25-6.4-3.09-6.96-6.85-7.62-3.75-.66-17.45-2.54-17.45-2.54,0,0-2.32,6.4-10.38,10.82-8.06,4.42-9.72,5.96-14.91,5.96s-16.66.61-12.15,14.36c0,0,3.64,1.58,12.77,1.51,9.13-.07,18.4-.81,21.72-2.06,3.31-1.25,6.77-1.91,8.76-1.1,1.99.81,8.47.52,12.15,0,3.68-.52,9.03-3.45,9.03-3.45Z"/>
              <path class="cls-18" d="m560.89,561.13c-.57.19-.78.86-.45,1.36,1.09,1.69,3.35,3.53,4.55,3.11,1.47-.52,8.3-5.68,11.93-8.83,1.69-1.47,3.31-4.27,2.36-5.59-.96-1.33-3.46-2.87-4.49-2.06-1.03.81-3.02,4.7-7.21,8.16-2.85,2.35-5.35,3.41-6.67,3.85Z"/>
              <path class="cls-18" d="m539.77,578.82c9.05.88,29.91-.88,34.17-1.99,4.26-1.1,6.58-2.98,10.66-1.44s16.67-.88,18.66-1.66c1.99-.77,1.44,2.34,0,2.66-1.44.32-10.49,2.24-15.13,2.66-4.64.42-4.86-3-10.38-.46-5.52,2.54-14.58,2.54-18.55,2.54s-15.35.88-17.45,0c-2.1-.88-1.99-2.32-1.99-2.32Z"/>
            </g>
            <path class="cls-6" d="m643.68,567c6.19,1.69,23.85,1.1,24.73-1.33.88-2.43-2.43-40.64-2.43-52.78s-4.2-42.18-3.53-45.49c.66-3.31.66-5.74-.44-11.48-1.1-5.74-1.54-72.29-6.85-117.12l-68.9,6.48s-11.04,42.4-11.93,72.44c-.88,30.04.15,44.46,0,48.88-.15,4.42,1.88,8.83,2.34,12.37.46,3.53-.13,29.74-.72,39.16-.59,9.42-1.02,26.8-1.98,28.86-.96,2.06,20.83,6.18,23.77,4.71,2.94-1.47,2.94-1.77,2.94-17.08s2.06-52.12,2.06-58.6,2.06-7.66,1.18-10.9c-.88-3.24,2.36-17.96,5.59-28.86,3.24-10.9,7.07-22.67,7.07-22.67,0,0,9.13,58.89,12.07,62.43,2.94,3.53,2.36,12.66,4.12,17.96,1.77,5.3,7.07,41.22,7.07,52.12s-2.65,19.14,3.83,20.91Z"/>
            <path class="cls-22" d="m658.35,567.86c2.98-.15,5.71-.46,7.58-.93.73-3.14,1.52-7.1,2.33-11.69-.68-12.86-2.28-33.91-2.28-42.35,0-12.15-4.2-42.18-3.53-45.49.66-3.31.66-5.74-.44-11.48-1.1-5.74-1.54-72.29-6.85-117.12l-13.87,1.3-40.57,15.26c19.56.55,42.3-2.52,42.3-2.52,0,0,3.17,35.9,3.28,41.2.11,5.3,3.94,54.79,3.94,59.34s1.77,5.87,2.06,10.81c.29,4.94-3.53,6.7-3.53,6.7,0,0,5.3,1.77,5.3,2.65s1.1,15.09,1.1,20.61,2.41,13.03,3.08,29.59c.67,16.56,2.88,36.22,2.88,38.43s0,4.4-2.79,5.69Z"/>
            <path class="cls-22" d="m613.66,380.19l-14.8-3.75,11.48,5.52-9.28.22,7.11,2.54s2.22,18.45-2.4,30.81c-5.05,13.55-7.36,48.14-8.91,50.79-1.55,2.65-5.52,1.99-5.52,1.99,0,0,4.2.44,4.42,3.53.22,3.09-.88,11.7-.88,20.83s-.88,23.61-1.77,29.77c-.88,6.16-1.3,21.23-1.77,25.23-.47,4-6.49,3.07-6.49,3.07h0c3.05.58,6.2,1.02,8.66,1.19,9.1.86,7.21-2.51,7.19-20.41.23-16.68,2.04-49.43,2.04-55.51,0-6.48,2.06-7.66,1.18-10.9-.88-3.24,2.36-17.96,5.59-28.86,3.24-10.9,7.07-22.67,7.07-22.67,0,0-1.61-15.06-1.83-18.59-.22-3.53-1.1-14.8-1.1-14.8Z"/>
          </g>
          <g>
            <path class="cls-1" d="m626.01,212.32c-15.9,7.8-18.39,7.5-25.24,11.04-6.84,3.54-7.59,40.78-7.59,46.53s-.07,28.56-1.4,34.75c-1.33,6.18-6.4,29.15-8.17,32.69-1.77,3.53-5.08,9.5-.88,13.03,4.2,3.53,13.44,5.96,34,4.64,20.55-1.33,43.52-13.91,44.63-15.68,1.1-1.77-7.29-34.23-7.29-40.42s-.88-10.82-1.33-13.69c-.44-2.87,7.05-16.34,8.71-24.96,1.67-8.61,12.75-32.37,11.3-36.73s-17.4-9.2-28.1-14.74c-10.7-5.53-18.63,3.54-18.63,3.54Z"/>
            <path class="cls-4" d="m622.38,218.53c0,.95-.02,1.89.22,2.79.17.9.47,1.79.97,2.52.93,1.55,2.65,2.35,4.44,2.36,1.79.04,3.61-.43,5.35-1.07,1.76-.63,3.43-1.48,5.15-2.3-.77.56-1.56,1.07-2.35,1.61-.84.44-1.66.94-2.54,1.32-1.73.81-3.65,1.35-5.64,1.32l-.75-.03-.74-.17c-.5-.08-.96-.32-1.42-.54-.86-.53-1.66-1.24-2.08-2.15-.98-1.77-.99-3.83-.61-5.66Z"/>
            <path class="cls-4" d="m661.35,339.31c1.1-1.77-7.29-34.23-7.29-40.42s-.88-10.82-1.33-13.69c-.44-2.87,7.05-16.34,8.71-24.96.29-1.5.87-3.46,1.61-5.69l-6.54-5.15c-4.88,11.31-8.85,31.19-13.05,36.04-4.2,4.86-13.91,6.85-13.91,6.85,0,0,9.29,2.21,13.48,1.33,0,0,3.13,17.45,2.56,26.06-.58,8.61-2.32,21.64-2.56,23.41-.09.66-.11,2.96-.1,5.58,10.19-3.92,17.79-8.37,18.41-9.37Z"/>
            <path class="cls-9" d="m644.04,193.09c-.51,9.22-.37,15.55,1.55,17.31,0,0-4.62,15.29-18.55,13.99-4.71-.44-3.68-8.39-1.03-12.07l-.59-11.3,18.62-7.92Z"/>
            <path class="cls-7" d="m644.64,208.78h0c-.99-2.83-1.01-8.34-.6-15.69l-18.62,7.92.38,7.25h0c3.09,1.44,18.84.52,18.84.52Z"/>
          </g>
          <g>
            <path class="cls-9" d="m688.31,267.63c2.8,4.27,6.18,14.87,4.27,19.73-1.91,4.86-19.58,26.5-27.53,34.6-7.95,8.1-9.72,9.42-11.19,12.07-1.47,2.65-8.54,13.58-10.31,15.24-1.77,1.66-4.75,1.88-4.75,1.88,0,0-2.39,2.43-6.61,1.99,0,0-3.88,2.54-6.86,3.2,0,0-1.1,1.87-2.1,2.04-.99.17-2.1-1.82,0-5.8,2.1-3.98,5.19-5.63,5.85-8.17.66-2.54,3.34-7.72,3.34-7.72,0,0-5.55,5.29-8.75,5.62-3.2.33-3.49-1.55-1.64-3.09,1.86-1.55,4.29-3.86,6.61-6.85,2.32-2.98,5.08-4.97,9.17-5.52,4.09-.55,6.96-.99,8.06-1.77,1.1-.77,6.94-8.28,11.14-16.38,4.2-8.1,8.2-18.45,18.04-27.53l-3.53-7.07,16.78-6.48Z"/>
            <path class="cls-7" d="m625.51,355.83c.95-2.24,2.53-4.15,4.23-5.85l.67-.62c.2-.19.54-.43.62-.55.35-.4.66-.94,1-1.41.66-.99,1.3-2,2.01-2.98-.39,1.15-.88,2.24-1.42,3.32-.27.55-.55,1.06-.94,1.6-.29.36-.47.43-.69.66l-.64.61c-.85.81-1.67,1.67-2.49,2.53-.82.86-1.59,1.76-2.36,2.69Z"/>
            <path class="cls-7" d="m632.43,352.37c.69-1.19,1.49-2.22,2.22-3.3.75-1.07,1.43-2.14,2.13-3.32-.03,1.39-.64,2.7-1.4,3.82-.79,1.12-1.76,2.1-2.94,2.8Z"/>
            <path class="cls-7" d="m635.62,352.84c2.05-.58,3.18-1.69,3.18-1.69,0,0,2.98-.22,4.75-1.88.72-.68,2.33-2.91,4.08-5.49-.04.04-2.03,2.05-3.48,3.71-2.04,2.34-4.68,1.56-4.68,1.56l.52-2.15s-2.14,4.89-4.37,5.94Z"/>
            <path class="cls-7" d="m693.04,281.96c-.23,2.01-.37,3.62-3.75,8.9-3.8,5.95-25.84,31.03-30.59,35.67-4.75,4.64-4.64,4.93-7.78,12.26,1.33-2.07,2.44-3.88,2.93-4.76,1.47-2.65,3.24-3.98,11.19-12.07,7.95-8.1,25.62-29.74,27.53-34.6.56-1.41.66-3.31.46-5.4Z"/>
            <path class="cls-7" d="m677.62,276.16l1.44,2.74s-2.27.6-4,2.27l-2.81-5.44,5.37.43Z"/>
            <path class="cls-1" d="m659.33,261.19c-3.62-8.3-4.33-21.78,0-28.88,4.33-7.09,11.71-9.65,13.41-8.8,1.7.85,5.68,11.92,9.79,17.03,4.11,5.11,15.32,19.44,15.61,20.65.28,1.21-9.65,10.94-27.53,18.09-2.13.85-11.28-18.09-11.28-18.09Z"/>
            <path class="cls-4" d="m671.74,267.63l2.36,5.68s-12.64-13.67-17.56-23.88c.38,4.26,1.35,8.43,2.8,11.76,0,0,9.15,18.94,11.28,18.09,3.06-1.22,5.87-2.52,8.45-3.84l-7.32-7.81Z"/>
          </g>
          <g>
            <path class="cls-22" d="m653.53,181.09c3.25-7.93,7.22-16.33,2.22-20.74,0,0,5.59-1.77,8.54-1.18,0,0-2.94-1.77-8.83-2.36,0,0,1.16-13.4-1.92-19.14,0,0,0,5.89-1.61,8.25,0,0-3.24-6.92-12.81-9.57-9.57-2.65-18.85-2.94-25.47,3.83-6.63,6.77-14.38,15.46-3.22,28.56,11.17,13.1,25.89,16.49,32.22,17.37,6.33.88,10.89-5.02,10.89-5.02Z"/>
            <path class="cls-2" d="m619.4,155.92c2.19,1.04,4.51,1.58,6.81,2.15,2.31.52,4.64.99,6.99,1.35,2.34.38,4.7.68,7.06.9,2.36.17,4.73.38,7.12,0-2.22,1.04-4.74,1.32-7.17,1.37-2.45.06-4.88-.17-7.29-.54-2.4-.41-4.78-.96-7.09-1.78-2.29-.8-4.59-1.84-6.42-3.47Z"/>
            <path class="cls-2" d="m645.23,167.38c2.55-.63,6.78-4.72,6.78-4.72,0,0-4.38,3.1-13.4,2.36-9.01-.74-15.03-2.61-15.03-2.61,0,0,9.29,5.45,12.71,6.33,3.42.88,8.93-1.36,8.93-1.36Z"/>
            <path class="cls-2" d="m613.86,161.41c-4.18-2.07-5.4.03-5.4,1.8s1.96,5.53,1.96,5.53l3.44-7.32Z"/>
            <path class="cls-2" d="m657.99,167.91c-3.34,6.61-10.78,11.73-10.78,11.73,0,0-2.91,3.92.36,5.51.14.07.29.12.44.18,3.39-1.46,5.53-4.24,5.53-4.24,1.85-4.52,3.93-9.19,4.46-13.18Z"/>
            <path class="cls-9" d="m647.21,179.63s3.42-2.54,5.74,0c2.32,2.54-2.1,14.36-7.29,11.48,0,0-8.61,10.93-14.58,14.02-5.96,3.09-9.94,1.55-11.93-.66-1.99-2.21-8.66-11.27-9.28-20.87-.22-3.42.77-10.16.77-11.59s-.88-7.07.33-8.72c1.21-1.66,2.87-1.88,2.87-1.88,0,0,7.4,3.64,13.8,4.2,0,0-3.09-1.99-4.09-3.2,0,0,12.7,4.42,21.64,4.97,0,0-.11,5.08.33,7.29.44,2.21,1.66,4.97,1.66,4.97Z"/>
            <path class="cls-7" d="m651.83,182.86c-.31-2.16-2.12-2.59-3.61-1.08-1.52,1.55-2.11,6.44-1.8,7.16.31.72,2.73.67,3.3-.82.57-1.49-.77-2.43-2.16-1.99,0,0-.22-2.18.99-3.59,1.21-1.41,2.33-.87,2.59-.51.26.36.7.82.7.82Z"/>
            <g>
              <path class="cls-2" d="m637.58,173.29c-.49-.49-1.01-.94-1.56-1.37-.55-.42-1.15-.8-1.79-1.11-.64-.31-1.3-.64-2.03-.7-.72-.06-1.45,0-2.13.28v.1c.34.14.67.23,1,.33l.95.27c.62.19,1.27.24,1.9.46.62.21,1.23.48,1.83.8.6.3,1.18.67,1.76,1.03l.06-.08Z"/>
              <path class="cls-2" d="m613.34,170.81c.61-.31,1.26-.54,1.92-.68.66-.14,1.33-.22,1.99-.23.67-.01,1.32.12,1.98.12.67,0,1.33.02,2.07-.05l.03-.09c-.59-.45-1.29-.7-2-.84-.71-.15-1.45-.03-2.15.08-.71.1-1.41.28-2.07.55-.66.28-1.29.62-1.83,1.07l.06.08Z"/>
              <path class="cls-2" d="m630.75,177.17c.09-.93.61-1.65,1.17-1.59.55.05.92.86.83,1.79-.09.93-.61,1.65-1.17,1.59-.55-.05-.92-.86-.83-1.79Z"/>
              <path class="cls-2" d="m616.08,175.99c.09-.93.53-1.66.98-1.61.45.04.74.84.65,1.77-.09.93-.53,1.66-.98,1.61-.45-.04-.74-.84-.65-1.77Z"/>
              <path class="cls-7" d="m625.47,186.25c-1.34.89-3.23.87-4.55-.05.11.72.38,1.42,1.06,1.68.68.26,1.46.18,2.13-.11.67-.3.92-.94,1.37-1.52Z"/>
              <g>
                <path class="cls-23" d="m630.19,191.73c-3.08.05-10.45-.52-12.84-.86.72,3.12,3,6.2,6.48,6.21,3.14,0,5.4-2.58,6.35-5.34Z"/>
                <path class="cls-16" d="m627.04,196.05c-1.2-.38-2.46-.18-2.97-.03,0,0-1.55-1.14-3.97-.39,1.01.87,2.25,1.44,3.73,1.44,1.21,0,2.29-.39,3.21-1.02Z"/>
                <path class="cls-1" d="m619.25,193.48c3.05.97,6.47.69,9.49-.37.05-.46.12-.93.19-1.39-3.04-.06-7.94-.43-10.56-.73.16.86.45,1.71.88,2.48Z"/>
              </g>
            </g>
          </g>
        </g>
        <g class="cls-10">
          <path class="cls-18" d="m698.65,146.18c.66-1.78,1.43-3.42,2.31-4.92.87-1.49,2.1-2.77,3.7-3.82,1.59-1.05,3.73-1.75,6.41-2.08.82-.11,1.98-.24,3.49-.38,1.51-.14,3.07-.4,4.7-.77,1.63-.37,3.1-.93,4.39-1.68,1.3-.74,2.2-1.75,2.68-3.05.34-.92.38-1.84.11-2.74-.27-.91-.75-1.7-1.45-2.38-.71-.68-1.56-1.21-2.56-1.58-1.49-.55-2.86-.65-4.09-.29-1.23.36-2.32.88-3.24,1.56-.93.69-1.76,1.24-2.48,1.68l-8.33-12.24c2-2.16,4.31-3.77,6.9-4.83,2.58-1.06,5.35-1.59,8.3-1.6s5.92.55,8.91,1.65c2.37.88,4.63,2.11,6.77,3.67,2.15,1.57,3.94,3.47,5.39,5.69,1.44,2.22,2.33,4.76,2.64,7.62.32,2.86-.16,6.02-1.44,9.48-.55,1.48-1.2,2.86-1.95,4.13-.75,1.26-1.65,2.39-2.69,3.38-1.04.99-2.24,1.84-3.61,2.56-1.37.72-2.91,1.29-4.62,1.71-2.27.56-4.51.93-6.73,1.09-2.22.16-4.15.44-5.79.85-1.64.41-2.71,1.3-3.22,2.66l-14.49-5.38Zm-6.01,17.07l.31-.84c1.48-4,5.93-6.04,9.93-4.56h0c4,1.48,6.04,5.93,4.56,9.93l-.31.84c-1.48,4-5.93,6.04-9.93,4.56h0c-4-1.48-6.04-5.93-4.56-9.93Z"/>
          <path class="cls-18" d="m673.17,147.68c-.21-1.37-.29-2.69-.26-3.95.03-1.26.36-2.51,1.01-3.75.64-1.23,1.76-2.43,3.35-3.59.48-.36,1.18-.86,2.09-1.48.91-.62,1.82-1.34,2.73-2.16.91-.81,1.65-1.69,2.21-2.62.57-.93.78-1.9.63-2.89-.11-.71-.41-1.31-.9-1.79-.49-.48-1.08-.82-1.77-1-.69-.19-1.42-.22-2.19-.1-1.15.17-2.05.6-2.71,1.26-.66.66-1.17,1.38-1.51,2.14-.35.77-.68,1.41-.99,1.95l-9.64-4.86c.52-2.09,1.42-3.93,2.69-5.52,1.27-1.59,2.85-2.91,4.73-3.95,1.88-1.04,3.97-1.74,6.27-2.09,1.83-.28,3.7-.29,5.62-.05,1.93.24,3.74.82,5.45,1.73,1.71.91,3.17,2.22,4.38,3.93,1.22,1.71,2.03,3.9,2.43,6.56.17,1.14.25,2.25.21,3.32-.03,1.07-.21,2.11-.52,3.1-.32,1-.78,1.96-1.4,2.91-.62.94-1.4,1.85-2.35,2.73-1.25,1.16-2.55,2.19-3.91,3.07-1.36.89-2.49,1.75-3.4,2.59-.9.84-1.27,1.79-1.11,2.83l-11.15,1.69Zm2.2,13.01l-.1-.64c-.47-3.08,1.65-5.95,4.73-6.42h0c3.08-.47,5.95,1.65,6.42,4.73l.1.64c.47,3.08-1.65,5.95-4.73,6.42h0c-3.08.47-5.95-1.65-6.42-4.73Z"/>
        </g>
      </g>
    </g>
  </g>
</svg>