<?xml version="1.0" encoding="UTF-8"?>
<svg id="Camada_2" data-name="Camada 2" xmlns="http://www.w3.org/2000/svg" viewBox="0 0 794.96 755.88">
  <defs>
    <style>
      .cls-1, .cls-2, .cls-3, .cls-4 {
        opacity: .4;
      }

      .cls-1, .cls-5 {
        fill: #ba8204;
      }

      .cls-6 {
        opacity: .5;
      }

      .cls-6, .cls-3 {
        fill: #3f3f3f;
      }

      .cls-2, .cls-7, .cls-8 {
        fill: #eca900;
      }

      .cls-9 {
        fill: #fafafa;
      }

      .cls-4, .cls-10, .cls-11, .cls-12, .cls-13 {
        fill: #fff;
      }

      .cls-14, .cls-15 {
        opacity: .15;
      }

      .cls-14, .cls-16 {
        fill: #8e6200;
      }

      .cls-17 {
        fill: #00dfbf;
      }

      .cls-18 {
        opacity: .2;
      }

      .cls-7, .cls-19 {
        opacity: .3;
      }

      .cls-20 {
        fill: #b0494c;
      }

      .cls-21 {
        opacity: .05;
      }

      .cls-19, .cls-22 {
        fill: #d39305;
      }

      .cls-23 {
        opacity: .35;
      }

      .cls-24 {
        fill: #e1e1e1;
      }

      .cls-10 {
        opacity: .7;
      }

      .cls-25 {
        fill: #2b454e;
      }

      .cls-11 {
        opacity: .75;
      }

      .cls-26, .cls-27 {
        opacity: .1;
      }

      .cls-28 {
        fill: #375a64;
      }

      .cls-29 {
        fill: #ffaaa8;
      }

      .cls-30, .cls-27 {
        fill: #383838;
      }

      .cls-31 {
        fill: #ff9090;
      }

      .cls-12 {
        opacity: .6;
      }

      .cls-13 {
        opacity: .85;
      }

      .cls-32 {
        fill: #c76668;
      }

      .cls-33 {
        fill: #595959;
      }

      .cls-34 {
        fill: #ececec;
      }

      .cls-35 {
        fill: #1a2e35;
      }
    </style>
  </defs>
  <g id="Camada_1-2" data-name="Camada 1">
    <g>
      <path id="Shadow" class="cls-24" d="m3.12,529.97l388.17,224.11c4.16,2.4,10.92,2.4,15.08,0l204.12-117.85c4.16-2.4,4.16-6.3,0-8.71l-388.17-224.11c-4.17-2.4-10.92-2.4-15.08,0L3.12,521.26c-4.17,2.4-4.17,6.3,0,8.71Z"/>
      <path id="Shadow-2" data-name="Shadow" class="cls-24" d="m787.53,417.14l-245.84-142c-2.48-1.53-6.54-1.59-9.07-.13l-136.85,79.26c-2.53,1.45-2.53,3.81,0,5.27l59.19,34.15-51.24,34.5c-16.4,11.05-19.93,25.64-7.88,32.6,12.05,6.96,40.33,7.44,58.05-1.33l58.67-32.54,24.56,14.17,104.02,60.12c2.52,1.46,6.62,1.46,9.15.01l137.16-78.7c2.53-1.45,2.57-3.86.08-5.39Z"/>
      <g id="Mobile">
        <g id="Mobile-2" data-name="Mobile">
          <path class="cls-33" d="m589.33,632.16l-180.46,104.17c-5.86,3.38-12.76,3.45-18.83.35L26.73,526.91c-5.72-3.3-10.36-10.7-10.37-16.51,0-5.81,4.64-13.2,10.36-16.51l179.79-103.8c5.7-3.29,15.03-3.29,20.73,0l362.08,209.05c5.72,3.3,10.36,10.7,10.36,16.51,0,5.81-4.64,13.2-10.36,16.51Z"/>
          <g>
            <path class="cls-6" d="m207.48,390.03L27.69,493.83c-5.72,3.3-10.36,10.7-10.36,16.51,0,5.81,4.64,13.2,10.37,16.51l363.31,209.77c2.88,1.47,5.95,2.2,9.01,2.23v-249.63l-171.8-99.19c-5.7-3.29-15.03-3.29-20.73,0Z"/>
            <path class="cls-3" d="m409.83,736.27l180.46-104.17c5.72-3.3,10.36-10.7,10.36-16.51s-4.64-13.2-10.36-16.51l-190.28-109.86v249.63c3.38.03,6.75-.81,9.82-2.59Z"/>
          </g>
          <path class="cls-17" d="m404.58,717.77c-5.03,2.9-13.25,2.9-18.28,0L26.68,510.14c-7.73-4.46-7.73-11.77,0-16.23l179.82-103.82c5.7-3.29,15.03-3.29,20.73,0l362.08,209.05c5.7,3.29,5.7,8.68,0,11.97l-184.74,106.66Z"/>
          <path class="cls-30" d="m404.58,717.77c-5.03,2.9-13.25,2.9-18.28,0L26.68,510.14c-7.73-4.46-7.73-11.77,0-16.23l179.82-103.82c5.7-3.29,15.03-3.29,20.73,0l362.08,209.05c5.7,3.29,5.7,8.68,0,11.97l-184.74,106.66Z"/>
          <path class="cls-25" d="m387.11,696.86c-5.44,3.14-14.26,3.14-19.7,0L57.97,518.2c-5.44-3.14-5.44-8.23,0-11.37l169.16-97.65c5.42-3.13,14.28-3.13,19.7,0l309.44,178.66c5.42,3.13,5.42,8.24,0,11.37l-169.16,97.65Z"/>
          <path class="cls-35" d="m236.38,406.87c-3.37.08-6.69.84-9.25,2.31l-169.16,97.65c-5.44,3.14-5.44,8.23,0,11.37l33.53,19.36,144.88-92.52v-38.18Z"/>
          <path class="cls-17" d="m246.95,416.57c-5.42-3.13-14.28-3.13-19.7,0l-169.16,97.65c-1.07.62-1.92,1.32-2.57,2.06.63.69,1.45,1.34,2.45,1.92l309.44,178.66c5.44,3.14,14.26,3.14,19.7,0l169.16-97.65c1.06-.61,1.91-1.3,2.55-2.04-.63-.7-1.43-1.35-2.44-1.94l-309.44-178.66Z"/>
          <path class="cls-8" d="m246.95,416.57c-5.42-3.13-14.28-3.13-19.7,0l-169.16,97.65c-1.07.62-1.92,1.32-2.57,2.06.63.69,1.45,1.34,2.45,1.92l309.44,178.66c5.44,3.14,14.26,3.14,19.7,0l169.16-97.65c1.06-.61,1.91-1.3,2.55-2.04-.63-.7-1.43-1.35-2.44-1.94l-309.44-178.66Z"/>
          <g>
            <path class="cls-8" d="m119.81,461.16l29.98-17.31c1.79-1.03,1.88-2.65.2-3.62-1.68-.97-4.49-.92-6.28.12l-29.98,17.31c-1.79,1.03-1.88,2.66-.2,3.62,1.68.97,4.49.92,6.28-.12Z"/>
            <g>
              <path class="cls-8" d="m171.29,431.48c1.68-.97,1.68-2.54,0-3.51-1.68-.97-4.4-.97-6.08,0-1.68.97-1.68,2.54,0,3.51s4.4.97,6.08,0Z"/>
              <path class="cls-8" d="m183.44,424.45c1.68-.97,1.68-2.54,0-3.51-1.68-.97-4.4-.97-6.08,0-1.68.97-1.68,2.54,0,3.51,1.68.97,4.4.97,6.08,0Z"/>
              <path class="cls-8" d="m86.22,480.59c1.68-.97,1.68-2.54,0-3.51-1.68-.97-4.4-.97-6.08,0-1.68.97-1.68,2.54,0,3.51,1.68.97,4.4.97,6.08,0Z"/>
              <path class="cls-8" d="m98.37,473.56c1.68-.97,1.68-2.54,0-3.51-1.68-.97-4.4-.97-6.08,0-1.68.97-1.68,2.54,0,3.51,1.68.97,4.4.97,6.08,0Z"/>
            </g>
          </g>
          <g>
            <path class="cls-8" d="m140.69,580.82c1.79,1.03,3.24,3.44,3.24,5.38,0,.93-.34,1.58-.89,1.89-.39.22-1.86,1.1-2.27,1.32-.59.33-1.42.26-2.34-.27l-42.13-24.33c-1.79-1.03-3.24-3.44-3.24-5.38,0-.89.31-1.52.82-1.85.4-.25,1.93-1.14,2.34-1.36.59-.33,1.42-.27,2.34.26l42.13,24.33Z"/>
            <path class="cls-2" d="m140.69,580.82c1.79,1.03,3.24,3.44,3.24,5.38,0,.93-.34,1.58-.89,1.89-.39.22-1.86,1.1-2.27,1.32-.59.33-1.42.26-2.34-.27l-42.13-24.33c-1.79-1.03-3.24-3.44-3.24-5.38,0-.89.31-1.52.82-1.85.4-.25,1.93-1.14,2.34-1.36.59-.33,1.42-.27,2.34.26l42.13,24.33Z"/>
            <path class="cls-8" d="m138.44,582.13l-42.13-24.33c-1.79-1.03-3.24-.3-3.24,1.64s1.45,4.35,3.24,5.38l42.13,24.33c1.79,1.03,3.24.3,3.24-1.64s-1.45-4.35-3.24-5.38Z"/>
            <path class="cls-7" d="m138.44,582.13l-42.13-24.33c-1.79-1.03-3.24-.3-3.24,1.64s1.45,4.35,3.24,5.38l42.13,24.33c1.79,1.03,3.24.3,3.24-1.64s-1.45-4.35-3.24-5.38Z"/>
          </g>
          <g>
            <path class="cls-8" d="m84.3,548.26c1.79,1.03,3.24,3.44,3.24,5.38,0,.94-.34,1.58-.89,1.89-.39.22-1.86,1.1-2.27,1.32-.59.33-1.42.26-2.34-.27l-19.86-11.47c-1.79-1.03-3.24-3.44-3.24-5.38,0-.89.31-1.52.82-1.85.4-.25,1.93-1.14,2.34-1.36.59-.33,1.42-.27,2.34.26l19.86,11.47Z"/>
            <path class="cls-2" d="m84.3,548.26c1.79,1.03,3.24,3.44,3.24,5.38,0,.94-.34,1.58-.89,1.89-.39.22-1.86,1.1-2.27,1.32-.59.33-1.42.26-2.34-.27l-19.86-11.47c-1.79-1.03-3.24-3.44-3.24-5.38,0-.89.31-1.52.82-1.85.4-.25,1.93-1.14,2.34-1.36.59-.33,1.42-.27,2.34.26l19.86,11.47Z"/>
            <path class="cls-8" d="m82.04,549.57l-19.86-11.47c-1.79-1.03-3.24-.3-3.24,1.64s1.45,4.35,3.24,5.38l19.86,11.47c1.79,1.03,3.24.3,3.24-1.64s-1.45-4.35-3.24-5.38Z"/>
            <path class="cls-7" d="m82.04,549.57l-19.86-11.47c-1.79-1.03-3.24-.3-3.24,1.64s1.45,4.35,3.24,5.38l19.86,11.47c1.79,1.03,3.24.3,3.24-1.64s-1.45-4.35-3.24-5.38Z"/>
          </g>
        </g>
      </g>
      <g id="Keyboard">
        <path id="Shadow-3" data-name="Shadow" class="cls-15" d="m243.39,598.87l46.82,27.14c1.41.81,3.69.82,5.1,0l134.38-77.48c1.41-.81,1.41-2.13,0-2.94l-46.82-27.14c-1.41-.81-3.69-.82-5.1,0l-134.38,77.48c-1.41.81-1.41,2.13,0,2.94Z"/>
        <g id="Keyboard-2" data-name="Keyboard">
          <g>
            <path class="cls-35" d="m424.21,541.6c0-.52-.34-1.04-1.03-1.44l-41.89-24.18c-1.38-.8-3.62-.8-5,0l-127.8,73.91c-.69.4-1.03.92-1.03,1.44,0,.52,0,3.87,0,4.39,0,.52.34,1.05,1.04,1.44l41.86,24.18c1.38.79,3.62.79,5,0l127.82-73.79c.69-.4,1.03-.92,1.03-1.44,0-.52,0-3.99,0-4.51Z"/>
            <path class="cls-25" d="m290.35,616.84l-41.86-24.07c-1.38-.79-1.38-2.08,0-2.88l127.8-73.91c1.38-.8,3.62-.8,5,0l41.89,24.18c1.38.8,1.38,2.09,0,2.88l-127.82,73.79c-1.38.8-3.62.8-5,0Z"/>
            <path class="cls-35" d="m292.69,617.43v4.49c-.85-.02-1.69-.21-2.35-.58l-41.85-24.18c-.69-.4-1.04-.92-1.04-1.44v-4.4c0,.52.35,1.04,1.04,1.44l41.85,24.08c.65.37,1.5.57,2.35.59Z"/>
          </g>
          <path class="cls-8" d="m378.49,519.79s.08.01.09.02l4.14,2.39-5.62,3.25-4.28-2.41,5.62-3.24h.05Zm6.49,3.75s.08.01.09.02l4.14,2.39-4.42,2.55-4.29-2.41,4.41-2.55h.05Zm-14.35.79s.08.01.09.02l4.15,2.39-4.42,2.55-4.29-2.41,4.41-2.54h.05Zm20.83,2.96s.08.01.1.02l4.14,2.39-7.14,4.12-4.29-2.41,7.13-4.12h.05Zm-13.14.09s.08.01.09.02l4.15,2.39-3.51,2.03-4.29-2.41,3.5-2.02h.05Zm-14.35.79s.08.01.09.02l4.14,2.39-4.42,2.55-4.28-2.41,4.41-2.55h.05Zm8.6,2.52s.09.01.1.02l4.14,2.39-3.51,2.02-4.28-2.41,3.5-2.02h.05Zm25.37.34s.08.01.1.02l4.14,2.39-5.62,3.25-4.29-2.41,5.62-3.24h.05Zm-40.62.97s.08.01.09.02l4.14,2.39-31.91,18.43-4.29-2.41,31.91-18.42h.05Zm24.76.69s.08.01.1.02l4.14,2.39-3.51,2.02-4.29-2.41,3.5-2.02h.05Zm-15.25,1.31s.08.01.1.02l4.14,2.39-3.51,2.02-4.28-2.41,3.5-2.02h.05Zm37.6.77s.08.01.1.02l4.15,2.39-3.51,2.02-4.29-2.41,3.5-2.02h.05Zm-14.35.79s.08.01.09.02l4.15,2.39-3.51,2.03-4.29-2.41,3.5-2.02h.05Zm-13.74.44s.08.01.1.02l4.14,2.39-3.51,2.02-4.29-2.41,3.5-2.02h.05Zm-15.25,1.31s.08.01.1.02l4.14,2.39-3.51,2.02-4.29-2.41,3.5-2.02h.05Zm37.6.77s.08.01.1.02l4.14,2.39-3.51,2.02-4.29-2.41,3.5-2.02h.05Zm-14.34.79s.08.01.09.02l4.15,2.39-3.51,2.03-4.29-2.41,3.5-2.02h.05Zm-13.74.44s.08.01.09.02l4.15,2.39-3.51,2.02-4.29-2.41,3.51-2.02h.05Zm41.71,0s.08.01.09.02l4.15,2.39-4.42,2.55-4.29-2.41,4.41-2.54h.05Zm-56.96,1.31s.08.01.1.02l4.14,2.39-3.51,2.02-4.28-2.41,3.5-2.02h.05Zm37.6.77s.08.01.1.02l4.14,2.39-3.51,2.02-4.29-2.41,3.5-2.02h.05Zm-14.35.79s.08.01.09.02l4.15,2.39-3.51,2.03-4.29-2.41,3.51-2.02h.05Zm-13.74.44s.08.01.09.02l4.15,2.39-3.51,2.02-4.29-2.41,3.5-2.02h.05Zm-15.25,1.31s.08.01.1.02l4.14,2.39-3.51,2.02-4.28-2.41,3.5-2.02h.05Zm53.55.65s.08.01.09.02l4.15,2.39-3.51,2.02-4.29-2.41,3.5-2.02h.05Zm-15.96.12s.09.01.1.02l4.14,2.39-3.51,2.02-4.29-2.41,3.51-2.02h.05Zm-14.35.79s.08.01.09.02l4.15,2.39-3.51,2.03-4.29-2.41,3.5-2.02h.05Zm-13.74.44s.09.01.1.02l4.14,2.39-3.51,2.02-4.29-2.41,3.5-2.02h.05Zm-15.25,1.31s.08.01.09.02l4.15,2.39-3.51,2.02-4.29-2.41,3.51-2.02h.05Zm53.55.66c.05,0,.09.01.1.02l4.14,2.39-3.51,2.03-4.29-2.41,3.5-2.02h.05Zm-15.95.12s.08.01.09.02l4.15,2.39-3.51,2.02-4.29-2.41,3.5-2.02h.05Zm-14.35.79s.08.01.09.02l4.14,2.39-3.51,2.03-4.29-2.41,3.5-2.02h.05Zm-13.74.44s.08.01.09.02l4.15,2.39-3.51,2.02-4.29-2.41,3.5-2.02h.05Zm-15.25,1.31s.08.01.09.02l4.15,2.39-3.51,2.02-4.28-2.41,3.5-2.02h.05Zm53.55.65s.08.01.1.02l4.14,2.39-3.51,2.03-4.29-2.41,3.5-2.02h.05Zm-15.96.12s.08.01.1.02l4.14,2.39-3.51,2.02-4.29-2.41,3.5-2.02h.05Zm-52.55.37s.08.01.09.02l4.15,2.39-4.42,2.55-4.29-2.41,4.41-2.55h.05Zm38.2.42s.08.01.09.02l4.15,2.39-3.51,2.03-4.29-2.41,3.5-2.02h.05Zm-13.74.44s.08.01.09.02l4.15,2.39-3.51,2.02-4.29-2.41,3.51-2.02h.05Zm-15.25,1.31s.08.01.1.02l4.14,2.39-3.51,2.02-4.29-2.41,3.5-2.02h.05Zm53.55.65s.08.01.09.02l4.15,2.39-3.51,2.03-4.29-2.41,3.5-2.02h.05Zm-15.96.12s.09.01.1.02l4.14,2.39-3.51,2.02-4.29-2.41,3.5-2.02h.05Zm-14.35.79s.08.01.09.02l4.15,2.39-3.51,2.03-4.29-2.41,3.5-2.02h.05Zm-39.11.1s.09.01.1.02l4.14,2.39-4.42,2.55-4.29-2.41,4.41-2.55h.05Zm25.37.34s.09.01.1.02l4.14,2.39-3.51,2.02-4.29-2.41,3.5-2.02h.05Zm-15.25,1.31s.09.01.1.02l4.14,2.39-3.51,2.02-4.28-2.41,3.5-2.02h.05Zm37.6.77s.08.01.09.02l4.15,2.39-3.51,2.02-4.29-2.41,3.5-2.02h.05Zm-14.34.79s.08.01.09.02l4.15,2.39-3.51,2.02-4.28-2.41,3.5-2.02h.05Zm-13.74.44s.08.01.09.02l4.15,2.39-3.51,2.02-4.29-2.41,3.5-2.02h.05Zm41.54.1s.08.01.09.02l4.15,2.39-3.51,2.03-4.29-2.41,3.5-2.02h.05Zm-67.82.09s.08.01.1.02l4.14,2.39-4.42,2.55-4.29-2.41,4.41-2.55h.05Zm11.03,1.13s.08.01.09.02l4.15,2.39-3.51,2.02-4.29-2.41,3.5-2.02h.05Zm37.6.77c.05,0,.09.01.1.02l4.14,2.39-3.51,2.03-4.29-2.41,3.51-2.02h.05Zm-14.35.79s.08.01.09.02l4.15,2.39-3.51,2.03-4.29-2.41,3.5-2.02h.05Zm-13.74.44s.08.01.09.02l4.15,2.39-3.51,2.02-4.29-2.41,3.5-2.02h.05Zm41.54.1s.08.01.09.02l4.15,2.39-3.51,2.03-4.29-2.41,3.5-2.02h.05Zm-68.73.61s.08.01.09.02l4.15,2.39-5.62,3.25-4.29-2.41,5.62-3.24h.05Zm11.93.6s.08.01.09.02l4.15,2.39-11.06,6.39-4.29-2.41,11.06-6.38h.05Zm37.6.77s.08.01.09.02l4.14,2.39-3.51,2.02-4.29-2.41,3.5-2.02h.05Zm-14.35.79s.08.01.09.02l4.15,2.39-3.51,2.03-4.29-2.41,3.5-2.02h.05Zm-13.74.44s.08.01.09.02l4.15,2.39-3.51,2.02-4.29-2.41,3.5-2.02h.05Zm41.54.1s.08.01.09.02l4.15,2.39-3.51,2.03-4.29-2.41,3.5-2.02h.05Zm-19.19,1.99s.08.01.09.02l4.14,2.39-3.51,2.02-4.29-2.41,3.5-2.02h.05Zm-52.85.54s.08.01.09.02l4.15,2.39-3.51,2.02-4.29-2.41,3.51-2.02h.05Zm38.5.25s.08.01.09.02l4.15,2.39-3.51,2.02-4.28-2.41,3.5-2.02h.05Zm-13.74.44s.08.01.09.02l4.15,2.39-3.21,1.85c-.22.13-.36.35-.36.58s.14.47.38.61l5.44,3.14-4.12,2.37-10.78-6.15,8.34-4.82h.05Zm41.54.1s.08.01.09.02l4.15,2.39-3.51,2.03-4.29-2.41,3.5-2.02h.05Zm-19.2,1.99s.08.01.09.02l4.15,2.39-3.51,2.03-4.29-2.41,3.5-2.02h.05Zm-52.85.54s.08.01.09.02l4.15,2.39-3.51,2.02-4.29-2.41,3.5-2.02h.05Zm38.51.25s.08.01.09.02l4.15,2.39-3.51,2.02-4.29-2.41,3.5-2.02h.05Zm25.3,1.98s.08.01.09.02l4.15,2.39-3.51,2.03-4.29-2.41,3.5-2.02h.05Zm-16.7.55s.08.01.09.02l4.14,2.39-3.51,2.03-4.29-2.41,3.5-2.02h.05Zm-52.85.54s.09.01.1.02l4.14,2.39-3.51,2.02-4.29-2.41,3.5-2.02h.05Zm12.23.43s.08.01.1.02l4.14,2.39-3.51,2.02-4.29-2.41,3.5-2.02h.05Zm51.58,1.8s.08.01.09.02l4.15,2.39-3.51,2.02-4.29-2.41,3.5-2.02h.05Zm-16.7.55s.08.01.09.02l4.14,2.39-6.23,3.6-4.29-2.41,6.22-3.59h.05Zm-54.06,1.24s.08.01.09.02l4.15,2.39-9.25,5.34-4.29-2.41,9.25-5.34h.05Zm37.9.6s.08.01.1.02l4.14,2.39-3.51,2.03-4.29-2.41,3.5-2.02h.05Zm27.12.93s.08.01.09.02l4.15,2.39-3.51,2.02-4.29-2.41,3.5-2.02h.05Zm-58.53,2.22s.08.01.1.02l4.14,2.39-3.51,2.03-4.29-2.41,3.5-2.02h.05Zm25.67.17s.08.01.1.02l4.14,2.39-3.51,2.03-4.29-2.41,3.5-2.02h.05Zm12.23.43s.08.01.09.02l4.15,2.39-3.51,2.03-4.29-2.41,3.5-2.02h.05Zm14.89.5s.08.01.09.02l4.15,2.39-3.51,2.02-4.29-2.41,3.5-2.02h.05Zm-70.76,1.79s.08.01.1.02l4.14,2.39-3.51,2.03-4.29-2.41,3.5-2.02h.05Zm12.23.43s.08.01.1.02l4.14,2.39-3.51,2.03-4.29-2.41,3.5-2.02h.05Zm25.67.17s.08.01.1.02l4.14,2.39-3.51,2.03-4.29-2.41,3.5-2.02h.05Zm-13.44.27s.08.01.09.02l4.15,2.39-3.51,2.02-4.29-2.41,3.5-2.02h.05Zm25.67.17s.08.01.1.02l4.14,2.39-3.51,2.03-4.29-2.41,3.5-2.02h.05Zm13.62,1.23s.08.01.09.02l4.15,2.39-3.51,2.03-4.29-2.41,3.5-2.02h.05Zm-69.49,1.05s.08.01.1.02l10.63,6.14-3.51,2.03-10.78-6.15,3.51-2.02h.05Zm12.23.43s.08.01.1.02l4.14,2.39-3.51,2.03-4.29-2.41,3.5-2.02h.05Zm12.23.43s.08.01.09.02l4.15,2.39-3.51,2.02-4.29-2.41,3.5-2.02h.05Zm25.67.17s.08.01.1.02l4.14,2.39-3.51,2.03-4.29-2.41,3.5-2.02h.05Zm-13.44.26s.08.01.09.02l4.15,2.39-3.51,2.02-4.29-2.41,3.5-2.02h.05Zm27.06.97s.08.01.09.02l4.15,2.39-3.51,2.03-4.29-2.41,3.5-2.02h.05Zm-45.03,1.92s.08.01.09.02l4.15,2.39-3.51,2.02-4.29-2.41,3.5-2.02h.05Zm12.23.43s.08.01.09.02l4.15,2.39-3.51,2.02-4.29-2.41,3.5-2.02h.05Zm12.23.43s.08.01.09.02l4.14,2.39-3.51,2.03-4.29-2.41,3.5-2.02h.05Zm14.82.54s.08.01.09.02l4.15,2.39-3.51,2.03-4.29-2.41,3.5-2.02h.05Zm-45.03,1.92s.08.01.1.02l10.63,6.14-3.51,2.02-10.78-6.15,3.51-2.02h.05Zm12.23.43s.08.01.09.02l4.15,2.39-3.51,2.02-4.29-2.41,3.51-2.02h.05Zm12.23.43s.08.01.09.02l4.15,2.39-3.51,2.03-4.29-2.41,3.5-2.02h.05Zm15.28,2.2s.08.01.09.02l1.8,1.02-3.51,2.03-1.93-1.04,3.49-2.02h.05Zm-21.02,1.12s.08.01.09.02l4.15,2.39-3.51,2.03-4.29-2.41,3.5-2.02h.05Zm15.28,2.2s.08.01.1.02l1.8,1.02-3.51,2.03-1.92-1.04,3.49-2.02h.05Zm-21.02,1.12s.08.01.09.02l4.15,2.39-3.51,2.03-4.29-2.41,3.5-2.02h.05Zm15.28,2.2s.08.01.1.02l1.8,1.02-3.51,2.03-1.93-1.04,3.49-2.02h.05Zm-5.74,3.31s.09.01.1.02l1.8,1.02-3.51,2.03-1.93-1.04,3.49-2.02h.05Z"/>
        </g>
      </g>
      <g id="Character">
        <path id="Shadow-4" data-name="Shadow" class="cls-26" d="m138.78,548.15c1.93,4.88,6.11,7.41,12.27,10.18,18.09,8.14,61.42,17.89,85.77,22.23,14.16,2.53,28.63,7.19,43.1,7.78,12.94.53,26.37-1.86,37.11-9.09,1.44-.97,2.91-2.12,3.47-3.77.86-2.51-.77-5.33-3.03-6.72-2.26-1.39-5-1.71-7.64-2.03-28.79-3.46-57.09-10.96-83.81-22.22,12.01-1.26,24.22-2.57,35.4-7.14,11.18-4.57,21.4-12.94,25.34-24.36.79-2.3,1.43-4.85,3.33-6.36,2-1.59,4.9-1.55,7.31-.69,7.86,2.81,10.96,12.02,13.3,20.03,2.34,8.01,6.18,17.17,14.32,19.01-2.96-1.73-1.87-6.91,1.32-8.15,3.2-1.24,6.92.7,8.82,3.55,1.84,2.75,2.39,6.17,3.96,9.08,1.57,2.91,4.96,5.43,8.02,4.18,1.65-.67,2.73-2.26,3.54-3.85,4.34-8.47,3.54-18.89-.25-27.62-3.79-8.73-10.26-16.01-17.14-22.59-9.58-9.15-20.35-17.38-32.75-22.03-25.97-9.74-55.16-2.63-80.89,7.74-19.39,7.82-38.05,17.45-55.66,28.73-6.51,4.17-13.04,8.6-18.34,14.29-3.92,4.2-8.05,10.14-7.62,16.18.1,1.38.3,2.59.71,3.62Z"/>
        <g id="Character-2" data-name="Character">
          <g id="Arm">
            <path class="cls-29" d="m358.86,520.27c-3.8-5.89-10.59-17.95-12.73-20.38-5.82-6.62-17.82-17.1-17.82-17.1-11.3-9.22-46.06-39.91-46.06-39.91,0,0-5.42-68.08-11.38-78.93-6.95-12.67-20.16-13.18-33.84-14.02,0,0-3.5,14.78-4.98,26.89,0,0,12.31,76.29,13.78,83.39,1.47,7.1,5.07,10.21,12.4,14.91,11.19,7.17,51.66,28.92,51.66,28.92l1.98,1.38c1.37.95,2.4,2.31,2.94,3.89.42,1.21.83,2.82,1.06,4.83.64,5.65-.09,7.25.48,13.32.57,6.08,1.87,5.97,4.21,11.25,2.17,4.88,2.8,7.94,4.59,8.13s4.09-3.8,4.09-7.84-2.46-8.46-2.54-10.16c-.07-1.46.81-3.82,4.64-1.56,4.01,2.37,7.41,9.11,10.25,13.86,2.85,4.75,4.37,11.01,7.26,14.43,2.89,3.42,3.95-.38,5.27-3.53,1.33-3.15,7.79-8.44,9.5-13.57,1.71-5.13-.95-12.34-4.75-18.23Z"/>
            <path class="cls-25" d="m237.02,349.52c9.41,0,17.06-1.03,25.36,4.01,8.3,5.04,10.52,11.97,12.4,22.71,1.71,9.78,5.15,43.43,5.15,43.43,0,0-23.9,13.19-44.7,4.77l1.79-74.92Z"/>
            <path class="cls-17" d="m337.1,533.66h0s-.03-.05-.05-.07c.02.02.03.05.05.07Z"/>
          </g>
          <g>
            <path class="cls-30" d="m256.83,303.36s5.85,1.79,11.34,5.27c5.49,3.48,5.69,9.63,3.47,13.56l-4.32-.85s2.22-5.07-.37-7.77c-2.6-2.71-10.18-5.05-10.18-5.05l.07-5.16Z"/>
            <path class="cls-30" d="m269.84,319.39c-3.5-1.7-5.18.49-7.66,6.43-2.48,5.94-.77,7.57,2.24,8.75,3.01,1.17,5.32-.8,7.17-5.72,2.08-5.53,2.03-7.62-1.75-9.46Z"/>
            <path class="cls-27" d="m270.13,319.44c-3.5-1.7-5.18.49-7.66,6.43-2.48,5.94-.77,7.57,2.24,8.75,3.01,1.17,5.32-.8,7.17-5.72,2.08-5.53,2.03-7.62-1.75-9.46Z"/>
          </g>
          <g>
            <path id="Chest" class="cls-28" d="m198.18,353.86c-19.76,4.43-40.85,10.72-56.71,17.63,0,0-1.28,67.87,9.72,100.32,11,32.45,7.81,69.29,7.81,69.29,53.66,8.68,118.87-16.27,117.25-43.35,0,0-3.44-7.93-9.06-16.44,0,0-1.34-21.75-.75-31.42,39.33-36.88-15.31-84.08-29.42-100.37-8.58,1.18-21.19.38-38.85,4.34Z"/>
            <path class="cls-25" d="m194.95,254.12c-2.55,4.57-1.5,9.94-.45,14.78.8,3.7,2.99,8.25,2.07,12-1.28,5.21-4.79,9.58-8.92,12.86-1.06.84-2.2,1.74-3.39,2.39-1.02.56-2.2.81-3.24,1.39-2.21,1.23-3.99,3.17-5.28,5.32-1.87,3.12-2.84,6.67-3.82,10.17-.98,3.5-2.03,7.05-4.03,10.08-3.94,5.97-11.38,9.2-18.52,8.76-3.93-.24-7.76-1.52-11.15-3.51-1.71-1-3.31-2.18-4.77-3.51-.96-.87-2.38-2.29-3.16-4.18-.54,4.72.68,9.62,3.36,13.54-7.34,1.31-15.24-1.09-20.61-6.26-5.37-5.17-8.07-12.97-7.05-20.35.64-4.59,2.6-8.89,3.61-13.41,2.73-12.17-8.2-18.83-9.99-29.93-1.12-6.9,2.6-14.32,8.79-17.56,3.73-1.95,8.66-2.94,10.21-6.86,1.19-3.01-.26-6.37-.22-9.6.08-6.4,6.05-11.29,12.15-13.24,6.1-1.94,12.68-1.91,18.83-3.73,6.56-1.94,12.46-5.93,19.19-7.13,7.91-1.41,16.37,1.63,21.84,7.45,2.53,2.69,3.9,5.81,6.14,8.59,2.21,2.75,5.67,4.21,7.31,7.47,2.16,4.3,2.81,9.65.47,13.85-2.31,4.14-7.06,6.48-9.37,10.63Z"/>
            <path class="cls-28" d="m255.5,268.59c-.76-21.31-13.12-51.71-58.9-47.82-44.61,3.79-57.75,43.58-53.63,65.19,5.68,29.84,27.38,31.75,33.02,51.25l79.51-68.62Z"/>
            <g>
              <path class="cls-29" d="m155.72,284.88c3.01-3.41,6.96-4.85,11.21-3.72,2.34.62,3.93,1.87,5.52,3.63,2.06,2.28,2.03,5.34,3.48,7.98.9,1.64,2.51,2.99,4.37,3.16,6.13.56,3.85-9.41,4.18-12.96,11.59-4.11,11.28-8.41,12.86-18.65,8.12-8.78,22.23-10.07,34.44-1.68,7.45-14.38,15.53-12.57,19.02-8.1,1.9,3.19,3.95,9.69,5.21,16.66,1.67,9.25,2.36,16.93,1.94,26.31-1.5,34.21-12.79,42.43-18.4,44.74-5.62,2.31-12.47.64-22.86-1.31v20.56c10.67,20.51,19.32,51.53,18.9,71.8-16.54-31.3-42.39-48.03-54.62-59.39-5.02-4.67-7.39-8.54-7.39-8.54v-54.11s-4.51,4.82-11.69-.87c-9.58-7.6-12.5-18.33-6.17-25.49Z"/>
              <path class="cls-31" d="m216.69,340.92c-8.89-2.32-18.53-5.7-25.12-10.81-5.24-4.06-8.24-9.63-9.72-13.62,0,0,.77,13.19,7.41,19.13,6.64,5.94,27.44,12.8,27.44,12.8v-7.51Z"/>
              <g>
                <path class="cls-35" d="m218.08,293.23c.37,2.69-1.43,5.16-4.02,5.51-2.59.35-4.99-1.55-5.36-4.24-.37-2.69,1.43-5.16,4.02-5.51,2.59-.35,4.99,1.55,5.36,4.24Z"/>
                <path class="cls-35" d="m251.72,289.06c.34,2.45-1.3,4.69-3.65,5-2.59.35-4.5-1.16-4.88-3.85-.34-2.45,1.3-4.69,3.65-5.01,2.35-.32,4.54,1.41,4.88,3.85Z"/>
                <polygon class="cls-31" points="228.02 283.14 231.4 311.63 246.02 306.05 228.02 283.14"/>
                <path class="cls-35" d="m215.54,278.86l-10.69,4.9c-1.29-3.06.05-6.64,3-8,2.95-1.35,6.4.03,7.69,3.09Z"/>
                <path class="cls-32" d="m212.09,315.22l15.41,5.24c-1.61,4.31-6.37,6.63-10.62,5.19-4.26-1.45-6.4-6.11-4.79-10.42Z"/>
                <path class="cls-31" d="m212.46,318.81c4.04.17,7.12,3.32,7.55,7.22-1.04.07-2.1-.04-3.13-.39-3.03-1.03-4.91-3.7-5.21-6.7.27-.02.51-.14.79-.13Z"/>
                <path class="cls-35" d="m253.08,280.1l-10.85-4.77c1.22-3.07,4.63-4.49,7.63-3.17,3,1.32,4.44,4.87,3.22,7.94Z"/>
              </g>
            </g>
            <g>
              <path class="cls-35" d="m216.7,347.49c6.9,2.02,27.09,29.33,33.65,39.17l-7.42,18.91s7.82,8.02,11.69,15.09l-15.08,43.95s1.35-58.56-22.85-103.13v-14Z"/>
              <path class="cls-25" d="m237.52,431.1c5.33,13.95,6.13,46.28,6.13,46.28,0,0-5.42-30.16-30.74-40.73.01-1.45.27-22.11.27-22.11,0,0-33.94-8.63-41.17-11.88l-7.33-39.32s4.9-12.22,9.03-12.57l.02,8.49s13.65,10.4,32.1,28.26c18.45,17.87,26.36,29.62,31.69,43.57Z"/>
            </g>
          </g>
          <g>
            <path class="cls-29" d="m325.48,570.14c-5.49-4.61-13.42-10.98-19.77-12.51-.82-.19-2.07-.65-4.46-.99,2.1-.6,4.23-.92,6.25-1.79,2.01-.87,3.88-2.17,5.07-4,.48-.74.77-1.87.04-2.37-.26-.18-.59-.27-.91-.25-4.64.24-8.35-.18-12.59-.13-1.85.02-3.93-.06-5.66.57-1.69.61-3.37,1.26-5.01,1.98-7.46,3.29-14.27,6.26-25.36,4.63l-4.62-1.22-77.66-40.01-14.72-80.19s-3.53-49.75-23.73-61.8c-10.74,4.07-22.5,14.17-25.68,25.13-3.76,12.95-2.3,31.33,4.11,59.84,5.36,23.86,10.98,48.31,17.06,66.52,6.03,18.07,8.4,24.61,20.3,28.16,20,5.97,92.15,25.77,92.15,25.77,0,0,1.72.69,4.51,1.48,2.49.71,4.83,2.42,10.75,3.71,7.02,1.54,15.58-1.67,21.51-2.48,5.93-.81,16.24,1.11,21.95,2.89,5.71,1.78,11.63-7.27,14.49-6.47,2.85.79,7.46-1.84,1.98-6.45Z"/>
            <path class="cls-31" d="m298.42,553.58c-4.04-.08-8.31,2.06-8.31,2.06,0,0,4.96-.31,11.15,1.01,2.1-.6,4.23-.92,6.25-1.79,1.77-.76,3.44-1.87,4.63-3.38-3.14,2.54-9.67,2.19-13.71,2.11Z"/>
            <path class="cls-25" d="m141.47,371.49c-13.92,5.94-23.14,13.22-26.84,28.51-3.7,15.3-1.09,28.75,2.04,44.95s10.48,42.55,10.48,42.55c0,0,29.76,1.8,46.93-10.12l-9.4-61.09s-4.97-36.27-22.33-44.24"/>
          </g>
          <g>
            <path class="cls-17" d="m165.4,227.87c-10.46,9.68-20.49,23.43-13.06,55.21-4.49,3.99-6.39,10.86-4.32,17.93,2.88,9.81,12.29,16.27,21.04,14.42,8.74-1.85,13.5-11.31,10.63-21.12-2.15-7.34-10.04-14.45-16.52-13.98,0,0-6.2-13.6-.38-32.85,7.94-26.25,38.54-28.43,52.01-26.31-4.53-6.45-35.58-6.08-49.4,6.71Z"/>
            <path class="cls-8" d="m165.4,227.87c-10.46,9.68-20.49,23.43-13.06,55.21-4.49,3.99-6.39,10.86-4.32,17.93,2.88,9.81,12.29,16.27,21.04,14.42,8.74-1.85,13.5-11.31,10.63-21.12-2.15-7.34-10.04-14.45-16.52-13.98,0,0-6.2-13.6-.38-32.85,7.94-26.25,38.54-28.43,52.01-26.31-4.53-6.45-35.58-6.08-49.4,6.71Z"/>
            <path class="cls-17" d="m181.57,293.82c-3.19-10.88-13.62-18.03-23.32-15.98-1.52.32-2.93.86-4.21,1.57-1.09.6-4.39,2.87-5.03,3.3-6.18,4.09-9.04,12.51-6.49,21.2,3.19,10.88,13.62,18.03,23.32,15.98,1.84-.39,3.52-1.09,5.01-2.04.78-.5,3.87-2.56,4.62-3.09,5.92-4.18,8.6-12.43,6.11-20.93Z"/>
            <path class="cls-30" d="m181.57,293.82c-3.19-10.88-13.62-18.03-23.32-15.98-1.52.32-2.93.86-4.21,1.57-1.09.6-4.39,2.87-5.03,3.3-6.18,4.09-9.04,12.51-6.49,21.2,3.19,10.88,13.62,18.03,23.32,15.98,1.84-.39,3.52-1.09,5.01-2.04.78-.5,3.87-2.56,4.62-3.09,5.92-4.18,8.6-12.43,6.11-20.93Z"/>
            <path class="cls-17" d="m177.61,296.48c-3.19-10.88-13.62-18.03-23.32-15.98-9.69,2.05-14.97,12.53-11.78,23.41,3.19,10.88,13.62,18.03,23.32,15.98,9.69-2.05,14.96-12.53,11.78-23.41Z"/>
            <path class="cls-8" d="m177.61,296.48c-3.19-10.88-13.62-18.03-23.32-15.98-9.69,2.05-14.97,12.53-11.78,23.41,3.19,10.88,13.62,18.03,23.32,15.98,9.69-2.05,14.96-12.53,11.78-23.41Z"/>
            <path class="cls-30" d="m168.35,298.44c-1.5-5.13-6.43-8.51-11-7.54-4.57.97-7.06,5.91-5.56,11.05,1.5,5.13,6.43,8.51,11,7.54,4.57-.97,7.06-5.91,5.56-11.05Z"/>
          </g>
        </g>
      </g>
      <g id="Monitor">
        <path id="Shadow-5" data-name="Shadow" class="cls-26" d="m381.86,683.42l-36.2-21.14c-1.66-.97-1.65-2.53,0-3.49l141.96-81.96c1.66-.96,4.35-.95,6.01.01l36.16,21.04c1.66.96,1.66,2.53,0,3.49l-141.92,82.06c-1.66.96-4.35.95-6.01-.01Z"/>
        <g id="Monitor-2" data-name="Monitor">
          <g>
            <path class="cls-35" d="m513.97,564.01l9.5-112.83c.26-3.17-1.62-6.96-4.21-8.45-2.59-1.49-6.92-1.41-9.68.18l-141.79,81.86c-2.76,1.59-5.21,5.46-5.47,8.63l-9.5,112.83c-.26,3.17,1.62,6.96,4.21,8.45,2.59,1.49,6.92,1.41,9.68-.18l141.79-81.86c2.76-1.59,5.21-5.46,5.47-8.63Z"/>
            <path class="cls-25" d="m523.47,451.18l-9.5,112.82,6.89-111.96c.26-3.18-.89-4.38-3.65-2.8l-140.06,80.95c-1.35.78-2.64,2.12-3.63,3.66l-9.36-5.4c.97-1.55,2.26-2.88,3.63-3.68l141.78-81.87c2.76-1.58,7.1-1.67,9.69-.17,2.59,1.49,4.46,5.28,4.2,8.46Z"/>
            <path class="cls-28" d="m362.19,651.64l9.5-112.83c.26-3.17,2.71-7.04,5.47-8.63l140.05-80.94c2.76-1.59,3.91-.38,3.65,2.79l-6.89,111.97c-.26,3.17-2.71,7.04-5.47,8.63l-141.79,81.86c-2.76,1.59-4.78.31-4.52-2.86Z"/>
            <polygon class="cls-35" points="431.84 583.46 430.75 617.43 470.14 594.79 460.55 566.96 431.84 583.46"/>
          </g>
          <g>
            <polygon class="cls-28" points="437.59 587.21 465.09 571.23 460.4 568.53 432.93 584.51 437.59 587.21"/>
            <path class="cls-25" d="m480.14,618.95l-15.04-47.71-27.51,15.98-4.65-2.71,3.09,36.73.76,10.56.45,2.26-2-1.15-8.89-5.12c-.52-.3-.99-.35-1.34-.17t-.03.02c-.38.19-.63.64-.63,1.3v.8c0,1.27.83,2.76,1.93,3.4.02.02.03.02.07.05l14.73,8.51s.03.02.05.02c.5.28,1.18.43,1.82.47.76.02,1.55-.14,2.14-.49l33.48-19.33c1.11-.63,1.79-2.17,1.56-3.42Zm-21.15-4.08c-3.82,2.22-7.83.59-8.96-3.65-1.11-4.24,1.09-9.48,4.91-11.71,3.84-2.24,7.85-.61,8.96,3.65,1.11,4.24-1.08,9.48-4.91,11.71Z"/>
            <polygon points="424.97 627.63 436.39 621.03 438.71 636.4 424.97 627.63"/>
            <path class="cls-35" d="m437.6,587.21l-4.67-2.7,3.86,47.29c.25,1.25-.46,1.75-1.55,1.11l-8.9-5.12c-1.11-.65-1.98-.12-1.98,1.15v.78c0,1.27.83,2.77,1.92,3.41.02.02.05.02.07.05l14.74,8.51s.02.02.05.02c.51.28,1.18.44,1.82.46l-5.35-54.97Z"/>
          </g>
          <path class="cls-35" d="m458.98,614.87c-2.8,1.62-5.68,1.2-7.47-.82,1.32.17,2.76-.12,4.17-.96,3.84-2.22,6.03-7.47,4.91-11.71-.3-1.15-.82-2.1-1.48-2.83,2.24.3,4.06,1.95,4.78,4.6,1.11,4.24-1.08,9.48-4.91,11.71Z"/>
          <g>
            <path class="cls-8" d="m435.44,543.08l-1.83,21.74c-.12,1.43.66,2.1,1.75,1.48,1.09-.62,2.07-2.28,2.19-3.71l1.83-21.74c.12-1.43-.66-2.1-1.75-1.48-1.09.62-2.06,2.28-2.19,3.71Z"/>
            <path class="cls-8" d="m442.49,539.01l-1.83,21.74c-.12,1.43.66,2.1,1.75,1.48s2.07-2.28,2.19-3.71l1.83-21.74c.12-1.43-.66-2.1-1.75-1.48-1.09.62-2.06,2.28-2.19,3.71Z"/>
            <path class="cls-8" d="m449.54,534.93l-1.83,21.74c-.12,1.43.66,2.1,1.75,1.48,1.09-.62,2.07-2.28,2.19-3.71l1.83-21.74c.12-1.43-.66-2.1-1.75-1.48-1.09.62-2.07,2.28-2.19,3.71Z"/>
            <path class="cls-8" d="m456.6,530.86l-1.83,21.74c-.12,1.43.66,2.1,1.75,1.48s2.07-2.28,2.19-3.71l1.83-21.74c.12-1.43-.66-2.1-1.75-1.48-1.09.62-2.06,2.28-2.19,3.71Z"/>
          </g>
        </g>
      </g>
      <g id="Character_on_the_couch" data-name="Character on the couch">
        <g id="Couch">
          <g>
            <path class="cls-9" d="m551.08,413.91h18.17l-2.9,17.72h-.03c-.14.8-.7,1.58-1.76,2.19-2.43,1.4-6.36,1.4-8.79,0-1.06-.61-1.63-1.39-1.76-2.19h-.03l-2.9-17.72Z"/>
            <path class="cls-9" d="m650.86,360.43h18.17l-2.9,17.72h-.03c-.13.8-.7,1.58-1.76,2.19-2.43,1.4-6.36,1.4-8.79,0-1.06-.61-1.63-1.39-1.76-2.19h-.03l-2.9-17.72Z"/>
            <path class="cls-9" d="m416.47,338.51h18.17l-2.9,17.72h-.03c-.13.8-.7,1.58-1.76,2.19-2.43,1.4-6.36,1.4-8.79,0-1.06-.61-1.63-1.39-1.76-2.19h-.03l-2.9-17.72Z"/>
            <path class="cls-9" d="m508.9,284.74h18.17l-2.9,17.72h-.03c-.14.8-.7,1.58-1.76,2.19-2.43,1.4-6.36,1.4-8.79,0-1.06-.61-1.63-1.39-1.76-2.19h-.03l-2.9-17.72Z"/>
          </g>
          <g>
            <path class="cls-25" d="m401.97,245.37v84.63c0,5.6,3.97,12.47,8.81,15.26l7.18,4.15s.08.04.12.06c2.83,1.59,7.37,2.34,11.01,1.89l107.86,57.07c.24,5.45,4.05,11.9,8.71,14.65.02,0,.06.02.08.04l7.16,4.13c.22.14.45.26.67.35.12.08.24.12.37.18.04.02.08.02.1.04,3.95,1.81,9.38,2.01,13.68.63.53-.16,1.04-.35,1.53-.57.08-.04.16-.06.24-.1.37-.16.71-.35,1.04-.53l103.79-59.76c4.86-2.81,8.81-9.67,8.81-15.26l.15-107.15v-40.75c.01-5.6-3.96-12.45-8.8-15.26l-116.08-66.88c-4.86-2.81-12.16-2.52-17,.28l-7.18,4.13c-4.84,2.81-9.42,9.63-10.15,15.18l-6.92,45.36-6.39-3.7c-5.93-3.43-13.24-3.43-19.17,0l-80.8,46.66c-4.84,2.79-8.81,9.67-8.81,15.26Z"/>
            <path class="cls-28" d="m534.22,126.61l7.18-4.14c4.87-2.81,12.14-3.09,17-.28l116.07,66.89c.52.3,1.08.69.91.57,4.01,2.81,7.26,8.3,7.81,13.21-.65-4.5-4.31-6.13-8.71-3.6.59-.34-7.19,4.15-7.19,4.15-4.87,2.81-12.76,2.81-17.62,0l-115.45-66.61c-4.87-2.81-4.87-7.37,0-10.17Z"/>
          </g>
          <g>
            <path class="cls-35" d="m401.97,245.37v84.63c0,5.6,3.97,12.47,8.81,15.26l7.18,4.15s.08.04.12.06c2.83,1.59,6.65,2.24,10.32,1.95,2.62-.18,5.17-.88,7.18-2.01l81.56-47.11c4.84-2.79,8.81-9.67,8.81-15.26v-84.63c0-5.6-3.95-12.47-8.81-15.26l-6.39-3.7c-5.93-3.43-13.24-3.43-19.17,0l-80.8,46.66c-4.84,2.79-8.81,9.67-8.81,15.26Z"/>
            <path class="cls-28" d="m510.75,183.44l6.41,3.7c4.85,2.8,4.85,7.38,0,10.17l-81.57,47.09c-4.85,2.8-8.81,9.67-8.81,15.26v84.65c0,5.6-3.97,7.89-8.81,5.09l-7.18-4.14c-4.85-2.8-8.81-9.67-8.81-15.26v-84.64c0-5.6,3.97-12.46,8.81-15.26l80.8-46.65c5.93-3.42,13.23-3.42,19.16,0Z"/>
            <path class="cls-25" d="m426.77,259.67v84.65c0,5.6-3.96,7.89-8.81,5.09l-7.18-4.14c-4.85-2.8-8.81-9.67-8.81-15.26v-84.64c0-2.8.99-5.91,2.59-8.68l24.8,14.32c-1.6,2.77-2.59,5.88-2.59,8.68Z"/>
          </g>
          <g>
            <path class="cls-35" d="m430.44,351.43c.83,1.74,1.93,3.41,3.22,4.85,1.87,2.1,5.86,4.39,8.29,5.8,31,17.91,53.35,30.75,84.34,48.65,2.43,1.4,6.38,1.4,8.81,0l28.66-16.55,57.32-33.09c4.86-2.81,8.81-9.36,8.81-14.63s-3.95-11.82-8.81-14.63l-32.52-18.78-24.81-14.31-26.95-15.52c-2.44-1.4-5.62-2.1-8.81-2.1s-6.37.69-8.81,2.1l-81.56,47.11c-4.86,2.81-8.81,9.36-8.81,14.63,0,2.06.61,4.31,1.63,6.47Z"/>
            <path class="cls-25" d="m526.28,391.64l-93.06-53.69c-2.43-1.41-4.41-.27-4.41,2.54v8.92c0,2.81,1.97,6.23,4.41,7.63l93.07,53.69c2.43,1.4,4.4.27,4.4-2.54v-8.91c0-2.81-1.98-6.23-4.41-7.63Z"/>
          </g>
          <g>
            <path class="cls-25" d="m536.82,239.57l84.26,48.6c4.87,2.81,8.81,9.64,8.81,15.26v17.83c0,5.62-3.95,12.45-8.81,15.26l-81.57,47.1c-4.87,2.81-12.76,2.81-17.62,0l-84.26-48.6c-4.87-2.81-8.81-9.64-8.81-15.26v-17.83c0-5.62,3.95-12.45,8.81-15.26l81.57-47.09c4.87-2.81,12.76-2.81,17.62,0Z"/>
            <path class="cls-35" d="m530.69,347.54v38.2c3.2,0,6.39-.71,8.81-2.12l81.58-47.09c4.86-2.81,8.81-9.65,8.81-15.26v-17.83c0-5.27-3.48-11.6-7.92-14.69,3.95,2.83,3.64,6.98-.9,9.6l-81.58,47.09c-2.44,1.4-5.62,2.1-8.81,2.1Z"/>
            <path class="cls-28" d="m521.88,345.44l-84.26-48.6c-4.87-2.81-4.87-7.37,0-10.18l81.57-47.09c4.87-2.81,12.76-2.81,17.62,0l84.26,48.6c4.87,2.81,4.87,7.37,0,10.18l-81.57,47.09c-4.87,2.81-12.76,2.81-17.62,0Z"/>
          </g>
        </g>
        <g id="Character-3" data-name="Character">
          <g>
            <g>
              <path class="cls-32" d="m461.7,350.07s6.81,21.78,6.55,30.12c-.27,8.69,1.58,11.74-.68,21.02-.49,2.02-1.92,6.04-2.32,7.68-.36,1.46.09,2.7,1.96,3.26,3.69,1.1,10.52-5.43,14.14-12.86,3.62-7.43,9.28-24.39,9.72-26.44.42-1.98-.03-4.52-.68-6.16-1.13-2.87-1.46-3.28-1.46-3.28-.93-3.87-.92-11.08-1.55-16.13l-25.68,2.78Z"/>
              <g>
                <path class="cls-35" d="m497.75,381.37s.8,1.81.77,2.92c-.06,1.73-4.43,7.09-6.14,9.03-1.7,1.94-3.42,4.41-3.64,9.6-.24,5.55-3.13,10.66-7.08,14.92-3.95,4.26-10.57,8.72-19.92,10.76-9.35,2.04-12.18-2.8-12.18-2.8,0,0-2.46-4.64-.6-6.3,1.85-1.66,48.8-38.13,48.8-38.13Z"/>
                <path class="cls-8" d="m488.93,363.42c.28.01.77-.02,1.42.9.24.35,1.56,4.59,2.76,6.86,1.28,2.43,4.47,6.66,4.64,10.19-2.68,6.58-9.42,10.75-10.91,17.05-1.49,6.3-2.22,13.7-12.69,20.68-10.46,6.98-20.61,6.94-24.06,4.57-3.45-2.37-2.79-6.23,2.88-13.19,6.02-7.4,11.07-24.09,11.07-24.1.7-2.31,1.17-4.77,1.56-7.15.38-2.31-.09-4.86-.07-7.21,0-1.11.06-2.31.73-3.2.67-.89,1.79-1.29,2.85-1.64,1.69-.56,3.41-1.12,5.18-1.28,1.77-.17,3.64.09,5.14,1.07,1.08.7,1.92,1.75,3.07,2.34,1.54.79,3.52.61,4.89-.45,2.01-1.57,1.86-3.14,1.68-4.32.04-.03-.14-1.09-.14-1.09Z"/>
                <path class="cls-9" d="m480.41,413.32s-3.15-8.05-13.56-8.88c-10.42-.84-14.46,4.16-16.31,7.14-2.2,3.55-4.73,10.11-.6,12.4,4.47,2.48,9.9,2.28,18.71-1.24,8.81-3.53,11.76-9.42,11.76-9.42Z"/>
                <g>
                  <path class="cls-9" d="m481.16,381.8c-.31.12-.66.1-.95-.08-1.54-.96-9.9-3.45-15.24.73-.6-.57-.39-1.5.54-2.76,6.11-3.19,14.03-.87,15.89.28.49.3.61.94.29,1.42-.13.19-.32.33-.52.41Z"/>
                  <path class="cls-9" d="m463.39,388.42c-.28-.95.29-2.34.84-2.81,5.98-2.62,13.34-.44,15.12.67.49.3.61.94.29,1.42-.13.2-.32.33-.52.41-.31.12-.66.1-.95-.08-1.5-.93-9.43-3.29-14.77.4Z"/>
                  <path class="cls-9" d="m457.95,402.13c.06-1.28.62-2.5,1.65-3.66,6.07-3,13.81-.72,15.64.41.49.3.61.94.29,1.42-.13.19-.32.33-.52.41-.31.12-.66.1-.95-.08-1.62-1.01-10.85-3.73-16.1,1.5Z"/>
                  <path class="cls-9" d="m477.06,394.41c-.31.12-.66.1-.95-.08-1.52-.94-9.71-3.38-15.06.6-.15-.98.21-2,1.13-3.01,5.99-2.62,13.34-.44,15.12.67.49.3.61.94.29,1.42-.13.2-.32.33-.52.41Z"/>
                </g>
              </g>
            </g>
            <g>
              <path class="cls-32" d="m450.27,375.15s-6.42,25.32-12,34.89c-5.57,9.57-8.41,14.17-15.57,21.16-1.56,1.52-5.05,4.3-6.32,5.53-1.13,1.1-1.42,2.45-.06,3.98,2.67,3.02,14.91,4.71,22.23.13,7.33-4.58,14.53-15.06,18.99-18.87,1.68-1.43,3.26-2.91,4.79-4.48,1.47-1.52,1.24-3.11,1.51-4.93.13-.88.21-3.31.21-3.31,1.31-4.24,4.43-10.82,6.14-14.91l-19.91-19.18Z"/>
              <g>
                <path class="cls-35" d="m464.84,428.85s-.05,2.07-.58,3.11c-.83,1.62-7.36,4.73-9.84,5.81-2.48,1.08-5.21,2.65-7.74,7.46-2.71,5.14-7.72,8.69-13.37,10.95-5.64,2.26-13.9,3.54-23.66,1.29-9.76-2.25-10.28-8.09-10.28-8.09,0,0-.25-5.49,2.24-6.23,2.49-.74,63.22-14.29,63.22-14.29Z"/>
                <path class="cls-8" d="m464.51,407.93c.26.14.74.32.94,1.48.07.44-.57,5.04-.45,7.72.13,2.87,1.26,8.3-.16,11.72-5.48,5.03-13.71,5.96-17.94,11.26-4.22,5.3-8.22,11.97-21.24,13.9-13.02,1.93-22.61-2.64-24.81-6.43-2.2-3.79.14-7.14,8.62-11.2,9-4.31,21.24-17.86,21.24-17.86,1.69-1.87,3.24-4,4.67-6.07,1.39-2.02,2.09-4.64,3.15-6.86.5-1.05,1.09-2.16,2.12-2.7,1.03-.55,2.27-.42,3.43-.27,1.85.23,3.72.47,5.47,1.1,1.75.64,3.41,1.72,4.39,3.3.71,1.15,1.04,2.52,1.86,3.59,1.1,1.44,3.06,2.15,4.83,1.75,2.6-.58,3.17-2.14,3.51-3.34.05-.01.36-1.1.36-1.1Z"/>
                <path class="cls-9" d="m434.16,451.34s.62-9.02-8.87-14.46c-9.48-5.45-15.54-2.53-18.62-.53-3.67,2.38-8.99,7.45-6.11,11.47,3.12,4.34,8.34,6.58,18.26,7.18,9.91.6,15.34-3.66,15.34-3.66Z"/>
                <g>
                  <path class="cls-9" d="m448.95,421.85c-.34-.03-.67-.2-.86-.5-1.03-1.59-7.82-7.69-14.75-6.12-.31-.81.3-1.59,1.75-2.36,7.21-.29,13.66,5.44,14.91,7.36.33.5.16,1.16-.36,1.47-.21.13-.45.17-.68.16Z"/>
                  <path class="cls-9" d="m429.18,420.17c.16-1.03,1.32-2.08,2.05-2.28,6.83.19,12.82,5.54,14.01,7.38.33.5.16,1.16-.36,1.47-.21.13-.45.17-.68.16-.34-.03-.67-.2-.86-.5-1-1.55-7.45-7.32-14.16-6.22Z"/>
                  <path class="cls-9" d="m417.91,430.72c.63-1.18,1.71-2.09,3.19-2.72,7.08-.12,13.39,5.48,14.61,7.38.33.5.16,1.16-.36,1.47-.21.13-.45.17-.68.16-.34-.03-.67-.2-.86-.5-1.09-1.68-8.6-8.37-15.9-5.77Z"/>
                  <path class="cls-9" d="m439.43,431.95c-.34-.03-.67-.2-.86-.5-1.02-1.57-7.68-7.54-14.52-6.16.3-1,1.1-1.8,2.41-2.34,6.84.19,12.82,5.54,14.01,7.38.33.5.16,1.16-.36,1.47-.21.13-.45.17-.68.16Z"/>
                </g>
              </g>
            </g>
            <g>
              <path class="cls-17" d="m519.26,233.68c-11.18,6.83-49.63,24.91-65.68,37.43-4.64,3.62-6.49,8.74-6.4,20.25.13,15.62,7.86,69.48,7.86,69.48,1.43,3.12,4.85-2.29,4.85-2.29l64.32-68.87-4.95-56.02Z"/>
              <path class="cls-8" d="m519.26,233.68c-11.18,6.83-49.63,24.91-65.68,37.43-4.64,3.62-6.49,8.74-6.4,20.25.13,15.62,7.86,69.48,7.86,69.48,1.43,3.12,4.85-2.29,4.85-2.29l64.32-68.87-4.95-56.02Z"/>
              <path class="cls-35" d="m458.95,344.61c14.39-10.1,63.6-74.96,63.6-74.96,0,0-.01-.01-.02-.02-5.49-5.5-7.08-23.08-7.08-23.08-2.91,6.49-1.28,16.78.23,20.61-3.67,2.67-24.33,16.93-38.65,26.43-3.59,2.38-7.31,5.38-8.97,11.35-3.99,14.3-9.17,36.71-9.1,39.67Z"/>
            </g>
            <g>
              <path class="cls-22" d="m519.26,233.68h0l73.4,22.86c-4.81,13.42-6.45,20.42-10.87,27.33-4.44,6.93-9.32,14.31-29.59,22.25-19.51,7.64-43.19,15.21-47.95,17-3.59,1.35-5.81,8.11-8.13,16.92-2.42,9.24-3.19,16.57-14.13,35.47-10.71,18.51-12.92,22.52-12.92,22.52,0,0-14.18.28-22.82-8.72,0,0,18.3-65.01,22.02-76.68,2.08-6.52,2.4-10.02,11.27-16.62,7.6-5.66,41.21-26.91,41.21-26.91,0,0-11.12-17.91-1.5-35.42Z"/>
              <path class="cls-19" d="m519.26,233.68h0l73.4,22.86c-4.81,13.42-6.45,20.42-10.87,27.33-4.44,6.93-9.32,14.31-29.59,22.25-19.51,7.64-43.19,15.21-47.95,17-3.59,1.35-5.81,8.11-8.13,16.92-2.42,9.24-3.19,16.57-14.13,35.47-10.71,18.51-12.92,22.52-12.92,22.52,0,0-14.18.28-22.82-8.72,0,0,18.3-65.01,22.02-76.68,2.08-6.52,2.4-10.02,11.27-16.62,7.6-5.66,41.21-26.91,41.21-26.91,0,0-11.12-17.91-1.5-35.42Z"/>
            </g>
          </g>
          <g>
            <g>
              <path class="cls-32" d="m523.08,132.34c-1.41-.85-2.03-10.28-.53-17.02,1.5-6.73-1.62-8.36-3.16-6.26-1.53,2.11-1.9,3.93-1.9,3.93,0,0-5,.92-8.77,4.67-3.77,3.75-8.21,8.31-6.91,18.29.25,1.93.41,6.97-.68,9.92-5.41,14.63-24.45,32.97-28.76,52.5-3.97,17.99,10.06,19.78,22.29,14.28,14.08-6.32,41.03-30.27,41.03-30.27l11.7-39.22c-7.44-.08-12.97,1.2-22.83,10.72-1.65,1.6-8.51,7.46-8.51,7.46,2.58-5.7,4.01-9.38,7.02-13.76"/>
              <path class="cls-20" d="m506.11,187.09c-2.55,6.19-7.19,12.97-7.19,12.97,0,0,6.15-3.71,9.19-10.75l-2-2.22Z"/>
              <path class="cls-9" d="m549.01,143.13c-8.05-.75-14.58.5-20.9,6.61-5.82,5.64-12.05,11.58-12.05,11.58-4.16,9.71-7.18,19.13-9.96,25.77,1.4,4.89,4.04,10.52,7.48,14.08l32.67-26.23,2.75-31.81Z"/>
              <path class="cls-20" d="m518.82,143.15c2.26-3.57-1.05-7.05-1.05-7.05l5.3-3.59v-.18s-.01-.02-.02-.03l-21.42-.98c-.08,1.4-.03,2.93.19,4.62.13.98.22,2.75.17,4.64l2.79,1.67c.61.36,1.37.39,2,.06l9.04-4.67c3.14,1.23,3.01,5.5,3.01,5.5Z"/>
            </g>
            <g>
              <g>
                <path class="cls-25" d="m501.49,113.23l37.67-17.74c.81-.38,1.56-.35,2.1.01.48.32,2.41,1.51,2.94,1.81.54.3.9.9.95,1.72l1.22,19.46c.1,1.64-1.05,3.54-2.58,4.26l-37.67,17.74c-.75.35-1.46.35-1.99.06-.54-.3-2.64-1.59-3.18-1.95-.47-.32-.78-.89-.83-1.65-.31-4.89-.91-14.58-1.22-19.46-.1-1.64,1.05-3.54,2.58-4.26Z"/>
                <path class="cls-17" d="m543.71,118.99c.03.73-.61,1.79-1.29,2.12l-35.58,16.82.05.86-1.46-20.71c-.05-.73.59-1.79,1.27-2.1l36.39-17.24h0s-.8.39-.8.39l1.41,19.86Z"/>
                <path class="cls-11" d="m543.71,118.99c.03.73-.61,1.79-1.29,2.12l-35.58,16.82.05.86-1.46-20.71c-.05-.73.59-1.79,1.27-2.1l36.39-17.24h0s-.8.39-.8.39l1.41,19.86Z"/>
                <path class="cls-35" d="m544.58,119.46c.05.73-.61,1.8-1.27,2.12l-36.4,17.21-.05-.86,35.58-16.82c.68-.33,1.32-1.39,1.29-2.12l-1.41-19.86.8-.38,1.47,20.71Z"/>
                <path class="cls-35" d="m504.25,140.6s-.06-.03-.1-.04c-.54-.3-2.63-1.59-3.18-1.96-.46-.32-.77-.89-.82-1.65-.31-4.89-.91-14.58-1.22-19.47-.07-1.12.46-2.38,1.3-3.28l3.06,1.85c-.85.9-1.38,2.17-1.31,3.31.31,4.89.91,14.58,1.22,19.47.06.88.47,1.5,1.06,1.77Z"/>
                <path class="cls-28" d="m544.16,97.29c-.56-.28-1.24-.26-1.95.08l-37.67,17.74c-.47.22-.9.55-1.27.95l-3.07-1.85c.38-.42.8-.73,1.29-.97l37.66-17.74c.81-.38,1.56-.34,2.1,0,.46.3,2.25,1.41,2.9,1.79Z"/>
                <path class="cls-23" d="m504.55,127.44c-.43.22-.75.79-.72,1.27.03.48.41.7.84.49.43-.21.76-.78.72-1.27-.03-.49-.41-.71-.84-.49Z"/>
              </g>
              <path class="cls-32" d="m523.66,132.24c1.13-.93,1.53-3.85,3.45-6.47,2.22-3.03,7.33-2.24,5.74.2-1.6,2.44-2.14,4.67-3.3,10.92-1.17,6.28-3.68,7.25-6.47,10.67v-15.05s.59-.27.59-.27Z"/>
            </g>
          </g>
          <path class="cls-34" d="m575.5,146.12c6.19,1.63,26.14,9.51,26.14,9.51,4.29,3.37,2.5,10.72,2.42,19.21-1.67,61.4-12.31,88.76-12.31,88.76-24.02,5.27-67.91-10.01-76.06-28.34,7.34-11.16,12.28-27.81,13.32-60.55.77-24.29,11.81-31.63,18.97-31.58,0,0,15.13-.29,27.52,2.98Z"/>
          <g>
            <g>
              <path class="cls-35" d="m544.88,95.61c.28-1.55.48-2.79.05-4.31-.43-1.51-1.01-2.98-1.38-4.51-.49-2.06-1.04-4.1-1.65-6.13-.88-2.93-2.03-5.64-2.01-8.74,0-1.43.45-2.91,1.49-3.88,1.35-1.27,3.46-1.43,5.23-.87,1.77.56,3.27,1.71,4.74,2.85,0-2.19.48-4.46,1.83-6.18s3.68-2.77,5.78-2.19c2.01.55,3.38,2.36,4.99,3.69,2.94,2.42,6.81,3.28,10.49,4.22,3.94,1.01,6.98,1.77,10.65,4.54,3.18,2.4,6.43,7.52,6.31,12.57-.05,1.89-.75,6.21-1.05,8.58-.45,3.54-.81,7.1-1.39,10.62-2.94,17.91-8.79,30.89-26.83,29.56-6.87-.51-16.46-4.77-18.25-12.25-.29-1.23-.26-2.66-.34-3.93-.18-2.63-.24-5.27-.2-7.91.08-5.27.59-10.54,1.54-15.73Z"/>
              <path class="cls-28" d="m591.4,86.66s3.48.12,5.3,4.66c1.59,3.94,2.32,10.16-1.54,19.77-4.07,10.12-7.28,13.29-9.5,17.05-1.6,2.7-4.14,7.78-4.14,7.78l1.13-11.88,1.02-8.26s-5.08-1.17-6.55-9.41c-1.66-9.28.1-10.45.1-10.45l14.2-9.26Z"/>
              <path class="cls-32" d="m583.31,114.74c.61.26,1.26.28,1.96-.13,1.63-.98,2.41-3.04,3.8-4.3,1.81-1.63,7.46-3.62,9.76,2.33,2.35,6.07-3.49,13.68-7.72,15.29-6.2,2.36-8.47-3.88-8.47-3.88l-2.4,24.99c-7.13,10.95-14.83,11.84-22.18,11.32s-6.79-7.35-2.08-12.05l.62-8.15s-6.81.52-10.05-.22c-5.4-1.25-7.96-5.57-9.18-11.6-1.4-6.91-1.35-14.25-.86-21.25.65-9.27,4.11-19.27,4.11-19.27,0,0,3.11-2.83,12.16-2.97,6.4-.1,14.44-.54,17.8,3.46.23,1.89,1.59,6.16,6.62,7.63-1.93,12.88,5.03,18.35,6.1,18.81Z"/>
              <path class="cls-35" d="m570.81,89.4c-1.32-2.44-6.04-3.66-8.75-3.19-4.53.78-7.3,2.15-11.02,3.41-2.44.83-4.66,1.27-8.27,1.38-2.58.08-5.47-.68-7.7-1.98s-3.3-4.39-3.49-6.96c-.19-2.63,1.19-5.18,3.11-6.99-.04,1.21.75,2.32,1.75,3,1,.68,2.2.99,3.37,1.3-1.78-1.5-2.67-3.99-2.23-6.28.44-2.29,2.89-5.27,5.13-5.9,2.15-.61,4.65-1.25,9.41,2.68,4.76,3.93,20.97,6.39,18.68,19.52Z"/>
              <path class="cls-20" d="m556.61,140.15s12.37-1.56,16.8-3.51c2.97-1.31,5.51-3.76,6.32-5.4,0,0-1.07,3.56-3.86,6.63-3.41,3.76-19.51,5.52-19.51,5.52l.24-3.24Z"/>
            </g>
            <g>
              <path class="cls-35" d="m561.72,108.49c-.1,1.4.91,2.62,2.26,2.71,1.35.1,2.53-.96,2.63-2.37.1-1.4-.91-2.62-2.26-2.71-1.35-.1-2.53.96-2.63,2.37Z"/>
              <path class="cls-35" d="m563.3,99.44l5.28,2.83c.75-1.51.19-3.38-1.27-4.16-1.46-.78-3.25-.19-4,1.33Z"/>
              <path class="cls-20" d="m562.19,123.8l-10.51,3.08c.8,3,3.79,4.75,6.69,3.9,2.9-.85,4.61-3.98,3.81-6.98Z"/>
              <path class="cls-31" d="m558.37,130.78c-.97.28-1.94.26-2.85.01.3-2.63,2.61-4.59,5.28-4.4.49.03.94.16,1.37.32-.47,1.9-1.86,3.5-3.81,4.07Z"/>
              <path class="cls-35" d="m539.92,100.05l5.79-1.69c-.41-1.63-2.04-2.57-3.64-2.11-1.6.47-2.56,2.16-2.15,3.79Z"/>
              <path class="cls-35" d="m541.56,106.94c-.1,1.4.91,2.62,2.26,2.71,1.35.1,2.53-.96,2.63-2.37.1-1.4-.91-2.62-2.26-2.71-1.35-.1-2.53.96-2.63,2.37Z"/>
              <polygon class="cls-20" points="554.45 104.1 552.67 120.63 544.39 117.1 554.45 104.1"/>
            </g>
          </g>
        </g>
        <g>
          <path class="cls-35" d="m561.72,422.18v-84.64c0-5.6,3.96-12.46,8.81-15.26l81.68-47.15c3.87-2.23,3.87-7.82,0-10.05l-1.99-1.15,6.92-45.36c.74-5.55,5.31-12.38,10.16-15.17l7.17-4.14c4.85-2.8,8.81-.51,8.81,5.09v40.75l-.14,107.15c0,5.6-3.97,12.46-8.81,15.26l-103.8,59.77c-4.85,2.8-8.81.51-8.81-5.09Z"/>
          <path class="cls-28" d="m536.93,323.22v84.65c0,.18,0,.39.02.57.24,5.45,4.05,11.9,8.71,14.65.02,0,.06.02.08.04l7.16,4.13c.22.14.45.26.67.35.12.08.24.12.37.18.04.02.08.02.1.04.24.1.49.2.71.26,3.87,1.53,8.91,1.65,12.96.37.53-.16,1.04-.35,1.53-.57-4.23,1.75-7.51-.63-7.53-5.7v-84.65c0-5.6,3.97-12.47,8.81-15.26l15.99-9.24,65.7-37.92c3.87-2.23,3.87-7.82,0-10.05l-7.29-4.21c-4.84-2.79-12.78-2.79-17.62,0l-65.59,37.87-15.97,9.22c-4.86,2.81-8.81,9.67-8.81,15.26Z"/>
          <path class="cls-25" d="m561.72,337.54v84.65c.02,5.07,3.3,7.45,7.53,5.7-.49.22-1,.41-1.53.57-4.05,1.28-9.1,1.16-12.96-.37-.22-.06-.47-.16-.71-.26-.02-.02-.06-.02-.1-.04-.12-.06-.24-.1-.37-.18-.22-.08-.45-.2-.67-.35l-7.16-4.13s-.06-.04-.08-.04c-4.66-2.75-8.47-9.2-8.71-14.65-.02-.18-.02-.39-.02-.57v-84.65c0-2.8.99-5.91,2.58-8.67l24.8,14.32c-1.6,2.77-2.59,5.89-2.59,8.68Z"/>
        </g>
        <g id="Arm-2" data-name="Arm">
          <path class="cls-32" d="m634.51,241.41c-2.38-18.65-4.37-28.34-6.82-40.87-5.7-29.04-4.35-37.38-25.37-42.83,0,0-7.61,6.69-7.92,23.87-.24,12.99,3.53,20.13,3.53,20.13l8.91,42.89c-7.74,7.26-27.61,22.77-32.46,25.35-6.54,3.47-13.79,4.81-20.77,7.22-4.63,1.6-8.99,3.6-13.51,5.47-.24.1-.49.2-.68.38-.39.36-.46.99-.27,1.49s.59.89,1.03,1.2c2.35,1.65,4.77,1.67,7.53,1.03,2.12-.49,3.95-1.62,6.48-1.55.49.01,1,.15.8.76-.06.18-.42.81-.76,1.14-1.83,1.76-4.62,2.67-7.06,3.41-2.43.73-4.99,1.01-7.53,1.07-2.05.05-4.12-.04-6.11.41-.66.15-1.32.36-1.85.77-2.78,2.17,1.62,3.84,2.52,5.37.47.8,1.29,2.19,1.85,2.93.52.68,1.39.96,2.14,1.36,1.04.56,1.91,1.39,2.88,2.07,2.24,1.57,5.27,2.05,7.94,2.06,2.37,0,4.71-.36,7.05-.73,4.88-.76,9.71-2.28,13.7-5.3,1.69-1.27,3.18-2.78,4.65-4.3,1.26-1.32,2.5-2.66,3.83-3.9,1.27-1.19,5.87-4.65,6.91-5.25,3.49-2.03,23.52-11.5,43.58-25.49,8.8-6.13,6.83-11.9,5.77-20.16Z"/>
          <path class="cls-9" d="m601.64,155.63c14.87,4.83,18.93,11.12,20.35,15.88,2.04,6.86,3.65,14.68,6.04,26.28,3.56,17.32,4.23,24.17,4.23,24.17,0,0-8.2,6.65-29.51,6.38l-7.13-28.17s-10.39-24.74,6.02-44.54Z"/>
        </g>
      </g>
      <g id="Side_Table" data-name="Side Table">
        <g id="Side_table" data-name="Side table">
          <g>
            <g>
              <polygon class="cls-17" points="623.35 436.13 634.76 429.55 623.35 426.25 623.35 436.13"/>
              <polygon class="cls-12" points="623.35 436.13 634.76 429.55 623.35 426.25 623.35 436.13"/>
              <polygon class="cls-21" points="623.35 436.13 634.76 429.55 623.35 426.25 623.35 436.13"/>
            </g>
            <g>
              <polygon class="cls-17" points="623.35 436.13 617.65 432.84 617.65 422.96 623.35 426.25 623.35 436.13"/>
              <polygon class="cls-11" points="623.35 436.13 617.65 432.84 617.65 422.96 623.35 426.25 623.35 436.13"/>
            </g>
          </g>
          <g>
            <g>
              <polygon class="cls-17" points="680.5 459.25 680.5 469.75 763.04 422.12 763.04 411.61 680.5 459.25"/>
              <polygon class="cls-12" points="680.5 459.25 680.5 469.75 763.04 422.12 763.04 411.61 680.5 459.25"/>
              <polygon class="cls-26" points="680.5 459.25 680.5 469.75 763.04 422.12 763.04 411.61 680.5 459.25"/>
            </g>
            <g>
              <polygon class="cls-17" points="680.5 469.75 674.79 466.46 674.79 455.96 680.5 459.25 680.5 469.75"/>
              <polygon class="cls-11" points="680.5 469.75 674.79 466.46 674.79 455.96 680.5 459.25 680.5 469.75"/>
            </g>
          </g>
          <g>
            <polygon class="cls-17" points="768.75 329.28 686.2 376.91 686.2 462.54 768.75 414.91 768.75 329.28"/>
            <polygon class="cls-12" points="768.75 329.28 686.2 376.91 686.2 462.54 768.75 414.91 768.75 329.28"/>
          </g>
          <g>
            <polygon class="cls-17" points="686.2 376.91 611.94 334.04 611.94 419.67 686.2 462.54 686.2 376.91"/>
            <polygon class="cls-11" points="686.2 376.91 611.94 334.04 611.94 419.67 686.2 462.54 686.2 376.91"/>
          </g>
          <g>
            <polygon class="cls-17" points="611.94 334.04 694.49 286.4 768.75 329.28 686.2 376.91 611.94 334.04"/>
            <polygon class="cls-13" points="611.94 334.04 694.49 286.4 768.75 329.28 686.2 376.91 611.94 334.04"/>
          </g>
          <g>
            <polygon class="cls-17" points="680.5 406.55 617.64 370.26 617.64 416.37 680.5 452.66 680.5 406.55"/>
            <polygon class="cls-10" points="680.5 406.55 617.64 370.26 617.64 416.37 680.5 452.66 680.5 406.55"/>
            <polygon class="cls-26" points="617.64 416.37 657.31 393.16 680.5 406.55 680.5 452.66 617.64 416.37"/>
            <polygon class="cls-21" points="617.64 416.37 657.31 393.16 617.64 370.26 617.64 416.37"/>
          </g>
          <g>
            <polygon class="cls-17" points="680.5 380.2 617.64 343.92 617.64 363.68 680.5 399.97 680.5 380.2"/>
            <polygon class="cls-13" points="680.5 380.2 617.64 343.92 617.64 363.68 680.5 399.97 680.5 380.2"/>
            <path class="cls-28" d="m661.02,373.12c0,.91-2.72.08-6.08-1.86l-10.65-6.15c-3.36-1.94-6.08-4.25-6.08-5.16v-1.65s22.82,13.17,22.82,13.17c0,0,0,.74,0,1.65Z"/>
          </g>
        </g>
        <g id="Shadow-6" data-name="Shadow" class="cls-26">
          <path id="Shadow-7" data-name="Shadow" d="m727.53,340.48c5.9,0,11.41-1.5,15.51-4.23,3.62-2.4,5.61-5.41,5.61-8.47s-1.99-6.06-5.61-8.47c-4.1-2.73-9.61-4.23-15.51-4.23s-11.41,1.5-15.51,4.23c-3.62,2.4-5.61,5.41-5.61,8.47s1.99,6.06,5.61,8.47c4.1,2.73,9.61,4.23,15.51,4.23Z"/>
        </g>
        <g id="Lamp">
          <g>
            <path class="cls-25" d="m713.66,326.77c0-.37.03-.74.11-1.1.66-4.12,4.22-8.57,6.7-9.99h14c2.48,1.42,6.04,5.87,6.7,9.99.08.37.12.74.11,1.1,0,.06-.02.19-.02.19-.13,1.94-1.46,3.85-4.02,5.33-5.4,3.12-14.15,3.12-19.55,0-2.56-1.48-3.89-3.39-4.02-5.33,0,0-.02-.13-.02-.19Z"/>
            <path class="cls-28" d="m734.12,315.46c3.67,2.12,3.67,5.55,0,7.67-3.67,2.12-9.62,2.12-13.28,0-3.67-2.12-3.67-5.55,0-7.67,3.67-2.12,9.62-2.12,13.28,0Z"/>
          </g>
          <path class="cls-35" d="m725.56,268.72h3.82v49.11h-.02c.05.31-.13.63-.54.87-.75.43-1.95.43-2.7,0-.41-.24-.59-.56-.54-.87h-.02v-49.11Z"/>
          <path class="cls-8" d="m699.31,261.37h-.01l13.27-33.83h29.83l13.27,33.83h-.02c1.89,5.29-.71,11.01-7.82,15.12-11.24,6.49-29.46,6.49-40.69,0-7.11-4.11-9.71-9.82-7.82-15.12Z"/>
          <g>
            <path class="cls-8" d="m738.26,235.64c-5.96,3.44-15.62,3.44-21.58,0-5.96-3.44-5.96-9.02,0-12.46,5.96-3.44,15.62-3.44,21.58,0,5.96,3.44,5.96,9.02,0,12.46Z"/>
            <path class="cls-7" d="m738.26,235.64c-5.96,3.44-15.62,3.44-21.58,0-5.96-3.44-5.96-9.02,0-12.46,5.96-3.44,15.62-3.44,21.58,0,5.96,3.44,5.96,9.02,0,12.46Z"/>
          </g>
          <g>
            <path class="cls-16" d="m727.47,236.45c3.77,0,7.29-.83,9.9-2.35,2.31-1.33,3.59-3,3.59-4.7s-1.27-3.36-3.59-4.7c-2.62-1.51-6.13-2.35-9.9-2.35s-7.29.83-9.9,2.35c-2.31,1.33-3.59,3-3.59,4.7s1.27,3.36,3.59,4.7c2.62,1.51,6.13,2.35,9.9,2.35Z"/>
            <path class="cls-14" d="m727.47,236.45c3.77,0,7.29-.83,9.9-2.35,2.31-1.33,3.59-3,3.59-4.7s-1.27-3.36-3.59-4.7c-2.62-1.51-6.13-2.35-9.9-2.35s-7.29.83-9.9,2.35c-2.31,1.33-3.59,3-3.59,4.7s1.27,3.36,3.59,4.7c2.62,1.51,6.13,2.35,9.9,2.35Z"/>
          </g>
        </g>
      </g>
      <g id="Call_Icon" data-name="Call Icon">
        <g id="Box">
          <path class="cls-28" d="m773.48,106.61l-56.15-32.42c-1.3-.75-2.47-.81-3.32-.31-.83.49-6.4,3.7-7.24,4.18-.85.48-1.37,1.53-1.37,3.02v81.62c0,2.97,2.08,6.57,4.65,8.06l56.15,32.42c1.3.75,2.47.81,3.31.31.83-.49,6.41-3.7,7.25-4.19.84-.49,1.36-1.53,1.36-3.01v-81.62c0-2.97-2.08-6.57-4.65-8.06Z"/>
          <path class="cls-35" d="m778.13,114.67v81.61c0,1.49-.52,2.52-1.36,3.03-.79.45-5.75,3.29-7.04,4.05.72-.54,1.13-1.52,1.13-2.86v-81.63c0-1.47-.52-3.12-1.36-4.58l7.27-4.19c.84,1.45,1.36,3.1,1.36,4.58Z"/>
          <path class="cls-28" d="m710.06,170.75l56.15,32.42c2.57,1.48,4.65.28,4.65-2.69v-81.62c0-2.97-2.08-6.57-4.65-8.06l-56.15-32.42c-2.57-1.48-4.65-.28-4.65,2.69v81.62c0,2.97,2.08,6.57,4.65,8.06Z"/>
          <path class="cls-25" d="m776.77,110.09l-7.27,4.19c-.84-1.45-2-2.72-3.29-3.47l-56.14-32.42c-1.18-.68-2.26-.81-3.08-.45,1.31-.75,6.27-3.6,7.04-4.06.84-.5,2.01-.43,3.31.32l56.14,32.42c1.29.73,2.45,2.01,3.29,3.47Z"/>
        </g>
        <g id="Call_Icon-2" data-name="Call Icon">
          <g id="g4780">
            <g id="g15">
              <path id="path17-6" class="cls-9" d="m753.51,163.08c-1.24-2.25-2.56-4.39-3.86-6.54-2.6-4.3-4.97-5.89-6.9-2.5-1.09,1.91-4.26,2.06-5.85.03-4.39-5.6-7.77-12.27-9.76-20.28-.88-3.54.78-7.18,2.84-8.14,1.09-.51,2.18-1.22,2.1-3.75-.11-3.3-5.22-17.07-7.24-19.37-.83-.95-1.66-1.4-2.51-1.45-4.73-.28-10.38,5.59-8.51,13.76,5.59,24.37,10.22,37.19,25.8,57.54,6.65,8.75,15.17,3.94,16.69.52,1-3.79-1.12-6.75-2.8-9.8h0Z"/>
              <path id="path19-1" class="cls-9" d="m741.25,110.41c9.91,8.07,14.47,17.96,15.74,34.05.12,1.49-.23,3.42,1.09,4.22,1.37.83,1.04-1.46,1.05-2.87-.23-16.51-6.93-31.79-17.59-38.53-.65-.39-2.2-2.03-2.3.39-.06,1.63,1.19,2.08,2.01,2.75h0Z"/>
              <path id="path21-2" class="cls-9" d="m741.75,116.53c-.95-.73-2.21-2.14-2.43-.24-.23,2,1.17,2.59,2.07,3.43,6.12,5.64,8.25,10.3,9.26,20.22.15,1.45-.14,3.4,1.36,3.91,1.11.38.71-1.67.81-2.68.05-8.94-4.94-19.99-11.06-24.65h0Z"/>
              <path id="path23" class="cls-9" d="m740.82,124.63c-.64-.34-1.26-.6-1.49.31-.35,1.36.39,2.16,1.14,2.78,2.51,2.07,3.83,5.11,4.08,9.11.07,1.09.5,2.18,1.16,2.44.91.36.99-.84.96-2.04.05-4.3-3.13-11.14-5.85-12.6h0Z"/>
            </g>
          </g>
        </g>
      </g>
      <g id="Gears">
        <path class="cls-8" d="m776.29,71.92l-3.21-7.25c-.23-.51-.97-1.14-1.58-1.34-.81-.27-1.64-.6-2.47-1-.16-.08-.32-.09-.45-.04-.11.04-.2.14-.25.28l-1.61,4.3c-.25.66-.73,1.12-1.33,1.26-.6.15-1.25-.04-1.77-.51l-5.56-5c-.85-.76-1.38-2.19-1.23-3.33l.72-5.56c.08-.61-.19-1.6-.57-2.13-.89-1.22-1.74-2.51-2.53-3.86-.28-.48-1.03-.93-1.56-.93l-3.78-.06c-1.22-.02-2.47-.9-2.89-2.05l-3.02-8.18c-.23-.61-.2-1.27.08-1.85.27-.58.76-1.03,1.38-1.24l3.13-1.1c.39-.14.67-.63.6-1.06-.21-1.33-.35-2.65-.41-3.93-.03-.67-.43-1.65-.86-2.09l-4.88-5.12c-.8-.84-1.19-2.31-.92-3.43l1.35-5.6c.17-.69.59-1.2,1.17-1.41.58-.21,1.24-.08,1.81.35l4.96,3.76c.32.24.69.08.9-.18.37-.46.77-.88,1.19-1.27.42-.38.66-1.09.52-1.53l-2.17-7.34c-.19-.63-.1-1.3.24-1.84.34-.53.91-.9,1.56-1l3.97-.62c1.23-.19,2.59.55,3.09,1.69l3.22,7.25c.23.51.96,1.14,1.58,1.34.81.27,1.65.6,2.47,1,.16.08.32.09.45.04.11-.04.2-.14.25-.28l1.61-4.3c.25-.66.73-1.12,1.34-1.27.6-.14,1.25.04,1.77.51l5.56,5c.85.76,1.38,2.2,1.24,3.33l-.72,5.55c-.08.61.19,1.6.57,2.13.88,1.21,1.74,2.51,2.53,3.86.28.48,1.03.92,1.56.93l3.78.06c1.23.02,2.47.9,2.89,2.05l3.02,8.18c.22.61.2,1.27-.08,1.85s-.77,1.03-1.38,1.24l-3.13,1.1c-.39.14-.67.63-.61,1.06.21,1.34.35,2.66.41,3.93.03.67.43,1.65.86,2.09l4.88,5.12c.8.84,1.19,2.31.92,3.43l-1.35,5.6c-.17.69-.59,1.2-1.17,1.41-.58.21-1.24.08-1.8-.35l-4.97-3.76c-.33-.24-.69-.07-.9.18-.37.45-.76.88-1.18,1.27-.42.38-.66,1.08-.52,1.53l2.17,7.34c.19.63.1,1.3-.23,1.84-.34.53-.91.9-1.56,1l-3.97.62c-.13.02-.26.03-.39.03-1.11,0-2.25-.7-2.7-1.72Zm10.35-13.49l4.97,3.76c.08.06.13.08.14.09.02-.02.04-.07.06-.16l1.35-5.6c.13-.54-.1-1.4-.48-1.8l-4.88-5.12c-.71-.75-1.29-2.13-1.34-3.22-.06-1.2-.19-2.46-.39-3.74-.2-1.26.58-2.58,1.76-3l3.13-1.1c.16-.06.29-.17.37-.33.07-.15.08-.33.02-.49l-3.02-8.18c-.17-.46-.77-.89-1.26-.9l-3.78-.06c-1.15-.02-2.46-.79-3.05-1.8-.77-1.3-1.59-2.55-2.44-3.71-.65-.88-1.03-2.34-.9-3.39l.72-5.56c.07-.56-.24-1.41-.66-1.79l-5.56-5c-.09-.09-.16-.1-.17-.11-.01,0-.06.06-.11.17l-1.61,4.3c-.23.61-.67,1.07-1.24,1.3-.59.24-1.26.21-1.87-.09-.75-.36-1.51-.67-2.25-.91-.95-.31-2.16-1.2-2.65-2.3l-3.22-7.25c-.18-.42-.76-.73-1.21-.66l-3.97.62c-.16.02-.27.09-.34.2-.07.11-.08.24-.03.39l2.17,7.34c.32,1.09-.1,2.49-1.02,3.33-.35.33-.69.69-1,1.08-.86,1.06-2.29,1.27-3.33.48l-4.96-3.76c-.08-.06-.13-.08-.14-.09-.02.02-.04.07-.06.16l-1.35,5.6h0c-.13.54.1,1.4.48,1.8l4.88,5.12c.72.75,1.29,2.13,1.34,3.22.06,1.22.19,2.47.39,3.74.2,1.26-.57,2.58-1.76,3l-3.13,1.1c-.16.06-.29.17-.37.33-.07.15-.08.33-.02.49l3.02,8.18c.17.46.77.89,1.27.9l3.78.06c1.14.02,2.45.79,3.05,1.8.76,1.29,1.58,2.54,2.44,3.71.65.89,1.03,2.35.9,3.39l-.72,5.55c-.07.56.24,1.42.66,1.79l5.56,5c.09.09.16.11.17.11.01,0,.06-.06.11-.17l1.61-4.3c.23-.61.67-1.07,1.25-1.3.6-.24,1.26-.2,1.87.09.75.36,1.51.67,2.25.91.94.31,2.16,1.19,2.65,2.3l3.22,7.25c.18.42.76.73,1.21.66l3.97-.62c.15-.02.27-.09.34-.2.07-.11.08-.24.03-.39l-2.17-7.34c-.32-1.09.11-2.49,1.02-3.33.35-.33.69-.68,1.01-1.08.51-.63,1.22-.96,1.93-.96.49,0,.98.16,1.41.48Zm-22.02-9.01h0c-6.23-5.6-9.95-15.75-8.29-22.62.75-3.12,2.52-5.25,4.99-6.02,3.04-.94,6.77.31,10.25,3.43,6.23,5.6,9.95,15.75,8.3,22.62-.75,3.11-2.52,5.25-4.99,6.02-.66.21-1.36.31-2.08.31-2.58,0-5.45-1.3-8.16-3.74Zm-2.79-26.95c-1.87.58-3.19,2.22-3.8,4.75-1.52,6.31,1.96,15.68,7.76,20.9,3,2.7,6.11,3.81,8.55,3.06,1.87-.58,3.19-2.22,3.8-4.75,1.52-6.31-1.96-15.68-7.76-20.89-2.38-2.14-4.84-3.29-6.97-3.29-.55,0-1.08.08-1.58.23Z"/>
        <path class="cls-8" d="m725.7,53.56l-2.31-5.21c-.15-.33-.64-.75-1.04-.88-.59-.19-1.2-.44-1.79-.73-.07-.03-.14-.05-.29.09l-1.16,3.09c-.19.52-.58.88-1.06,1-.48.11-.99-.03-1.41-.4l-3.99-3.58c-.64-.58-1.04-1.66-.93-2.52l.52-3.98c.05-.4-.13-1.07-.38-1.42-.64-.88-1.26-1.82-1.82-2.78-.18-.3-.66-.59-.99-.6l-2.71-.05c-.94-.02-1.89-.69-2.21-1.57l-2.17-5.87c-.18-.48-.15-.99.06-1.44.21-.46.6-.8,1.08-.97l2.24-.79c.21-.07.37-.36.33-.6-.15-.96-.25-1.92-.3-2.84-.02-.44-.29-1.11-.57-1.4l-3.5-3.67c-.6-.63-.9-1.75-.7-2.6l.97-4.02c.13-.54.47-.95.94-1.12.46-.16.99-.07,1.43.27l3.56,2.7c.18.13.36,0,.44-.1.27-.34.56-.65.86-.93.26-.24.41-.68.33-.95l-1.56-5.26c-.15-.5-.08-1.02.19-1.44.27-.42.71-.71,1.22-.79l2.85-.44c.97-.15,1.99.42,2.38,1.3l2.31,5.2c.15.33.64.75,1.04.88.59.19,1.19.43,1.79.73.07.04.15.04.29-.09l1.16-3.09c.19-.52.58-.88,1.06-1,.49-.12.99.03,1.4.4l3.99,3.58c.64.58,1.04,1.66.93,2.52l-.52,3.98c-.05.4.13,1.07.38,1.42.64.88,1.26,1.82,1.82,2.78.18.3.66.59.99.6l2.71.04c.94.02,1.88.69,2.21,1.57l2.17,5.87c.17.48.15.99-.06,1.45-.22.46-.6.8-1.07.96l-2.24.79c-.21.07-.37.36-.34.59.15.96.26,1.92.3,2.83.02.44.3,1.11.58,1.41l3.5,3.67c.61.63.9,1.75.7,2.6l-.97,4.02c-.13.54-.47.95-.94,1.12-.46.16-.99.07-1.43-.27l-3.56-2.7c-.17-.13-.36,0-.44.1-.27.34-.56.65-.86.93-.26.24-.41.68-.33.95l1.56,5.26c.15.5.08,1.02-.19,1.44-.27.42-.71.71-1.22.78l-2.85.44c-.1.02-.2.02-.3.02-.86,0-1.73-.54-2.07-1.32Zm7.65-9.86l3.47,2.73.97-4.02c.08-.33-.07-.9-.31-1.15l-3.5-3.67c-.54-.57-.96-1.58-1-2.41-.04-.86-.13-1.76-.28-2.66-.15-.98.44-1.99,1.36-2.32l2.25-.79c.1-.04.15-.1.18-.16.02-.04.05-.13.01-.24l-2.17-5.87c-.1-.27-.48-.54-.77-.55l-2.71-.05c-.87-.02-1.86-.6-2.32-1.37-.54-.92-1.12-1.81-1.74-2.65-.48-.66-.77-1.76-.67-2.54l.52-3.98c.04-.35-.17-.92-.43-1.16l-3.94-3.6-1.16,3.09c-.18.47-.52.83-.98,1.02-.47.19-.99.16-1.46-.07-.54-.26-1.07-.48-1.59-.65-.71-.23-1.62-.9-1.98-1.73l-2.31-5.2c-.1-.23-.43-.43-.71-.38l-2.85.44-.12-.77-.03,1.01,1.56,5.26c.25.83-.08,1.9-.77,2.54-.25.23-.48.48-.7.75-.67.83-1.78.99-2.6.37l-3.47-2.73-.97,4.02h0c-.08.33.07.9.31,1.15l3.5,3.67c.53.56.97,1.6,1,2.41.04.86.14,1.76.28,2.66.16.98-.44,1.99-1.36,2.32l-2.24.79c-.11.04-.16.12-.18.16-.02.05-.05.14,0,.24l2.17,5.87c.1.27.48.54.77.54l2.71.05c.87.01,1.86.6,2.32,1.37.54.92,1.12,1.81,1.74,2.65.48.66.77,1.75.67,2.54l-.52,3.98c-.04.35.17.92.43,1.16l3.94,3.59,1.16-3.09c.18-.47.52-.84.98-1.02.47-.19.99-.16,1.46.07.54.26,1.07.48,1.59.65.71.23,1.62.9,1.98,1.73l2.31,5.2c.1.23.43.42.71.39l2.85-.44.15-.24-1.56-5.26c-.25-.83.08-1.9.78-2.54.25-.23.48-.48.7-.76.39-.49.94-.74,1.5-.74.38,0,.77.12,1.1.37Zm-15.99-6.23h0c-4.5-4.05-7.19-11.39-5.99-16.37.55-2.29,1.86-3.86,3.68-4.42,2.23-.69,4.96.22,7.49,2.49,4.51,4.05,7.2,11.39,6,16.37-.55,2.29-1.86,3.86-3.68,4.42-.49.15-1.01.23-1.54.23-1.89,0-3.98-.94-5.96-2.72Zm-1.85-19.3c-1.29.4-2.2,1.54-2.62,3.3-1.08,4.48,1.4,11.13,5.52,14.84h0c2.11,1.9,4.29,2.69,5.99,2.16,1.29-.4,2.2-1.54,2.62-3.3,1.08-4.48-1.4-11.13-5.52-14.84-1.68-1.51-3.41-2.32-4.9-2.32-.38,0-.74.05-1.09.16Z"/>
      </g>
      <g id="Wrench">
        <path class="cls-8" d="m675.99,145.85c-1.26,0-2.6-.4-3.94-1.18-.16-.1-.32-.2-.48-.3-.55-.36-.73-1.15-.4-1.79l4.48-8.99-2.29-7.55-4.1-2.42-4.07,8.16c-.17.33-.48.51-.84.47-.8-.09-1.41-1.36-1.61-2.14-.64-2.49-.96-4.94-.94-7.3.03-6.03,2.23-10.19,5.8-11.06v-44.71c-3.56-4.7-5.83-11.61-5.8-17.66.02-5.11,1.62-8.94,4.38-10.5,1.95-1.11,4.34-.95,6.72.46.16.1.33.2.49.3.54.35.72,1.15.4,1.79l-4.47,8.99,2.29,7.54,4.1,2.42,4.07-8.16c.16-.33.48-.51.84-.47.8.09,1.42,1.36,1.62,2.14.64,2.49.95,4.94.94,7.29-.03,6.03-2.23,10.19-5.8,11.06v44.71c3.56,4.7,5.83,11.61,5.8,17.67-.02,5.11-1.62,8.93-4.38,10.5-.85.49-1.79.73-2.78.73Zm-7.31-24.12l5.8,3.41,2.6,8.56-4.72,9.47c.08.16.22.25.37.33,1.98,1.16,3.84,1.32,5.38.45,2.29-1.3,3.68-4.8,3.7-9.34.03-5.86-2.19-12.54-5.66-17.02l-.14-.18v-46.3l.58-.08c3.14-.44,5.19-4.3,5.22-9.85.01-2.23-.29-4.57-.9-6.95-.07-.29-.18-.54-.29-.73l-4.37,8.77-5.79-3.41-2.6-8.56,4.71-9.47c-.08-.16-.22-.25-.37-.33-1.98-1.17-3.84-1.32-5.37-.45-2.3,1.3-3.68,4.8-3.7,9.34-.03,5.86,2.19,12.54,5.66,17.02l.14.18v46.31l-.58.08c-3.14.44-5.19,4.3-5.22,9.85h0c-.01,2.24.29,4.58.9,6.96.07.28.18.53.28.73l4.37-8.77Z"/>
      </g>
      <g id="Speech_Bubble" data-name="Speech Bubble">
        <g id="Speech_Bubble-2" data-name="Speech Bubble">
          <g>
            <path class="cls-5" d="m421.79,13.49l65.45,37.79c.73.42,1.32,1.44,1.32,2.28v45.84c0,.84-.59,1.85-1.32,2.26l-4.71,2.71c-.73.41-1.91.41-2.64-.01l-65.45-37.79c-.73-.42-1.32-1.44-1.32-2.28V18.39c0-.84.59-1.85,1.32-2.27l4.71-2.64c.73-.41,1.91-.41,2.64.01Z"/>
            <path class="cls-17" d="m481.2,103.6v-45.91c0-.84-.59-1.86-1.32-2.28l-65.45-37.79c-.73-.42-1.32-.08-1.32.76v45.91c0,.84.59,1.86,1.32,2.28l65.45,37.79c.73.42,1.32.08,1.32-.76Z"/>
            <path class="cls-8" d="m481.2,103.6v-45.91c0-.84-.59-1.86-1.32-2.28l-65.45-37.79c-.73-.42-1.32-.08-1.32.76v45.91c0,.84.59,1.86,1.32,2.28l65.45,37.79c.73.42,1.32.08,1.32-.76Z"/>
            <path class="cls-19" d="m479.89,104.36c.7.41,1.98.42,2.64.02l4.71-2.71c.73-.41,1.32-1.42,1.32-2.26v-45.84c0-.44-.16-.92-.42-1.34l-7.33,4.18c.24.41.39.88.39,1.29v45.91c0,.77-.54,1.21-1.32.76Z"/>
          </g>
          <g>
            <path class="cls-5" d="m492.16,86.96c.83-.49,7.01-3.98,7.21-4.09.61-.37.83-1.27.26-1.88l-11.19-13.97-7.24,4.12,11.19,13.97c.55.58.33,1.44-.22,1.84Z"/>
            <path class="cls-1" d="m492.16,86.96c.83-.49,7.01-3.98,7.21-4.09.61-.37.83-1.27.26-1.88l-11.19-13.97-7.24,4.12,11.19,13.97c.55.58.33,1.44-.22,1.84Z"/>
            <path class="cls-5" d="m481.2,71.15l11.19,13.97c.76.81.2,1.93-.75,2.02l-10.44,1.13v-17.12Z"/>
          </g>
        </g>
        <g>
          <path class="cls-9" d="m465.47,64.28c0,1.75-1.28,2.41-2.86,1.48l-36.36-20.99c-1.58-.93-2.86-3.11-2.86-4.86s1.28-2.41,2.86-1.48l36.36,20.99c1.58.93,2.86,3.11,2.86,4.86Z"/>
          <path class="cls-9" d="m473.58,83.04c0,1.75-1.28,2.41-2.86,1.48l-44.47-25.67c-1.58-.93-2.86-3.11-2.86-4.86s1.28-2.41,2.86-1.48l44.47,25.67c1.58.93,2.86,3.11,2.86,4.86Z"/>
        </g>
      </g>
      <g id="Speech_Bubble-3" data-name="Speech Bubble">
        <g id="Speech_Bubble-4" data-name="Speech Bubble">
          <path class="cls-19" d="m239.74,54.61c0-3.31-2.32-7.33-5.19-8.99l-4.23-2.44c-2.87-1.66-7.51-1.66-10.38,0l-82.58,47.68c-2.87,1.66-5.19,5.68-5.19,8.99v50.63c0,3.31,2.32,7.34,5.19,8.99l4.23,2.44c2.87,1.65,7.51,1.65,10.38,0l35.16-20.46,7.43,12.87c.47.82,1.7.71,2.01-.19l7.85-22.66,30.13-17.23c2.87-1.65,5.19-5.68,5.19-8.99v-50.63Z"/>
          <path class="cls-18" d="m131.49,149.85c0,3.31,2.32,7.34,5.19,8.99l4.23,2.44c2.59,1.5,6.62,1.63,9.49.42-2.44.92-4.3-.45-4.3-3.42v-50.63c0-1.66.58-3.49,1.52-5.12l-14.61-8.43c-.94,1.63-1.52,3.46-1.52,5.12v50.63Z"/>
          <path class="cls-4" d="m238.88,52.51c-.61-2.2-2.61-2.91-5.01-1.53l-82.59,47.69c-1.43.82-2.74,2.23-3.66,3.87l-14.6-8.43c.94-1.65,2.23-3.05,3.66-3.87l82.57-47.69c2.88-1.65,7.53-1.65,10.39,0l4.24,2.45c2.45,1.4,4.5,4.55,5.01,7.51Z"/>
        </g>
        <g>
          <path class="cls-9" d="m167.19,112.8c-3.83,2.21-6.93,7.58-6.93,12,0,4.42,3.1,6.21,6.93,4,3.83-2.21,6.93-7.58,6.93-12s-3.1-6.21-6.93-4Z"/>
          <path class="cls-9" d="m192.73,98.03c-3.83,2.21-6.93,7.58-6.93,12,0,4.42,3.1,6.21,6.93,4,3.83-2.21,6.93-7.58,6.93-12,0-4.42-3.1-6.21-6.93-4Z"/>
          <path class="cls-9" d="m218.26,83.25c-3.83,2.21-6.93,7.58-6.93,12,0,4.42,3.1,6.21,6.93,4,3.83-2.21,6.93-7.58,6.93-12,0-4.42-3.1-6.21-6.93-4Z"/>
        </g>
      </g>
    </g>
  </g>
</svg>