<?xml version="1.0" encoding="UTF-8"?>
<svg xmlns="http://www.w3.org/2000/svg" viewBox="0 0 718.85 675.11">
  <defs>
    <style>
      .cls-1 {
        fill: #b7b7b7;
      }

      .cls-2 {
        fill: #fff;
      }

      .cls-3 {
        fill: #7591b7;
      }

      .cls-4 {
        fill: #04377d;
      }

      .cls-5 {
        isolation: isolate;
      }

      .cls-6 {
        fill: #708db5;
      }

      .cls-7 {
        fill: #ff9d8a;
      }

      .cls-8 {
        fill: #7f99bd;
      }

      .cls-9 {
        fill: #d4dde9;
      }

      .cls-10 {
        fill: #212121;
      }

      .cls-11, .cls-12 {
        fill: #eca900;
      }

      .cls-11, .cls-13 {
        mix-blend-mode: multiply;
      }

      .cls-14 {
        fill: #515151;
      }

      .cls-15 {
        fill: #d9e1eb;
      }

      .cls-16 {
        fill: #f5f7fa;
      }
    </style>
  </defs>
  <g class="cls-5">
    <g id="Camada_2" data-name="Camada 2">
      <g id="Camada_1-2" data-name="Camada 1">
        <g>
          <g>
            <g>
              <rect class="cls-12" x="552.68" y="317.47" width="113.64" height="67.15" rx="5" ry="5"/>
              <polygon class="cls-12" points="609.5 410.88 624.22 376.01 594.79 376.01 609.5 410.88"/>
            </g>
            <g>
              <g>
                <polygon class="cls-10" points="609.15 339.51 635.73 339.51 635.73 343.4 648.75 335.89 635.73 328.38 635.73 332.26 609.15 332.26 609.15 339.51"/>
                <polygon class="cls-10" points="648.75 354.79 622.18 354.79 622.18 350.9 609.15 358.42 622.18 365.93 622.18 362.04 648.75 362.04 648.75 354.79"/>
              </g>
              <g>
                <path class="cls-10" d="m592.84,361.63l-1.27.46s-3.94-4.5-5.99-9.4c-2.05-4.9-2.12-10.89-2.12-10.89l.92-.39-5.62-13.45c-1,.78-1.96,1.79-2.73,3.09-3.18,5.37-2.86,13.62.33,21.68,3.2,8.06,6.62,15.24,12.86,19.76,3.68,2.67,6.84,3.13,9.29,2.75l-5.69-13.61Z"/>
                <path class="cls-10" d="m596.88,360.04l-1.75.64,5.75,13.77c.65-.21,1.23-.47,1.74-.75,1.49-.81,2.14-2.6,1.51-4.17l-3.01-7.57c-.67-1.68-2.55-2.53-4.25-1.91Z"/>
                <path class="cls-10" d="m583.17,325.6c-.71.25-1.48.6-2.25,1.06l5.74,13.73,1.93-.81c1.68-.7,2.49-2.61,1.83-4.3l-3.02-7.74c-.66-1.68-2.53-2.55-4.23-1.94Z"/>
              </g>
            </g>
          </g>
          <path class="cls-14" d="m144.23,621.75v-135.27s-1.5-36.45,17.66-46.97c19.16-10.52,99.95-4.88,99.95-4.88v187.13h-117.61Z"/>
          <g>
            <path class="cls-7" d="m287.08,308s-4.88,40.96-6.76,44.34l-1.88,3.38-9.39,6.39s18.04,25.55,40.21,29.68c22.17,4.13,20.29-9.02,20.29-9.02l-3.38-7.14,4.51-39.08s-40.21-18.41-43.59-28.56Z"/>
            <path class="cls-2" d="m257.39,365.49l14.65-6.39s9.39,15.41,31.19,24.42c21.79,9.02,22.17,3.76,23.3,0,1.13-3.76-.38-7.89-.38-7.89l1.61-13.16,8.71,2.9,30.25,244.72-77.78,3.76-31.56-248.38Z"/>
            <path class="cls-10" d="m329.16,362.73s5.26,12.15,10.15,40.71c4.88,28.56,9.39,76.65,10.52,109.72,1.13,33.07,1.88,108.59,1.88,108.59h98.07c1.13,0,7.89-37.2,7.89-37.2,0,0-42.84-36.7-45.09-42.71-1.5-4.01-.75-78.28-7.14-112.48-6.39-34.19-14.65-41.08-31.94-49.6-17.86-8.8-44.34-17.03-44.34-17.03Z"/>
            <path class="cls-3" d="m380.27,578.7c-.5,0-.91-.41-.91-.91,0-2.69-.48-40.86-.94-77.77-.46-36.92-.94-75.09-.94-77.79,0-.5.41-.91.91-.91s.91.41.91.91c0,2.69.48,40.86.94,77.77.46,36.92.94,75.09.94,77.79,0,.5-.41.91-.91.91Z"/>
            <path class="cls-10" d="m184.87,569.52l-.75,52.23h114.23s4.88-44.34,3.01-48.47c-1.88-4.13-116.48-3.76-116.48-3.76Z"/>
            <g class="cls-13">
              <path class="cls-8" d="m312,351.21c4.66,3.75,11.02,6.76,15.98,8.58l2.68-23.24s-30.2-13.83-40.45-24.13c2.14,11.7,7.41,27.19,21.78,38.78Z"/>
            </g>
            <path class="cls-7" d="m365.99,231.72s7.89,13.53,9.39,30.06c1.5,16.53,0,58.99-13.53,77.03-13.53,18.04-41.71,12.78-54.48,1.88-11.72-10-23.3-21.04-26.3-42.84-3.01-21.79,6.39-63.13,33.07-71.77,26.68-8.64,51.85,5.64,51.85,5.64Z"/>
            <g>
              <path class="cls-7" d="m399.89,598.13s-1.33,0-3.34-.05c-.47-.02-1,0-1.54-.02-1.94-.05-4.3-.11-6.68-.18-.53-.02-1.07-.04-1.6-.05-2.36-.05-4.38.24-6.27.13h-.05c-.4-.02-.98.04-1.45.05-.24.02-.45.04-.6.02-1.09-.2-1.31-.45-2.49-.98-1.53-.69-22.18-5.3-38.98-5.19-16.78.07-31.84,1.22-34.29-.84-2.47-2.09-3.96-23.17,10.37-24.55l17.62,6.68s40.23-4.78,54.98,6.1c14.78,10.88,14.33,18.89,14.33,18.89Z"/>
              <path class="cls-4" d="m380.4,597.95c-.4-.02-.98.04-1.45.05-.36-.58-1.13-1.63-1.54-2.07-4.54-4.63-15.51-7.63-19.49-8.59-.36-.09-.6-.45-.51-.82.07-.36.45-.58.84-.51,5.79,1.4,18.09,4.98,21.58,10.84.11.16.4.73.58,1.09Z"/>
              <path class="cls-4" d="m388.32,597.87c-.53-.01-1.07-.03-1.6-.06-4.96-9.04-13.07-11.64-23.09-14.86l-.59-.2c-.34-.12-.55-.5-.43-.86.12-.34.49-.55.86-.43l.58.2c10.6,3.4,19.13,6.13,24.28,16.22Z"/>
              <path class="cls-4" d="m396.55,598.08c-.47-.01-1,0-1.54-.02-3.01-6.32-12.96-16.9-26.12-19.37-.38-.06-.63-.41-.56-.79.08-.36.43-.61.79-.54,13.56,2.55,24.5,13.62,27.44,20.73Z"/>
            </g>
            <path class="cls-10" d="m290.09,279.25s8.27-3.95,14.09-15.03c5.82-11.08,5.07-21.04,5.07-21.04,0,0,10.52-1.69,26.3,3.01,15.78,4.7,34.57,11.08,50.35,2.07,15.78-9.02,15.78-23.48,8.08-29.5-8.63-6.73-25.74-2.63-25.74-2.63,0,0,6.58-6.39,3.01-10.15-3.57-3.76-16.53,1.13-16.53,1.13,0,0-15.78-12.59-45.65-11.08-29.87,1.5-44.15,22.36-45.84,45.65-1.69,23.3,6.76,46.59,6.76,46.59l20.1-9.02Z"/>
            <g class="cls-13">
              <path class="cls-8" d="m350.69,284.9c-1.69,4.17-1.65,9.02-2.08,13.45-.33,3.45-.96,7.46,2.19,9.79,1.51,1.11,8.64,4.11,4.97,6.54-1.4.93-3.74.67-5.33.6-1.1-.05-2.2-.1-3.3-.18-1.18-.09-2.33-.44-3.51-.45-.69,0-.91.92-.34,1.27,1.9,1.19,4.68,1.55,6.89,1.64,2.21.09,3.71-.02,5.7-1,1.22-.61,2.41-1.47,2.61-2.92.22-1.64-1.01-3.11-2.24-4.02-1.42-1.05-3.16-1.54-4.6-2.57-1.99-1.42-1.83-3.82-1.69-6.04.34-5.34,1.56-10.59,2.04-15.91.07-.81-1.05-.81-1.31-.18h0Z"/>
            </g>
            <path class="cls-4" d="m366.05,297.39c-.56,3.17-2.86,5.41-5.15,5-2.28-.4-3.68-3.3-3.12-6.47.56-3.17,2.86-5.41,5.15-5,2.28.4,3.68,3.3,3.12,6.47Z"/>
            <path class="cls-4" d="m337.3,294.88c-.51,3.42-2.92,5.89-5.38,5.52s-4.05-3.43-3.54-6.85c.51-3.42,2.92-5.89,5.38-5.52s4.05,3.43,3.54,6.85Z"/>
            <path class="cls-4" d="m359.36,284.33c1.76.3,3.53,0,5.3.12.43.03.85.09,1.27.13.3.03-.56-.09-.14-.02.09.01.18.03.27.04.22.04.44.08.66.14.38.09.74.23,1.12.32.34.07.72.16,1.07.14.19-.03.39-.05.58-.08-.12.02-.24.04-.36.07,0,.04.66-.06.72-.08,1.01-.24,1.63-1.4,1.35-2.37-.08-.28-.21-.53-.38-.77-.07-.1-.15-.2-.23-.29.07.08.14.16.21.24-.07-.11-.15-.21-.23-.31-.1-.17-.23-.3-.4-.4-.14-.11-.28-.22-.42-.32-.47-.32-1.08-.51-1.63-.65-1.05-.27-2.15-.41-3.23-.41-1.07,0-2.13.11-3.2.25-.94.13-1.98.45-2.74,1.01-.59.44-.95,1-.85,1.77.09.64.59,1.36,1.27,1.47h0Z"/>
            <path class="cls-4" d="m339.31,279.31c-.24-.14-.48-.27-.73-.38-.21-.1-.8-.4-.36-.16-.16-.09-.32-.18-.48-.26-.73-.37-1.48-.61-2.27-.81-1.72-.44-3.52-.55-5.28-.36-1.88.2-3.59.65-5.21,1.63-.23.14-.46.27-.66.47-.13.16-.26.33-.38.49.04-.05.07-.11.11-.16-.5.35-.79.93-.79,1.53,0,.58.31,1.07.81,1.35.61.34,1.2.18,1.83.01h-.95c.52.08.89.1,1.42-.01.02,0,.51-.12.19-.06-.3.06.51-.06.6-.08.1-.01.67-.07.07-.01.11-.01.22-.03.33-.04.28-.03.57-.07.85-.09,1.24-.1,2.48-.15,3.72-.2,1.15-.04,2.33-.05,3.48,0,.49.02.99.04,1.48.05.28,0,.16.05-.03,0,.1.03.21.05.31.08.21.06.41.12.61.2.8.31,1.76-.27,2.06-1.01.32-.8.05-1.72-.71-2.18h0Z"/>
            <path class="cls-4" d="m348.23,331.54c1.72-3.47,4.86-6.01,8.49-7.64-3.15-.32-18.01-1.7-21.76.43-4.2,2.39.78,11.97,9.47,12.45.91.05,1.74-.02,2.53-.15.07-1.75.47-3.48,1.27-5.09Z"/>
            <path class="cls-15" d="m279.56,311.38s1.5,5.82,10.15,12.59c8.64,6.76,21.17,11.71,21.17,11.71l1-4.38s-12.96-5.64-18.98-11.84c-6.01-6.2-6.76-9.58-6.76-9.58l-6.58,1.5Z"/>
            <path class="cls-10" d="m313.38,328.05c6.95-.32,10.84,5.18,11.32,8.73.49,3.56-2.86,7.55-10.67,4.04-9.71-4.35-7.6-12.45-.65-12.78Z"/>
            <path class="cls-15" d="m285.01,268.35s3-21.59,17.47-36.26c27.62-27.99,51.1-26.3,51.1-26.3,0,0-.19-3.95-9.02-6.95-8.29-2.82-12.02-1.32-12.02-1.32,0,0-22.73,1.88-41.9,23.11-19.16,21.23-21.23,48.28-21.23,48.28l15.59-.56Z"/>
            <g>
              <path class="cls-2" d="m282.95,265.72c-18.09-3.07-28.18,11.08-28.93,25.36-.75,14.28,9.62,25.13,23.48,24.05,31.19-2.44,27.62-45.65,5.45-49.41Z"/>
              <path class="cls-6" d="m273.94,301.26c-4.78,0-8.81-2.4-11.12-6.63-2.47-4.53-2.26-10.1.53-14.2.21-.31.63-.39.95-.18.31.21.39.64.18.95-2.51,3.68-2.69,8.7-.46,12.78,2.12,3.88,5.85,6.07,10.27,5.91,4.13-.11,7.64-2,9.86-5.33,2.54-3.79,3.13-9.03,1.49-13.34-1.63-4.28-6.08-7.2-10.14-6.67-.37.05-.72-.21-.76-.59-.05-.37.21-.71.59-.76,4.74-.63,9.72,2.61,11.59,7.53,1.79,4.71,1.15,10.44-1.63,14.59-2.48,3.7-6.37,5.81-10.96,5.93-.13,0-.26,0-.38,0Z"/>
            </g>
            <path class="cls-10" d="m260.78,360.23s-54.86,13.53-74.02,35.32c-19.16,21.79-28.18,129.26-28.56,149.18-.38,19.92,13.53,28.18,21.79,33.82,8.27,5.64,44.72,15.78,74.02,17.28,29.31,1.5,57.12,0,57.12,0,0,0-.09-6.39,4.42-15.78,4.18-8.71,9.49-10.52,9.49-10.52l-25.18-9.02s-4.41-78.99-11.27-117.24c-7.89-43.96-27.81-83.04-27.81-83.04Z"/>
            <path class="cls-3" d="m351.71,547.88c-.12,0-.25-.02-.37-.08-.46-.2-.67-.74-.46-1.2,5.14-11.6,10.47-34.37,13.47-50.34l.25-1.29c.91-4.7,2.04-10.54-.22-14.58-1.15-2.06-3.75-6.52-6.24-10.81-2.59-4.46-5.04-8.66-5.72-9.92-1.32-2.45,2.84-9.01,8.88-17.99,1.63-2.43,3.04-4.53,3.86-5.95,2.15-3.72.72-7.13-.94-11.07l-.56-1.36c-1.5-3.69-3.21-7.38-4.86-10.95-.67-1.46-1.35-2.92-2.01-4.39-.88-1.94-1.77-3.92-2.66-5.92-5.31-11.84-10.8-24.08-17.83-35.9-.26-.43-.12-.99.32-1.24.43-.26.99-.11,1.24.32,7.08,11.91,12.6,24.2,17.93,36.08.9,2,1.78,3.97,2.66,5.91.67,1.46,1.34,2.92,2.01,4.38,1.66,3.59,3.38,7.3,4.89,11.03l.56,1.34c1.69,4.02,3.44,8.18.84,12.68-.85,1.47-2.27,3.6-3.92,6.05-3.14,4.69-9.69,14.44-8.78,16.12.67,1.23,3.11,5.43,5.69,9.87,2.5,4.3,5.11,8.78,6.26,10.84,2.58,4.61,1.38,10.82.41,15.81l-.25,1.28c-1.09,5.82-6.88,35.6-13.59,50.74-.15.34-.48.54-.83.54Z"/>
            <path class="cls-3" d="m298.16,551.08c-.23,0-.47-.09-.64-.27-4.27-4.3-24.86-39.96-26.39-46.66-.84-3.67,1.27-12.98,3.3-21.99,1.58-6.98,3.21-14.19,2.75-16.14-.69-2.92-5.96-7.22-11.05-11.38-6.15-5.02-12.51-10.22-13.74-14.9-1.4-5.32-.2-38.62.59-60.66.28-7.92.51-14.18.51-16.41,0-.5.41-.91.91-.91h0c.5,0,.91.41.91.91,0,2.27-.22,8.54-.51,16.48-.74,20.6-1.98,55.07-.65,60.13,1.08,4.11,7.49,9.34,13.14,13.96,5.57,4.55,10.83,8.85,11.67,12.37.56,2.36-.97,9.13-2.74,16.96-1.9,8.4-4.05,17.91-3.31,21.18,1.5,6.57,21.72,41.56,25.91,45.79.35.36.35.93,0,1.28-.18.18-.41.26-.64.26Z"/>
            <path class="cls-3" d="m224.33,535.49s-.09,0-.13,0c-.5-.07-.84-.53-.77-1.03.67-4.72,11.09-98.8,11.57-106.01.03-.5.47-.89.97-.85.5.03.88.47.85.97-.48,7.22-10.92,101.41-11.58,106.14-.06.45-.45.78-.9.78Z"/>
            <path class="cls-3" d="m299.1,561.04c-.11,0-.23-.02-.34-.07-2.31-.94-12.51-4.38-25.43-8.73-26.08-8.8-61.79-20.84-68.58-24.37-.45-.23-.62-.78-.39-1.22.23-.45.78-.62,1.22-.39,6.67,3.46,43.77,15.98,68.33,24.26,12.95,4.37,23.18,7.82,25.54,8.77.46.19.69.72.5,1.18-.14.35-.48.57-.84.57Z"/>
            <path class="cls-3" d="m286.56,598.5c-22.95,0-67.44-4.14-101.24-16.09-.47-.17-.72-.69-.55-1.16.17-.47.69-.72,1.16-.55,42.7,15.1,102.43,17.68,113.54,15.19.49-.1.97.2,1.08.69.11.49-.2.98-.69,1.09-2.41.54-7.06.84-13.3.84Z"/>
          </g>
          <g>
            <g>
              <polygon class="cls-16" points="690.83 466.19 619 608.48 409.58 609.98 474.21 464.19 690.83 466.19"/>
              <path class="cls-9" d="m270.59,609.09l.04-11.39h135.57l62.38-136.78h216.81l5.45,5.26h-211.8l-64.82,142.79s-143.62-.26-143.62.12Z"/>
              <path class="cls-9" d="m582.08,544.71c-2.37,7.1-15.21,12.58-28.68,12.24-13.47-.34-22.48-6.36-20.11-13.46,2.37-7.1,15.21-12.58,28.68-12.24,13.47.34,22.48,6.36,20.11,13.46Z"/>
            </g>
            <path class="cls-2" d="m414.21,609.89c-.13,0-.25-.03-.38-.08-.46-.21-.66-.74-.45-1.2l65.06-143.32h212.39c.5,0,.91.41.91.91s-.41.91-.91.91h-211.22l-64.58,142.26c-.15.33-.48.53-.83.53Z"/>
          </g>
          <g>
            <g>
              <rect class="cls-12" x="12.02" y="619.87" width="249.13" height="55.24"/>
              <rect class="cls-12" x="259.73" y="619.87" width="448.23" height="55.24"/>
            </g>
            <polygon class="cls-11" points="261.15 619.87 259.73 619.87 12.02 619.87 12.02 630.02 259.73 630.02 261.15 630.02 707.95 630.02 707.95 619.87 261.15 619.87"/>
            <rect class="cls-12" y="608.98" width="272.05" height="13.53"/>
            <rect class="cls-12" x="270.63" y="608.98" width="448.23" height="13.53"/>
          </g>
          <g>
            <rect class="cls-12" x="60.05" y="159.1" width="140.43" height="82.98" rx="5.43" ry="5.43"/>
            <polygon class="cls-12" points="233.17 200.59 190.09 182.41 190.09 218.77 233.17 200.59"/>
            <g>
              <circle class="cls-2" cx="103.05" cy="200.59" r="7.94"/>
              <circle class="cls-2" cx="130.27" cy="200.59" r="7.94"/>
              <circle class="cls-2" cx="157.48" cy="200.59" r="7.94"/>
            </g>
          </g>
          <g>
            <path class="cls-12" d="m680.8,0h-250.39c-16.08,0-29.12,13.04-29.12,29.12v118.78c0,16.08,13.04,29.12,29.12,29.12h22.44c.63,10.77-.91,26.79-9.9,47.27,28.93-13.34,45.58-33.38,54.29-47.27h183.56c16.08,0,29.12-13.04,29.12-29.12V29.12c0-16.08-13.04-29.12-29.12-29.12Z"/>
            <path class="cls-2" d="m573.99,54.37h-124.19c-3.41,0-6.18-2.77-6.18-6.18h0c0-3.41,2.77-6.18,6.18-6.18h124.19c3.41,0,6.18,2.77,6.18,6.18h0c0,3.41-2.77,6.18-6.18,6.18Z"/>
            <path class="cls-2" d="m663.04,90.36h-215.63c-2.09,0-3.78-1.69-3.78-3.78h0c0-2.09,1.69-3.78,3.78-3.78h215.63c2.09,0,3.78,1.69,3.78,3.78h0c0,2.09-1.69,3.78-3.78,3.78Z"/>
            <path class="cls-2" d="m663.04,111.37h-215.63c-2.09,0-3.78-1.69-3.78-3.78h0c0-2.09,1.69-3.78,3.78-3.78h215.63c2.09,0,3.78,1.69,3.78,3.78h0c0,2.09-1.69,3.78-3.78,3.78Z"/>
            <path class="cls-2" d="m616,133.77h-168.59c-2.09,0-3.78-1.69-3.78-3.78h0c0-2.09,1.69-3.78,3.78-3.78h168.59c2.09,0,3.78,1.69,3.78,3.78h0c0,2.09-1.69,3.78-3.78,3.78Z"/>
            <path class="cls-2" d="m661.34,54.37h-59.24c-3.41,0-6.18-2.77-6.18-6.18h0c0-3.41,2.77-6.18,6.18-6.18h59.24c3.41,0,6.18,2.77,6.18,6.18h0c0,3.41-2.77,6.18-6.18,6.18Z"/>
          </g>
          <g>
            <rect class="cls-1" x="413.84" y="285.97" width="70.81" height="51.01" rx="2" ry="2"/>
            <path class="cls-2" d="m483.93,332.24l-22.66-22.72,22.58-19.65c.65-.57.72-1.55.15-2.2-.56-.65-1.55-.72-2.2-.15l-32.15,27.97-32.99-27.25c-.66-.55-1.64-.46-2.2.21-.55.66-.45,1.65.21,2.2l22.58,18.65-22.71,23.88c-.6.62-.57,1.61.05,2.21.3.29.69.43,1.07.43.41,0,.82-.16,1.13-.48l22.87-24.04,9.02,7.45c.29.24.64.36.99.36s.73-.13,1.02-.38l8.21-7.14,22.81,22.87c.3.31.7.46,1.11.46s.8-.15,1.1-.46c.61-.61.61-1.6,0-2.21Z"/>
            <circle class="cls-12" cx="487.9" cy="284.39" r="20.88"/>
          </g>
          <g>
            <rect class="cls-10" x="567.3" y="240.98" width="138.61" height="35.73" rx="4" ry="4"/>
            <path class="cls-12" d="m584.42,268.21c-.55,0-.99-.19-1.32-.59-.33-.39-.48-.88-.44-1.46l.53-4.63c.04-.12.02-.19-.06-.23-.08-.04-.18-.02-.29.06l-3.81,2.75c-.47.35-.96.48-1.46.38-.51-.1-.92-.4-1.23-.91-.35-.62-.42-1.17-.21-1.64s.58-.8,1.08-.99l4.27-1.93c.12-.04.18-.1.18-.18s-.06-.14-.18-.18l-4.27-1.93c-.55-.23-.9-.6-1.05-1.11-.16-.51-.1-1.01.18-1.52.31-.51.72-.81,1.23-.91.51-.1.99.01,1.46.32l3.81,2.81c.12.08.21.1.29.06.08-.04.1-.12.06-.23l-.53-4.63c-.04-.59.12-1.07.47-1.46.35-.39.82-.59,1.41-.59.55,0,.99.2,1.35.59.35.39.49.88.41,1.46l-.53,4.63c-.04.12-.02.2.06.23.08.04.18.02.29-.06l3.81-2.75c.47-.35.97-.48,1.49-.38.53.1.93.4,1.2.91.35.63.42,1.17.2,1.64-.21.47-.58.8-1.08.99l-4.27,1.93c-.12.04-.18.1-.18.18s.06.14.18.18l4.27,1.93c.55.23.91.61,1.08,1.11.18.51.11,1.02-.2,1.52-.27.51-.67.81-1.2.91-.53.1-1.03,0-1.49-.32l-3.81-2.81c-.12-.08-.22-.1-.29-.06-.08.04-.1.12-.06.23l.53,4.63c.08.59-.07,1.07-.44,1.46-.37.39-.85.59-1.43.59Z"/>
            <path class="cls-12" d="m609.65,268.21c-.55,0-.99-.19-1.32-.59-.33-.39-.48-.88-.44-1.46l.53-4.63c.04-.12.02-.19-.06-.23-.08-.04-.18-.02-.29.06l-3.81,2.75c-.47.35-.96.48-1.46.38-.51-.1-.92-.4-1.23-.91-.35-.62-.42-1.17-.21-1.64s.58-.8,1.08-.99l4.28-1.93c.12-.04.18-.1.18-.18s-.06-.14-.18-.18l-4.28-1.93c-.55-.23-.9-.6-1.05-1.11-.16-.51-.1-1.01.18-1.52.31-.51.72-.81,1.23-.91.51-.1.99.01,1.46.32l3.81,2.81c.12.08.21.1.29.06.08-.04.1-.12.06-.23l-.53-4.63c-.04-.59.12-1.07.47-1.46.35-.39.82-.59,1.41-.59.55,0,.99.2,1.35.59.35.39.49.88.41,1.46l-.53,4.63c-.04.12-.02.2.06.23.08.04.18.02.29-.06l3.81-2.75c.47-.35.97-.48,1.49-.38.53.1.93.4,1.2.91.35.63.42,1.17.2,1.64-.21.47-.58.8-1.08.99l-4.27,1.93c-.12.04-.18.1-.18.18s.06.14.18.18l4.27,1.93c.55.23.91.61,1.08,1.11.18.51.11,1.02-.2,1.52-.27.51-.67.81-1.2.91-.53.1-1.03,0-1.49-.32l-3.81-2.81c-.12-.08-.22-.1-.29-.06-.08.04-.1.12-.06.23l.53,4.63c.08.59-.07,1.07-.44,1.46-.37.39-.85.59-1.43.59Z"/>
            <path class="cls-12" d="m634.88,268.21c-.55,0-.99-.19-1.32-.59-.33-.39-.48-.88-.44-1.46l.53-4.63c.04-.12.02-.19-.06-.23-.08-.04-.18-.02-.29.06l-3.81,2.75c-.47.35-.96.48-1.46.38-.51-.1-.92-.4-1.23-.91-.35-.62-.42-1.17-.21-1.64s.58-.8,1.08-.99l4.27-1.93c.12-.04.18-.1.18-.18s-.06-.14-.18-.18l-4.27-1.93c-.55-.23-.9-.6-1.05-1.11-.16-.51-.1-1.01.18-1.52.31-.51.72-.81,1.23-.91.51-.1.99.01,1.46.32l3.81,2.81c.12.08.21.1.29.06.08-.04.1-.12.06-.23l-.53-4.63c-.04-.59.12-1.07.47-1.46.35-.39.82-.59,1.41-.59.55,0,.99.2,1.35.59.35.39.49.88.41,1.46l-.53,4.63c-.04.12-.02.2.06.23.08.04.18.02.29-.06l3.81-2.75c.47-.35.97-.48,1.49-.38.53.1.93.4,1.2.91.35.63.42,1.17.2,1.64-.21.47-.58.8-1.08.99l-4.27,1.93c-.12.04-.18.1-.18.18s.06.14.18.18l4.27,1.93c.55.23.91.61,1.08,1.11.18.51.11,1.02-.2,1.52-.27.51-.67.81-1.2.91-.53.1-1.03,0-1.49-.32l-3.81-2.81c-.12-.08-.22-.1-.29-.06-.08.04-.1.12-.06.23l.53,4.63c.08.59-.07,1.07-.44,1.46-.37.39-.85.59-1.43.59Z"/>
            <path class="cls-12" d="m660.1,268.21c-.55,0-.99-.19-1.32-.59-.33-.39-.48-.88-.44-1.46l.53-4.63c.04-.12.02-.19-.06-.23-.08-.04-.18-.02-.29.06l-3.81,2.75c-.47.35-.96.48-1.46.38-.51-.1-.92-.4-1.23-.91-.35-.62-.42-1.17-.21-1.64.21-.47.58-.8,1.08-.99l4.28-1.93c.12-.04.18-.1.18-.18s-.06-.14-.18-.18l-4.28-1.93c-.55-.23-.9-.6-1.05-1.11-.16-.51-.1-1.01.18-1.52.31-.51.72-.81,1.23-.91.51-.1.99.01,1.46.32l3.81,2.81c.12.08.21.1.29.06.08-.04.1-.12.06-.23l-.53-4.63c-.04-.59.12-1.07.47-1.46.35-.39.82-.59,1.41-.59.55,0,.99.2,1.35.59.35.39.49.88.41,1.46l-.53,4.63c-.04.12-.02.2.06.23.08.04.18.02.29-.06l3.81-2.75c.47-.35.97-.48,1.49-.38.53.1.93.4,1.2.91.35.63.42,1.17.2,1.64-.21.47-.58.8-1.08.99l-4.27,1.93c-.12.04-.18.1-.18.18s.06.14.18.18l4.27,1.93c.55.23.91.61,1.08,1.11.18.51.11,1.02-.2,1.52-.27.51-.67.81-1.2.91-.53.1-1.03,0-1.49-.32l-3.81-2.81c-.12-.08-.22-.1-.29-.06-.08.04-.1.12-.06.23l.53,4.63c.08.59-.07,1.07-.44,1.46-.37.39-.85.59-1.43.59Z"/>
            <path class="cls-12" d="m685.33,268.21c-.55,0-.99-.19-1.32-.59-.33-.39-.48-.88-.44-1.46l.53-4.63c.04-.12.02-.19-.06-.23-.08-.04-.18-.02-.29.06l-3.81,2.75c-.47.35-.96.48-1.46.38-.51-.1-.92-.4-1.23-.91-.35-.62-.42-1.17-.21-1.64s.58-.8,1.08-.99l4.27-1.93c.12-.04.18-.1.18-.18s-.06-.14-.18-.18l-4.27-1.93c-.55-.23-.9-.6-1.05-1.11-.16-.51-.1-1.01.18-1.52.31-.51.72-.81,1.23-.91.51-.1.99.01,1.46.32l3.81,2.81c.12.08.21.1.29.06.08-.04.1-.12.06-.23l-.53-4.63c-.04-.59.12-1.07.47-1.46.35-.39.82-.59,1.41-.59.55,0,.99.2,1.35.59.35.39.49.88.41,1.46l-.53,4.63c-.04.12-.02.2.06.23.08.04.18.02.29-.06l3.81-2.75c.47-.35.97-.48,1.49-.38.53.1.93.4,1.2.91.35.63.42,1.17.2,1.64-.21.47-.58.8-1.08.99l-4.27,1.93c-.12.04-.18.1-.18.18s.06.14.18.18l4.27,1.93c.55.23.91.61,1.08,1.11.18.51.11,1.02-.2,1.52-.27.51-.67.81-1.2.91-.53.1-1.03,0-1.49-.32l-3.81-2.81c-.12-.08-.22-.1-.29-.06-.08.04-.1.12-.06.23l.53,4.63c.08.59-.07,1.07-.44,1.46-.37.39-.85.59-1.43.59Z"/>
          </g>
        </g>
      </g>
    </g>
  </g>
</svg>