<?xml version="1.0" encoding="UTF-8"?>
<svg id="Camada_2" data-name="Camada 2" xmlns="http://www.w3.org/2000/svg" viewBox="0 0 706.27 645.14">
  <defs>
    <style>
      .cls-1 {
        fill: #b7b7b7;
      }

      .cls-2 {
        fill: #fff;
      }

      .cls-3 {
        fill: #2e303d;
      }

      .cls-4 {
        fill: #ffcf36;
      }

      .cls-5 {
        fill: #ff9971;
      }

      .cls-6 {
        fill: #d7f2ed;
      }

      .cls-7 {
        fill: #8e8e8e;
      }

      .cls-8 {
        fill: #ff9076;
      }

      .cls-9 {
        fill: #e56b45;
      }

      .cls-10 {
        fill: #eeab00;
      }

      .cls-11 {
        fill: #ed694f;
      }

      .cls-12 {
        fill: #27c8cc;
      }

      .cls-13 {
        fill: #f9785a;
      }

      .cls-14 {
        fill: #d5e0e0;
      }
    </style>
  </defs>
  <g id="Camada_1-2" data-name="Camada 1">
    <g>
      <circle class="cls-4" cx="309.06" cy="269.14" r="269.14"/>
      <g>
        <g>
          <path class="cls-2" d="m347.92,368.69s-75.02,91.05-101.56,88.67c-26.54-2.37-44.72-46.75-44.72-46.75,0,0,.91-.49,2.45-1.41,7.77-4.58,31.65-19.76,37.24-35.96,5.41-8.79,44.77-72.6,56.74-88.89,12.89-17.5,28.05-18.18,28.05-18.18,8.55,14.06,19.34,24.75,32.71,26.76,1.84.28,3.62.45,5.33.54.81,5.72,6.19,34.9,32.4,49.84,0,0,1.01-20.33,14.45-22.13,0,0,14.23-7.8,25.98,3.61,0,0,18.62-19.99,0-76.11l-13.29-12.02-.02-.02-6.09-14.49s68-3.4,83.73,11.18c15.73,14.56,116.35,147.71,116.35,147.71l-146.36,113.63s-88.74-88.01-123.4-125.97Z"/>
          <path class="cls-6" d="m437,248.67c18.62,56.13,0,76.11,0,76.11-11.75-11.41-25.98-3.61-25.98-3.61l18.98-69.58-6.29-14.95,13.29,12.02Z"/>
          <path class="cls-6" d="m391.34,308.19l19.68,12.98c-13.44,1.8-14.45,22.13-14.45,22.13-26.21-14.93-31.59-44.12-32.4-49.84,1.66.08,3.27.06,4.79-.03l22.38,14.75Z"/>
          <path class="cls-3" d="m347.46,367.95c-8.19-10.1-16.37-20.21-24.56-30.31-.66-.81-1.8.34-1.15,1.15,8.19,10.1,16.37,20.21,24.56,30.31.66.81,1.8-.34,1.15-1.15Z"/>
          <path class="cls-3" d="m340.29,369.94c-5.8-2.49-11.59-4.98-17.39-7.46-.95-.41-1.78.99-.82,1.4,5.8,2.49,11.59,4.98,17.39,7.46.95.41,1.78-.99.82-1.4Z"/>
          <path class="cls-3" d="m469.66,416.29c-7.37-12.19-14.74-24.38-22.11-36.57-7.33-12.13-14.67-24.26-22-36.4-4.16-6.87-8.31-13.75-12.47-20.62-.54-.89-1.95-.08-1.4.82,7.37,12.19,14.74,24.38,22.11,36.57,7.33,12.13,14.67,24.26,22,36.4,4.16,6.87,8.31,13.75,12.47,20.62.54.89,1.95.08,1.4-.82Z"/>
        </g>
        <g>
          <path class="cls-5" d="m242.52,367.24c-.08,2-.49,4-1.19,6-5.59,16.2-29.48,31.38-37.24,35.96l-2.45-8.99s-12.59,2.83-21.81-5.15c-.24.47-.63.89-1.09,1.19-1.3.8-2.94.8-4.47.67-6.91-.62-13.63-3.27-19.11-7.54-3.23-2.52-6.14-5.78-7.04-9.78-.86-3.79.58-8.29,3.95-10.14-.13-.6-.21-1.22-.24-1.84-.15-3.53,1.71-6.91,4.22-9.38,2.32-2.31,5.2-3.95,8.08-5.51.03-.15.06-.28.1-.41.7-2.5,2.49-4.58,4.57-6.13,1.88-1.4,4.03-2.4,6.17-3.38-10.42-5.36-20.41-11.31-19.4-13.97,2.03-5.41,23.37-3.49,44.95,4.06,21.56,7.57,28.62,18.85,28.62,18.85,6.71-2.97,14.06-2.39,13.39,15.49Z"/>
          <path class="cls-3" d="m234.62,370.28c-5.03,2.16-10.06,4.31-15.08,6.47-2.55,1.09-5.09,2.18-7.64,3.28-2.09.9-4.64,2.36-6.99,1.63-2.53-.78-2.56-3.61-1.59-5.64.97-2.03,2.48-3.88,3.88-5.62,2.76-3.45,5.89-6.6,9.3-9.41,3.95-3.26,8.31-6.01,12.93-8.23.94-.45.12-1.86-.82-1.4-8.92,4.3-16.84,10.63-22.97,18.42-2.39,3.04-6.89,8.39-3.3,12.2,1.64,1.73,4.26,1.74,6.39,1.08,2.64-.82,5.18-2.13,7.71-3.21,6.33-2.72,12.66-5.43,19-8.15.96-.41.13-1.81-.82-1.4Z"/>
          <path class="cls-3" d="m194.98,354.06c-6.3-3.76-12.61-7.53-18.91-11.29-.9-.54-1.72.87-.82,1.4l18.91,11.29c.9.54,1.72-.87.82-1.4Z"/>
          <path class="cls-3" d="m197.92,384.5c-.17-1.54-.87-2.96-1.46-4.37-.65-1.55-1.3-3.1-1.95-4.66-2.98-7.14-5.97-14.28-8.95-21.42-.4-.95-1.97-.53-1.57.43,2.41,5.77,4.83,11.55,7.24,17.32,1.22,2.92,2.44,5.84,3.66,8.75.74,1.77,3.02,6.43-.27,7.18-2.3.53-4.99-1.77-6.74-3-2.02-1.42-3.94-2.98-5.76-4.65-3.61-3.32-6.82-7.07-9.51-11.17-3.05-4.63-5.43-9.67-7.06-14.97-.31-1-1.88-.57-1.57.43,3.17,10.25,9.09,19.6,16.99,26.85,1.92,1.76,3.96,3.4,6.09,4.9,2.02,1.42,4.45,3.32,7.05,3.28,2.66-.04,4.08-2.48,3.81-4.93Z"/>
          <path class="cls-3" d="m184.27,385.35c-.62-.82-2.03-.02-1.4.82,1.1,1.46,1.21,3.44-.08,4.83-1.28,1.38-3.18,1.39-4.82.67-1.67-.74-3.12-1.97-4.54-3.09-1.48-1.16-2.93-2.36-4.36-3.59-5.66-4.88-10.86-10.27-15.55-16.09-.66-.81-1.8.34-1.15,1.15,4.31,5.34,9.05,10.33,14.18,14.89,2.5,2.22,5.09,4.35,7.76,6.36,2.35,1.76,5.43,3.44,8.32,1.86,2.81-1.54,3.56-5.26,1.64-7.8Z"/>
        </g>
        <g>
          <path class="cls-5" d="m430,251.59l-18.98,69.58-19.68-12.98c20.25-28.76,16.3-62.92,16.3-62.92,0,0-3.15,46-38.67,48.16-1.53.1-3.14.11-4.79.03-1.71-.08-3.49-.26-5.33-.54-13.37-2.01-24.16-12.71-32.71-26.76-16.98-27.92-25.19-69.03-27.41-81.65,20-2.62,39.44-11.02,58.42-18.59,5.87-2.34,12.06-4.66,18.35-3.96,6.43.7,12.2,4.53,16.53,9.36,3.79,4.24,6.61,9.21,9.28,14.23.75-4.58,3.85-18.33,14.25-14.36,1.2.45,2.28,1.19,3.2,2.11,8.63,8.71,5.46,35.75-4.32,41.26l3.19,7.57,6.09,14.49.02.02,6.29,14.95Z"/>
          <path class="cls-3" d="m407.64,245.27s3.95,34.16-16.3,62.92l-22.38-14.75c35.52-2.16,38.67-48.16,38.67-48.16Z"/>
          <path class="cls-3" d="m416.98,148.73c-.96-6.11-2.45-12.46-6.53-17.11-3.65-4.15-9.97-6.35-14.93-4.31,1.42-5.46.73-11.42-2.07-16.35-2.89-5.08-7.85-8.92-13.51-10.39-13.78-3.59-26.36,5.48-37.55,12.1-5.98,3.54-12.22,6.37-19,7.97-6.61,1.56-13.47,2.03-20.23,1.38-3.44-.33-6.82-.98-10.16-1.87-3.33-.89-6.64-1.92-10.09-2.19-5.73-.45-11.58,1.72-13.88,7.32-2.15,5.22-1.05,11.31,1.05,16.36,1.47,3.55,3.55,6.82,6.11,9.67-6.25-.65-12.85,2.54-15.98,8.03-3.54,6.21-2.29,14.75,2.88,19.69,4.47,4.27,10.94,5.64,17.09,6.09,6.24.47,12.41.19,18.54-.62,20-2.62,39.44-11.02,58.42-18.59,5.87-2.34,12.06-4.66,18.35-3.96,6.43.7,12.2,4.53,16.53,9.36,3.79,4.24,6.61,9.21,9.28,14.23.75-4.58,3.85-18.33,14.25-14.36,1.2.46,2.28,1.19,3.2,2.11.11-8.21-.47-16.44-1.76-24.57Zm-34.5-39.86c-7.77-2.8-16.48-.98-24.05,2.31-7.57,3.27-14.49,7.91-22.1,11.08-13.89,5.75-29.88,6.26-44.09,1.36-5.26-1.82-11.02-4.36-16.14-2.18-3.97,1.69-6.18,5.85-6.6,10.22,0-.98.05-1.96.21-2.93.44-2.6,1.59-5.08,3.66-6.78,2.25-1.83,5.26-2.46,8.1-2.44,3.35.02,6.61.97,9.81,1.85,3.12.86,6.26,1.57,9.47,2,12.46,1.66,25.36-.46,36.6-6.08,11.53-5.76,22.08-15.42,35.59-15.85,6.04-.19,11.86,1.91,16.08,6.3,4.26,4.43,6.24,10.66,5.41,16.74-.03.21-.09.41-.12.62.3-6.93-5.1-13.8-11.84-16.24Z"/>
          <path class="cls-2" d="m382.79,245.82s9.03,16.51-4.74,26.1c-13.78,9.6-23.5-4.03-23.5-4.03l28.24-22.07Z"/>
          <path class="cls-13" d="m335.81,215.91l18.74,37.28s-15.24,8.58-18.74,3.61c-3.51-4.97,0-40.88,0-40.88Z"/>
          <path class="cls-3" d="m328.92,224.32c1.44,4.86-.14,9.62-3.52,10.62-3.38,1-7.28-2.14-8.72-7-1.44-4.86.14-9.62,3.52-10.62,3.38-1,7.28,2.14,8.72,7Z"/>
          <path class="cls-3" d="m368.45,210.99c1.44,4.86-.14,9.62-3.52,10.62-3.38,1-7.28-2.14-8.72-7-1.44-4.86.14-9.62,3.52-10.62,3.38-1,7.28,2.14,8.72,7Z"/>
          <path class="cls-3" d="m320.7,204.64c-3.08.73-6.05,1.94-8.82,3.47-1.49.83-2,3.08-1.04,4.48,1.04,1.51,2.88,1.93,4.48,1.04.69-.38,1.39-.72,2.1-1.05,1.66-.71,3.37-1.29,5.13-1.71,1.66-.4,2.75-2.44,2.2-4.04-.6-1.74-2.26-2.62-4.04-2.2Z"/>
          <path class="cls-3" d="m367.01,193.71c-.68-.59-1.4-.8-2.29-.88-3.94-.38-8.04.23-11.7,1.73-.82.34-1.5.76-1.93,1.56-.38.7-.53,1.71-.26,2.47.53,1.53,2.35,2.89,4.04,2.2,1.51-.62,3.08-1.05,4.69-1.34,1.75-.23,3.52-.29,5.29-.12.78.08,1.79-.48,2.31-1.02.53-.57.93-1.49.88-2.29-.05-.85-.36-1.74-1.02-2.31Z"/>
          <path class="cls-3" d="m395.08,99.98c-.41-.96-1.81-.13-1.4.82,3.02,7,4.52,14.57,4.44,22.19-.01,1.05,1.61,1.05,1.62,0,.08-7.92-1.52-15.74-4.66-23.01Z"/>
          <path class="cls-3" d="m402.53,113.99c-.69,2.86-1.39,5.71-2.08,8.57-.25,1.02,1.32,1.45,1.57.43.69-2.86,1.39-5.71,2.08-8.57.25-1.02-1.32-1.45-1.57-.43Z"/>
        </g>
      </g>
      <g>
        <g>
          <polygon class="cls-7" points="391.48 595.25 391.48 605.63 246.5 605.63 135.99 545.56 135.99 536.21 248.62 595.25 391.48 595.25"/>
          <polygon class="cls-1" points="391.48 595.25 248.62 595.25 135.99 536.21 278.86 536.21 391.48 595.25"/>
          <polygon class="cls-7" points="263.74 590.71 246.14 590.71 232.27 583.44 249.87 583.44 263.74 590.71"/>
          <polygon class="cls-7" points="245.14 581 227.55 581 213.68 573.73 231.27 573.73 245.14 581"/>
          <polygon class="cls-7" points="229.41 571.66 211.82 571.66 197.95 564.39 215.54 564.39 229.41 571.66"/>
          <polygon class="cls-7" points="210.82 561.95 193.23 561.95 179.36 554.68 196.95 554.68 210.82 561.95"/>
          <polygon class="cls-7" points="284.97 589.3 267.38 589.3 253.51 582.03 271.1 582.03 284.97 589.3"/>
          <polygon class="cls-7" points="269.24 579.96 251.64 579.96 237.78 572.69 255.37 572.69 269.24 579.96"/>
          <polygon class="cls-7" points="250.65 570.25 233.05 570.25 219.18 562.98 236.78 562.98 250.65 570.25"/>
          <polygon class="cls-7" points="288.81 578.23 271.22 578.23 257.35 570.96 274.94 570.96 288.81 578.23"/>
          <polygon class="cls-7" points="273.08 568.9 255.48 568.9 241.61 561.63 259.21 561.63 273.08 568.9"/>
          <polygon class="cls-7" points="254.49 559.19 236.89 559.19 223.02 551.92 240.62 551.92 254.49 559.19"/>
          <polygon class="cls-7" points="353.62 591.59 336.02 591.59 322.15 584.32 339.75 584.32 353.62 591.59"/>
          <polygon class="cls-7" points="335.02 581.87 317.43 581.87 303.56 574.6 321.15 574.6 335.02 581.87"/>
          <polygon class="cls-7" points="319.29 572.54 301.7 572.54 287.83 565.27 305.42 565.27 319.29 572.54"/>
          <polygon class="cls-7" points="300.7 562.83 283.11 562.83 269.24 555.56 286.83 555.56 300.7 562.83"/>
          <polygon class="cls-7" points="374.85 590.17 357.26 590.17 343.39 582.91 360.98 582.91 374.85 590.17"/>
          <polygon class="cls-7" points="359.12 580.84 341.52 580.84 327.66 573.57 345.25 573.57 359.12 580.84"/>
          <polygon class="cls-7" points="340.53 571.13 322.93 571.13 309.06 563.86 326.66 563.86 340.53 571.13"/>
        </g>
        <g>
          <polygon class="cls-14" points="482.76 645.14 339.89 645.14 266.94 606.83 409.81 606.83 482.76 645.14"/>
          <polygon class="cls-12" points="383.67 640.54 342.09 640.54 320.86 629.39 362.44 629.39 383.67 640.54"/>
          <path class="cls-1" d="m396.65,639.84c-.25,0-.51-.06-.75-.19l-49.3-25.89c-.8-.42-1.1-1.4-.68-2.19.42-.8,1.4-1.1,2.19-.68l49.3,25.89c.79.42,1.1,1.4.68,2.19-.29.55-.86.87-1.44.87Z"/>
          <path class="cls-1" d="m413.24,638.88c-.25,0-.51-.06-.75-.19l-49.3-25.89c-.8-.42-1.1-1.4-.68-2.19.42-.79,1.4-1.1,2.19-.68l49.3,25.89c.79.42,1.1,1.4.68,2.19-.29.55-.86.87-1.44.87Z"/>
          <path class="cls-1" d="m435.79,640.32c-.25,0-.51-.06-.75-.19l-49.3-25.89c-.8-.42-1.1-1.4-.68-2.19.42-.8,1.4-1.1,2.19-.68l49.3,25.89c.79.42,1.1,1.4.68,2.19-.29.55-.86.87-1.44.87Z"/>
          <path class="cls-1" d="m452.38,639.36c-.25,0-.51-.06-.75-.19l-49.3-25.89c-.8-.42-1.1-1.4-.68-2.19.42-.8,1.4-1.1,2.19-.68l49.3,25.89c.79.42,1.1,1.4.68,2.19-.29.55-.86.87-1.44.87Z"/>
        </g>
      </g>
      <g>
        <path class="cls-2" d="m601.34,208.24l27.8-14.48c11.09,2.91,23.13,2.74,34.83-1.12,32.31-10.67,49.84-45.51,39.17-77.82-10.67-32.31-45.51-49.84-77.82-39.17-32.29,10.67-49.82,45.51-39.15,77.81,3.09,9.34,8.21,17.47,14.7,24.01l.47,30.76Z"/>
        <g>
          <polygon class="cls-7" points="662.02 176.9 662.02 180.93 658.54 180.93 635.06 180.93 631.45 180.93 631.45 169.4 662.02 176.9"/>
          <path class="cls-1" d="m635.06,180.93h23.48s-.55,4.86-11.81,4.86-11.66-4.86-11.66-4.86Z"/>
          <polygon class="cls-1" points="662.02 165.92 662.02 176.9 631.45 169.4 631.45 165.92 633.64 165.92 660.52 165.92 662.02 165.92"/>
          <path class="cls-4" d="m683.13,117.57c0,13.28-7.18,24.9-17.89,31.15l-4.72,17.2h-26.88l-4.71-17.2c-10.7-6.25-17.9-17.87-17.9-31.15,0-19.91,16.15-36.04,36.06-36.04s36.04,16.13,36.04,36.04Z"/>
          <path class="cls-2" d="m632.61,125.93c-.13-.86-1.44-.49-1.31.36,2.01,12.92,4.03,25.83,6.04,38.75.13.86,1.44.49,1.31-.36-2.01-12.92-4.03-25.83-6.04-38.75Z"/>
          <path class="cls-2" d="m661.2,124.62c-2.17,13.6-4.35,27.2-6.52,40.79-.14.85,1.17,1.22,1.31.36,2.17-13.6,4.35-27.2,6.52-40.79.14-.85-1.17-1.22-1.31-.36Z"/>
          <path class="cls-2" d="m664.87,134.44c-1.02,2.81-4.17,4.71-7.14,4.14-2.51-.48-4.42-2.34-5.73-4.48,1.22-1.76,2.09-3.81,2.55-5.7.49-2,.62-4.09.33-6.13-.22-1.55-.95-3.54-2.74-3.78-2.09-.28-3.17,1.83-3.51,3.55-.44,2.23-.43,4.53-.04,6.76.31,1.72.89,3.5,1.74,5.13-.18.22-.35.44-.55.65-1.16,1.27-2.64,2.45-4.43,2.55-1.71.09-2.91-.97-3.78-2.3.91-1.3,1.53-2.84,1.86-4.38.48-2.25.68-4.76.52-7.06-.12-1.79-1.36-3.89-3.45-3.28-2.16.62-2.52,3.24-2.66,5.13-.16,2.16.11,4.37.77,6.43.33,1.03.77,2.12,1.32,3.12-.88,1.02-2.02,1.76-3.5,2.01-4.08.68-5.62-3.5-6.42-6.68-.21-.85-1.52-.49-1.31.36.88,3.52,2.6,7.76,6.9,7.74,2.07,0,3.76-.92,5.06-2.28.33.45.69.86,1.1,1.22,1.57,1.39,3.68,1.64,5.6.87,1.43-.58,2.68-1.58,3.73-2.79,1.25,1.9,2.94,3.48,5.08,4.29,4,1.52,8.56-.79,10-4.75.3-.82-1.01-1.18-1.31-.36Zm-25.56-10.15c.13-.87.29-1.91.98-2.52.83-.75,1.76-.26,2.13.67.34.86.2,1.89.17,2.79-.03.95-.07,1.91-.16,2.86-.17,1.79-.65,3.8-1.59,5.45-1.43-2.83-1.98-6.11-1.53-9.25Zm11.81,8.18c-1.46-3.24-1.94-7.14-1.07-10.61.2-.79.56-1.72,1.42-1.98.83-.25,1.39.46,1.69,1.14.62,1.4.58,3.17.46,4.66-.2,2.48-1.03,4.92-2.39,7.02-.04-.08-.08-.16-.12-.23Z"/>
        </g>
      </g>
      <g>
        <path class="cls-2" d="m253.6,217.35l-28.93,4.49c-6.74,8.32-15.89,14.86-26.83,18.42-30.21,9.84-62.67-6.68-72.51-36.89-9.84-30.21,6.68-62.67,36.89-72.51,30.19-9.83,62.66,6.68,72.49,36.89,2.85,8.74,3.48,17.68,2.22,26.2l16.66,23.4Z"/>
        <polygon class="cls-10" points="225.74 167.1 171.88 220.96 142.6 191.66 156.79 177.46 171.88 192.54 211.53 152.9 225.74 167.1"/>
      </g>
      <g>
        <g>
          <path class="cls-5" d="m562.51,345.39l-36.69,41.18-9.38,25.3-1.92-23.72-3.85-28.91.39-5.35,2.19-30.21c-6.09.57-12.02.41-17.6-.6-21.94-3.9-38.67-20.65-40.77-56.91-1.28-22.08,1.45-38.72,5.13-50.71,5.41-17.61,12.93-25.17,12.93-25.17,0,0,27.45,45.97,63.81,51.06,0,0,6.66-15.71,17.05-11.08,10.4,4.63,10.4,35.9-6.08,39.99-2.16,21.63.99,43.79,9.12,63.96,1.56,3.85,3.36,7.72,5.66,11.18Z"/>
          <circle class="cls-13" cx="526.63" cy="269.14" r="14.71"/>
          <path class="cls-3" d="m531.57,320.05l-19.47,19.43,1.15-15.81c5.98-.54,12.14-1.79,18.31-3.62Z"/>
          <path class="cls-3" d="m512.11,339.49l-1.04,14.4s-21.09,9.46-30.76,31.8c-2.1-6.79-1.87-14.22-.36-21.19,1.71-7.8,4.92-15.16,8.17-22.42,2.78-6.22,5.61-12.48,7.54-19,5.57,1.01,11.5,1.17,17.6.6l-1.15,15.81Z"/>
          <path class="cls-13" d="m477.25,248.33l8.37,35.25s-14.58,4.4-16.49.89c-1.92-3.49,8.12-36.14,8.12-36.14Z"/>
          <path class="cls-3" d="m682.34,353.06c-4.36-17.82-14.93-33.24-26.98-46.78-9.75-10.96-20.59-20.87-30.87-31.32-3.22-5.24-6.23-10.61-8.92-16.16-10.07-20.78-15.36-43.65-25.72-64.27-10.38-20.64-27.79-39.84-50.6-43.4-33.51-5.23-65.49,24.47-98.81,18.22-1.32,16.95,5.67,34.37,18.35,45.71l1.25.39c4.64-15.11,10.83-22.8,12.49-24.69,2,9.98,8.93,18.19,15.79,25.44,8.02,8.48,17.04,16.36,28,20.73,4.73,1.89,9.76,3.06,14.84,3.26,1.85.48,3.72.88,5.62,1.14,0,0,6.66-15.71,17.05-11.08,10.4,4.63,10.4,35.9-6.08,39.99-2.16,21.63.99,43.79,9.12,63.96,1.56,3.85,3.36,7.72,5.66,11.18,1.41,2.16,3.02,4.16,4.89,5.91v.02c.67.62,1.36,1.22,2.11,1.79,14.28,10.9,35.33,4.37,52.14,10.69,15.57,5.85,25.22,22.23,27.75,38.67,2.55,16.44-.76,33.17-4.05,49.48l.29.1c.32-.97.63-1.97.94-2.94,21.83-7.73,34.76-31.4,35.8-54.68,3.14-13.55,3.24-27.84-.06-41.36Zm-178.47-124.96c-4.57-3.33-8.74-7.19-12.68-11.24-3.86-3.96-7.65-8.07-10.82-12.61-2.39-3.42-4.4-7.15-5.6-11.13,5.61,8.49,23.85,33.82,47.94,44.18-6.78-1.74-13.17-5.06-18.84-9.2Zm178.4,158.15c-1.58-23.54-12.97-45.51-26.11-65.22-8.95-13.41-18.85-26.26-27.65-39.74,6.26,6.2,12.63,12.3,18.73,18.64,12.9,13.39,25.12,28.33,31.33,46.11,4.49,12.85,5.6,26.76,3.7,40.21Z"/>
          <path class="cls-3" d="m471.12,248.64c0,5.07-2.86,9.19-6.38,9.19s-6.38-4.11-6.38-9.19,2.86-9.19,6.38-9.19,6.38,4.11,6.38,9.19Z"/>
          <path class="cls-3" d="m504.19,247.32c0,5.07-2.86,9.19-6.38,9.19s-6.38-4.11-6.38-9.19,2.86-9.19,6.38-9.19,6.38,4.11,6.38,9.19Z"/>
          <path class="cls-3" d="m468.82,227.43c-3.16-.17-6.35.14-9.44.83-1.66.37-2.79,2.39-2.27,4,.56,1.74,2.22,2.67,4,2.27.77-.17,1.54-.3,2.31-.41,1.79-.21,3.6-.28,5.4-.19,1.7.09,3.33-1.56,3.25-3.25-.08-1.84-1.43-3.15-3.25-3.25Z"/>
          <path class="cls-3" d="m507.7,230.34c-.49-.76-1.11-1.16-1.94-1.49-3.67-1.48-7.78-2.06-11.71-1.66-.88.09-1.65.3-2.3.95-.56.56-.99,1.49-.95,2.3.07,1.61,1.44,3.43,3.25,3.25,1.63-.16,3.26-.13,4.88.04,1.75.27,3.46.72,5.1,1.38.73.29,1.86.05,2.5-.33.67-.39,1.32-1.17,1.49-1.94.19-.83.15-1.77-.33-2.5Z"/>
          <path class="cls-9" d="m510.16,295.5c2.36,5.82.14,12.21-4.95,14.27-5.09,2.06-11.12-.99-13.48-6.81-2.36-5.82-.14-12.21,4.95-14.27,5.09-2.06,11.12.99,13.48,6.81Z"/>
          <path class="cls-2" d="m511.93,287.41s4.86,13.89-9.15,18.52c-11.41,3.77-16.2-3.72-17.48-6.29l26.63-12.24Z"/>
        </g>
        <g>
          <path class="cls-4" d="m645.37,451.95l.29.1c-4.52,14.02-9.65,28.1-14.84,41.37v.02c-16.02,41.01-32.53,74.47-33.04,75.46-15.83-21.86-45.3-36.37-54.87-40.67-1.97-.88-3.09-1.33-3.09-1.33l-6.03,18.07c.5.47,1.02.94,1.51,1.4l-54.65,7.28v-22.52s-1.35-2.92-3.35-7.57c-2.73-6.34-6.68-15.89-9.98-25.51-3.62-10.56-6.47-21.21-6.13-27.75.91-16.87,37.86-81.91,37.86-81.91.05,9.38,2.13,16.95,2.13,16.95.16-1.01.54-2.08,1.09-3.17.16.7,5.39,22.28,15.16,38.63l20.8-35.46c.86,2.23,1.71,4.71,2.47,7.44,0,0,23.07-37.31,26.68-61.44.67.62,1.36,1.22,2.11,1.79,14.28,10.9,35.33,4.37,52.14,10.69,15.57,5.85,25.22,22.23,27.75,38.67,2.55,16.44-.76,33.17-4.05,49.48Z"/>
          <path class="cls-4" d="m630.82,493.44l9.73,85.55h-43.84l3.64-6.32c-.8-1.28-1.66-2.53-2.57-3.77.5-.99,17.01-34.45,33.04-75.46Z"/>
          <path class="cls-2" d="m597.79,568.9c.91,1.23,1.77,2.49,2.57,3.77l-3.64,6.32-18.35,31.93s-6.45-30.34-43.06-64.56c-.49-.45-1.01-.93-1.51-1.4l6.03-18.07s1.12.45,3.09,1.33c9.57,4.31,39.05,18.82,54.87,40.67Z"/>
          <path class="cls-5" d="m578.37,610.92s-41.97.75-159.31-6.03c0,0-27.41,18.98-38.54,17.78-11.15-1.2-33.13-21.84-38.56-30.42-5.41-8.58,8.74-21.38,8.74-21.38,0,0,.15-6.47,9.03-10.24,3.96-1.67,14.84-1.45,25.69-.68,13.52.97,27.01,2.79,27.01,2.79l32.65-4.35,35.59-4.74,54.65-7.28c36.61,34.22,43.06,64.56,43.06,64.56Z"/>
          <path class="cls-2" d="m567.4,351.3v.02c-3.61,24.13-26.68,61.44-26.68,61.44-.76-2.73-1.61-5.22-2.47-7.44-5.57-14.43-12.43-18.75-12.43-18.75l36.69-41.18c1.41,2.16,3.02,4.16,4.89,5.91Z"/>
          <path class="cls-6" d="m538.25,405.32l-20.8,35.46c-9.77-16.35-15-37.93-15.16-38.63v-.02c3.27-6.6,12.24-13.99,12.24-13.99l1.92,23.72,9.38-25.3s6.86,4.32,12.43,18.75Z"/>
          <path class="cls-2" d="m499.01,490.92h25.35l1.01,51.93h-37.49l-.76-51.93h11.89Zm17.42,29.38v-24.39h-20.38v24.39h20.38Z"/>
          <rect class="cls-12" x="496.05" y="495.91" width="20.38" height="24.39"/>
          <path class="cls-2" d="m510.68,359.23l3.85,28.91s-8.97,7.39-12.24,13.99v.02c-.55,1.09-.93,2.16-1.09,3.17,0,0-2.08-7.57-2.13-16.95-.05-9.96,2.18-21.99,11.6-29.14Z"/>
          <polygon class="cls-1" points="505.54 483 511.8 490.92 499.01 490.92 505.54 483"/>
          <path class="cls-4" d="m480.3,385.69c9.67-22.34,30.76-31.8,30.76-31.8l-.39,5.35c-9.42,7.15-11.65,19.17-11.6,29.14,0,0-36.95,65.05-37.86,81.91-.34,6.55,2.5,17.19,6.13,27.75l-2.21.55-15.86-7.7.5-1.02s20.18-71.53,28.31-98.18c.63-2.1,1.38-4.09,2.23-6Z"/>
          <path class="cls-5" d="m480.66,531.12v22.52l-35.59,4.74-108.31-.22c-18.33,7.88-27.81,8.3-34.89,4.78-2.89.19-13.74,1.39-16.63,1.57-.28,3.12-1.23,5.9-3.82,5.9-5.87,0-12.41-13.1-12.41-13.1,0,0-1.8,13.1-7.69,9.94-5.87-3.17-4.29-21.09-4.29-21.09,0,0-13.32,13.06-15.13,8.14-1.8-4.94,7-28.39,28.91-30.42,21.9-2.03,71.37,6.78,71.37,6.78l98.1-16.41,37.03,9.29c2,4.65,3.35,7.57,3.35,7.57Z"/>
          <path class="cls-2" d="m477.31,523.55l-37.03-9.29c-2.27-18.22,3.77-25.9,3.77-25.9l5.22,2.53,18.07,7.15h0c3.3,9.62,7.25,19.17,9.98,25.51Z"/>
          <g>
            <path class="cls-11" d="m402.77,523.36c2.32,1.59,2.96,4.78,1.54,7.21-11.46-1.48-14.19-6.69-14.19-6.69.94-1.59,2.81-3.48,4.65-3.57,2.24-.1,5.17,1.12,7.99,3.05Z"/>
            <path class="cls-8" d="m404.31,530.57l-6.92,11.94c-9.12-1.32-13.99-7.34-13.99-7.34l6.73-11.29s2.73,5.22,14.19,6.69Z"/>
            <path class="cls-12" d="m397.39,542.52l-10.79,18.62-18.43-.39,15.23-25.58s4.87,6.03,13.99,7.34Z"/>
          </g>
          <path class="cls-3" d="m574.93,414.26c-4.46,14.04-8.92,28.09-13.38,42.13-4.44,13.98-8.88,27.96-13.32,41.94-2.52,7.92-5.03,15.85-7.55,23.77-.32,1,1.25,1.43,1.57.43,4.46-14.04,8.92-28.09,13.38-42.13,4.44-13.98,8.88-27.96,13.32-41.94,2.52-7.92,5.03-15.85,7.55-23.77.32-1-1.25-1.43-1.57-.43Z"/>
          <path class="cls-3" d="m630.02,495.75c-9.34,18.58-17.93,37.54-25.72,56.81-2.2,5.44-4.33,10.9-6.41,16.39-.37.98,1.2,1.4,1.57.43,7.3-19.32,15.39-38.34,24.24-57.01,2.51-5.3,5.09-10.57,7.73-15.81.47-.93-.93-1.76-1.4-.82Z"/>
          <path class="cls-3" d="m496.86,390.25c-7.73,14.33-15.64,28.57-23.14,43.01-6.77,13.03-12.74,27.01-12.69,41.96.03,7.77,1.72,15.54,5.57,22.33.52.91,1.92.09,1.4-.82-7.01-12.35-6.38-27.4-2.34-40.61,2.18-7.13,5.3-13.92,8.69-20.54,3.54-6.92,7.31-13.72,11-20.56,4.31-7.98,8.61-15.97,12.92-23.95.5-.92-.91-1.74-1.4-.82Z"/>
          <path class="cls-3" d="m538.17,407.21c-8.78,19.86-17.56,39.72-26.34,59.58-2.14,4.84-4.28,9.68-6.42,14.51-3.29-19.79-4.69-39.89-4.15-59.95.16-5.95.5-11.9,1-17.84.09-1.04-1.54-1.04-1.62,0-1.77,21.1-1.42,42.37,1.08,63.4.68,5.76,1.53,11.49,2.52,17.2,0,.15.03.29.09.41.09.26.27.41.5.45.33.13.7.07.88-.35,0-.01.01-.03.02-.04.05-.08.09-.16.12-.26,8.74-19.76,17.47-39.52,26.21-59.28,2.51-5.67,5.02-11.35,7.53-17.02.42-.95-.98-1.78-1.4-.82Z"/>
          <path class="cls-3" d="m479.52,554.03c-11.52,1.13-23.04,2.26-34.56,3.39-1.03.1-1.04,1.73,0,1.62,11.52-1.13,23.04-2.26,34.56-3.39,1.03-.1,1.04-1.73,0-1.62Z"/>
          <path class="cls-3" d="m318.83,557.05c-9.69,3.07-19.7,5.11-29.82,6.01-1.16.1-2.32.19-3.49.27-.98.06-1.99.18-2.96-.02-.74-.15-1.57-.51-1.52-1.4.06-1.11,1.47-2.15,2.2-2.84,3.33-3.16,6.91-6.06,10.69-8.66,4.28-2.94,8.81-5.5,13.53-7.67.95-.44.12-1.84-.82-1.4-9.18,4.22-17.64,9.96-24.93,16.95-1.37,1.31-3.16,3.25-1.84,5.23.94,1.42,2.95,1.58,4.48,1.51,5.49-.23,11.01-.94,16.42-1.88,6.26-1.09,12.43-2.6,18.48-4.52.99-.31.57-1.88-.43-1.57Z"/>
          <path class="cls-3" d="m269.84,557.11c-2.14-7.18-2.17-14.81-.08-22,.29-1.01-1.28-1.44-1.57-.43-2.16,7.46-2.14,15.42.08,22.87.3,1,1.87.57,1.57-.43Z"/>
          <path class="cls-3" d="m263.72,532.48c-.42-.25-.85-.06-1.11.29-3.03,3.95-5.09,8.6-6,13.49-.19,1.02,1.38,1.46,1.57.43.89-4.78,2.88-9.25,5.84-13.11.27-.35.05-.91-.29-1.11Z"/>
          <path class="cls-3" d="m513.87,388.09c-4.69,4.65-9.1,9.58-13.2,14.76-.64.81.5,1.97,1.15,1.15,4.1-5.18,8.5-10.11,13.2-14.76.74-.74-.4-1.89-1.15-1.15Z"/>
          <path class="cls-3" d="m540.97,411.09c-2.76-9.28-7.55-17.85-13.99-25.07-.7-.78-1.84.37-1.15,1.15,6.26,7.01,10.9,15.35,13.57,24.35.3,1,1.87.57,1.57-.43Z"/>
          <path class="cls-3" d="m517.74,413.22c-.04-1.04-1.67-1.05-1.62,0,.31,7.2.62,14.41.92,21.61.04,1.04,1.67,1.05,1.62,0-.31-7.2-.62-14.41-.92-21.61Z"/>
          <path class="cls-3" d="m523.62,417.36c-.45-.92-1.66-1.43-2.62-1.05-.29.11-.55.29-.78.5-.03.02-.06.03-.09.06-.05.05-.07.12-.11.18-.08.09-.17.17-.23.28-.03.06-.03.12-.06.19-.02.05-.03.11-.05.16-.06.2-.11.4-.12.61,0,.02-.01.04-.01.07,0,.06.03.11.03.17.01.13,0,.27.03.4.01.05.05.09.07.14.03.1.09.18.13.27.08.14.15.28.26.41.02.03.03.06.06.09.06.06.14.09.2.15.08.07.14.16.23.22.04.02.08.02.12.04.1.05.22.08.33.12.14.04.26.1.4.12.51.07,1.05-.02,1.47-.32.43-.31.75-.73.89-1.24.15-.52.08-1.06-.15-1.55Z"/>
        </g>
      </g>
      <g>
        <polygon class="cls-7" points="109.18 561.2 104.35 600.98 187.47 595.86 187.47 612.43 66.41 625.98 33.59 600.98 71.03 512.37 84.48 480.52 117.91 489.26 113.71 523.89 109.18 561.2"/>
        <polygon class="cls-7" points="153.59 260.53 209.77 553.25 185.67 553.25 129.2 260.53 153.59 260.53"/>
        <polygon class="cls-1" points="187.47 595.86 104.35 600.98 109.18 561.2 187.47 595.86"/>
        <polygon class="cls-1" points="129.2 260.53 185.67 553.25 113.71 523.89 117.91 489.26 84.48 480.52 71.03 512.37 65.06 509.83 0 260.53 129.2 260.53"/>
        <path class="cls-3" d="m173.81,488.21c-3.12-18.33-6.31-36.64-9.59-54.94-3.3-18.39-6.67-36.76-10.13-55.12-3.44-18.27-6.97-36.52-10.57-54.76-3.61-18.24-7.29-36.46-11.06-54.66-.47-2.28-.94-4.55-1.42-6.83-.21-1.02-1.78-.59-1.57.43,3.79,18.2,7.5,36.42,11.12,54.65,3.63,18.23,7.17,36.48,10.64,54.74,3.48,18.36,6.88,36.73,10.2,55.11,3.3,18.29,6.52,36.6,9.65,54.93,3.14,18.32,6.19,36.66,9.16,55.01.37,2.29.74,4.59,1.11,6.88.17,1.03,1.73.59,1.57-.43-2.95-18.35-5.99-36.69-9.1-55.02Z"/>
        <path class="cls-3" d="m107.87,488.57c-4.94,17.62-10.08,35.19-15.43,52.69-5.32,17.44-10.85,34.82-16.57,52.13-3.24,9.79-6.54,19.57-9.9,29.32-.34.99,1.23,1.42,1.57.43,5.96-17.3,11.73-34.67,17.3-52.11,5.55-17.37,10.9-34.8,16.05-52.3,2.91-9.9,5.76-19.81,8.55-29.74.28-1.01-1.28-1.44-1.57-.43Z"/>
      </g>
    </g>
  </g>
</svg>