<?xml version="1.0" encoding="UTF-8"?>
<svg id="Camada_2" data-name="Camada 2" xmlns="http://www.w3.org/2000/svg" xmlns:xlink="http://www.w3.org/1999/xlink" viewBox="0 0 818.97 555.52">
  <defs>
    <style>
      .cls-1 {
        fill: #fff;
      }

      .cls-2 {
        stroke-width: 1.5px;
      }

      .cls-2, .cls-3, .cls-4 {
        stroke: #fff;
      }

      .cls-2, .cls-3, .cls-4, .cls-5, .cls-6, .cls-7, .cls-8 {
        fill: none;
      }

      .cls-2, .cls-4, .cls-5, .cls-6 {
        stroke-linecap: round;
        stroke-linejoin: round;
      }

      .cls-9 {
        fill: #f2bb19;
      }

      .cls-10 {
        fill: #ffa80a;
      }

      .cls-11 {
        fill: #8054ff;
      }

      .cls-12 {
        fill: #f6f6f6;
      }

      .cls-13 {
        fill: #32292a;
      }

      .cls-3 {
        stroke-width: 2.02px;
      }

      .cls-3, .cls-8 {
        stroke-miterlimit: 10;
      }

      .cls-4 {
        stroke-width: 1.55px;
      }

      .cls-14 {
        fill: #f8879d;
      }

      .cls-15 {
        fill: #2b4183;
      }

      .cls-16 {
        fill: #7041fd;
      }

      .cls-5 {
        stroke-width: .6px;
      }

      .cls-5, .cls-6 {
        stroke: #312725;
      }

      .cls-17 {
        fill: #fa849b;
      }

      .cls-18 {
        fill: #0b2d50;
      }

      .cls-6 {
        stroke-width: .6px;
      }

      .cls-19 {
        fill: #8155ff;
      }

      .cls-20 {
        fill: #181f42;
      }

      .cls-21 {
        fill: #ffcb2d;
      }

      .cls-22 {
        clip-path: url(#clippath);
      }

      .cls-23 {
        fill: #ffcd2e;
      }

      .cls-24 {
        fill: #243b77;
      }

      .cls-25 {
        fill: #f67b91;
      }

      .cls-8 {
        stroke: #f0e0df;
        stroke-width: 2.21px;
      }

      .cls-26 {
        fill: #312725;
      }

      .cls-27 {
        opacity: .71;
      }

      .cls-28 {
        fill: #e6728c;
      }

      .cls-29 {
        fill: #f88aa0;
      }
    </style>
    <clipPath id="clippath">
      <circle class="cls-7" cx="560.51" cy="417.17" r="113.57"/>
    </clipPath>
  </defs>
  <g id="Camada_1-2" data-name="Camada 1">
    <g>
      <rect class="cls-18" x="15.31" y="549.56" width="744.36" height="5.33"/>
      <g>
        <g>
          <g>
            <rect class="cls-1" x="155.77" y="118.82" width="432.66" height="434.04"/>
            <path class="cls-19" d="m588.43,50.54v68.28H155.77V50.54c0-13.56,11-24.56,24.56-24.56h383.54c13.56,0,24.56,11,24.56,24.56Z"/>
            <g>
              <g>
                <circle class="cls-15" cx="521.37" cy="68.38" r="20.35"/>
                <path class="cls-21" d="m521.37,76.02h0c6.44,0,11.66-5.22,11.66-11.66V11.66c0-6.44-5.22-11.66-11.66-11.66h0c-6.44,0-11.66,5.22-11.66,11.66v52.69c0,6.44,5.22,11.66,11.66,11.66Z"/>
              </g>
              <g>
                <circle class="cls-15" cx="377.72" cy="68.38" r="20.35"/>
                <path class="cls-21" d="m377.72,76.02h0c6.44,0,11.66-5.22,11.66-11.66V11.66c0-6.44-5.22-11.66-11.66-11.66h0c-6.44,0-11.66,5.22-11.66,11.66v52.69c0,6.44,5.22,11.66,11.66,11.66Z"/>
              </g>
              <g>
                <circle class="cls-15" cx="234.08" cy="68.38" r="20.35"/>
                <path class="cls-21" d="m234.08,76.02h0c6.44,0,11.66-5.22,11.66-11.66V11.66c0-6.44-5.22-11.66-11.66-11.66h0c-6.44,0-11.66,5.22-11.66,11.66v52.69c0,6.44,5.22,11.66,11.66,11.66Z"/>
              </g>
            </g>
          </g>
          <g>
            <g>
              <rect class="cls-8" x="442.22" y="188.57" width="82.26" height="82.26" transform="translate(966.71 459.4) rotate(180)"/>
              <rect class="cls-8" x="332.77" y="188.57" width="82.26" height="82.26" transform="translate(747.81 459.4) rotate(180)"/>
              <rect class="cls-8" x="223.32" y="188.57" width="82.26" height="82.26" transform="translate(528.91 459.4) rotate(180)"/>
            </g>
            <g>
              <rect class="cls-8" x="442.22" y="292.99" width="82.26" height="82.26" transform="translate(966.71 668.25) rotate(180)"/>
              <rect class="cls-8" x="332.77" y="292.99" width="82.26" height="82.26" transform="translate(747.81 668.25) rotate(180)"/>
              <rect class="cls-29" x="223.32" y="292.99" width="82.26" height="82.26" transform="translate(528.91 668.25) rotate(180)"/>
              <g>
                <line class="cls-3" x1="253.05" y1="322.37" x2="275.86" y2="345.88"/>
                <line class="cls-3" x1="275.86" y1="322.37" x2="253.05" y2="345.88"/>
              </g>
            </g>
            <g>
              <rect class="cls-8" x="442.22" y="397.42" width="82.26" height="82.26" transform="translate(966.71 877.1) rotate(180)"/>
              <rect class="cls-8" x="332.77" y="397.42" width="82.26" height="82.26" transform="translate(747.81 877.1) rotate(180)"/>
              <rect class="cls-8" x="223.32" y="397.42" width="82.26" height="82.26" transform="translate(528.91 877.1) rotate(180)"/>
            </g>
          </g>
        </g>
        <g>
          <g>
            <g>
              <rect class="cls-10" x="540.97" y="266.85" width="40.03" height="26.36"/>
              <path class="cls-21" d="m587.17,273.69h-52.37c-5.96,0-10.8-4.83-10.8-10.8h0c0-5.96,4.83-10.8,10.8-10.8h52.37c5.96,0,10.8,4.83,10.8,10.8h0c0,5.96-4.83,10.8-10.8,10.8Z"/>
            </g>
            <g>
              <rect class="cls-10" x="444.63" y="314.84" width="31.92" height="22.51" transform="translate(-95.68 421.2) rotate(-45)"/>
              <path class="cls-21" d="m471.03,305.92l-31.53,31.53c-3.18,3.18-8.33,3.18-11.51,0h0c-3.18-3.18-3.18-8.33,0-11.51l31.53-31.53c3.18-3.18,8.33-3.18,11.51,0h0c3.18,3.18,3.18,8.33,0,11.51Z"/>
            </g>
          </g>
          <g>
            <g>
              <circle class="cls-25" cx="560.51" cy="417.17" r="135.31"/>
              <circle class="cls-29" cx="560.51" cy="417.17" r="128.03"/>
              <circle class="cls-12" cx="560.51" cy="417.17" r="113.57"/>
            </g>
            <g class="cls-27">
              <g class="cls-22">
                <polygon class="cls-1" points="436.26 327.31 608.4 594.07 686.18 527.19 515.86 288.43 436.26 327.31"/>
                <polygon class="cls-1" points="528 263.05 700.14 529.81 710.15 496.37 539.83 257.61 528 263.05"/>
              </g>
            </g>
            <g>
              <g>
                <g>
                  <path class="cls-11" d="m561.08,329.19c-1.58,0-2.86-1.28-2.86-2.86v-6.71c0-1.58,1.28-2.86,2.86-2.86s2.86,1.28,2.86,2.86v6.71c0,1.58-1.28,2.86-2.86,2.86Z"/>
                  <path class="cls-11" d="m561.08,518.95c-1.58,0-2.86-1.28-2.86-2.86v-6.71c0-1.58,1.28-2.86,2.86-2.86s2.86,1.28,2.86,2.86v6.71c0,1.58-1.28,2.86-2.86,2.86Z"/>
                </g>
                <g>
                  <path class="cls-11" d="m496.36,355.99c-.73,0-1.46-.28-2.02-.84l-4.74-4.74c-1.12-1.11-1.12-2.93,0-4.04,1.12-1.12,2.92-1.12,4.04,0l4.74,4.74c1.12,1.11,1.12,2.93,0,4.04-.56.56-1.29.84-2.02.84Z"/>
                  <path class="cls-11" d="m630.54,490.17c-.73,0-1.46-.28-2.02-.84l-4.74-4.74c-1.12-1.11-1.12-2.93,0-4.04,1.12-1.12,2.92-1.12,4.04,0l4.74,4.74c1.12,1.11,1.12,2.93,0,4.04-.56.56-1.29.84-2.02.84Z"/>
                </g>
                <g>
                  <path class="cls-11" d="m491.62,490.17c-.73,0-1.46-.28-2.02-.84-1.12-1.11-1.12-2.93,0-4.04l4.74-4.74c1.12-1.12,2.92-1.12,4.04,0,1.12,1.11,1.12,2.93,0,4.04l-4.74,4.74c-.56.56-1.29.84-2.02.84Z"/>
                  <path class="cls-11" d="m625.8,355.99c-.73,0-1.46-.28-2.02-.84-1.12-1.11-1.12-2.93,0-4.04l4.74-4.74c1.12-1.12,2.92-1.12,4.04,0,1.12,1.12,1.12,2.93,0,4.04l-4.74,4.74c-.56.56-1.29.84-2.02.84Z"/>
                </g>
                <g>
                  <path class="cls-11" d="m469.55,420.71h-6.71c-1.58,0-2.86-1.28-2.86-2.86s1.28-2.86,2.86-2.86h6.71c1.58,0,2.86,1.28,2.86,2.86s-1.28,2.86-2.86,2.86Z"/>
                  <path class="cls-11" d="m659.31,420.71h-6.71c-1.58,0-2.86-1.28-2.86-2.86s1.28-2.86,2.86-2.86h6.71c1.58,0,2.86,1.28,2.86,2.86s-1.28,2.86-2.86,2.86Z"/>
                </g>
              </g>
              <g>
                <path class="cls-11" d="m567.9,416.78h-13.65v-59.19c0-3.77,3.06-6.83,6.83-6.83h0c3.77,0,6.83,3.06,6.83,6.83v59.19Z"/>
                <circle class="cls-15" cx="561.08" cy="416.78" r="15.66"/>
              </g>
            </g>
          </g>
        </g>
      </g>
      <g>
        <g>
          <g>
            <path class="cls-16" d="m155.46,268.86l24.73,109.05c1.51,10.4-2.5,20.83-10.45,27.19l-73.83,57.74,1.37-53.16,36.88-30.09-38.24-113.73,59.55,3Z"/>
            <g>
              <polygon class="cls-17" points="59.92 463.29 95.47 444.69 81.43 424.88 42.82 445.87 55.14 461.5 59.92 463.29"/>
              <g>
                <path class="cls-20" d="m51.46,437.54s6.01,22.02,23.3,20.79l6.67,52.46-51.04-64.72,21.06-8.53Z"/>
                <rect class="cls-1" x="11.65" y="476.94" width="82.42" height="7.78" transform="translate(397.69 141.59) rotate(51.74)"/>
                <path class="cls-2" d="m75.64,465.19s-3.99-1.28-9.94-1"/>
                <path class="cls-2" d="m77.11,472.86s-3.99-1.28-9.94-1"/>
                <path class="cls-2" d="m78.59,480.54s-3.99-1.28-9.94-1"/>
              </g>
            </g>
          </g>
          <g>
            <g>
              <polygon class="cls-17" points="91.65 527.53 95.25 488.1 71 486.86 67.39 530.18 87.29 530.18 91.65 527.53"/>
              <g>
                <path class="cls-20" d="m64.29,518.23s21.01,8.92,30.75-5.43l45.32,27.25H57.94l6.35-21.82Z"/>
                <rect class="cls-1" x="57.94" y="540.05" width="82.42" height="7.78"/>
                <path class="cls-2" d="m100.97,516.37s-3.47,2.34-6.94,7.19"/>
                <path class="cls-2" d="m107.91,519.96s-3.47,2.34-6.94,7.19"/>
                <path class="cls-2" d="m114.86,523.56s-3.47,2.34-6.94,7.19"/>
              </g>
            </g>
            <g>
              <polygon class="cls-19" points="73.81 266.19 62.69 496.19 104.88 496.19 135.61 266.94 73.81 266.19"/>
              <polygon class="cls-19" points="155.46 268.86 155.46 268.86 129.89 308.95 124.55 267.85 155.46 268.86"/>
            </g>
          </g>
        </g>
        <g>
          <g>
            <polygon class="cls-17" points="265.11 229.89 239.91 231.87 244.42 206.55 270.74 208.77 265.11 229.89"/>
            <g>
              <g>
                <path class="cls-17" d="m286.32,228.67c-7.41,6.35-18.56,5.49-24.91-1.92-6.35-7.41-5.49-18.56,1.92-24.91,7.41-6.35,18.56-5.49,24.91,1.92,6.35,7.41,5.49,18.56-1.92,24.91Z"/>
                <path class="cls-17" d="m275.74,197.62s-3.21-7.39-10.69-1.92c-7.48,5.47-14.12,16.68-3.64,31.04l14.33-29.13Z"/>
              </g>
              <path class="cls-17" d="m275.74,197.52l20.29-5.11c1.68-.55,3.56.36,4.13,2.01h0c.5,1.42-.14,2.94-1.52,3.59l-20.61,9.22-2.29-9.71Z"/>
            </g>
            <g>
              <path class="cls-23" d="m169.96,162.31l33.29,52.67c4.71,8.44,2.09,19.09-6.01,24.38h0c-8.49,5.55-19.86,3.19-25.44-5.28l-36.69-50.6c-5.33-8.09-4.24-18.81,2.61-25.66h0c9.58-9.57,25.65-7.33,32.25,4.49Z"/>
              <polygon class="cls-9" points="159.55 217.41 161.51 188.58 168.66 229.99 159.55 217.41"/>
            </g>
            <path class="cls-23" d="m185.97,209.71l73.29-8.61-.23,33.47-68.16,8.78c-10.75,2.08-20.64-6.38-20.24-17.33h0c.31-8.51,6.87-15.48,15.35-16.31Z"/>
          </g>
          <g>
            <g>
              <g>
                <path class="cls-17" d="m59.14,308.94s8.17.66,6.84-8.69c-1.34-9.34-8.23-20.67-26.15-18.14l19.31,26.82Z"/>
                <rect class="cls-23" y="301.58" width="82.26" height="82.26" transform="translate(82.26 685.41) rotate(180)"/>
                <rect class="cls-23" x="3.8" y="301.58" width="82.26" height="82.26" transform="translate(89.87 685.41) rotate(180)"/>
                <path class="cls-17" d="m26.17,303.58c-2.16-9.7,3.96-19.31,13.66-21.46,9.7-2.16,19.31,3.96,21.46,13.66,2.16,9.7-3.96,19.31-13.66,21.46-9.7,2.16-19.31-3.96-21.46-13.66Z"/>
              </g>
              <path class="cls-23" d="m61.29,214.26l-.81,73.79-32.32-1.52-.86-71.7c-.7-10.93,8.97-19.66,19.77-17.87h0c8.4,1.4,14.48,8.79,14.22,17.3Z"/>
            </g>
            <path class="cls-23" d="m102.81,183.36l-44.59,43.52c-7.28,6.36-18.24,6.01-25.1-.8h0c-7.19-7.15-7.25-18.76-.13-25.98l41.86-46.42c6.8-6.9,17.52-8.06,25.64-2.79h0c11.36,7.37,12.51,23.56,2.32,32.47Z"/>
          </g>
          <g>
            <path class="cls-23" d="m152.57,151.78l-63.41-4.17c-5.72-.38-15.91,10.01-15.31,15.7l-.04,102.88,81.65,2.67,8.29-104.43c.38-6.57-4.61-12.22-11.19-12.66Z"/>
            <polygon class="cls-9" points="73.81 211.66 92.23 193.69 73.82 242.36 73.81 211.66"/>
          </g>
        </g>
        <g>
          <path class="cls-28" d="m142.23,109.21c-.41,4.77,3.01,8.98,7.63,9.39,4.62.42,8.7-3.12,9.1-7.89.41-4.77-3.01-8.98-7.63-9.39-4.62-.42-8.7,3.12-9.1,7.89Z"/>
          <path class="cls-17" d="m137.36,129.56l-.39,20.71c-.12,7.27-4.53,11.07-11.46,10.87h0c-5.92-.17-12.37-3.16-11.99-9.57l2.13-32.56,21.71,10.55Z"/>
          <path class="cls-26" d="m137.15,143.34s-16.9,1.11-21.78-17.99c-1.54-6.01,22.07,2.09,22.07,2.09l-.29,15.9Z"/>
          <path class="cls-14" d="m131.03,135.48h0c11.83.25,21.77-9.2,22.3-19.16l1-20.86c.67-12.49-8.38-23.27-20.45-24.35h0c-12.36-1.11-25.42,8.14-26.51,20.9l-.58,16.26c-.54,14.64,10.11,25.94,24.25,27.21Z"/>
          <g>
            <polyline class="cls-5" points="141.02 107.17 141.58 113.99 138.65 114.05"/>
            <path class="cls-26" d="m128.2,93.36s4.85-.32,4.86,1.71c0,0-.03,1.38-4.26,1.58-4.23.2-5.33-.14-5.69-1.44-.36-1.3,2.81-1.87,5.08-1.85Z"/>
            <path class="cls-26" d="m148.44,98.15s-3.99-.5-4.35,1.41c0,0-.21,1.29,3.28,1.65,3.5.35,4.64-.08,4.99-1.12.4-1.18-2.02-1.87-3.92-1.93Z"/>
            <path class="cls-26" d="m145.39,105.9c-.06,1.16.81,2.15,1.93,2.2,1.12.06,2.08-.83,2.14-1.99.06-1.16-.81-2.15-1.93-2.2-1.12-.06-2.08.83-2.14,1.99Z"/>
            <path class="cls-26" d="m127.58,104.97c-.06,1.16.81,2.14,1.93,2.2,1.12.06,2.08-.83,2.14-1.99.06-1.16-.81-2.14-1.93-2.2-1.12-.06-2.08.83-2.14,1.99Z"/>
            <path class="cls-5" d="m132.48,117c.11.33,2.9,3.23,6.79,2.23"/>
          </g>
          <path class="cls-26" d="m149.46,60.98c-4.53-1.95-16.1-4.09-18.65,6.13-11.51-.88-29.82-.66-31.66,9.31-2.7,14.66,7.7,29.18,7.7,29.18l2.93,1.49s7.43-3.87,5.51-21.41c0,0,26.59,6.41,39.07-.34,12.48-6.75,8.7-18.52-4.91-24.37Z"/>
          <g>
            <path class="cls-14" d="m95.92,107.65c-.4,4.73,2.98,8.89,7.55,9.3,4.58.41,8.61-3.09,9.01-7.81.4-4.72-2.98-8.89-7.55-9.3-4.58-.41-8.61,3.09-9.01,7.81Z"/>
            <path class="cls-5" d="m106.86,110.7s.53-6.2-5.3-5.74"/>
          </g>
          <path class="cls-17" d="m105.51,148.68l37.95,2.5s1.2,13.08-15.68,12.18c-18.99-1.01-22.27-14.67-22.27-14.67Z"/>
        </g>
      </g>
      <g>
        <g>
          <g>
            <g>
              <polygon class="cls-17" points="742.91 472.28 705.5 454.83 718.99 433.81 759.67 453.57 747.74 470.21 742.91 472.28"/>
              <g>
                <path class="cls-20" d="m750.4,445.41s-5.14,22.91-22.97,22.46l-4.39,54.23,49.41-68.92-22.05-7.77Z"/>
                <rect class="cls-1" x="708.6" y="485.98" width="84.8" height="8.01" transform="translate(1586.79 165.12) rotate(125.64)"/>
                <path class="cls-4" d="m726.85,474.97s4.04-1.5,10.17-1.5"/>
                <path class="cls-4" d="m725.69,482.93s4.04-1.5,10.17-1.5"/>
                <path class="cls-4" d="m724.53,490.89s4.04-1.5,10.17-1.5"/>
              </g>
            </g>
            <path class="cls-24" d="m656.07,244.51s-24.45,91.23-28.05,109.22c-3.6,17.99-10.79,53.97,4.32,66.92,15.11,12.95,73.15,44.01,73.15,44.01l21.35-38.34-34.58-20.79-36.19-161.03Z"/>
          </g>
          <g>
            <g>
              <polygon class="cls-17" points="689.04 534.63 681.41 494.06 706.36 492.78 714 537.35 693.53 537.35 689.04 534.63"/>
              <g>
                <path class="cls-20" d="m715.23,525.06s-21.62,9.18-31.64-5.58l-46.63,28.03h84.8l-6.53-22.45Z"/>
                <rect class="cls-1" x="636.96" y="547.51" width="84.8" height="8.01" transform="translate(1358.72 1103.04) rotate(180)"/>
                <path class="cls-4" d="m677.49,523.15s3.57,2.41,7.14,7.39"/>
                <path class="cls-4" d="m670.35,526.84s3.57,2.41,7.14,7.39"/>
                <path class="cls-4" d="m663.2,530.54s3.57,2.41,7.14,7.39"/>
              </g>
            </g>
            <path class="cls-15" d="m656.07,244.51l-2.43,137.63c-.09,4.94.31,9.87,1.17,14.73l20.45,106.14h42.79l-11.94-119.71c.51-22.02,7.81-46.67,10.54-73.52,0,0,8.39-49.81-14.61-65.02l-45.98-.25Z"/>
          </g>
        </g>
        <g>
          <g>
            <g>
              <path class="cls-17" d="m628.69,225.62l-69.96-25.6-8.13,13.62,68.2,36.15c11.36,4.33,23.08-5.42,20.9-17.37h0c-1-5.49-5.75-4.93-11.01-6.8Z"/>
              <g>
                <path class="cls-17" d="m550.13,189.64c-1.24-1.33-3.21-1.94-4.89-1.52-2.28.57-3.2,2.8-1.97,4.83l1.01,1.66c-2.25.86-6.88,1.08-15.36-7.49-1.43-1.44-3.77-1.78-5.24-.76-1.14.8-1.42,2.19-.8,3.45.03.06.07.11.1.17-1.18-.38-2.47-.29-3.4.36-1.14.8-1.42,2.19-.8,3.45.08.17.18.33.29.49-.58.06-1.13.23-1.6.55-1.14.8-1.42,2.19-.8,3.45.17.35.42.69.73,1.01.11.11.22.21.33.32-.05.03-.11.05-.16.09-1.14.8-1.42,2.19-.8,3.45.17.35.42.69.73,1.01,2.34,2.36,4.66,4.33,6.94,5.91h0s.04.03.11.07c1.08.74,2.14,1.39,3.2,1.95,4.9,2.85,15.39.46,24.41,1.91l7.04-13.28-9.07-11.05Z"/>
                <rect class="cls-23" x="461.5" y="139.58" width="84.34" height="84.34" transform="translate(872.12 -206.78) rotate(113.64)"/>
                <path class="cls-17" d="m551.29,191.04l-6.86-7.99c-1.11-1.3-3.12-1.3-4.23,0h0c-.74.86-.89,2.08-.38,3.09l3.45,6.81s-2.95,9.26,4.08,17.29l3.93-19.19Z"/>
              </g>
            </g>
            <g>
              <path class="cls-17" d="m659.69,227.09l-25.47,20.34c-5.14,4.11-12.31,4.54-17.9,1.08h0c-7.88-4.86-12.7-9.35-7.02-16.67l27.98-28.37,22.42,23.62Z"/>
              <path class="cls-16" d="m679.42,202.74s-3.39,16.71-23.47,31.88l-30.97-29.24,25.06-27.93,29.38,25.29Z"/>
            </g>
          </g>
          <g>
            <g>
              <path class="cls-17" d="m727.76,224.82l53.85,67.93,12.19-8.07s-30.9-57.53-45.26-75.68c-7.54-9.53-22.64-7.03-26.82,4.38h0c-1.92,5.24,2.46,7.16,6.05,11.44Z"/>
              <path class="cls-17" d="m784.21,306.42c.44,1.71,1.84,3.15,3.47,3.58,2.22.58,4.03-.91,3.93-3.21l-.09-1.88c2.32.31,6.38,2.28,9.64,13.54.55,1.89,2.39,3.28,4.12,3.09,1.35-.15,2.23-1.21,2.29-2.57,0-.06,0-.13,0-.19.83.88,1.97,1.4,3.07,1.27,1.35-.15,2.23-1.21,2.29-2.57,0-.18,0-.36-.02-.55.52.22,1.08.33,1.62.27,1.35-.15,2.23-1.21,2.29-2.57.02-.38-.03-.79-.15-1.2-.04-.15-.09-.29-.13-.43.06,0,.12,0,.17,0,1.35-.15,2.23-1.21,2.29-2.57.02-.38-.03-.79-.15-1.2-.9-3.11-1.97-5.87-3.18-8.27h0s-.02-.04-.06-.11c-.57-1.13-1.19-2.18-1.82-3.15-2.86-4.71-12.93-7.55-19.96-12.99l-12.19,8.07,2.61,13.66Z"/>
            </g>
            <g>
              <path class="cls-17" d="m719.73,182.95l24.5,21.49c4.94,4.34,6.63,11.32,4.22,17.43h0c-3.4,8.61-6.97,14.14-15.18,9.84l-32.85-22.55,19.31-26.22Z"/>
              <path class="cls-19" d="m688.18,167.96s20.97.36,39.47,17.43l-16.69,31.03-32.81-11.38,10.02-37.08Z"/>
            </g>
          </g>
          <g>
            <path class="cls-19" d="m661.63,169.81s-20.37,5.63-20.43,32.93c-.04,14.91,14.88,41.77,14.88,41.77l45.98.25s6.75-18.73,10.79-35.66c4.04-16.93-8.9-33.02-24.66-41.14l-26.56,1.85Z"/>
            <polygon class="cls-16" points="710.97 216.41 692.93 203.47 706.84 230.42 710.97 216.41"/>
          </g>
        </g>
        <g>
          <g>
            <g>
              <path class="cls-14" d="m673.22,178.55h0c6.38-.95,8.64-5.22,7.69-11.6l-7.09-36.55-19.24,3.08,5.37,35.25c.95,6.38,6.89,10.78,13.27,9.83Z"/>
              <path class="cls-13" d="m669.42,137.63s6.24,19.49-10.3,26.11l-1.53-11.63,16.99-12.85"/>
            </g>
            <g>
              <path class="cls-14" d="m655.16,154.62h0c12.01-1.14,20.93-10.75,19.91-21.47l-3.32-35.11-20.25.06c-7.46.71-17.74,10.61-17.1,17.27l3.53,21.8c.74,7.79,7.14,18.41,17.24,17.46Z"/>
              <path class="cls-14" d="m638.86,124.42l-4.61,11.76c-.75,1.21.28,2.68,1.77,2.54l7.92-.74-5.09-13.56Z"/>
            </g>
          </g>
          <g>
            <path class="cls-26" d="m642.89,118.96s-4.32.12-4.16,1.92c0,0,.14,1.22,3.9,1.04,3.76-.18,4.7-.57,4.91-1.75.21-1.18-2.64-1.42-4.65-1.21Z"/>
            <path class="cls-26" d="m643.12,127.47c.15,1.02-.53,1.96-1.52,2.11-.99.15-1.91-.56-2.06-1.58-.15-1.02.53-1.96,1.52-2.11.99-.15,1.91.56,2.06,1.58Z"/>
            <path class="cls-5" d="m641.74,141.16s3.01,0,4.41-3.53"/>
          </g>
          <path class="cls-14" d="m675.15,165.87l13.03,2.08s-13.69,22.18-27.17,16.86c-15.54-6.14,5.06-17.8,5.06-17.8l9.07-1.15Z"/>
          <path class="cls-13" d="m669.68,126.02c-10.17-2.6-12.11-12.14-12.11-12.14l-26.94,5.32s-4.17-26.83,28.07-31.89c16.17-2.54,26.49,5.28,31.94,13.09,5.19,7.44,5.7,17.19,2.07,25.5-2.57,5.9-9.19,14.16-16.41,17.93l-2.49-13.43s-2.33-3.92-4.14-4.38Z"/>
          <g>
            <path class="cls-14" d="m682.6,124.08c-.04,4.78-3.84,8.64-8.47,8.62-4.63-.02-8.35-3.92-8.31-8.7.04-4.78,3.84-8.64,8.47-8.62,4.63.02,8.35,3.92,8.31,8.7Z"/>
            <path class="cls-6" d="m671.33,126.11s.06-6.28,5.87-5.26"/>
          </g>
          <path class="cls-13" d="m725.48,89.68c1.93,11.41-5.76,22.21-17.17,24.14-11.41,1.93-22.21-5.76-24.14-17.17-1.93-11.41,5.76-22.21,17.17-24.14,11.41-1.93,22.21,5.76,24.14,17.17Z"/>
        </g>
      </g>
    </g>
  </g>
</svg>