<?xml version="1.0" encoding="UTF-8"?>
<svg id="Camada_2" data-name="Camada 2" xmlns="http://www.w3.org/2000/svg" viewBox="0 0 715.11 745.94">
  <defs>
    <style>
      .cls-1, .cls-2 {
        fill: #fff;
      }

      .cls-3 {
        fill: #fafafa;
      }

      .cls-4 {
        fill: #c78976;
      }

      .cls-5, .cls-2 {
        opacity: .2;
      }

      .cls-6 {
        fill: #ffc19d;
      }

      .cls-7 {
        fill: #ff9c6a;
      }

      .cls-8 {
        fill: #375a64;
      }

      .cls-9 {
        fill: #ffd110;
      }

      .cls-10 {
        fill: #ff4f5b;
      }

      .cls-11 {
        fill: #b66955;
      }

      .cls-12 {
        fill: #1a2e35;
      }
    </style>
  </defs>
  <g id="Camada_1-2" data-name="Camada 1">
    <g>
      <g>
        <circle class="cls-9" cx="596.32" cy="299.74" r="118.79" transform="translate(-37.29 509.45) rotate(-45)"/>
        <path class="cls-9" d="m449.53,613.96c-2.82,71.44-55.43,130.56-126.92,131.95-71.49,1.39-130.56-55.43-131.95-126.92-1.39-71.49,55.63-137.44,126.92-131.95,76.04,5.85,134.53,61.74,131.95,126.92Z"/>
        <circle class="cls-9" cx="121.12" cy="186.72" r="121.12" transform="translate(-96.55 140.34) rotate(-45)"/>
        <path class="cls-9" d="m580.98,327.74c1.88,1.73-44.02,54.56-102.51,117.97-58.51,63.44-107.44,113.44-109.32,111.71-1.88-1.73,44.01-54.55,102.52-117.98,58.49-63.42,107.43-113.43,109.31-111.7Z"/>
        <path class="cls-9" d="m556.64,241.61c-.54,2.5-81.43-12.98-180.64-34.56-99.24-21.59-179.23-41.12-178.68-43.62.54-2.5,81.41,12.97,180.65,34.57,99.21,21.59,179.21,41.11,178.67,43.61Z"/>
        <path class="cls-9" d="m261.77,534.2c-1.06.66-13.64-17.33-32.69-47.24-19.06-29.9-44.48-71.79-71.25-118.8-26.77-47.04-49.8-90.29-65.78-121.94-15.99-31.65-25.03-51.65-23.93-52.23,1.16-.6,12.25,18.32,29.7,49.14,17.43,30.85,41.48,73.42,68.06,120.45,26.86,46.85,51.18,89.26,68.81,120,17.59,30.74,28.2,49.94,27.09,50.63Z"/>
      </g>
      <g>
        <path class="cls-12" d="m640.9,135.99c.62,10.15,1.32,13.23,5.08,21.32,2.23,4.8,5.37,9.25,6.61,14.39,1.18,4.89.54,10.05,1.44,15,1.47,8.08,6.83,14.79,10.85,21.95,4.02,7.16,6.74,16.22,2.74,23.39l-41.14-4.86-2.9-51.08,17.31-40.11Z"/>
        <path class="cls-12" d="m559.11,118.67c-5.33,11.3,2.08,22.6-3.25,33.9-2.64,5.6-5.3,11.25-6.71,17.28-1.27,5.43-1.52,11.15-3.74,16.27-3.53,8.16-11.54,13.68-15.25,21.75-5.5,11.97.34,26.96,10.85,34.9,10.51,7.94,24.46,9.92,37.6,9,7.96-.56,16.04-2.15,22.89-6.24,6.85-4.09,12.35-11.02,13.22-18.95"/>
        <path class="cls-12" d="m620.11,98.56c26.48,11.74,31.74,55.22,31.87,61.08.16,6.98,3.88,8.43,8.52,12.08,4.64,3.65,9.14,8.07,10.42,13.74,1.01,4.46-.05,9.39,2.09,13.46,2.55,4.86,8.59,6.66,13.27,9.66,8.85,5.67,13.22,16.33,13.71,26.63.49,10.29-2.34,20.43-5.15,30.37-1.11,3.94-2.5,8.25-6.07,10.4-2.75,1.66-6.2,1.64-9.44,1.57-16.76-.37-33.52-.75-50.28-1.12-12.82-.29-25.99-.64-37.84-5.41-9.63-3.87-18.08-10.71-23.24-19.51-5.16-8.8-6.9-19.57-4.19-29.35,2.09-7.54,6.67-14.36,7.99-22.06,1.64-9.54-6.36-13.62-9.26-22.88-2.9-9.25-5.3-31.45-1.32-40.32"/>
        <path class="cls-10" d="m650.38,338.31l-8.27-26.5-1.21,40.46s10.73,27.64,18.89,48.77c-16.4,9.79-35.29,15.95-55.67,17.24-25.34,1.6-49.37-4.54-69.81-16.36l12.73-45.75-6.07-51.75-16.8,24.02-35.84-34.64s26.23-48.47,29.49-52.89c20.74-28.2,56.57-27.52,56.57-27.52l50.69,2.81s28.51-1.6,47.23,20.96c0,0,18.3,27.93,33.33,96.87l-55.29,4.28Z"/>
        <path class="cls-3" d="m675.73,244.74s-.25.05-.74.12c-.48.08-1.22.1-2.16.29-1.89.29-4.67.93-8.04,2.32-3.33,1.43-7.3,3.66-11.05,7.25-1.87,1.79-3.69,3.91-5.28,6.39-1.55,2.48-3.08,5.28-3.68,8.47-.29,1.58-.31,3.27.16,4.87.48,1.58,1.51,3.05,2.92,4.05,1.39,1.01,3.27,1.43,4.92.77,1.65-.62,2.87-2.2,3.41-3.97.56-1.79.47-3.78-.39-5.53-.82-1.76-2.21-3.27-3.85-4.48-3.3-2.41-7.43-3.9-11.74-4.37-4.33-.49-8.86,0-13.3,1.18-4.42,1.21-8.89,2.88-12.95,5.41-4.04,2.53-7.89,5.72-10.72,9.76-1.36,2.02-2.5,4.32-2.56,6.74-.02,1.2.26,2.39.9,3.41.63,1.02,1.55,1.86,2.59,2.54l-.08-.04c1.18.44,2.49.63,3.62.15,1.14-.46,2-1.52,2.58-2.71,1.16-2.43,1.49-5.3,1.5-8.11-.03-2.77-.35-5.58-1.33-8.11-.96-2.54-2.56-4.81-4.5-6.67-3.9-3.74-9.08-5.91-14.29-6.44-5.23-.57-10.46.25-15.31,1.72-4.81,1.48-9.64,3.45-12.73,7.13-1.47,1.82-2.56,4.08-2.27,6.34.24,2.24,1.38,4.41,3.1,5.78.85.68,1.86,1.16,2.91,1.27,1.04.11,2.1-.16,2.99-.72,1.82-1.12,2.65-3.29,2.83-5.37.2-2.1-.09-4.23-.69-6.19-.32-.98-.75-1.93-1.11-2.88-.2-.47-.35-.96-.58-1.41l-.72-1.33c-1.8-3.58-4.29-6.59-6.88-9.17-5.3-5.11-11.3-8.38-16.88-10.11-5.58-1.75-10.69-2.24-14.8-1.96-4.12.27-7.25,1.05-9.32,1.72-.99.36-1.77.64-2.33.84-.53.18-.81.26-.81.26,0,0,.25-.13.77-.34.56-.22,1.32-.53,2.31-.93,2.05-.73,5.2-1.58,9.35-1.91,4.15-.33,9.32.1,14.98,1.83,5.66,1.7,11.77,4.97,17.18,10.13,2.65,2.61,5.2,5.66,7.06,9.31l.74,1.35c.23.46.4.95.6,1.43.38.97.81,1.93,1.15,2.94.63,2.05.94,4.25.74,6.49-.19,2.19-1.07,4.65-3.18,5.96-1.01.64-2.27.98-3.5.85-1.23-.12-2.38-.67-3.34-1.43-1.91-1.53-3.14-3.85-3.42-6.34-.15-1.24.05-2.57.53-3.72.45-1.17,1.11-2.27,1.92-3.24,3.3-3.93,8.26-5.91,13.13-7.43,4.93-1.5,10.27-2.36,15.67-1.78,5.38.54,10.76,2.77,14.83,6.68,2.03,1.94,3.71,4.32,4.73,7,1.04,2.69,1.36,5.57,1.39,8.44-.02,2.9-.33,5.86-1.6,8.52-.63,1.3-1.63,2.56-3.06,3.15-1.44.61-3.01.34-4.3-.15l-.04-.02-.04-.03c-1.12-.73-2.15-1.66-2.88-2.83-.74-1.16-1.06-2.56-1.04-3.9.07-2.72,1.31-5.14,2.73-7.24,2.95-4.19,6.87-7.42,11-10,4.17-2.58,8.7-4.26,13.2-5.48,4.52-1.19,9.15-1.69,13.61-1.17,4.45.5,8.68,2.04,12.12,4.56,1.71,1.27,3.19,2.87,4.07,4.78.93,1.9,1.03,4.14.4,6.07-.6,1.93-1.95,3.7-3.86,4.41-1.91.75-4.05.23-5.56-.88-1.54-1.1-2.64-2.69-3.15-4.42-.5-1.73-.46-3.52-.15-5.17.65-3.33,2.22-6.15,3.82-8.66,1.64-2.51,3.5-4.64,5.41-6.44,3.84-3.61,7.87-5.82,11.26-7.21,3.42-1.35,6.23-1.94,8.14-2.18,1.91-.24,2.92-.24,2.92-.24Z"/>
        <path class="cls-3" d="m697.21,302.68c.05.11-1.78.52-4.6,2.22-2.78,1.66-6.6,4.86-9.09,10.18-.63,1.31-1.1,2.78-1.46,4.32-.39,1.54-.5,3.19-.01,4.78.24.78.66,1.51,1.29,1.96.64.42,1.5.55,2.24.25,1.52-.64,2.53-2.42,2.71-4.24.49-3.7-1.75-7.82-5.41-9.6-3.68-1.81-8.48-1.3-12.08,1.14-3.65,2.46-5.91,6.48-6.84,10.5-.46,1.99-.51,4.13.48,5.76.94,1.63,2.95,2.59,4.57,1.8,1.63-.73,2.61-2.51,2.59-4.24.03-1.75-.65-3.43-1.53-4.86-1.79-2.89-4.5-4.83-7.21-5.81-2.73-.99-5.45-1.01-7.69-.46-2.25.54-4.04,1.51-5.35,2.48-2.63,1.98-3.45,3.72-3.55,3.63-.01,0,.04-.11.15-.31.11-.19.27-.49.53-.84.5-.72,1.33-1.73,2.65-2.77,1.3-1.05,3.13-2.09,5.44-2.7,2.31-.61,5.16-.65,8.03.35,2.85.98,5.72,2.98,7.65,6.02.94,1.5,1.7,3.29,1.69,5.28.03,1.96-1.07,4.09-3.06,5-.98.46-2.21.48-3.23.04-1.03-.43-1.86-1.22-2.44-2.16-1.18-1.95-1.08-4.32-.61-6.42.96-4.22,3.32-8.44,7.21-11.07,3.86-2.61,8.98-3.16,13-1.18,4,1.99,6.4,6.42,5.85,10.53-.23,2.01-1.3,4.07-3.26,4.89-.99.4-2.14.23-2.99-.36-.84-.61-1.31-1.51-1.57-2.39-.53-1.76-.37-3.59.05-5.16.39-1.59.9-3.09,1.57-4.44,2.64-5.44,6.62-8.62,9.5-10.22,2.92-1.63,4.78-1.91,4.78-1.91Z"/>
        <path class="cls-3" d="m641.11,328.26s-.15-.01-.44-.08c-.34-.08-.75-.19-1.27-.31-1.12-.24-2.77-.62-4.93-.83-4.27-.45-10.77-.39-17.98,2.51-1.79.71-3.61,1.63-5.4,2.74-1.76,1.13-3.49,2.52-4.7,4.38-1.23,1.84-1.72,4.23-.9,6.43.39,1.08,1.05,2.1,1.99,2.77.92.69,2.14.94,3.29.71,2.32-.51,4.25-2.75,4.57-5.24.36-2.55-.61-5.21-2.06-7.51-2.95-4.63-7.89-8.22-13.55-9.62-5.68-1.42-11.68-.31-16.42,2.47-2.36,1.38-4.51,3.17-6.05,5.25-.72,1.07-1.3,2.25-1.57,3.48-.29,1.21-.27,2.5.29,3.51.53,1.03,1.6,1.71,2.72,1.81,1.13.09,2.3-.29,3.23-.94,1.97-1.27,2.59-3.73,2.39-5.9-.19-2.21-1.05-4.27-2.07-6.08-1.07-1.79-2.31-3.39-3.71-4.71-2.79-2.65-5.96-4.31-8.85-5.29-2.91-.99-5.58-1.26-7.74-1.21-4.35.09-6.6,1.24-6.63,1.07,0-.01.13-.08.41-.18.33-.12.74-.26,1.24-.44,1.1-.33,2.78-.72,4.97-.81,2.19-.11,4.92.12,7.91,1.08,2.97.96,6.23,2.61,9.14,5.31,1.46,1.34,2.76,2.98,3.88,4.83,1.08,1.87,2,3.99,2.22,6.37.11,1.18.01,2.43-.4,3.61-.4,1.19-1.23,2.29-2.3,3.02-1.06.74-2.39,1.2-3.77,1.1-1.38-.12-2.73-.96-3.39-2.23-.7-1.27-.7-2.78-.39-4.11.3-1.36.91-2.62,1.69-3.79,1.67-2.27,3.86-4.07,6.32-5.53,4.92-2.89,11.17-4.07,17.1-2.58,5.9,1.46,11.02,5.19,14.09,10.03,1.51,2.41,2.57,5.25,2.17,8.11-.4,2.85-2.52,5.34-5.28,5.96-1.38.27-2.86-.05-3.95-.87-1.11-.8-1.84-1.97-2.27-3.18-.42-1.22-.55-2.51-.34-3.75.19-1.26.73-2.36,1.36-3.37,1.32-1.99,3.14-3.42,4.96-4.57,1.84-1.13,3.7-2.03,5.53-2.74,7.38-2.88,13.96-2.82,18.27-2.26,4.36.57,6.6,1.58,6.6,1.58Z"/>
        <path class="cls-6" d="m442.46,180.03c3.69.19,2.64,20.3,5.37,16.04,2.73-4.25-1.57-24.66,2.28-24.3,5.01.47,3.52,21.51,3.53,23.29,0,1.74,2.59,1.77,2.5.16-.13-2.31-.91-26.67,4.02-26.26,2.73.23,1.74,5.11,1.74,5.11,0,0-.95,22.89,1.38,23.01,2.37.12,3.38-13.31,3.4-17.86.02-4.49,2.17-6.36,4.15-4.75,1.35,1.1,1.61,15.01,1.49,19.51-.13,4.5-.69,16.83,4.53,10.85,5.22-5.98,11.44-8.67,13.59-8.24,2.16.43,2.27,3.61.03,4.63-1.8.83-4.4,3.14-6.29,4.95-1.55,1.49-2.66,3.34-3.84,5.14-1.25,1.92-1.73,3.15-2.75,6.37l6.99,83.84,5.14-6.41,29.3,28.32-15.29,17.59c-11.2,12.89-31.46,13.72-42.85.99-.41-.46-.81-.94-1.2-1.43-2.84-3.63-4.36-8.13-4.75-12.72l-9.68-108.7h-.09c-.21-12.08-3.49-21.26-4.06-27.49-1.06-11.59-.02-11.73,1.35-11.65Z"/>
        <g>
          <g>
            <path class="cls-6" d="m577.89,224.84c.11-12.64-.01-25.95-.01-25.95,0,0-16.25-2.89-19.38-24.18-2.98-20.3,2.08-63.97,2.08-63.97h0c23.55-9.29,50.07-5.7,66.56,13.26h0l-2.56,102.67c-.3,11.92-10.78,21.16-23.54,20.74h0c-12.89-.42-23.24-10.52-23.14-22.56Z"/>
            <g>
              <path class="cls-12" d="m565,144.27c-.07,1.44,1.09,2.68,2.6,2.78,1.5.1,2.77-.99,2.84-2.42.07-1.44-1.09-2.68-2.59-2.78-1.5-.1-2.77.99-2.84,2.43Z"/>
              <path class="cls-12" d="m560.61,141.16c.33.36,2.42-1.14,5.35-1.1,2.93,0,5.06,1.53,5.39,1.18.16-.16-.18-.8-1.11-1.5-.91-.69-2.48-1.37-4.31-1.38-1.83-.01-3.37.64-4.26,1.32-.91.68-1.22,1.32-1.06,1.48Z"/>
            </g>
            <g>
              <path class="cls-12" d="m595.01,145.13c-.07,1.44,1.1,2.68,2.6,2.78,1.5.1,2.77-.99,2.84-2.42.07-1.44-1.09-2.68-2.59-2.78-1.5-.1-2.77.99-2.84,2.43Z"/>
              <path class="cls-12" d="m591.2,142.58c.33.36,2.42-1.14,5.35-1.1,2.93,0,5.06,1.53,5.39,1.18.16-.16-.18-.8-1.11-1.5-.91-.69-2.48-1.37-4.31-1.38-1.83-.01-3.37.64-4.26,1.32-.91.68-1.22,1.32-1.06,1.48Z"/>
            </g>
            <path class="cls-12" d="m580.31,164.21c.02-.17-1.8-.5-4.75-.91-.75-.09-1.45-.24-1.58-.76-.17-.54.15-1.35.53-2.21.72-1.8,1.48-3.69,2.28-5.68,3.17-8.08,5.47-14.73,5.15-14.86-.33-.12-3.16,6.33-6.33,14.41-.76,1.99-1.49,3.89-2.19,5.71-.29.85-.79,1.81-.42,2.93.19.56.74.97,1.22,1.11.48.15.9.16,1.27.19,2.97.19,4.81.23,4.83.06Z"/>
            <path class="cls-7" d="m577.88,198.88s14.28,1.09,28.54-7.26c0,0-7.07,14.52-28.32,12.28l-.23-5.02Z"/>
            <path class="cls-7" d="m581.46,171.29c1.07-1.38,2.93-2.13,4.76-1.91,1.27.15,2.55.78,3.31,1.83.76,1.04.91,2.52.19,3.5-.8,1.1-2.46,1.34-3.86.93-1.4-.41-2.59-1.35-3.72-2.28-.31-.26-.63-.53-.83-.88-.19-.35-.23-.81.02-1.09"/>
            <path class="cls-12" d="m588.91,166.33c-.48-.03-.52,3.15-3.27,5.38-2.75,2.24-6.13,1.84-6.16,2.28-.05.2.75.63,2.18.68,1.4.06,3.46-.36,5.14-1.73,1.68-1.37,2.41-3.21,2.54-4.51.14-1.33-.21-2.12-.43-2.11Z"/>
          </g>
          <path class="cls-12" d="m617.91,108.83c-7.77,11.09-28.36,22.49-43.1,25.14,1.72-2.27,10.78-7.85,12.5-10.11-6.68,4.99-16.24,11.66-25.11,12.11-1.05.05-2.18.05-3.05-.47-1.18-.72-1.41-2.11-1.55-3.34-.57-5.19-.21-14.1.61-19.26.83-5.15,3.19-10.28,7.67-13.74,5.68-4.39,13.81-5.47,21.47-5.65,6.42-.15,13.04.23,18.91,2.54,5.87,2.32,10.89,6.9,11.75,12.41"/>
          <path class="cls-12" d="m640.2,158.51c1.07-5.5,1.92-10.72,2.12-14.2.63-10.97-2.54-51.44-40.35-48.18l9.1,11.61s-7.47,24.53,8.44,41.45c0,0,.9,9.9,11.98,21.32,0,0,6.41-.19,8.71-12"/>
          <path class="cls-6" d="m619.06,147.34c2.28-.41,4.68-.32,6.83.52,2.16.84,4.04,2.47,4.95,4.6.91,2.13.79,4.62-.02,6.79-.81,2.17-2.27,4.06-3.94,5.67-1.2,1.16-2.56,2.21-4.16,2.69-1.6.48-3.46.3-4.72-.79"/>
          <path class="cls-7" d="m620.16,161.13c-.26.08.71,1.47,2.79.93,1-.25,1.99-1.12,2.59-2.21.61-1.11,1.01-2.33,1.17-3.76.16-1.42-.15-2.93-.91-4.01-.73-1.1-1.94-1.76-2.97-1.8-2.14-.07-2.82,1.4-2.57,1.45.17.17,1.01-.58,2.4-.23,1.34.26,2.63,2.12,2.32,4.42-.28,2.34-1.2,4.46-2.45,4.98-1.3.64-2.23.04-2.37.23Z"/>
        </g>
        <g>
          <polygon class="cls-12" points="645.72 364.74 645.72 355.03 577.38 355.03 557.31 267.18 455.04 268.02 479.84 364.74 645.72 364.74"/>
          <path class="cls-3" d="m503.5,316.02c1.51,4.65,5.63,7.48,9.19,6.33,3.56-1.16,5.23-5.87,3.71-10.52-1.51-4.65-5.63-7.48-9.19-6.33s-5.23,5.87-3.71,10.52Z"/>
        </g>
        <path class="cls-6" d="m552.63,364.14c-1.71-3.28-3.16-6.7-4.27-10.23-.27-.84-.52-1.72-.4-2.6.12-.88.7-1.75,1.57-1.92,1.59-.32,2.58,1.61,3.21,3.11,2.32,5.6,7.49,9.91,13.41,11.26l4.14-.12.02-.17,89.39-7.97-4.26-17.73,47.32-3.52,4.31,17.46c2.33,21.81-15.22,40.61-37.14,39.78l-102.58.03c-32.63,2.14-38.76-26.7-38.76-26.7l24.04-.67Z"/>
      </g>
      <g>
        <g>
          <path class="cls-4" d="m433.78,650.74l-40.4,24.93,14.82,35.66c13.66-12.69,24.55-28.29,31.73-45.78l-6.14-14.81Z"/>
          <g>
            <path class="cls-10" d="m444.74,651.56c-5.22-12.5-23.14-53.78-38.14-69.21-22.46-23.1-61.99-19.99-61.99-19.99l-51.35,1.82s-19.53,2.14-37.83,11.7l-1.26.39.02.26c-14.37,7.81-34.73,26.52-54.12,44.69l23.2,21.53,25.68,22.8s-.1.16-.04.46c.27,1.38-4.17,28.96-8.1,52.79,22.56,17.5,51.03,27.7,81.81,27.1,19.6-.38,38.08-5.11,54.58-13.22l1.92-22.03c1.75-19.97,3.08-44.7,3.08-44.7l7.38,18.7,53.57-27.86c.57-1.73,1.1-3.48,1.6-5.25Z"/>
            <path class="cls-12" d="m346.03,560.41s.11.31.23.92c.14.61.25,1.51.34,2.69.16,2.35-.03,5.82-1.33,9.86-1.32,4-3.86,8.58-8.12,12.29-4.22,3.74-10.25,6.2-16.74,6.52-6.49.28-12.73-1.59-17.28-4.92-4.6-3.29-7.55-7.61-9.25-11.47-1.67-3.9-2.19-7.34-2.26-9.69-.02-1.18,0-2.09.08-2.71.06-.62.11-.94.14-.93.11,0-.04,1.3.14,3.62.17,2.31.78,5.67,2.5,9.44,1.74,3.73,4.67,7.89,9.14,11.04,4.42,3.18,10.46,4.97,16.75,4.7,6.28-.32,12.12-2.66,16.23-6.25,4.16-3.55,6.68-7.97,8.06-11.85,1.34-3.92,1.63-7.32,1.59-9.64-.04-2.33-.31-3.6-.21-3.62Z"/>
            <path class="cls-12" d="m394.93,571.55c.01.11-1.37.06-3.64.86-2.26.76-5.35,2.63-7.96,6.03-2.66,3.37-4.38,8.34-5.05,13.98-.36,2.82-.51,5.82-.62,8.94-.13,3.11-.18,6.34-.22,9.64-.1,13.23.68,25.19,1.52,33.81.4,4.32.83,7.8,1.1,10.21.13,1.12.23,2.04.32,2.78.06.64.08.97.05.98-.03,0-.11-.32-.23-.95-.13-.73-.29-1.64-.49-2.75-.38-2.4-.91-5.87-1.4-10.19-1.01-8.63-1.9-20.62-1.8-33.89.04-3.31.1-6.55.24-9.67.12-3.12.29-6.14.68-9.01.73-5.72,2.56-10.84,5.38-14.27,2.76-3.46,6.01-5.3,8.36-5.97,2.36-.71,3.75-.52,3.75-.52Z"/>
            <path class="cls-12" d="m272.71,568.22s-.05.35-.22,1c-.21.74-.48,1.67-.8,2.81-.75,2.56-1.77,6.05-3.01,10.31-2.52,8.71-5.84,20.79-9.09,34.23-3.24,13.45-5.8,25.71-7.53,34.61-.84,4.36-1.52,7.93-2.03,10.55-.23,1.16-.42,2.11-.57,2.87-.14.65-.23.99-.26.99-.03,0,0-.36.08-1.02.11-.76.24-1.72.4-2.89.36-2.51.95-6.14,1.74-10.61,1.57-8.94,4.03-21.24,7.28-34.71,3.26-13.46,6.69-25.53,9.37-34.2,1.34-4.34,2.47-7.83,3.29-10.23.39-1.12.71-2.03.97-2.76.23-.63.37-.95.4-.94Z"/>
            <path class="cls-12" d="m443.73,642.98c.03.05-.71.61-2.09,1.56-1.38.96-3.4,2.3-5.93,3.93-5.04,3.26-12.11,7.62-20.06,12.18-7.96,4.56-15.29,8.45-20.65,11.15-2.68,1.35-4.86,2.42-6.39,3.12-1.52.71-2.38,1.07-2.41,1.02-.03-.06.77-.53,2.24-1.34,1.63-.88,3.73-2.02,6.25-3.38,5.28-2.85,12.55-6.82,20.49-11.37,7.94-4.55,15.04-8.82,20.17-11.93,2.45-1.49,4.5-2.72,6.08-3.68,1.44-.86,2.25-1.31,2.29-1.26Z"/>
            <path class="cls-12" d="m251.61,650.78c-.16.2-10.26-7.76-22.55-17.77-12.29-10.02-22.13-18.3-21.97-18.49s10.26,7.76,22.55,17.78c12.29,10.01,22.13,18.29,21.96,18.49Z"/>
            <path class="cls-5" d="m376.95,614.64l20.1,66.13-7.48,3.89-7.38-18.7s-7.58-39.29-5.25-51.32Z"/>
            <g class="cls-5">
              <path d="m274.89,568.26c-10.84,5.71,16.32,19.46,28.59,19.09l-8.91-23.5s-16.04,2.49-19.68,4.41Z"/>
            </g>
            <polygon class="cls-2" points="344.04 664.15 279.7 664.39 283.93 640.71 348.8 639.45 344.04 664.15"/>
          </g>
          <g>
            <path class="cls-12" d="m337.88,484.12c-.5,1.78.15,3.83,1.59,4.99,1.44,1.16,3.58,1.37,5.22.5,3.1-1.65,3.42-5.98,2.73-9.43-.68-3.45-1.93-7.12-.54-10.35,1.06-2.47,3.44-4.07,5.28-6.03,3.2-3.42,4.85-8.35,3.96-12.95-.88-4.6-4.43-8.69-8.97-9.86-4.63-1.2-10.28.33-13.78-2.94-2.53-2.37-2.76-6.33-4.74-9.17-3.07-4.42-9.4-5.01-14.72-4.18-5.32.83-10.71,2.65-15.96,1.45-4.38-1-8.02-3.98-12.15-5.77-8.94-3.88-20.22-1.47-26.79,5.74-6.57,7.2-7.94,18.66-3.25,27.2,1.68,3.07,4.18,5.84,7.45,7.09"/>
            <g>
              <g>
                <g>
                  <path class="cls-4" d="m319.23,592.16h0c-14.13.02-25.79-10.96-26.49-24.95-.58-11.65-1.07-22.87-1.07-22.87,0,0-21.64-1.57-23.63-22.72-2-21.15-2.27-70.06-2.27-70.06h0c23.87-12.53,52.7-11.28,75.36,3.27l2.06,1.32,2.5,109.46c.16,14.6-11.73,26.53-26.46,26.55Z"/>
                  <g>
                    <path class="cls-12" d="m306.81,484.09c-1.63.54-2.52,2.28-1.97,3.9.54,1.62,2.3,2.49,3.93,1.96,1.63-.54,2.52-2.28,1.97-3.9-.54-1.62-2.3-2.49-3.93-1.96Z"/>
                    <path class="cls-12" d="m300.88,485.19c.36.35,2.36-1.38,5.31-1.57,2.94-.23,5.18,1.19,5.48.8.15-.18-.22-.82-1.2-1.47-.96-.64-2.57-1.23-4.41-1.09-1.83.13-3.35.93-4.2,1.71-.87.78-1.15,1.47-.98,1.62Z"/>
                  </g>
                  <g>
                    <path class="cls-12" d="m274.52,484.09c-1.63.54-2.52,2.28-1.97,3.9s2.3,2.49,3.93,1.96c1.63-.54,2.52-2.28,1.97-3.9-.54-1.62-2.3-2.49-3.93-1.96Z"/>
                    <path class="cls-12" d="m268.2,485.25c.36.35,2.36-1.38,5.31-1.57,2.94-.23,5.18,1.19,5.48.8.15-.18-.22-.82-1.2-1.47-.96-.64-2.57-1.23-4.41-1.09-1.83.13-3.35.93-4.2,1.71-.87.78-1.15,1.47-.98,1.62Z"/>
                  </g>
                  <path class="cls-12" d="m290.42,508.12c0-.23-1.85-.45-4.84-.62-.78-.02-1.39-.14-1.48-.55-.18-.45.06-1.29.37-2.23.6-1.99,1.21-4,1.84-6.11,2.52-8.7,4.21-15.86,3.76-15.98-.45-.13-2.85,6.82-5.38,15.52-.59,2.12-1.16,4.15-1.72,6.15-.21.9-.66,1.98-.16,3.2.26.61.91,1.02,1.43,1.11.52.11.96.08,1.33.06,2.99-.13,4.85-.33,4.85-.56Z"/>
                  <path class="cls-1" d="m300.24,510.57c-5.9,2.86-8.64,3.74-14.09,5.32,0,0,3.88,5.16,9.86,2.43,6.2-2.84,4.23-7.75,4.23-7.75Z"/>
                  <path class="cls-11" d="m291.6,544.03s13.59,0,27.21-10.09c0,0-5.34,15.77-26.81,15.58l-.4-5.49Z"/>
                </g>
                <g>
                  <path class="cls-4" d="m343.7,477.54c-.02-1.71,1.3-3.19,3.02-3.27,3.99-.19,10.55,1.26,11.37,12.16,1.18,15.58-14.03,11.98-14.09,11.54-.05-.35-.23-14.37-.31-20.43Z"/>
                  <path class="cls-11" d="m347.36,491.77c.07-.05.29.17.77.35.47.17,1.25.25,2.05-.11,1.61-.73,2.81-3.45,2.68-6.26-.07-1.42-.47-2.75-1.06-3.83-.57-1.1-1.37-1.84-2.22-1.93-.85-.13-1.4.41-1.56.86-.18.45-.05.76-.14.79-.04.04-.36-.24-.28-.89.04-.31.2-.69.54-1.02.35-.33.9-.53,1.48-.51,1.22,0,2.39,1.02,3.04,2.2.72,1.19,1.2,2.68,1.28,4.27.14,3.15-1.26,6.2-3.48,7.02-1.08.37-2.03.11-2.54-.23-.52-.35-.63-.69-.57-.72Z"/>
                </g>
              </g>
              <path class="cls-12" d="m311.38,476.51c-.67.86-2.99.46-6,.33-3.01-.24-5.36-.13-5.91-1.06-.62-.97,2.29-3.19,6.17-2.88,3.89.16,6.49,2.72,5.74,3.61Z"/>
              <path class="cls-12" d="m277.38,475.97c-.22,1.08-2.17,1.59-4.38,1.8-2.21.18-4.22.01-4.63-1.01-.41-.99,1.44-2.67,4.28-2.91,2.84-.25,4.96,1.07,4.73,2.12Z"/>
            </g>
            <path class="cls-12" d="m262.76,458.25s12.83,6.21,29.54-2.12c10.96-5.47,23.74-8.14,26.55-5.94,2.82,2.2,3.41,13.5,14.27,16.79,0,0-.75,21.55,7.85,20.78,8.59-.77,3.22-34.14,3.22-34.14l-21.02-10.26-22.94-4.33-21.61,3.05-16.72,4.58.86,11.6Z"/>
          </g>
        </g>
        <g>
          <g>
            <path class="cls-8" d="m185.98,495.14c.76,1.22,25.48,86.88,25.48,86.88l-49.05,6.69-22.56-69.9,46.13-23.67Z"/>
            <polygon class="cls-12" points="211.46 582.02 215.87 579.68 190.2 492.9 185.45 495.42 211.46 582.02"/>
            <path class="cls-12" d="m165.43,517.89c.24,1.12-.47,2.23-1.6,2.47-1.12.24-2.23-.47-2.47-1.6-.24-1.12.47-2.23,1.6-2.47,1.12-.24,2.23.47,2.47,1.6Z"/>
          </g>
          <path class="cls-4" d="m202.21,621.12l-32.18,20.96-5.92-74.99h0l.5-3.75,21.8-8.32-6.27-16.05c-3.06-7.49-11.87-10.76-19.08-7.09-2.32,1.18-4.77,2.43-6.98,3.55-4.97,2.53-8.65,7.05-10.09,12.44-2.48,9.29-4.68,19.33-4.45,18.46h0s0,0,0,0l-13.79,96.53s-6.56,27.83,12.48,41.07c14.39,10,38.62-.62,51.48-7.89l55.73-33.59-43.24-41.34Z"/>
        </g>
      </g>
      <g>
        <g>
          <path class="cls-7" d="m235.09,227.45l-21.83-33.21-36.8,23.12,33.36,51.44s18.35-19.91,25.27-41.35Z"/>
          <g>
            <path class="cls-12" d="m98.32,61.36c1.8-1.98-.64-5.08-3.16-5.99-2.52-.91-5.65-1.33-6.85-3.73-1.46-2.9,1.12-6.15,1.58-9.36.5-3.44-1.49-6.71-2.07-10.14-.75-4.36.96-9.06,4.33-11.92,3.37-2.86,8.29-3.78,12.46-2.33.27-6.7,5-13,11.35-15.12s13.92.06,18.17,5.26c3.32-2.52,6.68-5.07,10.54-6.63,3.86-1.56,8.35-2.03,12.16-.35,3.81,1.68,6.64,5.87,5.9,9.97,2.88-3.43,8.25-4.1,12.29-2.18,4.05,1.92,6.79,5.97,7.97,10.29,1.65,6.03.21,13.15-4.6,17.15-4.81,3.99-13.05,3.62-16.62-1.52"/>
            <g>
              <g>
                <g>
                  <g>
                    <path class="cls-6" d="m121.94,163.57h0c13.22.02,24.13-10.25,24.79-23.34.54-10.9,1-21.4,1-21.4,0,0,20.24-1.47,22.11-21.26,1.87-19.79,2.12-65.55,2.12-65.55h0c-22.33-11.72-49.31-10.55-70.51,3.06l-1.93,1.24-2.34,102.41c-.15,13.66,10.97,24.82,24.75,24.84Z"/>
                    <g>
                      <path class="cls-12" d="m133.55,62.46c1.53.5,2.35,2.14,1.85,3.65-.51,1.51-2.15,2.33-3.68,1.83-1.53-.5-2.35-2.14-1.85-3.65.51-1.51,2.15-2.33,3.68-1.83Z"/>
                      <path class="cls-12" d="m139.1,63.49c-.33.32-2.21-1.29-4.97-1.47-2.75-.22-4.84,1.12-5.13.75-.14-.16.21-.77,1.12-1.37.9-.6,2.41-1.15,4.12-1.02,1.72.12,3.13.87,3.93,1.6.82.73,1.08,1.37.91,1.52Z"/>
                    </g>
                    <g>
                      <path class="cls-12" d="m163.76,62.46c1.53.5,2.35,2.14,1.85,3.65-.51,1.51-2.15,2.33-3.68,1.83-1.53-.5-2.35-2.14-1.85-3.65.51-1.51,2.15-2.33,3.68-1.83Z"/>
                      <path class="cls-12" d="m169.68,63.55c-.33.33-2.21-1.29-4.97-1.47-2.75-.22-4.84,1.12-5.13.75-.14-.16.21-.77,1.12-1.37.9-.6,2.41-1.15,4.12-1.02,1.72.12,3.13.87,3.93,1.6.82.73,1.08,1.37.91,1.52Z"/>
                    </g>
                    <path class="cls-12" d="m148.89,84.95c0-.21,1.73-.42,4.53-.58.73-.02,1.3-.14,1.39-.51.16-.42-.05-1.21-.35-2.09-.56-1.86-1.13-3.75-1.72-5.72-2.36-8.14-3.94-14.83-3.52-14.95.42-.12,2.67,6.38,5.03,14.52.55,1.99,1.08,3.88,1.6,5.75.2.85.62,1.85.15,3-.25.57-.85.95-1.33,1.04-.49.1-.9.07-1.24.06-2.8-.13-4.53-.31-4.53-.53Z"/>
                    <path class="cls-1" d="m139.7,87.24c5.52,2.68,8.08,3.5,13.18,4.98,0,0-3.63,4.83-9.22,2.28-5.8-2.65-3.96-7.25-3.96-7.25Z"/>
                    <path class="cls-7" d="m147.78,118.55s-12.71,0-25.46-9.44c0,0,4.99,14.75,25.08,14.58l.37-5.14Z"/>
                  </g>
                  <g>
                    <path class="cls-6" d="m99.04,65.39c.02-1.6-1.21-2.98-2.83-3.06-3.73-.18-9.87,1.17-10.64,11.38-1.1,14.57,13.13,11.21,13.18,10.79.04-.33.21-13.44.29-19.11Z"/>
                    <path class="cls-7" d="m95.62,78.7c-.06-.05-.27.16-.72.32-.44.16-1.17.24-1.92-.1-1.51-.68-2.63-3.22-2.51-5.85.06-1.33.44-2.57.99-3.58.53-1.03,1.28-1.72,2.07-1.8.79-.12,1.31.39,1.46.81.17.42.05.71.13.74.04.04.33-.22.26-.83-.04-.29-.19-.65-.51-.96-.33-.31-.84-.49-1.39-.48-1.14,0-2.24.95-2.85,2.06-.67,1.11-1.12,2.5-1.2,4-.13,2.94,1.18,5.8,3.26,6.57,1.01.34,1.9.1,2.37-.21.48-.33.58-.65.54-.68Z"/>
                  </g>
                </g>
                <path class="cls-12" d="m129.28,55.37c.62.8,2.79.43,5.62.31,2.82-.23,5.02-.12,5.53-.99.58-.91-2.14-2.99-5.77-2.69-3.64.15-6.07,2.55-5.37,3.37Z"/>
                <path class="cls-12" d="m161.09,54.86c.21,1.01,2.03,1.49,4.1,1.68,2.06.17,3.95,0,4.33-.95.39-.93-1.35-2.49-4-2.72-2.66-.24-4.64,1.01-4.42,1.99Z"/>
              </g>
              <path class="cls-12" d="m174.77,38.29s-12.01,5.81-27.63-1.99c-10.25-5.12-22.21-7.62-24.84-5.56-2.64,2.06-3.19,12.63-13.35,15.71,0,0,.7,20.16-7.34,19.44-8.04-.72-3.01-31.94-3.01-31.94l19.66-9.6,21.46-4.05,20.22,2.85,15.64,4.28-.8,10.86Z"/>
            </g>
          </g>
          <g>
            <g>
              <path class="cls-10" d="m40.2,154.95c21.01-21.61,58-19.25,58-19.25l48.04,1.71s18.27,2.01,35.39,10.95l1.18.36v.24c13.43,7.3,32.48,24.82,50.62,41.81l-21.71,20.15-24.03,21.33s.09.15.04.43c-.25,1.29,3.9,27.1,7.58,49.39-21.11,16.38-47.75,25.92-76.54,25.36-18.33-.36-35.63-4.78-51.06-12.37l-1.8-20.61c-1.64-18.69-2.89-41.83-2.89-41.83"/>
              <path class="cls-12" d="m165.46,141.17s.16.29.38.88c.24.69.54,1.54.91,2.58.78,2.24,1.83,5.51,3.09,9.57,2.51,8.11,5.73,19.4,8.77,32,3.04,12.6,5.33,24.12,6.8,32.48.73,4.18,1.28,7.57,1.62,9.92.15,1.09.27,1.99.37,2.71.07.62.1.95.07.95s-.12-.31-.25-.92c-.14-.72-.32-1.6-.54-2.68-.48-2.46-1.12-5.8-1.91-9.87-1.63-8.33-4.02-19.8-7.05-32.38-3.04-12.58-6.15-23.88-8.5-32.03-1.16-3.98-2.11-7.24-2.81-9.65-.3-1.06-.54-1.93-.74-2.63-.16-.6-.23-.93-.2-.94Z"/>
              <path class="cls-12" d="m185.2,218.42c-.16-.2,9.03-7.96,20.53-17.32,11.5-9.37,20.96-16.81,21.12-16.61.16.2-9.03,7.95-20.53,17.33-11.5,9.37-20.95,16.8-21.12,16.61Z"/>
              <path class="cls-5" d="m67.93,184.61l-18.81,61.87,7,3.64,6.9-17.5s7.09-36.76,4.91-48.01Z"/>
              <g class="cls-5">
                <path d="m163.42,141.21c10.14,5.34-15.27,18.21-26.75,17.86l8.33-21.99s15.01,2.33,18.41,4.13Z"/>
              </g>
            </g>
            <path class="cls-10" d="m95.17,137.08v-16.38s32,8.23,33.16,27.38c0,0,4.07-21.16,20.56-22.18l2.33,29.77-19.19,16.69h-19.45l-15.4-13.29-2.01-20.67"/>
            <path class="cls-12" d="m135.53,239.92s-.05-.32-.05-.91c0-.7.02-1.56.03-2.61.06-2.26.11-5.54.13-9.59.05-8.09-.2-19.27-1.21-31.58-1.03-12.31-2.64-23.38-4.02-31.35-.69-3.99-1.28-7.21-1.71-9.43-.19-1.03-.34-1.88-.46-2.57-.1-.59-.13-.9-.1-.91.03,0,.13.29.28.87.17.68.38,1.52.63,2.53.54,2.2,1.23,5.41,2,9.39,1.55,7.96,3.26,19.05,4.29,31.39,1.02,12.34,1.16,23.56.94,31.66-.1,4.05-.25,7.33-.42,9.59-.08,1.04-.15,1.9-.21,2.6-.06.59-.1.91-.13.9Z"/>
            <path class="cls-12" d="m126.86,142.57c0,.09-.72-.3-1.91.15-.58.22-1.22.66-1.76,1.37-.55.71-1,1.65-1.49,2.72-1.98,4.25-4.42,10.39-6.12,17.71l-.14.61-.54-.32c-1.91-1.16-3.87-2.4-5.84-3.74-3.82-2.6-7.32-5.25-10.37-7.87-1.53-1.32-2.79-2.9-3.52-4.59-.72-1.69-1-3.39-1.08-4.91-.13-3.07.36-5.5.68-7.16.35-1.66.61-2.55.67-2.54.07.01-.07.94-.31,2.6-.21,1.66-.59,4.09-.38,7.05.12,1.47.43,3.08,1.13,4.64.71,1.56,1.88,3,3.38,4.26,3.03,2.54,6.54,5.17,10.33,7.74,1.96,1.33,3.9,2.58,5.79,3.73l-.68.28c1.76-7.38,4.34-13.54,6.48-17.76.53-1.05,1.03-2.02,1.67-2.75.62-.74,1.37-1.2,2.02-1.38,1.34-.38,2.06.15,2.01.15Z"/>
            <path class="cls-12" d="m148.89,125.9c.06,0,.15.91.26,2.56.13,1.82.29,4.17.48,6.98.23,2.94.58,6.43,1.18,10.28.23,1.9.89,3.96.38,6.25-.65,2.25-2.36,3.95-4.18,5.32-2.55,1.9-5.24,3.33-7.05,5.36l-.71.79-.07-1.06c-.45-6.78-2.73-12.36-4.77-15.98-2.05-3.65-3.75-5.51-3.63-5.6.04-.03.48.41,1.24,1.28.75.88,1.77,2.23,2.88,4.04,2.2,3.59,4.65,9.25,5.17,16.2l-.78-.26c1.94-2.21,4.71-3.67,7.16-5.51,1.75-1.31,3.3-2.92,3.86-4.81.46-1.92-.11-3.96-.35-5.9-.55-3.88-.84-7.41-.99-10.36-.15-2.96-.18-5.35-.19-7.01,0-1.65.03-2.57.1-2.57Z"/>
          </g>
        </g>
        <g>
          <g>
            <path class="cls-12" d="m251.89,130.01c-1.3,1.53-48.41,64.53-48.41,64.53l6.63,3.76,48.34-62.19-6.56-6.09Z"/>
            <path class="cls-6" d="m62.63,179.81s49.56,71.34,52.55,72.74c5.88,2.76,73.68-55.83,80.15-61.44.89-1.19,2.73-3.7,6.34-8.7,0,0,5.35-24.48,11.06-22.6,5.71,1.88-3.13,12.44.59,21.74,3.72,9.3,20.74-12.88,21.43-14.87l4.39-5.74s4.6,13.06,4.29,18.51c-1,17.46-17.52,38.23-17.52,38.23,0,0-74.2,91.92-125.03,94.77-14.64.82-40.65-40.72-58.05-71.86-10.5-18.81-5.26-42.51,12.15-55.2l7.66-5.58Z"/>
            <path class="cls-7" d="m235.09,182.56c-.14-.09,1.47-2.88,3.23-6.44,1.77-3.56,3.01-6.53,3.16-6.47.14.05-.88,3.13-2.66,6.72-1.77,3.59-3.6,6.27-3.73,6.19Z"/>
          </g>
          <g>
            <path class="cls-10" d="m54.24,145s-53.19,18.91-13.65,108.37l61.41-37.06-8.74-20.92-39.03-50.39Z"/>
            <path class="cls-12" d="m50.17,146.55s.14-.03.42-.04c.34,0,.74,0,1.24-.02,1.09,0,2.71.15,4.73.63,2.01.52,4.42,1.42,6.96,2.95,2.54,1.52,5.17,3.67,7.73,6.36,5.15,5.38,9.96,12.89,14.42,21.58,4.49,8.7,8.69,18.6,13,29.01,1.29,3.12,2.56,6.19,3.77,9.1l.16.38-.36.2c-17.77,9.69-33.23,18.77-44.16,25.57-5.47,3.39-9.82,6.19-12.81,8.13-1.44.94-2.59,1.68-3.44,2.23-.79.5-1.21.75-1.22.73s.37-.32,1.13-.87c.76-.54,1.88-1.36,3.35-2.36,2.93-2.03,7.23-4.91,12.66-8.37,10.85-6.95,26.28-16.14,44.05-25.86l-.2.58c-1.21-2.91-2.48-5.98-3.77-9.1-4.3-10.41-8.47-20.3-12.9-28.97-4.4-8.68-9.11-16.16-14.14-21.52-2.5-2.69-5.06-4.83-7.52-6.37-2.46-1.55-4.81-2.48-6.78-3.05-3.98-1.03-6.32-.78-6.3-.92Z"/>
          </g>
        </g>
      </g>
      <g>
        <g>
          <path class="cls-12" d="m348.61,390.48c-.03,6.15-5.04,11.12-11.19,11.09-6.15-.03-11.12-5.04-11.09-11.19.03-6.15,5.04-11.12,11.19-11.09,6.15.03,11.12,5.04,11.09,11.19Z"/>
          <path class="cls-12" d="m315.19,376.15c12.24-12.85,32.13-13.24,44.68-.59,5.69,5.73,14.6-3.09,8.9-8.82-17.22-17.36-45.49-17.25-62.4.51-5.56,5.84,3.24,14.76,8.82,8.9h0Z"/>
          <path class="cls-12" d="m277.34,324.28c16.94-14.65,37.17-23.87,59.82-23.92,22.45-.06,44.59,7.91,61.03,23.36,5.87,5.52,14.8-3.29,8.9-8.82-18.84-17.69-44.1-27.13-69.88-27.07-26.07.06-49.23,10.72-68.7,27.55-6.11,5.29,2.74,14.16,8.82,8.9h0Z"/>
          <path class="cls-12" d="m292.28,353.03c11.36-12.28,27.28-19.97,44.11-20.36,17.28-.39,33.97,6.73,45.99,19.07,5.64,5.79,14.54-3.03,8.9-8.82-14.22-14.61-34.37-23.25-54.83-22.78-20.01.46-39.41,9.31-52.99,23.99-5.47,5.91,3.33,14.84,8.82,8.9h0Z"/>
        </g>
        <g>
          <path class="cls-8" d="m348.84,382.5c-.03,6.15-5.04,11.12-11.19,11.09-6.15-.03-11.12-5.04-11.09-11.19.03-6.15,5.04-11.12,11.19-11.09,6.15.03,11.12,5.04,11.09,11.19Z"/>
          <path class="cls-8" d="m315.42,368.18c12.24-12.85,32.13-13.24,44.68-.59,5.69,5.73,14.6-3.09,8.9-8.82-17.22-17.36-45.49-17.25-62.4.51-5.56,5.84,3.24,14.76,8.82,8.9h0Z"/>
          <path class="cls-8" d="m277.57,316.31c16.94-14.65,37.17-23.87,59.82-23.92,22.45-.06,44.59,7.91,61.03,23.36,5.87,5.52,14.8-3.29,8.9-8.82-18.84-17.69-44.1-27.13-69.88-27.07-26.07.06-49.23,10.72-68.7,27.55-6.11,5.29,2.74,14.16,8.82,8.9h0Z"/>
          <path class="cls-8" d="m292.51,345.06c11.36-12.28,27.28-19.97,44.11-20.36,17.28-.39,33.97,6.73,45.99,19.07,5.64,5.79,14.54-3.03,8.9-8.82-14.22-14.61-34.37-23.25-54.83-22.78-20.01.46-39.41,9.31-52.99,23.99-5.47,5.91,3.33,14.84,8.82,8.9h0Z"/>
        </g>
      </g>
    </g>
  </g>
</svg>