<?xml version="1.0" encoding="UTF-8"?>
<svg id="Camada_2" data-name="Camada 2" xmlns="http://www.w3.org/2000/svg" xmlns:xlink="http://www.w3.org/1999/xlink" viewBox="0 0 809.42 667.64">
  <defs>
    <style>
      .cls-1 {
        fill: url(#linear-gradient-2);
      }

      .cls-2 {
        fill: url(#linear-gradient-17);
      }

      .cls-3 {
        opacity: .51;
      }

      .cls-4 {
        fill: url(#linear-gradient-15);
      }

      .cls-5 {
        fill: url(#linear-gradient-18);
      }

      .cls-6 {
        fill: url(#linear-gradient-14);
      }

      .cls-7 {
        fill: url(#linear-gradient-20);
      }

      .cls-8 {
        fill: url(#linear-gradient-6);
      }

      .cls-9 {
        fill: url(#linear-gradient-11);
      }

      .cls-10 {
        fill: url(#linear-gradient-10);
      }

      .cls-11 {
        fill: url(#linear-gradient-16);
      }

      .cls-12 {
        fill: url(#linear-gradient-21);
      }

      .cls-13 {
        fill: url(#linear-gradient-5);
      }

      .cls-14 {
        fill: #eca900;
      }

      .cls-15 {
        fill: url(#linear-gradient-7);
      }

      .cls-16 {
        fill: #383838;
      }

      .cls-17 {
        fill: url(#linear-gradient-9);
      }

      .cls-18 {
        fill: url(#linear-gradient-3);
      }

      .cls-19 {
        fill: url(#linear-gradient);
      }

      .cls-20 {
        fill: #bdd0fb;
      }

      .cls-21 {
        fill: url(#linear-gradient-19);
      }

      .cls-22 {
        fill: url(#linear-gradient-4);
      }

      .cls-23 {
        fill: url(#linear-gradient-8);
      }

      .cls-24 {
        fill: url(#linear-gradient-12);
      }

      .cls-25 {
        fill: url(#linear-gradient-13);
      }
    </style>
    <linearGradient id="linear-gradient" x1="236.25" y1="578.95" x2="219.27" y2="668.08" gradientUnits="userSpaceOnUse">
      <stop offset="0" stop-color="#4f52ff"/>
      <stop offset="1" stop-color="#4042e2"/>
    </linearGradient>
    <linearGradient id="linear-gradient-2" x1="1335.03" y1="655.12" x2="1384.84" y2="655.12" gradientTransform="translate(-1140.73)" gradientUnits="userSpaceOnUse">
      <stop offset="0" stop-color="#09005d"/>
      <stop offset="1" stop-color="#1a0f91"/>
    </linearGradient>
    <linearGradient id="linear-gradient-3" x1="1339.76" y1="641.09" x2="1354.2" y2="641.09" gradientTransform="translate(-1140.73)" gradientUnits="userSpaceOnUse">
      <stop offset="0" stop-color="#febbba"/>
      <stop offset="1" stop-color="#ff928e"/>
    </linearGradient>
    <linearGradient id="linear-gradient-4" x1="115.51" y1="590.16" x2="99.75" y2="674.45" xlink:href="#linear-gradient"/>
    <linearGradient id="linear-gradient-5" x1="1232.98" y1="648.93" x2="1261.82" y2="648.93" xlink:href="#linear-gradient-2"/>
    <linearGradient id="linear-gradient-6" x1="1247.97" y1="629.05" x2="1265.23" y2="629.05" xlink:href="#linear-gradient-3"/>
    <linearGradient id="linear-gradient-7" x1="154.78" y1="662.58" x2="199.25" y2="447.62" gradientTransform="matrix(1,0,0,1,0,0)" xlink:href="#linear-gradient-2"/>
    <linearGradient id="linear-gradient-8" x1="1464.98" y1="268.83" x2="1069.39" y2="612.89" gradientTransform="translate(-1140.73)" xlink:href="#linear-gradient"/>
    <linearGradient id="linear-gradient-9" x1="203.19" y1="324.23" x2="210.6" y2="454.36" xlink:href="#linear-gradient"/>
    <linearGradient id="linear-gradient-10" x1="1327.03" y1="377.53" x2="1265.6" y2="431.92" xlink:href="#linear-gradient-3"/>
    <linearGradient id="linear-gradient-11" x1="1432" y1="232.37" x2="1038.2" y2="574.88" gradientTransform="translate(-1140.73)" xlink:href="#linear-gradient"/>
    <linearGradient id="linear-gradient-12" x1="1493.9" y1="303.55" x2="1100.1" y2="646.06" gradientTransform="translate(-1140.73)" xlink:href="#linear-gradient"/>
    <linearGradient id="linear-gradient-13" x1="1442.18" y1="382.67" x2="1490.56" y2="382.67" xlink:href="#linear-gradient-3"/>
    <linearGradient id="linear-gradient-14" x1="1395.05" y1="272.32" x2="1394.52" y2="362.66" xlink:href="#linear-gradient-3"/>
    <linearGradient id="linear-gradient-15" x1="1260.69" y1="418.11" x2="1514.02" y2="418.11" xlink:href="#linear-gradient-2"/>
    <linearGradient id="linear-gradient-16" x1="1486.98" y1="305.78" x2="1745.72" y2="305.78" xlink:href="#linear-gradient-2"/>
    <linearGradient id="linear-gradient-17" x1="1080.7" y1="2267.29" x2="1036.23" y2="2326.12" gradientTransform="translate(-1109.6 -1851.08) rotate(-8.21)" xlink:href="#linear-gradient-3"/>
    <linearGradient id="linear-gradient-18" x1="243.2" y1="248.22" x2="397.49" y2="267.72" gradientTransform="matrix(1,0,0,1,0,0)" xlink:href="#linear-gradient-2"/>
    <linearGradient id="linear-gradient-19" x1="1015.57" y1="2313.88" x2="1051.23" y2="2277.29" gradientTransform="translate(-1109.6 -1851.08) rotate(-8.21)" xlink:href="#linear-gradient-3"/>
    <linearGradient id="linear-gradient-20" x1="1351.29" y1="404.92" x2="1289.86" y2="459.32" xlink:href="#linear-gradient-3"/>
    <linearGradient id="linear-gradient-21" x1="1485.42" y1="376.99" x2="1502.74" y2="376.99" xlink:href="#linear-gradient-3"/>
  </defs>
  <g id="Camada_1-2" data-name="Camada 1">
    <g>
      <g>
        <rect class="cls-14" x="714.1" y="177.39" width="95.32" height="488.65"/>
        <rect class="cls-14" x="573.33" y="280.47" width="95.32" height="385.57"/>
        <rect class="cls-14" x="432.56" y="373.23" width="95.32" height="292.81"/>
        <rect class="cls-14" x="291.79" y="447.1" width="95.32" height="218.94"/>
        <rect class="cls-14" x="151.02" y="519.26" width="95.32" height="146.78"/>
        <rect class="cls-14" x="10.25" y="591.41" width="95.32" height="74.63"/>
      </g>
      <path class="cls-16" d="m788.07,0l-71.84,34.88,26.41,19.06c-133.02,150.02-317.96,242.42-453.61,294.39C132.28,408.37,5.65,428.89,4.39,429.09c-2.84.45-4.78,3.12-4.33,5.96.29,1.83,1.49,3.28,3.07,3.96.88.38,1.87.53,2.89.37,1.27-.2,128.78-20.85,286.51-81.25,137.07-52.48,324.07-145.96,458.59-298.08l26.49,19.11L788.07,0Z"/>
      <g>
        <g>
          <g>
            <path class="cls-19" d="m244.11,662.68c-8.78.76-24.02,1.99-36.04,2.52-7.22.32-11.38-.39-13.78-1.35,0,.27.01.53.02.76.06,1.26,1.08,2.28,2.36,2.35,22.7,1.27,40.76.44,47.19.05,1.33-.08,2.12-1.53,1.44-2.66-.34-.57-.75-1.12-1.2-1.67Z"/>
            <path class="cls-1" d="m208.07,665.2c12.02-.53,27.26-1.76,36.04-2.52-8.63-10.59-36.04-17.73-36.04-17.73h-7.74c-5.32,7.67-6.09,14.98-6.04,18.9,2.39.96,6.55,1.67,13.78,1.35Z"/>
            <path class="cls-18" d="m199.03,632.32l.72,14.33c.08,1.55,1.24,2.86,2.79,3.08,1.55.22,3.62.25,5.81-.48,1.35-.45,2.35-1.59,2.6-2.98l2.5-13.95h-14.44Z"/>
          </g>
          <g>
            <g>
              <path class="cls-22" d="m98.5,665.1c-3.81-.53-5.53-2.51-6.25-4.62,0,.02,0,.04-.01.06-.56,2.23.74,4.54,3.34,5.64,3.14,1.33,6.57,1.56,9.23,1.45,2.86-.12,5.48-1.3,6.92-3.19l.02-.03c-2.87,1.42-6.9,1.59-13.25.7Z"/>
              <path class="cls-13" d="m116.46,632.22h-6.38c-9.72-.2-15.83,20.31-17.83,28.25.72,2.11,2.45,4.09,6.25,4.62,6.35.89,10.38.72,13.25-.7,5.25-6.91,7.86-17.03,9.11-22.94,1.42-6.72-4.4-9.23-4.4-9.23Z"/>
            </g>
            <path class="cls-8" d="m110.9,618.92l-3.54,14.1c-.43,1.73.39,3.52,1.99,4.34,1.98,1.02,4.77,2.09,7.34,1.78,1.21-.15,2.21-1,2.61-2.13l5.2-14.83-13.6-3.25Z"/>
          </g>
          <path class="cls-15" d="m106.67,623c4.41,3.91,18.75,4.43,18.75,4.43,51.66-124,72.8-141.62,72.8-141.62-7.46,46.8-1.2,150.42-1.2,150.42,8.53,3.76,19.52,0,19.52,0,.69-76.62,12.47-143.45,26.38-196.13-34.92-.78-53.49-12.73-59.55-17.53-29.11,46.93-76.7,200.43-76.7,200.43Z"/>
          <path class="cls-23" d="m192.23,279.97c-6.61,32.97-4.24,91.97-2.68,118.89.44,7.56-4.84,18.05-9.11,25.21-.67,1.12-.26,2.56.91,3.16,7.15,3.67,31.36,15.06,59.42,16.47,1.87.09,3.54-1.18,4.03-2.99,20.81-77.71,44.99-127.37,44.99-127.37-26.69-42.62-97.54-33.36-97.54-33.36Z"/>
          <path class="cls-17" d="m201.74,482.87c-.29,0-.59-.08-.86-.24-.78-.48-1.03-1.49-.55-2.27.28-.46,6.96-11.26,20.48-17.78.82-.39,1.81-.05,2.21.77.4.82.05,1.81-.77,2.21-12.61,6.08-19.03,16.42-19.1,16.53-.31.51-.86.79-1.41.79Z"/>
          <g>
            <path class="cls-10" d="m150.78,374.59c2.12,15.36,8.4,32.11,20.94,49.9l4.77-3.89s-5.51-22.34-2.38-47.7c-7.74-1.51-16.88.05-23.34,1.68Z"/>
            <path class="cls-9" d="m199.62,320.65l-7.38-40.68s-49.32,37.7-41.46,94.62c6.46-1.63,15.6-3.19,23.34-1.68,2.26-18.26,8.99-38.09,25.5-52.26Z"/>
          </g>
          <g>
            <path class="cls-24" d="m289.77,313.33l-19.04,41c3.08,24.76,16.38,35.46,30.72,39.56.89-11.28,3.75-20.4,6.39-26.7-18.32-18.92-18.07-53.87-18.07-53.87Z"/>
            <path class="cls-25" d="m307.84,367.19c-2.65,6.31-5.5,15.42-6.39,26.7,38.26,14.84,48.38-13.94,48.38-13.94l-7.07-1.25c-15.97,1.68-27.12-3.47-34.91-11.51Z"/>
          </g>
          <path class="cls-6" d="m272.23,262.71l-9.19,33.79c-1.03,3.8-5.14,5.83-8.79,4.37-3.94-1.58-8.94-3.73-13.25-6.05-4.6-2.48-6.03-8.39-3.12-12.73l19.11-28.49,15.25,9.11Z"/>
        </g>
        <path class="cls-4" d="m367.36,357.34l-235.53,85.72c-9.88,3.6-14.6,14.84-10.25,24.41l.71,1.57c3.85,8.47,13.86,12.18,22.3,8.27l228.69-105.79-5.93-14.19Z"/>
        <g class="cls-3">
          <ellipse class="cls-20" cx="475.62" cy="305.78" rx="116.27" ry="114.17"/>
        </g>
        <path class="cls-11" d="m475.62,178.74c-71.45,0-129.37,56.88-129.37,127.04s57.92,127.04,129.37,127.04,129.37-56.88,129.37-127.04-57.92-127.04-129.37-127.04Zm0,235.42c-60.96,0-110.37-48.52-110.37-108.38s49.41-108.38,110.37-108.38,110.37,48.52,110.37,108.38-49.41,108.38-110.37,108.38Z"/>
        <path class="cls-20" d="m356.08,321.52c-.43,0-.81-.32-.86-.76-.39-3.03-.66-6.09-.8-9.11-.02-.48.35-.89.83-.91.57-.03.89.35.91.83.14,2.97.41,5.99.79,8.98.06.48-.28.91-.75.97-.04,0-.08,0-.11,0Zm.89-35.52c-.05,0-.1,0-.15-.01-.47-.08-.79-.54-.7-1.01,1.47-8.17,3.81-16.21,6.98-23.89h0c18.65-45.24,62.82-74.48,112.52-74.48,23.18,0,45.71,6.44,65.16,18.62.41.26.53.79.27,1.2-.25.41-.79.53-1.2.28-19.17-12.01-41.39-18.36-64.24-18.36-49,0-92.54,28.81-110.92,73.4,0,0,0,0,0,0-3.12,7.56-5.43,15.48-6.88,23.53-.08.42-.44.72-.86.72Z"/>
        <g>
          <path class="cls-2" d="m292.34,237.03c.08.58-7.67,38.56-7.67,38.56l-21.59-4.89,2-37.09s25.86-6.3,27.26,3.41Z"/>
          <path class="cls-5" d="m269.94,241.88l-2.58,19.44c-.03.25-.03.5,0,.74.22,1.52,1.35,6.71,6.59,5.23,4.75-1.35,9.11-2.5,12.12-1.58,1.35.41,2.17,1.78,1.88,3.17-.71,3.45-2.44,11.2-4.97,17.7-.51,1.32-1.96,2.01-3.32,1.62-4.09-1.19-12.66-3.95-19.03-7.79-.86-.52-1.38-1.46-1.34-2.47.21-4.91.78-19.83.3-24.01-.45-3.93-5.27-6.28-7.36-7.12-.69-.28-1.22-.82-1.5-1.5-.97-2.43-2.31-8.05,4.78-10.35,1.48-.48,2.26-2.08,1.74-3.55-1.05-2.92-1.49-7.38,3.99-9.83,5.57-2.5,9.73.47,11.97,2.89.91.98,2.37,1.12,3.49.41.64-.41,1.47-.54,2.47.08,1.35.84,3.13.27,3.82-1.16,1.33-2.74,4.05-5.67,9.5-4.74,9.68,1.66,10.77,12.38,8.22,18.66-2.55,6.28-12.94,3.89-18.15.72-3.96-2.41-9.1.12-11.34,1.46-.71.43-1.18,1.15-1.29,1.97Z"/>
          <path class="cls-21" d="m258.72,261.02s3.98-11.14-.11-13.87c-4.09-2.73-10.14-1.31-8.81,6.76,1.66,10.04,8.92,7.11,8.92,7.11Z"/>
        </g>
        <path class="cls-7" d="m174.52,419.92l22.27-1.81,9.64,8.89s-2.28,3.15-9.41,1.34c-7.13-1.81-16.9-2.26-16.9-2.26,0,0-9.85,4.44-9.97-3.87l4.37-2.29Z"/>
        <path class="cls-12" d="m346.99,385.22c1.93,1.5,8.52-1.64,12.56-3.81,1.97-1.06,2.92-3.36,2.25-5.49-.97-3.06-2.59-7.02-4.58-7.52-3.31-.83-18.16,10.61-10.22,16.81Z"/>
        <path class="cls-20" d="m136.48,474.03c-.09,0-.19-.01-.29-.05-9.2-3.18-11.34-8.62-11.51-12.62-.25-5.85,3.42-11.27,9.14-13.5l28.28-11.03c.44-.17.95.04,1.12.49.17.45-.05.95-.49,1.13l-28.28,11.03c-5.02,1.96-8.25,6.7-8.03,11.81.22,5.03,3.7,8.75,10.35,11.05.45.16.69.65.54,1.11-.12.36-.46.59-.82.59Z"/>
        <path class="cls-20" d="m171.13,435.12c-.35,0-.68-.21-.81-.55-.17-.45.05-.95.49-1.13l3.67-1.43c.44-.18.95.05,1.12.49.17.45-.05.95-.49,1.13l-3.67,1.43c-.1.04-.21.06-.31.06Z"/>
      </g>
    </g>
  </g>
</svg>