<?xml version="1.0" encoding="UTF-8"?>
<svg id="Camada_2" data-name="Camada 2" xmlns="http://www.w3.org/2000/svg" viewBox="0 0 232.63 74.87">
  <defs>
    <style>
      .cls-1 {
        fill: #3a3a3a;
      }

      .cls-2 {
        fill: #eca900;
      }
    </style>
  </defs>
  <g id="Camada_1-2" data-name="Camada 1">
    <g>
      <g>
        <polygon class="cls-1" points="98.69 31.07 91.61 19.1 78.47 19.1 92.88 39.93 92.88 55.05 104.29 55.05 104.29 39.93 118.75 19.1 105.61 19.1 98.69 31.07"/>
        <path class="cls-1" d="m142.18,41.56c0,1.07,0,1.88-.36,2.8-1.02,2.7-3.87,2.85-4.63,2.85-.81,0-3.67-.15-4.58-2.9-.41-1.12-.36-2.39-.36-2.75v-22.46h-11.41v21.34c0,3.77.25,5.25.92,7.03,1.68,4.43,5.35,6.21,6.87,6.87,3.56,1.58,7.13,1.68,8.45,1.68,6.42,0,12.93-2.5,15.43-9.01.81-2.14,1.12-4.07,1.12-6.37v-21.54h-11.46v22.46Z"/>
        <path class="cls-1" d="m169.27,19.1l-13.75,35.95h12.22l1.58-5.04h12.53l1.58,5.04h12.22l-13.44-35.95h-12.93Zm2.5,22.92l3.92-12.68,3.82,12.68h-7.74Z"/>
        <polygon class="cls-1" points="221.99 19.1 222.14 40.03 209.97 19.1 197.9 19.1 197.9 55.05 208.49 55.05 208.39 34.18 220.36 55.05 232.63 55.05 232.63 19.1 221.99 19.1"/>
        <g>
          <path class="cls-1" d="m71.16,39.42c0-8.51-2.99-16.32-7.97-22.44l-20.79,31.88v25.49c16.39-3.18,28.76-17.61,28.76-34.92Z"/>
          <path class="cls-2" d="m56.12,5.17C50.26,1.88,43.49,0,36.29,0c-6.23,0-12.12,1.4-17.4,3.91l17.81,33.99L56.12,5.17Z"/>
          <path class="cls-1" d="m9.31,15.42C3.53,21.75,0,30.17,0,39.42c0,17.44,12.55,31.95,29.12,34.99v-25.6L9.31,15.42Z"/>
        </g>
      </g>
      <g>
        <path class="cls-1" d="m93.03,74.75h-1.19v-5.63h-2.13v-1.1h5.46v1.1h-2.13v5.63Z"/>
        <path class="cls-1" d="m111.01,69.09h-3.81v1.73h3.37v1.07h-3.37v1.8h3.86v1.07h-5.03v-6.73h4.98v1.07Z"/>
        <path class="cls-1" d="m127.4,74.17c-.19.14-.39.27-.61.38-.22.11-.46.19-.72.24-.26.05-.55.08-.86.08-.49,0-.95-.09-1.37-.27-.42-.18-.78-.42-1.08-.74-.3-.31-.54-.68-.72-1.1-.17-.42-.26-.88-.26-1.37s.08-.93.25-1.36c.17-.42.41-.79.72-1.11.31-.32.67-.57,1.1-.75.42-.18.89-.27,1.4-.27.31,0,.59.03.84.08.25.05.49.12.7.22.21.09.41.2.59.33.18.13.35.27.51.42l-.76.88c-.27-.25-.55-.45-.86-.61-.3-.15-.64-.23-1.03-.23-.32,0-.62.06-.89.19s-.51.29-.71.51-.35.47-.46.75c-.11.29-.16.6-.16.93s.05.65.16.94c.11.29.26.55.46.76s.43.39.71.51.57.19.89.19c.41,0,.76-.08,1.06-.24.29-.16.59-.37.88-.64l.76.77c-.17.19-.35.35-.54.5Z"/>
        <path class="cls-1" d="m143.49,68.02h1.17v6.73h-.99l-3.7-4.79v4.79h-1.17v-6.73h1.09l3.6,4.65v-4.65Z"/>
        <path class="cls-1" d="m162.49,72.73c-.17.42-.42.79-.73,1.11-.31.32-.69.57-1.12.75-.43.19-.9.28-1.42.28s-.99-.09-1.42-.27c-.43-.18-.8-.43-1.11-.75s-.55-.68-.72-1.11c-.17-.42-.26-.87-.26-1.35s.09-.92.26-1.35c.17-.42.42-.79.73-1.11s.69-.57,1.12-.75c.43-.19.9-.28,1.42-.28s.99.09,1.42.27c.43.18.8.43,1.11.75.31.31.55.68.72,1.11.17.42.26.87.26,1.35s-.09.92-.26,1.35Zm-1.15-2.25c-.11-.29-.27-.55-.47-.76-.2-.22-.44-.39-.73-.52-.28-.13-.59-.19-.92-.19s-.64.06-.92.19c-.28.12-.52.29-.72.51-.2.21-.35.47-.47.76-.11.29-.17.6-.17.93s.06.64.17.93c.11.29.27.55.47.76.2.22.44.39.73.52.28.13.59.19.92.19s.64-.06.92-.19.52-.29.72-.51.35-.47.47-.76c.11-.29.17-.6.17-.93s-.06-.64-.17-.93Z"/>
        <path class="cls-1" d="m173.79,68.02h1.17v5.66h3.54v1.07h-4.71v-6.73Z"/>
        <path class="cls-1" d="m195.46,72.73c-.17.42-.42.79-.73,1.11-.31.32-.69.57-1.12.75-.43.19-.9.28-1.42.28s-.99-.09-1.42-.27c-.43-.18-.8-.43-1.11-.75s-.55-.68-.72-1.11c-.17-.42-.26-.87-.26-1.35s.09-.92.26-1.35c.17-.42.42-.79.73-1.11s.69-.57,1.12-.75c.43-.19.9-.28,1.42-.28s.99.09,1.42.27c.43.18.8.43,1.11.75.31.31.55.68.72,1.11.17.42.26.87.26,1.35s-.09.92-.26,1.35Zm-1.15-2.25c-.11-.29-.27-.55-.47-.76-.2-.22-.44-.39-.73-.52-.28-.13-.59-.19-.92-.19s-.64.06-.92.19c-.28.12-.52.29-.72.51-.2.21-.35.47-.47.76-.11.29-.17.6-.17.93s.06.64.17.93c.11.29.27.55.47.76.2.22.44.39.73.52.28.13.59.19.92.19s.64-.06.92-.19.52-.29.72-.51.35-.47.47-.76c.11-.29.17-.6.17-.93s-.06-.64-.17-.93Z"/>
        <path class="cls-1" d="m212.21,74.23c-.2.13-.42.24-.65.34s-.49.17-.75.23c-.27.05-.55.08-.85.08-.53,0-1-.09-1.43-.26-.43-.18-.8-.42-1.1-.73-.3-.31-.54-.68-.71-1.1-.17-.42-.25-.88-.25-1.38s.08-.92.25-1.35c.17-.42.41-.79.72-1.11.31-.32.67-.57,1.1-.75s.89-.28,1.4-.28c.29,0,.56.02.8.06.24.04.46.1.67.18.21.08.4.17.58.28.18.11.36.24.53.39l-.75.89c-.13-.11-.26-.21-.39-.3-.13-.09-.28-.16-.42-.23-.15-.06-.31-.11-.49-.14-.18-.04-.37-.05-.58-.05-.31,0-.59.06-.86.19-.27.13-.5.3-.69.52-.2.22-.35.47-.46.76-.11.29-.17.6-.17.92,0,.35.05.67.16.96.11.3.26.55.47.77.2.21.44.38.72.51.28.12.59.18.94.18.32,0,.62-.05.9-.14.28-.09.52-.22.73-.37v-1.27h-1.72v-1.03h2.86v2.83c-.17.14-.35.28-.55.4Z"/>
        <path class="cls-1" d="m226.8,74.75h-1.19v-2.65l-2.67-4.08h1.39l1.88,2.98,1.9-2.98h1.36l-2.67,4.05v2.68Z"/>
      </g>
    </g>
  </g>
</svg>