<?xml version="1.0" encoding="UTF-8"?>
<svg id="Camada_2" data-name="Camada 2" xmlns="http://www.w3.org/2000/svg" viewBox="0 0 142.49 142.55">
  <defs>
    <style>
      .cls-1 {
        fill: #fff;
      }
    </style>
  </defs>
  <g id="Camada_1-2" data-name="Camada 1">
    <g>
      <path class="cls-1" d="m125.86,57.1h4.75c0,.6,0,1.13,0,1.66,0,14.94,0,29.89,0,44.83,0,5.27-2.8,8.08-8.04,8.08-9.4,0-18.79,0-28.19,0-.53,0-1.07,0-1.68,0v16.54c.38.03.8.08,1.22.08,2.62,0,5.24-.02,7.86.01,1.77.02,2.67.9,2.69,2.63.03,2.97.03,5.94,0,8.91-.02,1.82-.92,2.7-2.78,2.7-15.53.01-31.06,0-46.59,0-1.96,0-2.84-.86-2.85-2.78-.02-2.92-.03-5.84,0-8.76.02-1.83.9-2.69,2.77-2.71,2.96-.02,5.92,0,8.99,0v-16.57h-11.65v-4.82h1.67c22.75,0,45.5,0,68.25,0,2.93,0,3.57-.64,3.57-3.56,0-14.79,0-29.59,0-44.38,0-.59,0-1.17,0-1.87Zm-56.92,71.1h18.8v-16.44h-7.01c0,2.3.02,4.52,0,6.73-.02,1.51-.81,2.48-2.07,2.66-1.47.2-2.64-.92-2.67-2.64-.03-2.25,0-4.51,0-6.76h-7.05v16.46Zm-11.88,9.51h42.56v-4.58h-42.56v4.58Z"/>
      <path class="cls-1" d="m116.36,97.44h4.67v4.62H52.37c-.03-.22-.11-.5-.11-.78,0-5.09-.02-10.19,0-15.28,0-1.95.87-2.81,2.8-2.82,2.96-.02,5.92,0,9.07,0,0-.67,0-1.24,0-1.81.03-2.11.85-2.93,3-2.93,2.91-.01,5.81,0,8.88,0,0-.75-.01-1.38,0-2,.04-1.85.89-2.72,2.74-2.74,2.52-.03,5.04,0,7.56,0,.48,0,.96,0,1.57,0,0-.63,0-1.12,0-1.6.02-2.4.77-3.15,3.23-3.15,2.81,0,5.63,0,8.65,0,0-.84-.04-1.61,0-2.38.09-1.41.95-2.33,2.36-2.35,3.95-.05,7.91-.05,11.87,0,1.56.02,2.37,1.04,2.37,2.79.02,4.2,0,8.41,0,12.61,0,5.88,0,11.76,0,17.85Zm-4.85-.09v-28.32h-6.95v28.32h6.95Zm-11.84,0v-23.61h-6.95v23.61h6.95Zm-18.82-18.88v18.82h6.94v-18.82h-6.94Zm-4.95,18.87v-14.07h-6.96v14.07h6.96Zm-11.87.05v-9.37h-6.92v9.37h6.92Z"/>
      <g>
        <path class="cls-1" d="m30.87,49.88c0-2.13,0-4.1,0-6.07,0-2.73.68-3.42,3.41-3.42,15.68,0,31.36,0,47.04,0h1.73v-4.75h-1.65c-15.78,0-31.56,0-47.33,0-5.05,0-7.93,2.86-7.93,7.89,0,15.04,0,30.08,0,45.13v1.54h4.78v-35.61h59.26v-4.71H30.87Z"/>
        <path class="cls-1" d="m33.26,45.09c-.03,1.29,1.01,2.39,2.3,2.42,1.28.03,2.39-1.02,2.42-2.3.03-1.29-1.01-2.39-2.3-2.42-1.29-.03-2.39,1.01-2.42,2.3Z"/>
        <path class="cls-1" d="m40.38,45.19c.02,1.29,1.12,2.35,2.4,2.32,1.28-.02,2.35-1.12,2.32-2.41-.02-1.29-1.12-2.34-2.4-2.32-1.29.02-2.34,1.11-2.32,2.4Z"/>
        <path class="cls-1" d="m47.51,45.16c0,1.29,1.09,2.36,2.38,2.35,1.28,0,2.36-1.1,2.35-2.38,0-1.29-1.09-2.36-2.38-2.35-1.29,0-2.35,1.09-2.34,2.38Z"/>
      </g>
      <g>
        <path class="cls-1" d="m47.49,98.16c0-2.33-.79-3.11-3.12-3.11-13.75,0-27.5,0-41.26,0-2.33,0-3.11.79-3.11,3.12,0,6.88,0,13.76,0,20.64s0,13.76,0,20.64c0,2.33.79,3.12,3.12,3.12,13.75,0,27.5,0,41.26,0,2.32,0,3.11-.79,3.11-3.12,0-13.76,0-27.52,0-41.27Zm-42.63,1.69h37.79v9.38H4.86v-9.38Zm37.81,37.88H4.87v-9.33h37.81v9.33Zm0-14.25H4.87v-9.33h37.81v9.33Z"/>
        <path class="cls-1" d="m28.61,106.89h4.51v-4.62h-4.51v4.62Z"/>
        <path class="cls-1" d="m35.7,106.85h4.57v-4.57h-4.57v4.57Z"/>
        <path class="cls-1" d="m9.61,102.18c-1.28-.06-2.41.96-2.47,2.25-.06,1.28.96,2.41,2.25,2.48,1.27.06,2.41-.97,2.48-2.25.06-1.28-.96-2.41-2.25-2.48Z"/>
        <path class="cls-1" d="m33.14,116.49h-4.56v4.59h4.56v-4.59Z"/>
        <path class="cls-1" d="m40.34,116.52h-4.61v4.53h4.61v-4.53Z"/>
        <path class="cls-1" d="m9.48,121.16c1.28.01,2.37-1.06,2.38-2.35.01-1.29-1.06-2.37-2.34-2.38-1.29-.01-2.37,1.05-2.38,2.34-.01,1.29,1.05,2.37,2.34,2.38Z"/>
        <path class="cls-1" d="m33.13,130.71h-4.51v4.62h4.51v-4.62Z"/>
        <path class="cls-1" d="m40.27,130.78h-4.58v4.56h4.58v-4.56Z"/>
        <path class="cls-1" d="m9.51,135.41c1.28,0,2.36-1.09,2.35-2.38,0-1.29-1.09-2.36-2.38-2.35-1.29,0-2.35,1.08-2.35,2.38,0,1.29,1.09,2.36,2.37,2.35Z"/>
      </g>
      <g>
        <path class="cls-1" d="m142.47,24.04c-.02-1.74-.93-2.6-2.69-2.64-1.24-.03-2.5.14-3.7-.06-.71-.12-1.62-.65-1.91-1.25-.25-.52.08-1.54.49-2.09.76-1.02,1.8-1.83,2.67-2.77,1.12-1.21,1.13-2.48-.03-3.66-2.07-2.12-4.17-4.22-6.29-6.3-1.3-1.27-2.54-1.24-3.88.04-.82.79-1.53,1.73-2.45,2.37-.64.45-1.72.87-2.31.62-.6-.25-1.08-1.3-1.21-2.07-.2-1.15-.03-2.37-.06-3.55-.05-1.74-.93-2.62-2.69-2.64-2.97-.03-5.94-.03-8.9,0-1.74.02-2.6.92-2.64,2.69-.03,1.19.15,2.4-.06,3.55-.14.76-.64,1.75-1.26,2.05-.53.26-1.6-.14-2.19-.58-.99-.72-1.75-1.73-2.66-2.57-1.22-1.13-2.48-1.13-3.66.03-2.12,2.08-4.22,4.18-6.3,6.3-1.27,1.3-1.24,2.54.04,3.88.79.82,1.73,1.53,2.37,2.45.45.64.87,1.72.62,2.32-.25.6-1.3,1.07-2.07,1.21-1.1.2-2.27.04-3.4.06-1.87.03-2.77.87-2.78,2.69-.03,2.97-.03,5.94,0,8.91.02,1.74.92,2.6,2.69,2.64,1.24.03,2.5-.14,3.7.06.71.12,1.62.65,1.91,1.25.25.52-.07,1.54-.48,2.09-.76,1.02-1.8,1.83-2.67,2.77-1.13,1.21-1.13,2.47.03,3.66,2.11,2.16,4.24,4.29,6.4,6.4,1.17,1.14,2.44,1.1,3.66-.04.9-.84,1.67-1.86,2.66-2.57.59-.43,1.63-.76,2.21-.52.58.24,1.08,1.21,1.2,1.93.2,1.15.04,2.37.06,3.55.03,1.87.88,2.77,2.69,2.79,2.97.03,5.94.03,8.9,0,1.74-.02,2.6-.93,2.64-2.69.03-1.24-.14-2.5.06-3.7.12-.71.65-1.62,1.25-1.91.52-.25,1.54.08,2.09.48.98.73,1.77,1.72,2.66,2.57,1.32,1.26,2.56,1.26,3.88-.03,2.08-2.04,4.15-4.1,6.18-6.2.48-.5.75-1.21,1.16-1.89-.41-.72-.67-1.37-1.1-1.86-.81-.93-1.84-1.68-2.56-2.67-.43-.59-.77-1.63-.53-2.21.24-.58,1.21-1.08,1.93-1.21,1.15-.2,2.37-.04,3.55-.06,1.87-.03,2.77-.88,2.79-2.7.03-2.97.03-5.94,0-8.91Zm-4.84,6.83c-3.43-.19-6.43.66-7.89,4.13-1.47,3.5,0,6.23,2.68,8.57-1.16,1.11-2.25,2.16-3.42,3.29-2.25-2.5-4.95-4.07-8.46-2.62-3.49,1.45-4.4,4.4-4.18,7.94h-4.7c.15-3.36-.62-6.41-4.08-7.89-3.49-1.49-6.24-.1-8.53,2.54-1.05-1.15-2.07-2.26-3.2-3.49,2.23-2.03,3.86-4.7,2.43-8.21-1.42-3.51-4.34-4.48-7.99-4.23v-4.75c3.48.2,6.48-.65,7.94-4.12,1.47-3.49.02-6.23-2.63-8.53,1.17-1.09,2.28-2.13,3.47-3.25,2.15,2.43,4.86,3.98,8.36,2.53,3.49-1.44,4.4-4.4,4.18-7.94h4.7c-.15,3.37.63,6.41,4.08,7.89,3.49,1.49,6.24.09,8.52-2.53,1.06,1.14,2.09,2.24,3.22,3.46-2.25,2.05-3.89,4.72-2.46,8.23,1.43,3.5,4.34,4.47,7.94,4.24v4.74Z"/>
        <path class="cls-1" d="m114.01,19.02c-5.24-.02-9.52,4.26-9.52,9.51,0,5.18,4.22,9.44,9.39,9.49,5.25.05,9.58-4.21,9.6-9.43.02-5.26-4.23-9.55-9.47-9.57Zm.1,14.24c-2.65.06-4.86-2.08-4.87-4.73,0-2.59,2.11-4.74,4.69-4.76,2.59-.02,4.74,2.06,4.8,4.65.05,2.57-2.05,4.78-4.62,4.84Z"/>
      </g>
    </g>
  </g>
</svg>