<?xml version="1.0" encoding="UTF-8"?>
<svg id="Camada_2" data-name="Camada 2" xmlns="http://www.w3.org/2000/svg" viewBox="0 0 138.27 123.02">
  <defs>
    <style>
      .cls-1 {
        fill: #fff;
      }
    </style>
  </defs>
  <g id="Camada_1-2" data-name="Camada 1">
    <g>
      <path class="cls-1" d="m72.17,107.71c0,1.44.03,2.98,0,4.52-.12,5.95-4.42,10.5-10.36,10.67-5.35.16-10.7.15-16.05,0-5.96-.16-10.49-4.96-10.44-10.79.05-5.99,4.75-10.65,10.86-10.69,7.4-.05,14.8,0,22.2-.01,23.5-.02,42.28-15.12,47.37-38.06,5.72-25.8-12.52-52.44-38.68-56.47C50.97,2.86,27.44,19.18,22.21,45.04c-1.51,7.48-1.07,14.91,1.13,22.23,1.02,3.37-.15,5-3.63,5.01-3.35,0-6.7.02-10.05,0-5.71-.05-9.59-3.9-9.63-9.62-.04-5.9-.04-11.8,0-17.7.04-5.72,3.92-9.52,9.67-9.55,2.6-.01,5.2-.04,7.8.02.85.02,1.2-.3,1.51-1.05C26.4,16.39,39.6,5.23,58.57,1.15c25.05-5.39,50.91,8.61,60.39,32.55.52,1.31,1.14,1.81,2.56,1.74,2.54-.13,5.1-.07,7.65-.02,4.95.1,8.9,3.87,9,8.82.13,6.35.12,12.7.01,19.04-.09,5.09-4.03,8.86-9.18,8.99-2.7.06-5.4.06-8.1,0-.95-.02-1.36.29-1.73,1.17-6.82,16.62-18.9,27.41-36.2,32.24-3.44.96-7.04,1.35-10.82,2.05ZM16.71,41.56c-2.71,0-5.16-.07-7.6.02-1.81.07-2.95,1.29-2.96,3.13-.04,6.1-.03,12.19,0,18.29,0,1.44.76,2.76,2.15,2.88,2.74.24,5.52.07,8.4.07-1.76-8.15-1.73-16.18.01-24.4Zm105.19,24.47c2.44,0,5.03.07,7.61-.03,1.38-.05,2.54-1.25,2.56-2.7.06-6.35.07-12.69-.02-19.04-.02-1.41-1-2.53-2.46-2.6-2.62-.14-5.25-.04-7.71-.04.34,4.12.91,8.13.92,12.15,0,4.02-.56,8.04-.89,12.26Zm-55.92,41.75c-.2-.07-.33-.16-.47-.16-6.59,0-13.18-.06-19.78.02-2.48.03-4.23,2.05-4.23,4.53,0,2.54,1.8,4.52,4.37,4.56,5.24.07,10.49.06,15.73,0,2.31-.02,4.07-1.51,4.34-3.77.21-1.71.04-3.46.04-5.19Z"/>
      <g>
        <path class="cls-1" d="m107.17,48.47c-2.94-21.03-22.48-35.78-43.59-32.56-14.32,2.18-24.57,10.2-29.98,23.58-5.44,13.44-3.45,26.23,5.26,37.9.32.43.67.85,1.23,1.58-.5.35-1.01.62-1.4,1-2.35,2.32-4.68,4.65-7,7-.93.94-1.18,2.06-.68,3.31.5,1.24,1.44,1.87,2.78,1.91.3,0,.6.01.9.01,11.3,0,22.59.02,33.89-.01,1.84,0,3.7-.1,5.53-.34,21.22-2.81,36.01-22.24,33.05-43.37Zm-37.71,37.6c-9.05.11-18.1.02-27.15.02-.24,0-.49-.02-.73-.04-.08-.12-.15-.24-.23-.36,1.4-1.34,2.83-2.66,4.21-4.02,2.16-2.14,2.17-3.68.1-5.9-11.39-12.19-11.89-30.69-.8-43.1,9.02-10.09,20.48-13.52,33.43-9.68,12.76,3.78,20.52,12.73,22.65,25.9,3.15,19.49-11.75,36.93-31.47,37.17Z"/>
        <path class="cls-1" d="m50.52,50.75c-1.66-.02-3.04,1.37-3.06,3.05-.01,1.69,1.34,3.08,3.01,3.09,1.66.01,3.06-1.38,3.08-3.04.01-1.65-1.38-3.08-3.03-3.09Z"/>
        <path class="cls-1" d="m81.27,50.75c-1.63-.04-3.08,1.37-3.11,3.01-.03,1.67,1.32,3.08,2.99,3.12,1.66.04,3.06-1.32,3.09-3.01.03-1.69-1.31-3.09-2.97-3.13Z"/>
        <path class="cls-1" d="m67.55,50.75c-1.65-.02-3.05,1.38-3.06,3.04-.01,1.69,1.33,3.07,3.01,3.09,1.67.02,3.05-1.35,3.06-3.04.01-1.68-1.34-3.08-3.01-3.09Z"/>
      </g>
    </g>
  </g>
</svg>