<?xml version="1.0" encoding="UTF-8"?>
<svg id="Camada_2" data-name="Camada 2" xmlns="http://www.w3.org/2000/svg" viewBox="0 0 139.31 139.33">
  <defs>
    <style>
      .cls-1 {
        fill: #fff;
      }
    </style>
  </defs>
  <g id="Camada_1-2" data-name="Camada 1">
    <g>
      <path class="cls-1" d="m98.5,139.33c-1.59-.97-1.82-2.75-2.37-4.28-.46-1.27-1.1-1.91-2.44-2.32-2.19-.68-4.3-1.67-6.36-2.68-.87-.42-1.51-.53-2.37-.06-1.03.56-2.15.96-3.22,1.44-.99.44-1.86.26-2.62-.49-1.58-1.56-3.15-3.13-4.71-4.71-.75-.76-.89-1.64-.46-2.62.49-1.12.98-2.24,1.47-3.36.71-1.62.44-2.05-1.28-2.06-2.09,0-4.17.02-6.26,0-1.89-.02-2.62-.75-2.62-2.66,0-18.09,0-36.18,0-54.27,0-1.88.75-2.64,2.64-2.65,5.53-.02,11.06-.02,16.59,0,1.89,0,2.63.76,2.64,2.66.02,4.58,0,9.15,0,13.95.5-.2.84-.34,1.19-.47,2.02-.79,4.05-1.54,6.05-2.38.51-.22,1.07-.64,1.32-1.12.77-1.53,1.43-3.11,2.07-4.7.17-.44.12-.98.12-1.47,0-11.2,0-22.4,0-33.6,0-2.65.55-3.2,3.16-3.2,5.21,0,10.43,0,15.64,0,2.46,0,3.07.6,3.07,3.03,0,14.15,0,28.29,0,42.44,0,.54,0,1.08,0,1.91,1.26-.56,2.37-1.02,3.44-1.54,1.26-.61,2.32-.45,3.31.59,1.37,1.45,2.8,2.84,4.23,4.24.93.91,1.26,1.97.54,3.06-1.79,2.73-1.81,5.28.07,8.04.86,1.26,1.07,2.96,1.68,4.42.21.51.66,1.03,1.14,1.28.91.48,1.97.69,2.89,1.17.81.42,1.5,1.06,2.25,1.6v8.44c-1.35.74-2.65,1.64-4.08,2.19-1.37.53-2.3,1.15-2.55,2.73-.17,1.1-.69,2.15-1.15,3.18-.62,1.4-1.85,2.76-1.87,4.14-.02,1.45,1.09,2.91,1.73,4.36.46,1.04.28,1.94-.51,2.74-1.53,1.54-3.07,3.08-4.62,4.62-.79.79-1.7.97-2.74.5-1.11-.51-2.24-.98-3.34-1.51-.71-.35-1.27-.27-2,.08-2.2,1.04-4.45,2.02-6.74,2.82-1.08.38-1.71.85-2.12,1.95-.59,1.62-.86,3.45-2.4,4.58h-8.43Zm2.24-4.35c.82,0,1.51-.08,2.18.02,1.27.18,2.02-.26,2.33-1.54.19-.79.6-1.51.85-2.29.37-1.15,1.14-1.7,2.29-2.05,2.28-.7,4.65-1.33,6.73-2.45,4.35-2.34,2.97-2.41,8.04-.17.76.34,1.19.22,1.75-.34,1.98-2,2-1.98.83-4.61-.15-.33-.28-.67-.45-.99-.65-1.2-.4-2.25.23-3.44,1.17-2.19,2.52-4.41,3.02-6.78.61-2.9,2.03-4.49,4.8-5.05,1.34-.27,1.65-1.02,1.7-2.37.06-1.67-.36-2.63-2.05-2.97-.66-.13-1.27-.47-1.91-.69-1.08-.37-1.7-1.08-1.93-2.23-.68-3.27-1.95-6.31-3.79-9.1-.61-.92-.65-1.84-.18-2.83.33-.69.54-1.46.95-2.1.82-1.24.54-2.07-.5-3.11-1.08-1.08-1.97-1.54-3.34-.62-.63.42-1.4.63-2.09.97-.94.45-1.81.39-2.7-.19-2.87-1.89-6-3.12-9.34-3.92-.74-.18-1.43-.99-1.92-1.68-.46-.64-.72-1.47-.89-2.26-.31-1.48-1.14-1.81-2.58-1.83-1.55-.02-2.46.34-2.79,1.93-.15.74-.55,1.43-.8,2.16-.35.99-1.03,1.54-2.06,1.76-3.27.69-6.32,1.91-9.11,3.76-.96.64-1.9.74-2.94.22-1.01-.5-2.05-.97-3.11-1.36-.34-.12-.91-.08-1.18.14-2.45,1.91-2.44,1.97-1.2,4.76.18.41.33.85.55,1.24.63,1.12.37,2.09-.23,3.19-1.06,1.94-2.39,3.89-2.79,5.99-.68,3.49-2.34,5.61-5.84,6.29-.31.06-.74.43-.81.73-.61,2.39-.01,3.5,2.25,4.37.51.19,1,.42,1.52.58,1.15.36,1.64,1.17,2.03,2.31.91,2.69,1.77,5.45,3.15,7.9,1.08,1.9,1.18,3.39.22,5.28-1.29,2.54-1.17,2.57.86,4.6.53.53.96.67,1.64.32,1.01-.51,2.03-1.08,3.11-1.34.8-.19,1.88-.23,2.54.17,2.94,1.79,6.03,3.13,9.38,3.84,1.04.22,1.67.82,2.03,1.79.49,1.31,1.01,2.61,1.55,4Zm14.59-61.17v-41.11h-12.96v33.37c1.24,0,2.37.02,3.5,0,1.2-.03,1.97.53,2.39,1.63.45,1.18.89,2.37,1.38,3.54.14.35.37.81.67.92,1.64.6,3.32,1.11,5.03,1.66Zm-45.66-10.79v33.2c1.53-.23,2.64-.74,2.93-2.47.2-1.19.71-2.34,1.21-3.45.62-1.4,1.88-2.75,1.9-4.13.02-1.44-1.11-2.91-1.74-4.35-.46-1.03-.29-1.93.51-2.73,1.54-1.53,3.08-3.08,4.62-4.62.76-.76,1.62-.92,2.61-.53.31.12.64.2.97.31v-11.23h-13.01Zm.05,46.22v4.51h3.52c-.83-1.88-.44-4.46-3.52-4.51Z"/>
      <path class="cls-1" d="m32.64,82.47c0-10.88,0-21.76,0-32.63,0-2.62.6-3.23,3.17-3.24,5.26,0,10.51,0,15.77,0,2.24,0,2.96.69,2.96,2.91,0,21.94,0,43.87,0,65.81,0,2.17-.69,2.86-2.84,2.86-5.44.01-10.88.01-16.31,0-2.06,0-2.74-.72-2.74-2.81,0-10.97,0-21.94,0-32.91Zm4.43-31.44v62.69h13.03v-62.69h-13.03Z"/>
      <path class="cls-1" d="m106.17,4.35c-2.47,0-4.54,0-6.62,0-1.69,0-2.7-.85-2.68-2.21.02-1.31,1-2.13,2.61-2.14,4.08,0,8.16,0,12.24.02,2.03.01,2.9,1.06,2.51,3.08-.79,4.04-1.62,8.08-2.46,12.11-.31,1.49-1.29,2.21-2.59,1.99-1.27-.21-1.96-1.27-1.69-2.77.37-2.08.83-4.15,1.32-6.57-3.01,2.49-5.76,4.77-8.51,7.04-7.88,6.54-15.78,13.07-23.64,19.64-1.1.92-2.14,1.11-3.48.59-8.71-3.33-17.44-6.59-26.14-9.94-1.07-.41-1.74-.34-2.62.44-10.47,9.24-20.98,18.43-31.48,27.63-.14.12-.27.24-.41.35-1.26,1.04-2.48,1.07-3.37.08-.87-.97-.71-2.27.48-3.33,1.55-1.39,3.13-2.75,4.7-4.13,9.55-8.36,19.11-16.71,28.62-25.11,1.22-1.08,2.35-1.25,3.83-.68,8.7,3.34,17.43,6.62,26.14,9.95.96.37,1.6.28,2.42-.4,9.81-8.2,19.66-16.35,29.49-24.51.34-.29.68-.58,1.33-1.14Z"/>
      <path class="cls-1" d="m0,98.37c0-5.58,0-11.15,0-16.73,0-2.23.71-2.94,2.92-2.94,5.39,0,10.79,0,16.18,0,2.05,0,2.83.74,2.83,2.77.01,11.33.01,22.67,0,34,0,1.98-.75,2.71-2.73,2.71-5.48.02-10.97.02-16.45,0-2.04,0-2.74-.74-2.75-2.82,0-5.67,0-11.33,0-17Zm4.43-15.26v30.64h13.05v-30.7c-4.14,0-8.16,0-12.19,0-.26,0-.52.03-.86.06Z"/>
      <path class="cls-1" d="m85.98,102.66c0-9.18,7.52-16.68,16.71-16.67,9.17,0,16.72,7.56,16.7,16.71-.02,9.15-7.6,16.71-16.74,16.71-9.15,0-16.67-7.56-16.67-16.74Zm16.68-12.32c-6.82,0-12.34,5.55-12.33,12.38.01,6.74,5.52,12.27,12.28,12.32,6.74.06,12.4-5.56,12.42-12.34.02-6.78-5.57-12.37-12.37-12.36Z"/>
    </g>
  </g>
</svg>