<?xml version="1.0" encoding="UTF-8"?>
<svg id="Camada_2" data-name="Camada 2" xmlns="http://www.w3.org/2000/svg" viewBox="0 0 143.49 142.19">
  <defs>
    <style>
      .cls-1 {
        fill: #fff;
      }
    </style>
  </defs>
  <g id="Camada_1-2" data-name="Camada 1">
    <g>
      <path class="cls-1" d="m46.47,59.83c-1.51-1.97-1.47-2.76.2-4.42,1.91-1.9,3.84-3.79,5.63-5.55-2.28-2.29-4.47-4.49-6.59-6.62-.83.43-1.82,1.15-2.94,1.49-1.49.45-2.86-.13-3.96-1.21-2.34-2.3-4.68-4.6-6.95-6.96-1.84-1.91-1.81-4.46.07-6.35,9.57-9.6,19.15-19.18,28.75-28.75,1.94-1.93,4.48-1.93,6.45-.03,2.18,2.11,4.31,4.28,6.45,6.44,2.3,2.31,2.36,4.57.21,6.99-.12.14-.23.29-.26.33,10.07,10.07,20.08,20.08,30.18,30.18.09-.08.35-.28.59-.49,1.92-1.69,4.44-1.73,6.27.03,2.37,2.27,4.69,4.59,6.96,6.96,1.91,1.99,1.79,4.48-.27,6.55-6.23,6.25-12.48,12.49-18.72,18.73-3.14,3.14-6.27,6.28-9.41,9.41-2.48,2.47-4.84,2.47-7.28.03-1.84-1.84-3.68-3.69-5.52-5.53-2.99-2.99-3.07-4.75-.42-7.87-2.18-2.17-4.36-4.34-6.71-6.69-1.83,1.86-3.74,3.81-5.67,5.74-1.69,1.69-2.5,1.73-4.6.06-1.07,1.17-2.14,2.4-3.29,3.55-3.43,3.46-6.9,6.88-10.3,10.37-.45.46-.6,1.22-.9,1.83-.62,1.27-.97,2.81-1.91,3.77-8.32,8.46-16.73,16.83-25.14,25.2-2.51,2.5-5.82,2.51-8.37.04-2.46-2.38-4.88-4.8-7.26-7.27-2.36-2.45-2.36-5.75.02-8.15,8.44-8.48,16.87-16.96,25.41-25.34.98-.96,2.61-1.26,3.94-1.85.42-.19.95-.24,1.25-.54,4.69-4.65,9.34-9.33,14.08-14.08Zm53.46-11.01c-9.91-9.92-19.91-19.94-29.86-29.9-1.13,1.08-2.32,2.23-3.76,3.61.46.34.93.6,1.31.97,4.44,4.42,8.87,8.86,13.3,13.29.34.34.71.67.99,1.05.77,1.04.71,2.11-.19,3.01-.91.9-1.98.92-3.02.19-.39-.27-.71-.65-1.05-.99-4.47-4.47-8.93-8.93-13.39-13.4-.36-.36-.74-.69-1.05-.98-4.72,4.69-9.33,9.28-13.89,13.81,10.05,10.03,20.1,20.07,30.01,29.95,6.85-6.85,13.79-13.78,20.63-20.61Zm-68.6,30.1c-.45.33-.86.57-1.19.89-8.25,8.24-16.49,16.49-24.75,24.72-.89.89-.85,1.56.03,2.42,2.21,2.15,4.4,4.33,6.54,6.54.86.89,1.55.9,2.43.02,8.23-8.26,16.47-16.51,24.73-24.74.81-.81.91-1.47.06-2.31-2.27-2.22-4.5-4.49-6.76-6.73-.3-.29-.67-.51-1.09-.82Zm76.37-30.34c-9.56,9.55-19.08,19.06-28.51,28.48,2.04,2.04,4.21,4.21,6.21,6.21,9.46-9.45,18.99-18.97,28.37-28.35-2.03-2.12-4.15-4.34-6.07-6.35Zm-65.76-8.61c9.52-9.56,19-19.09,28.27-28.39-2.1-2.1-4.31-4.29-6.38-6.35-9.35,9.38-18.83,18.9-28.26,28.37,2.02,2.03,4.17,4.17,6.37,6.38Zm.08,42.71c4.61-4.61,9.14-9.14,13.55-13.56-1.9-1.9-3.86-3.87-5.65-5.66-4.47,4.48-9.02,9.02-13.55,13.55,1.81,1.82,3.75,3.76,5.64,5.66Zm9.26-25.13c3.4,3.41,6.76,6.77,10.03,10.05,1.46-1.47,3-3.03,4.35-4.4-3.28-3.31-6.65-6.71-9.94-10.02-1.45,1.43-2.98,2.94-4.44,4.38Z"/>
      <path class="cls-1" d="m103.49,142.19c-12.25,0-24.5,0-36.75,0-2.52,0-3.18-.65-3.18-3.15,0-3.96-.02-7.91,0-11.87.01-3.31,1.77-5.09,5.07-5.14,1.74-.03,3.47-.06,5.21.01.94.04,1.34-.26,1.54-1.22.77-3.77,1.64-7.53,2.46-11.29.58-2.67,1-3.03,3.66-3.03,14.66,0,29.32,0,43.99,0,2.63,0,3.05.35,3.61,2.89.84,3.81,1.73,7.61,2.51,11.43.2.99.63,1.24,1.55,1.21,1.78-.05,3.57-.05,5.35,0,3.12.08,4.93,1.9,4.96,5,.03,4.1.02,8.2,0,12.3-.01,2.06-.84,2.85-2.94,2.85-12.35,0-24.69,0-37.04,0Zm35.27-15.49h-70.51v10.77h70.51v-10.77Zm-11.63-4.76c-.71-3.22-1.45-6.25-2.02-9.32-.22-1.19-.64-1.54-1.86-1.53-13.16.05-26.32.03-39.48.03-.47,0-.95,0-1.52,0-.8,3.64-1.58,7.17-2.38,10.82h47.25Z"/>
    </g>
  </g>
</svg>