<?xml version="1.0" encoding="UTF-8"?>
<svg id="Camada_2" data-name="Camada 2" xmlns="http://www.w3.org/2000/svg" viewBox="0 0 257.49 81.46">
  <defs>
    <style>
      .cls-1 {
        fill: #fff;
      }

      .cls-2 {
        fill: #3fa5ea;
      }
    </style>
  </defs>
  <g id="Camada_1-2" data-name="Camada 1">
    <g>
      <g>
        <path class="cls-2" d="m0,38.8c0-3.45.5-6.47,1.5-9.04,1-2.58,2.33-4.71,3.98-6.42,1.65-1.7,3.55-2.98,5.7-3.83,2.15-.85,4.35-1.28,6.6-1.28,5.25,0,9.28,1.64,12.08,4.92,2.8,3.28,4.2,8.27,4.2,14.97v1.16c0,.48-.03.91-.08,1.31H7.28c.3,4.05,1.47,7.13,3.53,9.23,2.05,2.1,5.25,3.15,9.6,3.15,2.45,0,4.51-.21,6.19-.64,1.68-.42,2.94-.84,3.79-1.24l.98,5.85c-.85.45-2.34.93-4.46,1.43-2.13.5-4.54.75-7.24.75-3.4,0-6.34-.51-8.82-1.54-2.48-1.02-4.52-2.44-6.12-4.24-1.6-1.8-2.79-3.94-3.56-6.42-.78-2.48-1.16-5.19-1.16-8.14Zm26.79-3.83c.05-3.15-.74-5.74-2.36-7.77-1.63-2.03-3.86-3.04-6.72-3.04-1.6,0-3.01.31-4.24.94-1.23.63-2.26,1.44-3.11,2.44-.85,1-1.51,2.15-1.99,3.45-.48,1.3-.79,2.63-.94,3.98h19.36Z"/>
        <path class="cls-2" d="m52.53,18.23c2.8,0,5.17.36,7.09,1.09,1.93.73,3.48,1.75,4.65,3.08,1.17,1.33,2.01,2.9,2.51,4.73.5,1.83.75,3.84.75,6.04v24.39c-.6.1-1.44.24-2.51.41-1.08.18-2.29.34-3.64.49-1.35.15-2.81.29-4.39.41-1.58.12-3.14.19-4.69.19-2.2,0-4.23-.22-6.08-.67-1.85-.45-3.45-1.16-4.8-2.14s-2.4-2.26-3.15-3.86c-.75-1.6-1.13-3.53-1.13-5.78s.44-4,1.31-5.55c.87-1.55,2.06-2.8,3.56-3.75,1.5-.95,3.25-1.65,5.25-2.1,2-.45,4.1-.67,6.3-.67.7,0,1.43.04,2.18.11.75.08,1.46.18,2.14.3.68.13,1.26.24,1.76.34.5.1.85.18,1.05.23v-1.95c0-1.15-.13-2.29-.38-3.41-.25-1.13-.7-2.13-1.35-3-.65-.88-1.54-1.58-2.66-2.1-1.13-.52-2.59-.79-4.39-.79-2.3,0-4.31.16-6.04.49-1.73.33-3.01.66-3.86,1.01l-.83-5.78c.9-.4,2.4-.79,4.5-1.16s4.38-.56,6.83-.56Zm.6,34.97c1.65,0,3.11-.04,4.39-.11,1.28-.07,2.34-.21,3.19-.41v-11.63c-.5-.25-1.31-.46-2.44-.64-1.13-.17-2.49-.26-4.09-.26-1.05,0-2.16.07-3.34.22-1.18.15-2.25.46-3.23.94-.98.48-1.79,1.12-2.44,1.95-.65.83-.98,1.91-.98,3.26,0,2.5.8,4.24,2.4,5.21,1.6.98,3.78,1.46,6.53,1.46Z"/>
        <path class="cls-2" d="m83.97,53.2c2.85,0,4.96-.38,6.34-1.13,1.38-.75,2.06-1.95,2.06-3.6s-.68-3.05-2.03-4.05c-1.35-1-3.58-2.12-6.68-3.38-1.5-.6-2.94-1.21-4.31-1.84-1.38-.62-2.56-1.36-3.56-2.21-1-.85-1.8-1.88-2.4-3.08-.6-1.2-.9-2.68-.9-4.43,0-3.45,1.28-6.19,3.83-8.22,2.55-2.03,6.03-3.04,10.43-3.04,1.1,0,2.2.06,3.3.19,1.1.12,2.13.28,3.08.45.95.18,1.79.36,2.51.56.72.2,1.29.38,1.69.53l-1.28,6c-.75-.4-1.93-.81-3.53-1.24-1.6-.42-3.53-.64-5.78-.64-1.95,0-3.65.39-5.1,1.16-1.45.78-2.18,1.99-2.18,3.64,0,.85.16,1.6.49,2.25.32.65.83,1.24,1.5,1.76.68.52,1.51,1.01,2.51,1.46,1,.45,2.2.93,3.6,1.43,1.85.7,3.5,1.39,4.95,2.06,1.45.68,2.69,1.46,3.71,2.36,1.02.9,1.81,1.99,2.36,3.26.55,1.28.83,2.84.83,4.69,0,3.6-1.34,6.33-4.01,8.18-2.68,1.85-6.49,2.78-11.44,2.78-3.45,0-6.15-.29-8.1-.86-1.95-.57-3.28-1.01-3.98-1.31l1.28-6c.8.3,2.08.75,3.83,1.35,1.75.6,4.08.9,6.98.9Z"/>
      </g>
      <g>
        <path class="cls-1" d="m150.48,38.5c0-2.85.46-5.54,1.39-8.07.92-2.53,2.26-4.73,4.01-6.6,1.75-1.88,3.88-3.36,6.38-4.46,2.5-1.1,5.35-1.65,8.55-1.65,2.1,0,4.03.19,5.78.56,1.75.38,3.45.91,5.1,1.61l-2.33,8.93c-1.05-.4-2.2-.75-3.45-1.05-1.25-.3-2.65-.45-4.2-.45-3.3,0-5.77,1.03-7.39,3.08-1.63,2.05-2.44,4.75-2.44,8.1,0,3.55.76,6.3,2.29,8.25,1.53,1.95,4.19,2.93,7.99,2.93,1.35,0,2.8-.12,4.35-.38,1.55-.25,2.98-.65,4.28-1.2l1.58,9.15c-1.3.55-2.93,1.02-4.88,1.43-1.95.4-4.1.6-6.45.6-3.6,0-6.7-.54-9.31-1.61-2.6-1.08-4.74-2.54-6.42-4.39-1.68-1.85-2.9-4.04-3.68-6.57-.78-2.53-1.16-5.26-1.16-8.22Z"/>
        <path class="cls-1" d="m218.54,38.42c0,3.1-.45,5.94-1.35,8.52-.9,2.58-2.2,4.78-3.9,6.6-1.7,1.83-3.74,3.24-6.12,4.24-2.38,1-5.04,1.5-7.99,1.5s-5.54-.5-7.92-1.5c-2.38-1-4.42-2.41-6.12-4.24-1.7-1.83-3.03-4.03-3.98-6.6-.95-2.58-1.43-5.42-1.43-8.52s.49-5.93,1.46-8.48c.98-2.55,2.33-4.73,4.05-6.53,1.73-1.8,3.78-3.2,6.15-4.2,2.38-1,4.96-1.5,7.77-1.5s5.46.5,7.84,1.5c2.38,1,4.41,2.4,6.12,4.2,1.7,1.8,3.03,3.98,3.98,6.53.95,2.55,1.43,5.38,1.43,8.48Zm-11.41,0c0-3.45-.69-6.17-2.06-8.14-1.38-1.98-3.34-2.96-5.89-2.96s-4.53.99-5.93,2.96c-1.4,1.98-2.1,4.69-2.1,8.14s.7,6.19,2.1,8.22c1.4,2.03,3.38,3.04,5.93,3.04s4.51-1.01,5.89-3.04c1.38-2.03,2.06-4.76,2.06-8.22Z"/>
        <path class="cls-1" d="m257.49,38.5c0,3.15-.46,6-1.39,8.55-.93,2.55-2.26,4.73-4.01,6.53-1.75,1.8-3.9,3.19-6.45,4.17-2.55.97-5.45,1.46-8.7,1.46-1.35,0-2.77-.06-4.24-.19-1.48-.13-2.93-.29-4.35-.49-1.43-.2-2.79-.44-4.09-.71-1.3-.27-2.45-.56-3.45-.86V1.8l11.18-1.8v19.66c1.25-.55,2.55-.98,3.9-1.28s2.8-.45,4.35-.45c2.8,0,5.28.49,7.43,1.46,2.15.98,3.95,2.36,5.4,4.17,1.45,1.8,2.55,3.97,3.3,6.49.75,2.53,1.13,5.34,1.13,8.44Zm-11.41-.3c0-7.2-2.65-10.81-7.95-10.81-1.15,0-2.29.15-3.41.45s-2.04.67-2.74,1.13v20.33c.55.1,1.25.19,2.1.26.85.08,1.77.11,2.78.11,3.05,0,5.35-1.05,6.9-3.15,1.55-2.1,2.33-4.88,2.33-8.33Z"/>
      </g>
      <path class="cls-1" d="m108.16,72.99h-4.64l34.83-56.28c2.9-4.69,8.02-7.54,13.54-7.54h8.76l-32.66,52.78c-4.25,6.87-11.75,11.05-19.83,11.05Z"/>
      <g>
        <path class="cls-1" d="m145.72,70.88c-.94,0-1.66.29-2.16.88-.5.58-.75,1.4-.75,2.43,0,.49.06.94.18,1.35.12.41.29.76.53,1.05s.52.52.87.68c.35.16.75.24,1.22.24.29,0,.54-.01.75-.03.21-.02.38-.05.5-.08v-3.28h1.66v4.39c-.23.09-.62.18-1.16.29-.55.11-1.17.16-1.89.16-.66,0-1.26-.11-1.81-.32s-1.01-.52-1.39-.92-.68-.9-.89-1.49c-.21-.59-.32-1.27-.32-2.03s.12-1.44.35-2.03.55-1.09.96-1.5c.4-.41.88-.72,1.42-.93.55-.21,1.13-.32,1.74-.32.42,0,.8.03,1.13.08.33.06.61.12.85.19s.43.15.59.22c.15.08.26.14.32.17l-.5,1.36c-.26-.16-.59-.29-.98-.4-.39-.11-.8-.17-1.23-.17Z"/>
        <path class="cls-1" d="m149.25,75.35c0-.61.09-1.14.27-1.6s.42-.84.72-1.14c.3-.3.64-.53,1.03-.69.39-.15.78-.23,1.19-.23.95,0,1.69.29,2.22.88s.8,1.47.8,2.64c0,.09,0,.19,0,.3,0,.11-.01.21-.02.3h-4.55c.04.55.24.98.59,1.29.35.3.85.46,1.51.46.39,0,.74-.04,1.06-.11.32-.07.57-.15.76-.22l.21,1.31c-.09.04-.21.09-.36.14-.15.05-.33.09-.53.13-.2.04-.41.07-.64.1s-.46.04-.7.04c-.61,0-1.13-.09-1.58-.27-.45-.18-.82-.43-1.11-.75-.29-.32-.51-.7-.65-1.13-.14-.44-.21-.91-.21-1.43Zm4.63-.71c0-.22-.03-.43-.09-.63-.06-.2-.15-.37-.27-.51-.12-.15-.26-.26-.44-.34-.17-.08-.38-.13-.61-.13s-.46.05-.65.14c-.18.09-.34.21-.47.36-.13.15-.23.32-.3.51s-.12.39-.15.59h2.97Z"/>
        <path class="cls-1" d="m158.15,77.61c.42,0,.73-.05.92-.15.19-.1.29-.27.29-.52,0-.23-.1-.42-.31-.57s-.55-.31-1.02-.49c-.29-.11-.56-.22-.8-.34-.24-.12-.45-.26-.63-.42s-.31-.35-.42-.57c-.1-.22-.15-.5-.15-.82,0-.63.23-1.13.7-1.5.47-.37,1.1-.55,1.9-.55.4,0,.79.04,1.16.11.37.08.65.15.83.22l-.29,1.29c-.18-.08-.4-.15-.67-.22-.27-.07-.59-.1-.95-.1-.33,0-.59.06-.79.17-.2.11-.3.28-.3.51,0,.11.02.22.06.3s.11.17.2.24c.1.08.22.15.38.22.16.07.35.15.58.23.38.14.7.28.96.42.26.14.48.29.65.46.17.17.3.37.38.59s.12.48.12.79c0,.66-.24,1.16-.73,1.5-.49.34-1.18.51-2.09.51-.61,0-1.09-.05-1.46-.15-.37-.1-.63-.18-.78-.24l.28-1.33c.24.1.52.19.85.28s.71.13,1.13.13Z"/>
        <path class="cls-1" d="m161.63,70.04l1.6-.26v2.08h2.45v1.33h-2.45v2.81c0,.55.09.95.26,1.19s.47.36.9.36c.29,0,.55-.03.77-.09s.4-.12.53-.17l.26,1.27c-.18.08-.43.16-.73.24-.3.08-.65.12-1.06.12-.49,0-.9-.07-1.23-.2-.33-.13-.59-.32-.78-.57-.19-.25-.33-.55-.41-.91-.08-.36-.12-.76-.12-1.22v-5.97Z"/>
        <path class="cls-1" d="m168.78,71.69c.53,0,.97.07,1.33.2.36.13.65.32.86.55.22.24.37.53.46.86.09.34.14.71.14,1.11v4.18c-.25.05-.62.12-1.11.19-.5.07-1.06.11-1.68.11-.41,0-.79-.04-1.13-.12s-.64-.21-.88-.38c-.24-.18-.43-.4-.57-.69-.14-.28-.2-.63-.2-1.04s.08-.73.23-1,.36-.49.63-.67c.26-.17.57-.29.92-.37.35-.07.71-.11,1.09-.11.18,0,.36.01.55.03.19.02.4.06.62.11v-.26c0-.18-.02-.36-.07-.53s-.12-.31-.23-.44c-.11-.13-.25-.23-.44-.3s-.41-.11-.68-.11c-.37,0-.71.03-1.02.08-.31.05-.56.11-.75.18l-.2-1.29c.2-.07.5-.14.88-.21.39-.07.8-.11,1.24-.11Zm2.33-1.89c-.08.14-.19.28-.31.41-.12.13-.26.24-.42.32s-.33.13-.53.13c-.16,0-.31-.02-.45-.07-.14-.05-.28-.1-.42-.17s-.27-.12-.4-.17c-.13-.05-.25-.07-.38-.07-.17,0-.31.06-.43.17-.12.11-.21.25-.28.4l-.8-.47c.04-.12.11-.26.19-.4.08-.15.19-.28.32-.41.13-.13.27-.23.43-.32s.33-.13.53-.13c.16,0,.31.03.45.08.14.05.28.11.42.17.14.06.27.11.4.17s.25.08.38.08c.17,0,.31-.06.43-.18.12-.12.21-.25.28-.4l.8.47c-.05.12-.12.26-.2.4Zm-2.2,7.84c.49,0,.87-.03,1.12-.08v-1.77c-.09-.03-.22-.05-.38-.08s-.35-.04-.55-.04c-.18,0-.35.01-.53.04s-.34.07-.49.14c-.15.07-.26.17-.35.3-.09.13-.13.29-.13.48,0,.38.12.64.36.78.24.15.56.22.96.22Z"/>
        <path class="cls-1" d="m179.03,75.31c0,.55-.08,1.04-.24,1.49s-.38.83-.67,1.15-.64.56-1.05.74-.86.26-1.35.26-.94-.09-1.35-.26-.75-.42-1.04-.74-.52-.7-.68-1.15-.24-.94-.24-1.49.08-1.04.24-1.48c.16-.44.39-.82.69-1.14s.64-.56,1.05-.73c.4-.17.85-.26,1.33-.26s.93.08,1.34.26c.41.17.76.42,1.05.73s.52.7.68,1.14c.16.44.24.94.24,1.48Zm-1.64,0c0-.69-.15-1.23-.44-1.63-.29-.4-.71-.6-1.23-.6s-.94.2-1.23.6c-.29.4-.44.94-.44,1.63s.15,1.24.44,1.65c.29.4.71.61,1.23.61s.94-.2,1.23-.61c.29-.4.44-.95.44-1.65Z"/>
        <path class="cls-1" d="m188.1,78.55c-.32.1-.71.18-1.19.26-.48.08-.98.12-1.51.12s-1.03-.08-1.46-.25-.8-.41-1.1-.72c-.3-.31-.54-.69-.7-1.13s-.24-.94-.24-1.5.07-1.04.2-1.48c.14-.44.34-.82.6-1.14.26-.32.58-.56.96-.73.38-.17.81-.26,1.31-.26.33,0,.63.04.88.12s.47.17.66.26v-3.31l1.6-.26v10.02Zm-4.58-3.26c0,.7.17,1.25.5,1.65.33.4.8.6,1.38.6.25,0,.47-.01.65-.03.18-.02.33-.05.44-.07v-3.96c-.14-.1-.33-.19-.56-.27-.23-.08-.48-.12-.74-.12-.58,0-1,.2-1.27.59-.27.4-.4.93-.4,1.61Z"/>
        <path class="cls-1" d="m189.01,75.35c0-.61.09-1.14.27-1.6s.42-.84.72-1.14c.3-.3.64-.53,1.03-.69.39-.15.78-.23,1.19-.23.95,0,1.69.29,2.22.88s.8,1.47.8,2.64c0,.09,0,.19,0,.3,0,.11-.01.21-.02.3h-4.55c.04.55.24.98.59,1.29.35.3.85.46,1.51.46.39,0,.74-.04,1.06-.11.32-.07.57-.15.76-.22l.21,1.31c-.09.04-.21.09-.36.14-.15.05-.33.09-.53.13-.2.04-.41.07-.64.1s-.46.04-.7.04c-.61,0-1.13-.09-1.58-.27-.45-.18-.82-.43-1.11-.75-.29-.32-.51-.7-.65-1.13-.14-.44-.21-.91-.21-1.43Zm4.63-.71c0-.22-.03-.43-.09-.63-.06-.2-.15-.37-.27-.51-.12-.15-.26-.26-.44-.34-.17-.08-.38-.13-.61-.13s-.46.05-.65.14c-.18.09-.34.21-.47.36-.13.15-.23.32-.3.51s-.12.39-.15.59h2.97Z"/>
        <path class="cls-1" d="m202.66,78.96c-.69,0-1.3-.11-1.85-.32-.54-.21-1.01-.52-1.38-.93-.38-.41-.67-.91-.87-1.5s-.3-1.27-.3-2.03.12-1.44.35-2.03.55-1.09.96-1.5c.4-.41.88-.72,1.42-.93.55-.21,1.13-.32,1.75-.32.38,0,.72.03,1.03.08.31.06.58.12.8.19s.42.15.57.22.25.14.32.17l-.49,1.36c-.21-.13-.51-.26-.9-.38-.39-.12-.82-.18-1.27-.18-.4,0-.76.07-1.11.2-.34.14-.64.34-.89.61s-.45.62-.59,1.03-.21.89-.21,1.44c0,.48.05.93.17,1.33.11.4.28.75.51,1.05.23.29.52.52.87.69.35.16.77.24,1.27.24.59,0,1.07-.06,1.44-.18.37-.12.65-.23.86-.34l.45,1.36c-.11.07-.25.14-.43.21-.18.07-.39.14-.64.21-.25.07-.52.12-.83.16-.31.04-.64.06-.99.06Z"/>
        <path class="cls-1" d="m212.26,75.31c0,.55-.08,1.04-.24,1.49s-.38.83-.67,1.15-.64.56-1.05.74-.86.26-1.35.26-.94-.09-1.35-.26-.75-.42-1.04-.74-.52-.7-.68-1.15-.24-.94-.24-1.49.08-1.04.24-1.48c.16-.44.39-.82.69-1.14s.64-.56,1.05-.73c.4-.17.85-.26,1.33-.26s.93.08,1.34.26c.41.17.76.42,1.05.73s.52.7.68,1.14c.16.44.24.94.24,1.48Zm-1.64,0c0-.69-.15-1.23-.44-1.63-.29-.4-.71-.6-1.23-.6s-.94.2-1.23.6c-.29.4-.44.94-.44,1.63s.15,1.24.44,1.65c.29.4.71.61,1.23.61s.94-.2,1.23-.61c.29-.4.44-.95.44-1.65Z"/>
        <path class="cls-1" d="m219.38,75.32c0,.55-.08,1.05-.24,1.5-.16.44-.4.82-.7,1.14s-.67.56-1.1.73-.92.25-1.46.25-1.03-.04-1.51-.12-.88-.17-1.19-.26v-9.76l1.6-.26v3.57c.18-.1.41-.18.68-.26.27-.08.56-.12.89-.12.48,0,.92.08,1.3.26.38.17.7.42.96.73.25.32.45.7.59,1.14.14.44.2.93.2,1.47Zm-1.64-.03c0-.68-.13-1.21-.4-1.61-.27-.4-.69-.59-1.27-.59-.26,0-.51.04-.75.12s-.42.17-.56.26v3.97c.11.03.26.05.44.07.18.02.4.03.65.03.59,0,1.05-.2,1.38-.6.33-.4.5-.95.5-1.65Z"/>
        <path class="cls-1" d="m224.21,73.3c-.13-.04-.31-.09-.55-.14-.23-.05-.5-.07-.81-.07-.18,0-.36.02-.56.05s-.34.07-.42.09v5.53h-1.6v-6.57c.31-.11.69-.22,1.15-.32.46-.1.97-.15,1.54-.15.11,0,.23,0,.37.02.14.01.28.03.42.05.14.02.28.05.41.08.13.03.24.06.32.09l-.28,1.34Z"/>
        <path class="cls-1" d="m227.16,71.69c.53,0,.97.07,1.33.2.36.13.65.32.86.55.22.24.37.53.46.86.09.34.14.71.14,1.11v4.18c-.25.05-.62.12-1.11.19-.5.07-1.06.11-1.68.11-.41,0-.79-.04-1.13-.12s-.64-.21-.88-.38c-.24-.18-.43-.4-.57-.69-.14-.28-.2-.63-.2-1.04s.08-.73.23-1,.36-.49.63-.67c.26-.17.57-.29.92-.37.35-.07.71-.11,1.09-.11.18,0,.36.01.55.03.19.02.4.06.62.11v-.26c0-.18-.02-.36-.07-.53s-.12-.31-.23-.44c-.11-.13-.25-.23-.44-.3s-.41-.11-.68-.11c-.37,0-.71.03-1.02.08-.31.05-.56.11-.75.18l-.2-1.29c.2-.07.5-.14.88-.21.39-.07.8-.11,1.24-.11Zm.13,5.95c.49,0,.87-.03,1.12-.08v-1.77c-.09-.03-.22-.05-.38-.08s-.35-.04-.55-.04c-.18,0-.35.01-.53.04s-.34.07-.49.14c-.15.07-.26.17-.35.3-.09.13-.13.29-.13.48,0,.38.12.64.36.78.24.15.56.22.96.22Z"/>
        <path class="cls-1" d="m231.16,72.09c.31-.09.71-.17,1.2-.25.49-.08,1.04-.12,1.64-.12.56,0,1.03.08,1.41.23.38.15.68.37.9.65.22.28.38.61.47,1,.09.39.14.82.14,1.29v3.88h-1.6v-3.63c0-.37-.02-.68-.07-.94-.05-.26-.13-.47-.24-.63-.11-.16-.26-.28-.45-.36-.19-.08-.42-.11-.69-.11-.2,0-.41.01-.63.04s-.38.05-.49.07v5.56h-1.6v-6.67Z"/>
        <path class="cls-1" d="m241.3,79.28c.28.13.48.28.59.45s.17.37.17.62c0,.31-.13.57-.4.79s-.66.33-1.19.33c-.42,0-.8-.06-1.12-.17l.18-.95c.09.03.2.06.34.09s.29.05.44.05.27-.03.35-.08.13-.13.13-.24c0-.14-.06-.24-.19-.31-.12-.07-.25-.12-.37-.16l-.13-.04c.04-.11.08-.24.15-.39.06-.15.12-.28.18-.4-.46-.08-.85-.22-1.19-.42-.33-.2-.61-.46-.83-.77-.22-.31-.38-.67-.49-1.06s-.17-.83-.17-1.29c0-.51.08-.99.24-1.43.16-.44.38-.83.68-1.15s.65-.58,1.07-.76.9-.28,1.42-.28c.65,0,1.27.12,1.85.36l-.34,1.31c-.18-.08-.39-.15-.63-.2-.23-.05-.48-.08-.75-.08-.62,0-1.1.2-1.42.59-.33.39-.49.94-.49,1.66s.15,1.23.46,1.63c.31.4.83.6,1.56.6.27,0,.54-.03.8-.08s.49-.12.69-.2l.22,1.32c-.16.08-.39.15-.7.21-.31.06-.63.1-.96.12-.04.07-.07.14-.09.2-.03.06-.05.11-.07.16Z"/>
        <path class="cls-1" d="m245.92,71.69c.53,0,.97.07,1.33.2.36.13.65.32.86.55.22.24.37.53.46.86.09.34.14.71.14,1.11v4.18c-.25.05-.62.12-1.11.19-.5.07-1.06.11-1.68.11-.41,0-.79-.04-1.13-.12s-.64-.21-.88-.38c-.24-.18-.43-.4-.57-.69-.14-.28-.2-.63-.2-1.04s.08-.73.23-1,.36-.49.63-.67c.26-.17.57-.29.92-.37.35-.07.71-.11,1.09-.11.18,0,.36.01.55.03.19.02.4.06.62.11v-.26c0-.18-.02-.36-.07-.53s-.12-.31-.23-.44c-.11-.13-.25-.23-.44-.3s-.41-.11-.68-.11c-.37,0-.71.03-1.02.08-.31.05-.56.11-.75.18l-.2-1.29c.2-.07.5-.14.88-.21.39-.07.8-.11,1.24-.11Zm.13,5.95c.49,0,.87-.03,1.12-.08v-1.77c-.09-.03-.22-.05-.38-.08s-.35-.04-.55-.04c-.18,0-.35.01-.53.04s-.34.07-.49.14c-.15.07-.26.17-.35.3-.09.13-.13.29-.13.48,0,.38.12.64.36.78.24.15.56.22.96.22Z"/>
        <path class="cls-1" d="m251.66,77.61c.42,0,.73-.05.92-.15.19-.1.29-.27.29-.52,0-.23-.1-.42-.31-.57s-.55-.31-1.02-.49c-.29-.11-.56-.22-.8-.34-.24-.12-.45-.26-.63-.42s-.31-.35-.42-.57c-.1-.22-.15-.5-.15-.82,0-.63.23-1.13.7-1.5.47-.37,1.1-.55,1.9-.55.4,0,.79.04,1.16.11.37.08.65.15.83.22l-.29,1.29c-.18-.08-.4-.15-.67-.22-.27-.07-.59-.1-.95-.1-.33,0-.59.06-.79.17-.2.11-.3.28-.3.51,0,.11.02.22.06.3s.11.17.2.24c.1.08.22.15.38.22.16.07.35.15.58.23.38.14.7.28.96.42.26.14.48.29.65.46.17.17.3.37.38.59s.12.48.12.79c0,.66-.24,1.16-.73,1.5-.49.34-1.18.51-2.09.51-.61,0-1.09-.05-1.46-.15-.37-.1-.63-.18-.78-.24l.28-1.33c.24.1.52.19.85.28s.71.13,1.13.13Z"/>
      </g>
      <path class="cls-2" d="m117.84,17.67c-2.81-5.18-8.23-8.4-14.12-8.4h-9.28l22.52,37.29,8.96-13.99-8.09-14.9Z"/>
    </g>
  </g>
</svg>