<?xml version="1.0" encoding="UTF-8"?>
<svg id="Camada_2" data-name="Camada 2" xmlns="http://www.w3.org/2000/svg" viewBox="0 0 415 76.48">
  <defs>
    <style>
      .cls-1 {
        fill: #fff;
      }

      .cls-2 {
        fill: #f46c3d;
      }
    </style>
  </defs>
  <g id="Camada_1-2" data-name="Camada 1">
    <g>
      <g>
        <path class="cls-2" d="m122.57,25.58c3.24,0,6.02.61,8.33,1.82,2.32,1.22,4.08,2.91,5.3,5.09,1.22,2.18,1.82,4.68,1.82,7.5s-.61,5.39-1.82,7.61c-1.22,2.22-2.98,3.95-5.3,5.18-2.31,1.24-5.09,1.85-8.33,1.85h-8.33v11.46h-9.49V25.58h17.83Zm-.52,20.89c2.04,0,3.61-.58,4.69-1.74,1.08-1.16,1.62-2.66,1.62-4.51s-.54-3.42-1.62-4.6c-1.08-1.18-2.64-1.76-4.69-1.76h-7.93v12.62h7.93Z"/>
        <path class="cls-2" d="m138.54,66.1v-28.59h8.16c0,1.54-.1,3.26-.29,5.15h.17c.58-1.66,1.59-3.04,3.04-4.14s3.17-1.65,5.18-1.65c1.39,0,2.76.25,4.11.75l-2.26,7.7c-1.12-.35-2.1-.52-2.95-.52-1.85,0-3.33.59-4.43,1.77-1.1,1.18-1.65,2.88-1.65,5.12v14.41h-9.09Z"/>
        <path class="cls-2" d="m163.49,64.91c-2.31-1.22-4.1-2.94-5.35-5.18-1.25-2.24-1.88-4.82-1.88-7.75s.66-5.6,1.97-7.9c1.31-2.29,3.18-4.07,5.61-5.32,2.43-1.25,5.25-1.88,8.45-1.88s5.85.61,8.16,1.82c2.32,1.22,4.1,2.94,5.35,5.18,1.25,2.24,1.88,4.82,1.88,7.76s-.66,5.65-1.97,7.93c-1.31,2.28-3.17,4.04-5.59,5.3-2.41,1.25-5.24,1.88-8.48,1.88s-5.85-.61-8.16-1.82Zm13.34-7.7c1.25-1.37,1.88-3.12,1.88-5.24,0-2.24-.61-4.07-1.82-5.5-1.22-1.43-2.81-2.14-4.77-2.14s-3.7.69-4.98,2.05c-1.27,1.37-1.91,3.12-1.91,5.24,0,2.24.62,4.07,1.85,5.5,1.23,1.43,2.84,2.14,4.8,2.14s3.69-.68,4.95-2.05Z"/>
      </g>
      <g>
        <path class="cls-1" d="m225.74,25.58h8.8v40.52h-9.38v-18c0-2.82.13-5.44.4-7.87l-.23-.12c-1,1.97-2.41,4.19-4.23,6.66l-7.87,11.17h-2.08l-7.81-11.11c-2.08-2.89-3.51-5.11-4.28-6.66l-.23.12c.31,2.78.46,5.4.46,7.87v17.94h-9.38V25.58h8.86l13.54,19.33,13.43-19.33Z"/>
        <path class="cls-1" d="m260.61,39.56c2.45,1.79,3.68,4.66,3.68,8.59v17.94h-8.28c0-1.54.1-3.28.29-5.21h-.17c-.77,1.74-2.03,3.12-3.76,4.17s-3.72,1.56-5.96,1.56c-2.93,0-5.36-.84-7.29-2.52-1.93-1.68-2.89-3.93-2.89-6.74,0-2.97,1.07-5.29,3.21-6.95,2.14-1.66,4.91-2.49,8.31-2.49,1.39,0,2.74.12,4.05.38,1.31.25,2.45.63,3.42,1.13v-.58c0-1.77-.56-3.07-1.68-3.88-1.12-.81-2.76-1.22-4.92-1.22-2.62,0-5.52.54-8.68,1.62l-1.68-6.31c1.97-.77,3.86-1.33,5.67-1.68,1.81-.35,3.76-.52,5.85-.52,4.78,0,8.4.9,10.85,2.69Zm-7.26,18.78c1.12-.85,1.79-2.03,2.03-3.53-.77-.42-1.7-.76-2.78-1.01-1.08-.25-2.06-.38-2.95-.38-1.35,0-2.42.27-3.21.81-.79.54-1.19,1.33-1.19,2.37,0,.96.39,1.71,1.16,2.23.77.52,1.74.78,2.89.78,1.58,0,2.93-.42,4.05-1.27Z"/>
        <path class="cls-1" d="m267.12,66.1v-28.59h8.16c0,1.54-.1,3.26-.29,5.15h.17c.58-1.66,1.59-3.04,3.04-4.14s3.17-1.65,5.18-1.65c1.39,0,2.76.25,4.11.75l-2.26,7.7c-1.12-.35-2.1-.52-2.95-.52-1.85,0-3.33.59-4.43,1.77-1.1,1.18-1.65,2.88-1.65,5.12v14.41h-9.09Z"/>
        <path class="cls-1" d="m330.99,40.14c1.95,2.18,2.92,5.12,2.92,8.83v17.13h-9.09v-16.15c0-1.62-.4-2.89-1.19-3.82-.79-.93-1.92-1.39-3.39-1.39-1.54,0-2.78.49-3.7,1.48-.93.98-1.39,2.27-1.39,3.85v16.03h-8.97v-16.09c0-1.66-.41-2.97-1.22-3.94-.81-.96-1.97-1.45-3.47-1.45s-2.71.5-3.62,1.5c-.91,1-1.36,2.32-1.36,3.94v16.03h-9.09v-28.59h8.16c0,1.5-.19,3.28-.58,5.33h.17c.73-1.81,1.85-3.26,3.36-4.34,1.5-1.08,3.34-1.62,5.5-1.62s3.96.5,5.5,1.5c1.54,1,2.62,2.43,3.24,4.28.93-2.01,2.27-3.47,4.02-4.4,1.76-.93,3.77-1.39,6.05-1.39,3.47,0,6.18,1.09,8.13,3.27Z"/>
        <path class="cls-1" d="m342.19,64.91c-2.31-1.22-4.1-2.94-5.35-5.18-1.25-2.24-1.88-4.82-1.88-7.75s.66-5.6,1.97-7.9c1.31-2.29,3.18-4.07,5.61-5.32,2.43-1.25,5.25-1.88,8.45-1.88s5.85.61,8.16,1.82c2.32,1.22,4.1,2.94,5.35,5.18,1.25,2.24,1.88,4.82,1.88,7.76s-.66,5.65-1.97,7.93c-1.31,2.28-3.17,4.04-5.59,5.3-2.41,1.25-5.24,1.88-8.48,1.88s-5.85-.61-8.16-1.82Zm13.34-7.7c1.25-1.37,1.88-3.12,1.88-5.24,0-2.24-.61-4.07-1.82-5.5-1.22-1.43-2.81-2.14-4.77-2.14s-3.7.69-4.98,2.05c-1.27,1.37-1.91,3.12-1.91,5.24,0,2.24.62,4.07,1.85,5.5,1.23,1.43,2.84,2.14,4.8,2.14s3.69-.68,4.95-2.05Z"/>
        <path class="cls-1" d="m367.77,66.1v-28.59h8.16c0,1.54-.1,3.26-.29,5.15h.17c.58-1.66,1.59-3.04,3.04-4.14s3.17-1.65,5.18-1.65c1.39,0,2.76.25,4.11.75l-2.26,7.7c-1.12-.35-2.1-.52-2.95-.52-1.85,0-3.33.59-4.43,1.77-1.1,1.18-1.65,2.88-1.65,5.12v14.41h-9.09Z"/>
        <path class="cls-1" d="m414.66,54.41h-20.03c.23,1.66,1.04,2.96,2.43,3.91,1.39.95,2.95,1.42,4.69,1.42,2.93,0,5.52-.89,7.76-2.66l3.88,5.38c-1.43,1.39-3.21,2.45-5.35,3.18s-4.39,1.1-6.74,1.1c-3.01,0-5.7-.56-8.07-1.68-2.37-1.12-4.25-2.8-5.64-5.04-1.39-2.24-2.08-4.96-2.08-8.16s.71-5.88,2.14-8.13c1.43-2.26,3.32-3.96,5.67-5.12,2.35-1.16,4.9-1.74,7.64-1.74s5.11.54,7.23,1.62c2.12,1.08,3.79,2.67,5.01,4.78,1.22,2.1,1.82,4.62,1.82,7.55,0,1.24-.12,2.43-.35,3.59Zm-18.12-9.29c-1.12.95-1.76,2.33-1.91,4.14h11.75c.04-1.81-.48-3.19-1.56-4.14-1.08-.94-2.45-1.42-4.11-1.42s-3.05.47-4.17,1.42Z"/>
      </g>
      <g>
        <path class="cls-1" d="m107.64,19.3c-.76-.41-1.35-.98-1.76-1.72-.41-.74-.62-1.58-.62-2.54s.21-1.84.64-2.59,1.03-1.33,1.79-1.74,1.64-.62,2.62-.62c.66,0,1.29.11,1.88.34.59.23,1.12.55,1.6.96l-1.17,1.54c-.39-.31-.78-.54-1.15-.69s-.77-.22-1.2-.22c-.55,0-1.04.12-1.47.37s-.75.59-.99,1.03-.35.96-.35,1.54.12,1.12.36,1.58c.24.45.57.8,1.01,1.05.43.25.93.38,1.5.38.44,0,.85-.07,1.22-.21s.76-.37,1.14-.69l1.17,1.56c-.47.41-1,.73-1.6.95-.6.22-1.26.34-1.98.34-1,0-1.88-.2-2.64-.61Z"/>
        <path class="cls-1" d="m125.11,19.4c-.63-.33-1.11-.81-1.45-1.45-.34-.63-.51-1.4-.51-2.29v-5.35h2.19v5.38c0,.76.17,1.33.52,1.72.35.39.84.58,1.46.58s1.12-.2,1.47-.59c.35-.39.53-.96.53-1.7v-5.39h2.19v5.37c0,.87-.17,1.62-.51,2.26-.34.64-.83,1.13-1.46,1.46-.63.33-1.37.5-2.22.5s-1.59-.17-2.21-.5Z"/>
        <path class="cls-1" d="m147.11,19.69l-2.4-3.1h-.86v3.1h-2.2v-9.39h4.13c.66,0,1.25.13,1.77.4.52.26.92.63,1.21,1.11.29.47.44,1.02.44,1.64,0,.72-.19,1.33-.57,1.84-.38.51-.91.88-1.58,1.11l2.67,3.3h-2.62Zm-.48-7.2c-.25-.25-.62-.37-1.09-.37h-1.7v2.76h1.7c.47,0,.84-.12,1.09-.35s.38-.56.38-.99c0-.46-.13-.81-.38-1.05Z"/>
        <path class="cls-1" d="m158.48,18.8l.87-1.73c.97.63,1.93.94,2.86.94.54,0,.96-.1,1.26-.29.3-.19.46-.47.46-.84,0-.32-.13-.57-.38-.76s-.7-.32-1.33-.4c-1.18-.13-2.05-.42-2.62-.87-.56-.44-.85-1.06-.85-1.84,0-.58.15-1.09.46-1.54s.73-.79,1.28-1.03c.55-.24,1.18-.36,1.88-.36.63,0,1.2.06,1.72.19.52.13,1.06.34,1.62.64l-.79,1.66c-.85-.46-1.67-.68-2.47-.68-.48,0-.86.09-1.14.27-.28.18-.42.43-.42.75s.13.53.4.68c.26.15.71.26,1.33.34,2.32.31,3.47,1.29,3.47,2.92,0,.61-.16,1.14-.48,1.6-.32.46-.77.82-1.35,1.07-.58.25-1.26.38-2.03.38-1.42,0-2.67-.37-3.76-1.11Z"/>
        <path class="cls-1" d="m177.43,19.32c-.75-.4-1.33-.97-1.74-1.71-.41-.74-.62-1.59-.62-2.57s.21-1.86.63-2.61c.42-.75,1.02-1.33,1.79-1.74.77-.41,1.67-.62,2.69-.62s1.87.2,2.62.6c.76.4,1.34.97,1.75,1.71.41.74.62,1.59.62,2.57s-.21,1.86-.63,2.61c-.42.75-1.02,1.33-1.79,1.74-.77.41-1.67.62-2.7.62s-1.86-.2-2.62-.6Zm4.17-1.69c.43-.24.77-.58,1.01-1.03s.36-.97.36-1.56-.12-1.14-.36-1.6c-.24-.46-.57-.82-.99-1.07-.42-.25-.91-.38-1.47-.38s-1.07.12-1.5.38c-.43.25-.76.6-1,1.05-.24.45-.36.96-.36,1.54s.12,1.14.35,1.6c.23.46.56.81.99,1.06.42.25.91.38,1.47.38s1.08-.12,1.51-.36Z"/>
      </g>
      <polygon class="cls-1" points="243.32 34.23 257.72 28.89 257.72 34.23 243.32 34.23"/>
      <g>
        <polygon class="cls-2" points="20.72 38.23 58.93 76.48 65.51 69.93 27.4 31.55 20.72 38.23"/>
        <polygon class="cls-2" points="20.72 38.23 48.59 10.36 55.13 16.9 27.28 44.8 20.72 38.23"/>
        <polygon class="cls-2" points="42.06 16.83 69.78 44.92 76.46 38.23 48.59 10.36 42.06 16.83"/>
        <polygon class="cls-2" points="76.46 38.23 48.59 66.1 42.06 59.56 69.78 31.55 76.46 38.23"/>
        <polygon class="cls-2" points="58.96 0 97.19 38.23 90.62 44.8 52.46 6.5 58.96 0"/>
        <polygon class="cls-2" points="97.19 38.23 58.93 76.48 52.18 69.73 90.51 31.55 97.19 38.23"/>
        <polygon class="cls-2" points="48.6 23.45 65.55 6.59 58.96 0 42.06 16.9 48.6 23.45"/>
        <polygon class="cls-2" points="38.23 0 0 38.23 6.57 44.8 44.73 6.5 38.23 0"/>
        <polygon class="cls-2" points="0 38.23 38.23 76.46 44.77 69.92 6.68 31.55 0 38.23"/>
        <polygon class="cls-2" points="48.59 23.45 31.64 6.59 38.23 0 55.13 16.9 48.59 23.45"/>
      </g>
    </g>
  </g>
</svg>