<?xml version="1.0" encoding="UTF-8"?>
<svg id="Camada_2" data-name="Camada 2" xmlns="http://www.w3.org/2000/svg" viewBox="0 0 250.28 77.52">
  <defs>
    <style>
      .cls-1 {
        fill: #fff;
      }

      .cls-2 {
        fill: #ed6214;
      }

      .cls-3 {
        fill: #f7b114;
      }
    </style>
  </defs>
  <g id="Camada_1-2" data-name="Camada 1">
    <g>
      <g>
        <path class="cls-2" d="m96.58,40.27c0-2.98.48-5.79,1.45-8.44.97-2.64,2.37-4.95,4.2-6.91,1.83-1.96,4.05-3.52,6.67-4.67,2.62-1.15,5.6-1.73,8.95-1.73,2.2,0,4.21.2,6.04.59,1.83.39,3.61.96,5.34,1.69l-2.43,9.34c-1.1-.42-2.3-.79-3.61-1.1-1.31-.31-2.77-.47-4.4-.47-3.45,0-6.03,1.07-7.73,3.22-1.7,2.15-2.55,4.97-2.55,8.48,0,3.72.8,6.59,2.39,8.63,1.6,2.04,4.38,3.06,8.36,3.06,1.41,0,2.93-.13,4.55-.39,1.62-.26,3.11-.68,4.47-1.26l1.65,9.58c-1.36.58-3.06,1.07-5.1,1.49-2.04.42-4.29.63-6.75.63-3.77,0-7.01-.56-9.73-1.69-2.72-1.12-4.96-2.66-6.71-4.59-1.75-1.94-3.04-4.23-3.85-6.87-.81-2.64-1.22-5.51-1.22-8.6Z"/>
        <path class="cls-2" d="m167.78,40.19c0,3.25-.47,6.21-1.41,8.91-.94,2.7-2.3,5-4.08,6.91-1.78,1.91-3.91,3.39-6.4,4.44-2.49,1.05-5.27,1.57-8.36,1.57s-5.8-.52-8.28-1.57c-2.49-1.05-4.62-2.52-6.4-4.44-1.78-1.91-3.17-4.21-4.16-6.91-.99-2.69-1.49-5.66-1.49-8.91s.51-6.2,1.53-8.87,2.43-4.95,4.24-6.83c1.81-1.88,3.95-3.35,6.44-4.4,2.48-1.05,5.19-1.57,8.12-1.57s5.72.52,8.2,1.57c2.48,1.05,4.62,2.51,6.4,4.4,1.78,1.88,3.17,4.16,4.16,6.83.99,2.67,1.49,5.63,1.49,8.87Zm-11.93,0c0-3.61-.72-6.45-2.16-8.52-1.44-2.07-3.49-3.1-6.16-3.1s-4.74,1.03-6.2,3.1c-1.47,2.07-2.2,4.91-2.2,8.52s.73,6.48,2.2,8.6c1.46,2.12,3.53,3.18,6.2,3.18s4.72-1.06,6.16-3.18c1.44-2.12,2.16-4.99,2.16-8.6Z"/>
        <path class="cls-2" d="m208.75,40.19c0,3.25-.47,6.21-1.41,8.91-.94,2.7-2.3,5-4.08,6.91-1.78,1.91-3.91,3.39-6.4,4.44-2.49,1.05-5.27,1.57-8.36,1.57s-5.8-.52-8.28-1.57c-2.49-1.05-4.62-2.52-6.4-4.44-1.78-1.91-3.17-4.21-4.16-6.91-.99-2.69-1.49-5.66-1.49-8.91s.51-6.2,1.53-8.87,2.43-4.95,4.24-6.83c1.81-1.88,3.95-3.35,6.44-4.4,2.48-1.05,5.19-1.57,8.12-1.57s5.72.52,8.2,1.57c2.48,1.05,4.62,2.51,6.4,4.4,1.78,1.88,3.17,4.16,4.16,6.83.99,2.67,1.49,5.63,1.49,8.87Zm-11.93,0c0-3.61-.72-6.45-2.16-8.52-1.44-2.07-3.49-3.1-6.16-3.1s-4.74,1.03-6.2,3.1c-1.47,2.07-2.2,4.91-2.2,8.52s.73,6.48,2.2,8.6c1.46,2.12,3.53,3.18,6.2,3.18s4.72-1.06,6.16-3.18c1.44-2.12,2.16-4.99,2.16-8.6Z"/>
        <path class="cls-2" d="m222.8,34.45c1.15-1.25,2.34-2.55,3.57-3.9,1.23-1.35,2.42-2.69,3.57-4.02s2.23-2.59,3.25-3.79c1.02-1.2,1.89-2.24,2.63-3.12h13.91c-2.77,3.19-5.48,6.23-8.12,9.12-2.64,2.9-5.53,5.89-8.67,8.97,1.57,1.42,3.19,3.11,4.87,5.07,1.67,1.97,3.3,4,4.87,6.09s3.01,4.19,4.32,6.29c1.31,2.1,2.41,4.01,3.3,5.74h-13.45c-.84-1.36-1.79-2.87-2.86-4.52-1.07-1.65-2.21-3.3-3.41-4.96-1.2-1.65-2.47-3.24-3.8-4.76-1.33-1.52-2.65-2.81-3.96-3.86v18.1h-11.7V1.88l11.7-1.88v34.45Z"/>
      </g>
      <g>
        <path class="cls-3" d="m15.06,56.74c1.43,0,2.61-.12,3.54-.36.93-.24,1.68-.56,2.24-.97.56-.41.95-.9,1.17-1.46.22-.56.32-1.19.32-1.88,0-1.47-.69-2.69-2.08-3.67-1.39-.97-3.76-2.02-7.14-3.15-1.47-.52-2.94-1.11-4.41-1.78-1.47-.67-2.79-1.51-3.96-2.53-1.17-1.02-2.12-2.25-2.86-3.7-.74-1.45-1.1-3.21-1.1-5.29s.39-3.95,1.17-5.61c.78-1.66,1.88-3.08,3.31-4.25,1.43-1.17,3.16-2.07,5.19-2.69,2.03-.63,4.33-.94,6.88-.94,3.03,0,5.65.32,7.85.97,2.21.65,4.02,1.36,5.45,2.14l-2.92,7.98c-1.26-.65-2.65-1.22-4.19-1.72-1.54-.5-3.39-.75-5.55-.75-2.42,0-4.16.34-5.22,1.01-1.06.67-1.59,1.7-1.59,3.08,0,.82.19,1.51.58,2.08.39.56.94,1.07,1.65,1.52.71.45,1.54.87,2.47,1.23.93.37,1.96.75,3.08,1.14,2.34.87,4.37,1.72,6.1,2.56,1.73.84,3.17,1.83,4.32,2.95,1.15,1.13,2,2.44,2.56,3.96.56,1.51.84,3.35.84,5.52,0,4.2-1.47,7.45-4.41,9.77-2.94,2.31-7.38,3.47-13.3,3.47-1.99,0-3.79-.12-5.39-.36-1.6-.24-3.02-.53-4.25-.88-1.23-.35-2.29-.71-3.18-1.1-.89-.39-1.63-.76-2.24-1.1l2.86-8.05c1.34.74,3,1.4,4.96,1.98,1.97.58,4.38.88,7.24.88Z"/>
        <path class="cls-3" d="m61.55,64.46c-.91-1.46-1.99-3.05-3.22-4.74-1.24-1.7-2.57-3.41-4-5.14-1.43-1.73-2.92-3.38-4.48-4.97-1.56-1.58-3.12-2.98-4.68-4.2v19.05h-10.12V19.49h10.12v16.9c2.6-2.73,5.25-5.59,7.93-8.58,2.69-2.98,5.17-5.76,7.44-8.32l10.01,2.65c-3.06,3.65-4.14,4.5-7.23,7.86-3.1,3.36-6.36,6.75-9.78,10.16,3.6,3,7.07,6.56,10.41,10.68,3.34,4.12,6.56,8.66,9.64,13.62h-12.04Z"/>
      </g>
      <path class="cls-2" d="m60.61,19.47h7.88c5,0,9.61,2.74,11.99,7.14l14.48,26.68h-13.94l-20.42-33.81Z"/>
      <path class="cls-3" d="m72.32,73.61h-4l30.06-48.58c2.5-4.05,6.93-6.51,11.68-6.51h7.56l-28.19,45.55c-3.67,5.93-10.14,9.53-17.11,9.53Z"/>
      <g>
        <path class="cls-1" d="m133.11,69.92c-.89,0-1.56.28-2.03.83-.47.55-.7,1.31-.7,2.29,0,.46.06.89.17,1.27.11.39.28.71.5.99s.49.49.82.64c.33.15.71.23,1.15.23.27,0,.51,0,.71-.03.2-.02.36-.05.47-.08v-3.09h1.56v4.13c-.22.08-.58.17-1.09.27-.51.1-1.1.15-1.78.15-.62,0-1.19-.1-1.7-.3-.51-.2-.95-.49-1.31-.87-.36-.38-.64-.85-.84-1.4s-.3-1.19-.3-1.91.11-1.36.33-1.91c.22-.55.52-1.02.9-1.41.38-.38.83-.68,1.34-.88s1.06-.3,1.64-.3c.4,0,.75.03,1.06.08.31.05.58.11.8.18.22.07.41.14.55.21s.25.13.3.16l-.47,1.28c-.25-.15-.56-.28-.92-.38-.37-.1-.76-.16-1.16-.16Z"/>
        <path class="cls-1" d="m136.43,74.13c0-.57.08-1.07.25-1.5.17-.43.4-.79.68-1.07.28-.29.6-.5.97-.65s.74-.22,1.12-.22c.89,0,1.59.28,2.09.83s.75,1.38.75,2.48c0,.08,0,.18,0,.28,0,.1-.01.2-.02.28h-4.28c.04.52.23.92.55,1.21.33.29.8.43,1.42.43.36,0,.7-.03,1-.1s.54-.14.71-.21l.2,1.23c-.08.04-.2.08-.34.13-.15.04-.31.09-.5.12-.19.04-.39.07-.6.09-.22.03-.43.04-.66.04-.57,0-1.07-.08-1.49-.25-.42-.17-.77-.41-1.04-.71-.27-.3-.48-.66-.61-1.07-.13-.41-.2-.86-.2-1.35Zm4.36-.67c0-.21-.03-.4-.09-.59-.06-.19-.14-.35-.25-.48-.11-.14-.25-.24-.41-.32-.16-.08-.35-.12-.58-.12s-.43.04-.61.13-.32.2-.44.34-.21.3-.28.48c-.07.18-.11.37-.14.56h2.79Z"/>
        <path class="cls-1" d="m144.81,76.26c.4,0,.69-.05.87-.14.18-.1.27-.26.27-.49,0-.21-.1-.39-.29-.53-.19-.14-.52-.29-.96-.46-.27-.1-.52-.2-.75-.32-.23-.11-.42-.24-.59-.39-.17-.15-.3-.33-.39-.54-.1-.21-.14-.47-.14-.78,0-.6.22-1.07.66-1.41s1.03-.52,1.79-.52c.38,0,.74.04,1.09.11.35.07.61.14.78.21l-.27,1.22c-.17-.07-.38-.14-.63-.21-.26-.06-.55-.09-.89-.09-.31,0-.55.05-.74.16-.19.1-.29.26-.29.48,0,.11.02.2.06.29.04.08.1.16.19.23.09.07.21.14.36.21s.33.14.55.22c.36.13.66.26.91.39.25.13.45.27.61.43.16.16.28.35.35.55.07.21.11.46.11.75,0,.62-.23,1.09-.69,1.41s-1.12.48-1.97.48c-.57,0-1.03-.05-1.38-.14s-.59-.17-.73-.23l.26-1.25c.22.09.49.18.8.26s.66.12,1.06.12Z"/>
        <path class="cls-1" d="m148.09,69.13l1.5-.25v1.96h2.31v1.25h-2.31v2.64c0,.52.08.89.25,1.12.17.22.45.33.84.33.27,0,.52-.03.73-.09.21-.06.38-.11.5-.16l.25,1.19c-.17.07-.4.15-.68.23-.28.08-.61.12-.99.12-.46,0-.85-.06-1.16-.19-.31-.12-.56-.3-.74-.54-.18-.24-.31-.52-.38-.86-.07-.34-.11-.72-.11-1.15v-5.62Z"/>
        <path class="cls-1" d="m154.82,70.69c.5,0,.91.06,1.25.19.34.12.61.3.81.52s.35.5.43.81.13.67.13,1.05v3.94c-.23.05-.58.11-1.05.18-.47.07-1,.11-1.58.11-.39,0-.74-.04-1.07-.11-.32-.07-.6-.19-.83-.36-.23-.17-.41-.38-.53-.65-.13-.27-.19-.59-.19-.98s.07-.69.22-.94c.14-.26.34-.47.59-.63.25-.16.54-.28.86-.35s.67-.11,1.02-.11c.17,0,.34.01.52.03s.38.06.58.11v-.25c0-.17-.02-.34-.06-.5s-.11-.3-.22-.42-.24-.21-.41-.28c-.17-.07-.38-.1-.64-.1-.35,0-.67.03-.96.07-.29.05-.53.11-.71.17l-.19-1.22c.19-.07.47-.13.83-.2s.75-.1,1.17-.1Zm2.19-1.78c-.08.14-.18.26-.29.38-.12.12-.25.22-.4.3-.15.08-.31.12-.5.12-.15,0-.29-.02-.42-.07-.13-.05-.26-.1-.39-.16-.13-.06-.25-.11-.37-.16-.12-.05-.24-.07-.35-.07-.16,0-.29.05-.4.16-.11.11-.2.23-.27.37l-.76-.45c.04-.12.1-.24.18-.38s.18-.26.3-.38c.12-.12.25-.22.4-.3.15-.08.31-.12.5-.12.15,0,.29.03.42.08.13.05.26.1.39.16.13.05.25.11.37.16.12.05.24.07.35.07.16,0,.29-.06.4-.17.11-.11.2-.24.27-.38l.76.45c-.05.12-.11.24-.19.38Zm-2.07,7.38c.46,0,.81-.02,1.06-.07v-1.66c-.08-.02-.2-.05-.36-.07-.16-.02-.33-.04-.52-.04-.17,0-.33.01-.5.04-.17.03-.32.07-.46.14s-.25.16-.33.28-.12.27-.12.45c0,.36.11.6.33.74.22.14.53.2.91.2Z"/>
        <path class="cls-1" d="m164.47,74.09c0,.51-.07.98-.22,1.4-.15.42-.36.78-.63,1.08-.27.3-.6.53-.99.7-.38.17-.81.25-1.27.25s-.89-.08-1.27-.25c-.38-.17-.71-.4-.98-.7-.27-.3-.49-.66-.64-1.08-.15-.42-.23-.89-.23-1.4s.08-.98.23-1.4c.15-.42.37-.78.65-1.07s.61-.53.99-.69c.38-.16.8-.24,1.25-.24s.88.08,1.26.24c.38.16.71.39.99.69.27.3.49.66.64,1.07.15.42.23.88.23,1.4Zm-1.54,0c0-.65-.14-1.16-.42-1.53s-.66-.57-1.16-.57-.88.19-1.16.57-.42.89-.42,1.53.14,1.17.42,1.55.66.57,1.16.57.88-.19,1.16-.57.42-.9.42-1.55Z"/>
        <path class="cls-1" d="m173.01,77.14c-.3.09-.67.17-1.12.25s-.93.11-1.42.11-.97-.08-1.38-.24c-.41-.16-.75-.38-1.04-.68-.29-.29-.51-.65-.66-1.07-.15-.42-.23-.89-.23-1.41s.06-.98.19-1.4c.13-.42.32-.78.56-1.07.25-.3.55-.53.91-.69.36-.16.77-.24,1.23-.24.31,0,.59.04.83.11.24.07.45.16.62.25v-3.12l1.5-.25v9.44Zm-4.31-3.07c0,.66.16,1.18.47,1.56.31.38.75.56,1.3.56.24,0,.44,0,.61-.03.17-.02.31-.04.42-.07v-3.73c-.13-.09-.31-.18-.53-.25-.22-.08-.45-.12-.7-.12-.55,0-.95.19-1.2.56-.25.37-.38.88-.38,1.51Z"/>
        <path class="cls-1" d="m173.87,74.13c0-.57.08-1.07.25-1.5.17-.43.4-.79.68-1.07.28-.29.6-.5.97-.65s.74-.22,1.12-.22c.89,0,1.59.28,2.09.83s.75,1.38.75,2.48c0,.08,0,.18,0,.28,0,.1-.01.2-.02.28h-4.28c.04.52.23.92.55,1.21.33.29.8.43,1.42.43.36,0,.7-.03,1-.1s.54-.14.71-.21l.2,1.23c-.08.04-.2.08-.34.13-.15.04-.31.09-.5.12-.19.04-.39.07-.6.09-.22.03-.43.04-.66.04-.57,0-1.07-.08-1.49-.25-.42-.17-.77-.41-1.04-.71-.27-.3-.48-.66-.61-1.07-.13-.41-.2-.86-.2-1.35Zm4.36-.67c0-.21-.03-.4-.09-.59-.06-.19-.14-.35-.25-.48-.11-.14-.25-.24-.41-.32-.16-.08-.35-.12-.58-.12s-.43.04-.61.13-.32.2-.44.34-.21.3-.28.48c-.07.18-.11.37-.14.56h2.79Z"/>
        <path class="cls-1" d="m185.26,68.65c1.24,0,2.19.23,2.85.68.66.46.99,1.15.99,2.08,0,1.17-.58,1.96-1.73,2.37.16.19.34.42.53.7.2.27.4.57.61.89s.41.65.6.98c.19.34.36.66.51.99h-1.75c-.16-.3-.33-.6-.51-.9-.18-.3-.37-.6-.55-.88-.19-.29-.37-.55-.55-.81-.18-.25-.35-.48-.51-.68-.12,0-.22.01-.3.01h-.99v3.25h-1.56v-8.48c.38-.08.79-.14,1.22-.17.43-.03.82-.04,1.15-.04Zm.11,1.35c-.33,0-.64.01-.92.04v2.78h.68c.38,0,.72-.02,1.01-.06.29-.04.53-.12.73-.22s.34-.25.44-.43c.1-.18.15-.41.15-.7,0-.26-.05-.49-.15-.67-.1-.18-.24-.33-.43-.43-.19-.11-.41-.18-.66-.23-.26-.04-.54-.07-.84-.07Z"/>
        <path class="cls-1" d="m189.71,74.13c0-.57.08-1.07.25-1.5.17-.43.4-.79.68-1.07.28-.29.6-.5.97-.65s.74-.22,1.12-.22c.89,0,1.59.28,2.09.83s.75,1.38.75,2.48c0,.08,0,.18,0,.28,0,.1-.01.2-.02.28h-4.28c.04.52.23.92.55,1.21.33.29.8.43,1.42.43.36,0,.7-.03,1-.1s.54-.14.71-.21l.2,1.23c-.08.04-.2.08-.34.13-.15.04-.31.09-.5.12-.19.04-.39.07-.6.09-.22.03-.43.04-.66.04-.57,0-1.07-.08-1.49-.25-.42-.17-.77-.41-1.04-.71-.27-.3-.48-.66-.61-1.07-.13-.41-.2-.86-.2-1.35Zm4.36-.67c0-.21-.03-.4-.09-.59-.06-.19-.14-.35-.25-.48-.11-.14-.25-.24-.41-.32-.16-.08-.35-.12-.58-.12s-.43.04-.61.13-.32.2-.44.34-.21.3-.28.48c-.07.18-.11.37-.14.56h2.79Z"/>
        <path class="cls-1" d="m198.09,76.26c.4,0,.69-.05.87-.14.18-.1.27-.26.27-.49,0-.21-.1-.39-.29-.53-.19-.14-.52-.29-.96-.46-.27-.1-.52-.2-.75-.32-.23-.11-.42-.24-.59-.39-.17-.15-.3-.33-.39-.54-.1-.21-.14-.47-.14-.78,0-.6.22-1.07.66-1.41s1.03-.52,1.79-.52c.38,0,.74.04,1.09.11.35.07.61.14.78.21l-.27,1.22c-.17-.07-.38-.14-.63-.21-.26-.06-.55-.09-.89-.09-.31,0-.55.05-.74.16-.19.1-.29.26-.29.48,0,.11.02.2.06.29.04.08.1.16.19.23.09.07.21.14.36.21s.33.14.55.22c.36.13.66.26.91.39.25.13.45.27.61.43.16.16.28.35.35.55.07.21.11.46.11.75,0,.62-.23,1.09-.69,1.41s-1.12.48-1.97.48c-.57,0-1.03-.05-1.38-.14s-.59-.17-.73-.23l.26-1.25c.22.09.49.18.8.26s.66.12,1.06.12Z"/>
        <path class="cls-1" d="m201.37,69.13l1.5-.25v1.96h2.31v1.25h-2.31v2.64c0,.52.08.89.25,1.12.17.22.45.33.84.33.27,0,.52-.03.73-.09.21-.06.38-.11.5-.16l.25,1.19c-.17.07-.4.15-.68.23-.28.08-.61.12-.99.12-.46,0-.85-.06-1.16-.19-.31-.12-.56-.3-.74-.54-.18-.24-.31-.52-.38-.86-.07-.34-.11-.72-.11-1.15v-5.62Z"/>
        <path class="cls-1" d="m208.1,70.69c.5,0,.91.06,1.25.19.34.12.61.3.81.52s.35.5.43.81.13.67.13,1.05v3.94c-.23.05-.58.11-1.05.18-.47.07-1,.11-1.58.11-.39,0-.74-.04-1.07-.11-.32-.07-.6-.19-.83-.36-.23-.17-.41-.38-.53-.65-.13-.27-.19-.59-.19-.98s.07-.69.22-.94c.14-.26.34-.47.59-.63.25-.16.54-.28.86-.35s.67-.11,1.02-.11c.17,0,.34.01.52.03s.38.06.58.11v-.25c0-.17-.02-.34-.06-.5s-.11-.3-.22-.42-.24-.21-.41-.28c-.17-.07-.38-.1-.64-.1-.35,0-.67.03-.96.07-.29.05-.53.11-.71.17l-.19-1.22c.19-.07.47-.13.83-.2s.75-.1,1.17-.1Zm.12,5.6c.46,0,.81-.02,1.06-.07v-1.66c-.08-.02-.2-.05-.36-.07-.16-.02-.33-.04-.52-.04-.17,0-.33.01-.5.04-.17.03-.32.07-.46.14s-.25.16-.33.28-.12.27-.12.45c0,.36.11.6.33.74.22.14.53.2.91.2Z"/>
        <path class="cls-1" d="m217.2,77.14c-.29.07-.67.15-1.13.23-.46.08-.97.12-1.53.12-.52,0-.96-.08-1.31-.22-.35-.15-.63-.36-.84-.62s-.36-.58-.45-.95c-.09-.37-.14-.77-.14-1.21v-3.64h1.5v3.4c0,.7.1,1.19.3,1.49s.56.45,1.06.45c.18,0,.37,0,.58-.03.2-.02.35-.04.45-.06v-5.25h1.5v6.29Z"/>
        <path class="cls-1" d="m222.11,72.2c-.12-.04-.3-.08-.52-.13s-.47-.07-.76-.07c-.17,0-.34.02-.53.05-.19.03-.32.06-.39.09v5.2h-1.5v-6.18c.29-.11.65-.21,1.09-.3.43-.09.92-.14,1.45-.14.1,0,.22,0,.35.02s.27.03.4.05.26.04.38.07.22.06.3.08l-.26,1.27Z"/>
        <path class="cls-1" d="m224.88,70.69c.5,0,.91.06,1.25.19.34.12.61.3.81.52s.35.5.43.81.13.67.13,1.05v3.94c-.23.05-.58.11-1.05.18-.47.07-1,.11-1.58.11-.39,0-.74-.04-1.07-.11-.32-.07-.6-.19-.83-.36-.23-.17-.41-.38-.53-.65-.13-.27-.19-.59-.19-.98s.07-.69.22-.94c.14-.26.34-.47.59-.63.25-.16.54-.28.86-.35s.67-.11,1.02-.11c.17,0,.34.01.52.03s.38.06.58.11v-.25c0-.17-.02-.34-.06-.5s-.11-.3-.22-.42-.24-.21-.41-.28c-.17-.07-.38-.1-.64-.1-.35,0-.67.03-.96.07-.29.05-.53.11-.71.17l-.19-1.22c.19-.07.47-.13.83-.2s.75-.1,1.17-.1Zm.12,5.6c.46,0,.81-.02,1.06-.07v-1.66c-.08-.02-.2-.05-.36-.07-.16-.02-.33-.04-.52-.04-.17,0-.33.01-.5.04-.17.03-.32.07-.46.14s-.25.16-.33.28-.12.27-.12.45c0,.36.11.6.33.74.22.14.53.2.91.2Z"/>
        <path class="cls-1" d="m228.66,71.06c.29-.08.67-.16,1.13-.24.46-.07.98-.11,1.54-.11.53,0,.97.07,1.33.22.36.15.64.35.85.61.21.26.36.58.45.94.09.37.13.77.13,1.21v3.65h-1.5v-3.41c0-.35-.02-.64-.07-.89s-.12-.44-.22-.6c-.1-.15-.24-.26-.42-.33-.18-.07-.4-.11-.65-.11-.19,0-.39.01-.6.04-.21.03-.36.05-.46.06v5.24h-1.5v-6.28Z"/>
        <path class="cls-1" d="m235.15,69.13l1.5-.25v1.96h2.31v1.25h-2.31v2.64c0,.52.08.89.25,1.12.17.22.45.33.84.33.27,0,.52-.03.73-.09.21-.06.38-.11.5-.16l.25,1.19c-.17.07-.4.15-.68.23-.28.08-.61.12-.99.12-.46,0-.85-.06-1.16-.19-.31-.12-.56-.3-.74-.54-.18-.24-.31-.52-.38-.86-.07-.34-.11-.72-.11-1.15v-5.62Z"/>
        <path class="cls-1" d="m239.25,74.13c0-.57.08-1.07.25-1.5.17-.43.4-.79.68-1.07.28-.29.6-.5.97-.65s.74-.22,1.12-.22c.89,0,1.59.28,2.09.83s.75,1.38.75,2.48c0,.08,0,.18,0,.28,0,.1-.01.2-.02.28h-4.28c.04.52.23.92.55,1.21.33.29.8.43,1.42.43.36,0,.7-.03,1-.1s.54-.14.71-.21l.2,1.23c-.08.04-.2.08-.34.13-.15.04-.31.09-.5.12-.19.04-.39.07-.6.09-.22.03-.43.04-.66.04-.57,0-1.07-.08-1.49-.25-.42-.17-.77-.41-1.04-.71-.27-.3-.48-.66-.61-1.07-.13-.41-.2-.86-.2-1.35Zm4.36-.67c0-.21-.03-.4-.09-.59-.06-.19-.14-.35-.25-.48-.11-.14-.25-.24-.41-.32-.16-.08-.35-.12-.58-.12s-.43.04-.61.13-.32.2-.44.34-.21.3-.28.48c-.07.18-.11.37-.14.56h2.79Z"/>
        <path class="cls-1" d="m247.63,76.26c.4,0,.69-.05.87-.14.18-.1.27-.26.27-.49,0-.21-.1-.39-.29-.53-.19-.14-.52-.29-.96-.46-.27-.1-.52-.2-.75-.32-.23-.11-.42-.24-.59-.39-.17-.15-.3-.33-.39-.54-.1-.21-.14-.47-.14-.78,0-.6.22-1.07.66-1.41s1.03-.52,1.79-.52c.38,0,.74.04,1.09.11.35.07.61.14.78.21l-.27,1.22c-.17-.07-.38-.14-.63-.21-.26-.06-.55-.09-.89-.09-.31,0-.55.05-.74.16-.19.1-.29.26-.29.48,0,.11.02.2.06.29.04.08.1.16.19.23.09.07.21.14.36.21s.33.14.55.22c.36.13.66.26.91.39.25.13.45.27.61.43.16.16.28.35.35.55.07.21.11.46.11.75,0,.62-.23,1.09-.69,1.41s-1.12.48-1.97.48c-.57,0-1.03-.05-1.38-.14s-.59-.17-.73-.23l.26-1.25c.22.09.49.18.8.26s.66.12,1.06.12Z"/>
      </g>
    </g>
  </g>
</svg>