<?xml version="1.0" encoding="UTF-8"?>
<svg id="Camada_2" data-name="Camada 2" xmlns="http://www.w3.org/2000/svg" xmlns:xlink="http://www.w3.org/1999/xlink" viewBox="0 0 305.35 166.05">
  <defs>
    <style>
      .cls-1 {
        fill: #fff;
      }

      .cls-2 {
        fill: url(#Gradiente_sem_nome_7);
      }
    </style>
    <linearGradient id="Gradiente_sem_nome_7" data-name="Gradiente sem nome 7" x1="106.27" y1="42.5" x2="204.42" y2="42.5" gradientUnits="userSpaceOnUse">
      <stop offset="0" stop-color="#009de1"/>
      <stop offset="1" stop-color="#93bf1f"/>
    </linearGradient>
  </defs>
  <g id="Camada_1-2" data-name="Camada 1">
    <g>
      <g>
        <path class="cls-1" d="m13.6,118.05v20.68h-5.71v-20.68H0v-5.26h21.49v5.26h-7.89Z"/>
        <path class="cls-1" d="m71.25,138.72l-5.56-8.3h-4.48v8.3h-5.71v-25.94h11.86c3.09,0,5.49.75,7.21,2.26s2.58,3.61,2.58,6.3v.07c0,2.1-.51,3.81-1.54,5.13-1.03,1.32-2.37,2.29-4.02,2.91l6.34,9.26h-6.67Zm.11-17.08c0-1.24-.4-2.16-1.19-2.78-.79-.62-1.89-.93-3.3-.93h-5.67v7.45h5.78c1.41,0,2.49-.33,3.24-1,.75-.67,1.13-1.55,1.13-2.67v-.07Z"/>
        <path class="cls-1" d="m124.94,128.38v10.34h-5.71v-10.23l-9.97-15.71h6.67l6.19,10.41,6.3-10.41h6.48l-9.97,15.6Z"/>
        <path class="cls-1" d="m187.41,138.72l-2.37-5.82h-10.97l-2.37,5.82h-5.82l11.12-26.12h5.26l11.12,26.12h-5.96Zm-7.86-19.27l-3.45,8.41h6.89l-3.45-8.41Z"/>
        <path class="cls-1" d="m249.92,130.87c-.67,1.58-1.61,2.95-2.83,4.11-1.22,1.16-2.68,2.08-4.37,2.74-1.69.67-3.55,1-5.58,1h-10.12v-25.94h10.12c2.03,0,3.88.33,5.58.98,1.69.66,3.15,1.56,4.37,2.72,1.22,1.16,2.17,2.53,2.83,4.09s1,3.27,1,5.09v.07c0,1.83-.33,3.53-1,5.11Zm-4.96-5.11c0-1.13-.19-2.19-.57-3.15-.38-.96-.91-1.79-1.59-2.48s-1.5-1.23-2.46-1.61c-.96-.38-2.03-.57-3.19-.57h-4.41v15.63h4.41c1.16,0,2.22-.19,3.19-.55.96-.37,1.78-.9,2.46-1.59s1.21-1.51,1.59-2.45c.38-.94.57-1.99.57-3.15v-.07Z"/>
        <path class="cls-1" d="m285.64,138.72v-25.94h19.53v5.08h-13.89v5.26h12.23v5.08h-12.23v5.45h14.08v5.08h-19.71Z"/>
      </g>
      <g>
        <path class="cls-1" d="m43.18,161.26c.05.13.15.25.28.36.14.11.32.21.56.29.24.09.55.17.92.25.76.17,1.32.4,1.68.7s.54.71.54,1.24c0,.29-.06.56-.17.8-.11.24-.27.45-.48.61s-.45.3-.73.39c-.29.09-.6.14-.93.14-.54,0-1.04-.09-1.49-.26s-.88-.45-1.29-.81l.48-.56c.36.32.72.57,1.08.72.36.16.78.24,1.25.24s.83-.11,1.1-.32c.28-.21.41-.5.41-.85,0-.16-.03-.31-.08-.43-.05-.13-.14-.24-.27-.35s-.31-.2-.54-.28c-.23-.08-.52-.16-.88-.24-.39-.08-.73-.18-1.02-.29-.29-.11-.53-.24-.72-.4-.19-.16-.33-.34-.42-.54s-.14-.46-.14-.74.05-.52.17-.75c.11-.23.27-.42.47-.59s.44-.29.71-.39c.27-.1.57-.14.89-.14.5,0,.93.07,1.31.21.37.14.73.34,1.08.62l-.45.59c-.32-.26-.64-.45-.96-.56-.32-.12-.66-.17-1.01-.17-.22,0-.42.03-.6.09-.18.06-.33.14-.46.23-.13.1-.22.21-.29.35-.07.14-.1.28-.1.44s.03.31.08.44Z"/>
        <path class="cls-1" d="m50.54,159.13v6.8h-.77v-6.8h.77Z"/>
        <path class="cls-1" d="m54.17,161.26c.05.13.15.25.28.36.14.11.32.21.56.29.24.09.55.17.92.25.76.17,1.32.4,1.68.7s.54.71.54,1.24c0,.29-.06.56-.17.8-.11.24-.27.45-.48.61s-.45.3-.73.39c-.29.09-.6.14-.93.14-.54,0-1.04-.09-1.49-.26s-.88-.45-1.29-.81l.48-.56c.36.32.72.57,1.08.72.36.16.78.24,1.25.24s.83-.11,1.1-.32c.28-.21.41-.5.41-.85,0-.16-.03-.31-.08-.43-.05-.13-.14-.24-.27-.35s-.31-.2-.54-.28c-.23-.08-.52-.16-.88-.24-.39-.08-.73-.18-1.02-.29-.29-.11-.53-.24-.72-.4-.19-.16-.33-.34-.42-.54s-.14-.46-.14-.74.05-.52.17-.75c.11-.23.27-.42.47-.59s.44-.29.71-.39c.27-.1.57-.14.89-.14.5,0,.93.07,1.31.21.37.14.73.34,1.08.62l-.45.59c-.32-.26-.64-.45-.96-.56-.32-.12-.66-.17-1.01-.17-.22,0-.42.03-.6.09-.18.06-.33.14-.46.23-.13.1-.22.21-.29.35-.07.14-.1.28-.1.44s.03.31.08.44Z"/>
        <path class="cls-1" d="m63.11,165.93h-.77v-6.09h-2.28v-.71h5.33v.71h-2.28v6.09Z"/>
        <path class="cls-1" d="m72.74,159.83h-4.15v2.32h3.71v.7h-3.71v2.38h4.2v.7h-4.97v-6.8h4.92v.7Z"/>
        <path class="cls-1" d="m78.57,164.07h-.04l-2.48-3.63v5.5h-.75v-6.8h.78l2.48,3.71,2.48-3.71h.78v6.8h-.77v-5.51l-2.48,3.64Z"/>
        <path class="cls-1" d="m91.05,165.93h-.83l-.8-1.8h-3.7l-.81,1.8h-.79l3.1-6.85h.72l3.1,6.85Zm-3.47-5.95l-1.55,3.47h3.1l-1.55-3.47Z"/>
        <path class="cls-1" d="m102.96,163.87c-.17.42-.42.78-.74,1.08-.32.3-.7.54-1.15.72-.44.17-.93.26-1.46.26h-2.36v-6.8h2.36c.53,0,1.02.09,1.46.26.44.17.83.41,1.15.71.32.3.57.66.74,1.08s.26.86.26,1.34-.09.93-.26,1.35Zm-.73-2.39c-.13-.33-.32-.62-.56-.86-.24-.24-.54-.43-.89-.57-.35-.14-.74-.21-1.17-.21h-1.59v5.38h1.59c.43,0,.82-.07,1.17-.21.35-.13.65-.32.89-.57.24-.24.43-.53.56-.85s.2-.68.2-1.06-.07-.73-.2-1.06Z"/>
        <path class="cls-1" d="m110.74,159.83h-4.15v2.32h3.71v.7h-3.71v2.38h4.2v.7h-4.97v-6.8h4.92v.7Z"/>
        <path class="cls-1" d="m123.53,165.93h-.83l-.8-1.8h-3.7l-.81,1.8h-.79l3.1-6.85h.72l3.1,6.85Zm-3.47-5.95l-1.55,3.47h3.1l-1.55-3.47Z"/>
        <path class="cls-1" d="m127.53,165.93h-.77v-6.09h-2.28v-.71h5.33v.71h-2.28v6.09Z"/>
        <path class="cls-1" d="m137.15,159.83h-4.15v2.32h3.71v.7h-3.71v2.38h4.2v.7h-4.97v-6.8h4.92v.7Z"/>
        <path class="cls-1" d="m144.72,159.13h.75v6.8h-.61l-4.39-5.58v5.58h-.75v-6.8h.72l4.29,5.45v-5.45Z"/>
        <path class="cls-1" d="m154.08,163.87c-.17.42-.42.78-.74,1.08-.32.3-.7.54-1.15.72-.44.17-.93.26-1.46.26h-2.36v-6.8h2.36c.53,0,1.02.09,1.46.26.44.17.83.41,1.15.71.32.3.57.66.74,1.08s.26.86.26,1.34-.09.93-.26,1.35Zm-.73-2.39c-.13-.33-.32-.62-.56-.86-.24-.24-.54-.43-.89-.57-.35-.14-.74-.21-1.17-.21h-1.59v5.38h1.59c.43,0,.82-.07,1.17-.21.35-.13.65-.32.89-.57.24-.24.43-.53.56-.85s.2-.68.2-1.06-.07-.73-.2-1.06Z"/>
        <path class="cls-1" d="m157.78,159.13v6.8h-.77v-6.8h.77Z"/>
        <path class="cls-1" d="m164,164.07h-.04l-2.48-3.63v5.5h-.75v-6.8h.78l2.48,3.71,2.48-3.71h.78v6.8h-.77v-5.51l-2.48,3.64Z"/>
        <path class="cls-1" d="m175.07,159.83h-4.15v2.32h3.71v.7h-3.71v2.38h4.2v.7h-4.97v-6.8h4.92v.7Z"/>
        <path class="cls-1" d="m182.64,159.13h.75v6.8h-.61l-4.39-5.58v5.58h-.75v-6.8h.72l4.29,5.45v-5.45Z"/>
        <path class="cls-1" d="m188.85,165.93h-.77v-6.09h-2.28v-.71h5.33v.71h-2.28v6.09Z"/>
        <path class="cls-1" d="m199.47,163.87c-.17.42-.41.8-.71,1.12-.3.32-.67.58-1.1.77s-.9.29-1.42.29-.99-.09-1.41-.28c-.42-.19-.79-.44-1.09-.76s-.54-.69-.7-1.12c-.17-.42-.25-.87-.25-1.35s.08-.92.25-1.35c.17-.42.4-.8.71-1.12s.67-.58,1.1-.77.9-.29,1.42-.29.99.09,1.41.28c.42.19.79.44,1.09.76s.54.69.71,1.12c.17.43.25.88.25,1.35s-.08.92-.25,1.35Zm-.74-2.43c-.13-.34-.32-.64-.56-.89-.24-.25-.52-.46-.85-.6s-.68-.22-1.07-.22-.75.07-1.07.22c-.33.15-.61.35-.84.6-.23.25-.42.55-.55.89s-.2.71-.2,1.09.07.75.2,1.1.32.64.56.89c.24.25.52.45.85.6.33.15.69.22,1.07.22s.75-.07,1.07-.22c.33-.15.61-.35.84-.6.23-.25.42-.55.55-.89.13-.34.2-.7.2-1.09s-.07-.76-.2-1.1Z"/>
        <path class="cls-1" d="m210.89,165.93l-1.97-2.64h-1.94v2.64h-.77v-6.8h2.93c.38,0,.71.05,1.02.15.3.1.56.23.77.41.21.18.38.39.5.64.12.25.17.53.17.83,0,.29-.05.54-.14.76-.09.22-.22.42-.38.58-.17.17-.36.3-.59.41-.23.11-.47.19-.74.23l2.09,2.78h-.94Zm-.53-5.74c-.31-.24-.73-.36-1.29-.36h-2.11v2.77h2.1c.25,0,.49-.03.7-.1.21-.07.4-.16.56-.28.16-.12.28-.27.37-.44s.13-.37.13-.6c0-.43-.15-.76-.46-1Z"/>
        <path class="cls-1" d="m219.12,159.83h-4.15v2.32h3.71v.7h-3.71v2.38h4.2v.7h-4.97v-6.8h4.92v.7Z"/>
        <path class="cls-1" d="m226.97,165.34c-.19.15-.4.27-.62.38-.22.1-.46.18-.71.24s-.54.09-.85.09c-.49,0-.95-.09-1.36-.27-.42-.18-.77-.43-1.08-.74s-.54-.69-.71-1.11c-.17-.43-.26-.89-.26-1.38s.09-.94.26-1.37c.17-.43.41-.8.71-1.12s.67-.57,1.09-.76c.42-.18.88-.28,1.38-.28.31,0,.59.03.84.08.25.05.48.12.69.22s.41.21.59.34c.18.13.36.28.53.44l-.53.56c-.29-.27-.6-.5-.94-.67-.33-.18-.73-.26-1.2-.26-.38,0-.72.07-1.04.21s-.6.34-.84.59c-.24.25-.42.55-.55.89s-.2.71-.2,1.1.07.76.2,1.11.32.64.55.89c.24.25.52.45.84.6.32.14.67.22,1.04.22.47,0,.87-.09,1.21-.26s.67-.41.99-.72l.51.5c-.18.18-.36.35-.55.49Z"/>
        <path class="cls-1" d="m234.75,159.83h-4.15v2.32h3.71v.7h-3.71v2.38h4.2v.7h-4.97v-6.8h4.92v.7Z"/>
        <path class="cls-1" d="m242.19,162.27c-.14.28-.33.51-.58.7-.24.19-.53.33-.85.42s-.67.14-1.03.14h-1.65v2.4h-.77v-6.8h2.55c.38,0,.73.05,1.04.15.31.1.58.24.81.43.22.19.39.41.51.68.12.27.18.57.18.91,0,.37-.07.69-.21.97Zm-1.06-2.05c-.33-.25-.78-.38-1.33-.38h-1.73v2.99h1.69c.28,0,.53-.04.76-.11.23-.07.43-.17.59-.31s.29-.29.38-.47c.09-.19.13-.39.13-.62,0-.49-.17-.86-.5-1.11Z"/>
        <path class="cls-1" d="m247.34,165.93h-.77v-6.09h-2.28v-.71h5.33v.71h-2.28v6.09Z"/>
        <path class="cls-1" d="m252.88,159.13v6.8h-.77v-6.8h.77Z"/>
        <path class="cls-1" d="m260.97,159.13h.83l-2.93,6.85h-.68l-2.93-6.85h.86l2.42,5.86,2.43-5.86Z"/>
        <path class="cls-1" d="m270.1,163.87c-.17.42-.41.8-.71,1.12-.3.32-.67.58-1.1.77s-.9.29-1.42.29-.99-.09-1.41-.28c-.42-.19-.79-.44-1.09-.76s-.54-.69-.7-1.12c-.17-.42-.25-.87-.25-1.35s.08-.92.25-1.35c.17-.42.4-.8.71-1.12s.67-.58,1.1-.77.9-.29,1.42-.29.99.09,1.41.28c.42.19.79.44,1.09.76s.54.69.71,1.12c.17.43.25.88.25,1.35s-.08.92-.25,1.35Zm-.74-2.43c-.13-.34-.32-.64-.56-.89-.24-.25-.52-.46-.85-.6s-.68-.22-1.07-.22-.75.07-1.07.22c-.33.15-.61.35-.84.6-.23.25-.42.55-.55.89s-.2.71-.2,1.09.07.75.2,1.1.32.64.56.89c.24.25.52.45.85.6.33.15.69.22,1.07.22s.75-.07,1.07-.22c.33-.15.61-.35.84-.6.23-.25.42-.55.55-.89.13-.34.2-.7.2-1.09s-.07-.76-.2-1.1Z"/>
      </g>
      <path class="cls-2" d="m175.05,34.13l-2.31-4.01L155.34,0l-17.39,30.13-2.31,4.01-29.37,50.87h98.15l-29.37-50.87Zm-19.71-26.12l15.08,26.12-15.08,26.12-15.08-26.12,15.08-26.12Zm-42.13,72.98l24.74-42.85,15.39,26.66v16.2h-40.13Zm44.14-16.2l15.39-26.66,24.74,42.85h-40.13v-16.2Z"/>
    </g>
  </g>
</svg>