<?xml version="1.0" encoding="UTF-8"?>
<svg id="Camada_2" data-name="Camada 2" xmlns="http://www.w3.org/2000/svg" xmlns:xlink="http://www.w3.org/1999/xlink" viewBox="0 0 245.13 70.65">
  <defs>
    <style>
      .cls-1 {
        fill: #fff;
      }

      .cls-2 {
        fill: url(#Gradiente_sem_nome_4);
      }

      .cls-3 {
        fill: url(#Gradiente_sem_nome_4-3);
      }

      .cls-4 {
        fill: url(#Gradiente_sem_nome_4-2);
      }

      .cls-5 {
        fill: url(#Gradiente_sem_nome_4-5);
      }

      .cls-6 {
        fill: url(#Gradiente_sem_nome_4-4);
      }
    </style>
    <linearGradient id="Gradiente_sem_nome_4" data-name="Gradiente sem nome 4" x1="22.13" y1="49.75" x2="22.13" y2="1.04" gradientUnits="userSpaceOnUse">
      <stop offset="0" stop-color="#fff"/>
      <stop offset="1" stop-color="#cbcbcb"/>
    </linearGradient>
    <linearGradient id="Gradiente_sem_nome_4-2" data-name="Gradiente sem nome 4" x1="67.15" y1="50.72" x2="67.15" y2=".07" xlink:href="#Gradiente_sem_nome_4"/>
    <linearGradient id="Gradiente_sem_nome_4-3" data-name="Gradiente sem nome 4" x1="117.8" x2="117.8" xlink:href="#Gradiente_sem_nome_4"/>
    <linearGradient id="Gradiente_sem_nome_4-4" data-name="Gradiente sem nome 4" x1="170.37" x2="170.37" xlink:href="#Gradiente_sem_nome_4"/>
    <linearGradient id="Gradiente_sem_nome_4-5" data-name="Gradiente sem nome 4" x1="220.29" y1="50.79" x2="220.29" y2="0" xlink:href="#Gradiente_sem_nome_4"/>
  </defs>
  <g id="Camada_1-2" data-name="Camada 1">
    <g>
      <g>
        <path class="cls-2" d="m25.47,18.3c-1.53,2.41-2.67,4.34-3.41,5.78h-.14c-.6-1.16-1.72-3.06-3.34-5.71L8,1.04H0l18.58,28.74v19.97h6.68v-20.11L44.25,1.04h-8.14l-10.65,17.26Z"/>
        <path class="cls-4" d="m70.97,44.25c-3.62,0-6.83-.8-9.64-2.4-2.81-1.6-5-3.84-6.57-6.71-1.58-2.88-2.37-6.17-2.37-9.88s.78-6.91,2.33-9.74c1.55-2.83,3.72-5.03,6.51-6.61,2.78-1.58,5.98-2.37,9.6-2.37,5.1,0,9.65,1.86,13.64,5.57l3.97-5.08c-2.37-2.23-5.03-3.94-8-5.15-2.97-1.21-6.15-1.81-9.53-1.81-4.92,0-9.31,1.09-13.19,3.27-3.87,2.18-6.89,5.2-9.05,9.05-2.16,3.85-3.24,8.23-3.24,13.15s1.08,9.22,3.24,13.05c2.16,3.83,5.16,6.81,9.01,8.94,3.85,2.13,8.23,3.2,13.15,3.2,7.38,0,13.38-2.25,18.02-6.75l-4.04-5.08c-3.85,3.57-8.47,5.36-13.85,5.36Z"/>
        <path class="cls-3" d="m114.04,1.04l-21.85,48.71h7.31l4.8-10.72,2.71-6.12,6.82-16c1.62-3.71,2.92-6.75,3.9-9.12h.14c.32.97,1.3,3.32,2.92,7.03l.83,1.95,6.82,16.14,2.71,6.12,4.87,10.72h7.38L121.56,1.04h-7.51Z"/>
        <path class="cls-6" d="m183.87,27.17c2.39-2.81,3.58-6.27,3.58-10.4,0-3.15-.7-5.91-2.09-8.28-1.39-2.37-3.36-4.2-5.91-5.5-2.55-1.3-5.5-1.95-8.84-1.95h-19.41v48.71h6.82v-17.12h7.93l15.03,17.12h8.56l-15.38-17.4c4.08-.65,7.32-2.38,9.71-5.18Zm-25.85-.8V7.38h12.39c3.2,0,5.71.85,7.51,2.54,1.81,1.69,2.71,4.05,2.71,7.06s-.9,5.22-2.71,6.89c-1.81,1.67-4.29,2.5-7.44,2.5h-12.46Z"/>
        <path class="cls-5" d="m242,12.14c-2.09-3.83-5-6.81-8.73-8.94-3.73-2.13-7.99-3.2-12.77-3.2s-9.28,1.07-13.08,3.2c-3.8,2.13-6.75,5.14-8.84,9.01-2.09,3.87-3.13,8.31-3.13,13.32s1.04,9.29,3.13,13.12c2.09,3.83,5,6.81,8.73,8.94,3.73,2.13,7.99,3.2,12.77,3.2s9.28-1.07,13.08-3.2c3.8-2.13,6.75-5.14,8.84-9.01,2.09-3.87,3.13-8.31,3.13-13.32s-1.04-9.29-3.13-13.12Zm-6.12,23.21c-1.53,2.88-3.65,5.11-6.37,6.71-2.71,1.6-5.81,2.4-9.29,2.4s-6.56-.81-9.25-2.44c-2.69-1.62-4.79-3.88-6.3-6.78-1.51-2.9-2.26-6.23-2.26-9.98s.75-6.99,2.26-9.85c1.51-2.85,3.63-5.08,6.37-6.68,2.74-1.6,5.84-2.4,9.32-2.4s6.58.8,9.29,2.4c2.71,1.6,4.81,3.85,6.3,6.75,1.48,2.9,2.23,6.25,2.23,10.05s-.77,6.94-2.3,9.81Z"/>
      </g>
      <g>
        <g>
          <path class="cls-1" d="m83.51,64.62l-1.81,2.71v1.92h-.77v-1.91l-1.76-2.73h.91l.93,1.55c.16.27.26.45.3.53h.01c.06-.13.17-.31.31-.54l.94-1.54h.93Z"/>
          <path class="cls-1" d="m87.04,69.1c-.29-.16-.52-.4-.68-.7s-.24-.66-.24-1.07v-2.71h.77v2.71c0,.41.11.73.32.96.21.24.5.35.86.35s.64-.12.86-.35c.21-.23.32-.55.32-.96v-2.71h.77v2.71c0,.41-.08.76-.24,1.07-.16.3-.39.54-.68.7s-.63.25-1.02.25-.73-.08-1.02-.25Z"/>
          <path class="cls-1" d="m97.41,69.25h-.85l-.44-.97h-2.43l-.44.97h-.83l2.06-4.63h.85l2.06,4.63Zm-3.42-1.65h1.85l-.62-1.48s-.04-.09-.07-.16c-.14-.33-.22-.52-.23-.58h-.01l-.06.14-.25.6-.61,1.48Z"/>
          <path class="cls-1" d="m100.07,69.25v-4.63h.74l2.09,2.87.36.52h.01c-.01-.14-.02-.31-.02-.52v-2.87h.77v4.63h-.74l-2.09-2.87c-.19-.26-.31-.43-.36-.52h-.02c.02.17.03.34.03.52v2.87h-.77Z"/>
        </g>
        <g>
          <path class="cls-1" d="m116.55,69.07c-.38-.2-.67-.48-.87-.84s-.31-.79-.31-1.27.11-.93.32-1.3c.21-.37.51-.66.9-.86.39-.2.85-.3,1.37-.3s.95.1,1.33.29c.38.2.67.48.87.84.21.36.31.79.31,1.27s-.11.93-.32,1.3c-.21.37-.51.66-.9.86-.39.2-.85.3-1.37.3s-.95-.1-1.33-.29Zm2.3-1.15c.24-.24.35-.56.35-.96s-.12-.75-.35-1.01c-.23-.25-.54-.38-.93-.38-.26,0-.49.06-.69.17-.2.11-.35.27-.46.47-.11.2-.16.43-.16.69,0,.42.12.75.35,1,.23.25.54.37.93.37s.71-.12.95-.36Z"/>
          <path class="cls-1" d="m127.24,64.62h1.15v4.63h-1.24v-1.62c0-.41.02-.79.06-1.14h-.03c-.12.24-.31.54-.56.89l-.72.98h-.22l-.72-.98c-.26-.36-.46-.66-.58-.9h-.03c.02.17.04.35.05.57s.02.41.02.59v1.62h-1.24v-4.63h1.15l1.47,2.03,1.44-2.03Z"/>
          <path class="cls-1" d="m132.64,69.25h-1.26v-4.63h1.26v4.63Z"/>
          <path class="cls-1" d="m135.63,69.25v-4.63h1.14l1.33,1.88c.26.37.46.66.62.89l.03-.02c-.07-.32-.11-.85-.11-1.59v-1.16h1.22v4.63h-1.14l-1.34-1.88c-.27-.38-.47-.67-.6-.87h-.03c.07.3.11.83.11,1.59v1.16h-1.22Z"/>
          <path class="cls-1" d="m144.1,69.25h-1.26v-4.63h1.26v4.63Z"/>
          <path class="cls-1" d="m147.99,69.06c-.38-.2-.67-.48-.87-.84s-.3-.78-.3-1.26.11-.92.32-1.29c.21-.37.51-.66.89-.86.38-.2.82-.3,1.32-.3.63,0,1.21.21,1.73.63l-.65.87c-.2-.15-.38-.25-.56-.32-.17-.07-.36-.1-.56-.1-.38,0-.68.12-.9.36-.23.24-.34.56-.34.96s.12.75.35,1,.54.37.92.37c.2,0,.38-.03.56-.1.17-.07.36-.17.56-.32l.65.87c-.23.2-.5.35-.8.47-.3.11-.63.17-.98.17-.51,0-.95-.1-1.33-.3Z"/>
          <path class="cls-1" d="m156.63,66.36v-1.74h1.26v4.63h-1.26v-1.8h-1.71v1.8h-1.26v-4.63h1.26v1.74h1.71Z"/>
          <path class="cls-1" d="m165.56,69.25h-1.36l-.3-.78h-1.9l-.31.78h-1.31l1.95-4.63h1.3l1.93,4.63Zm-2.62-3.53l-.26.77-.32.94h1.18l-.33-.97-.24-.74h-.03Z"/>
          <path class="cls-1" d="m168.05,69.25v-4.63h1.14l1.33,1.88c.26.37.46.66.62.89l.03-.02c-.07-.32-.11-.85-.11-1.59v-1.16h1.22v4.63h-1.14l-1.34-1.88c-.27-.38-.47-.67-.6-.87h-.03c.07.3.11.83.11,1.59v1.16h-1.22Z"/>
          <path class="cls-1" d="m175.26,69.25v-4.63h1.14l1.33,1.88c.26.37.46.66.62.89l.03-.02c-.07-.32-.11-.85-.11-1.59v-1.16h1.22v4.63h-1.14l-1.34-1.88c-.27-.38-.47-.67-.6-.87h-.03c.07.3.11.83.11,1.59v1.16h-1.22Z"/>
          <path class="cls-1" d="m183.69,67.38v.84h2.28v1.03h-3.49v-4.63h3.39v1.01h-2.18v.79h2.05v.97h-2.05Z"/>
          <path class="cls-1" d="m189.99,64.62v3.57h2.24v1.07h-3.49v-4.63h1.26Z"/>
        </g>
        <rect class="cls-1" x="109.35" y="62.43" width=".48" height="8.22"/>
      </g>
    </g>
  </g>
</svg>