<?xml version="1.0" encoding="UTF-8"?>
<svg id="Camada_2" data-name="Camada 2" xmlns="http://www.w3.org/2000/svg" viewBox="0 0 340.65 81.97">
  <defs>
    <style>
      .cls-1 {
        fill: #f7a40f;
      }

      .cls-2 {
        fill: #fff;
      }
    </style>
  </defs>
  <g id="Camada_1-2" data-name="Camada 1">
    <g>
      <g>
        <path class="cls-2" d="m117.77,39.55c0-2.93.47-5.69,1.43-8.29.95-2.59,2.32-4.86,4.12-6.78,1.8-1.93,3.98-3.46,6.55-4.59,2.57-1.13,5.5-1.7,8.79-1.7,2.16,0,4.14.19,5.94.58,1.8.38,3.55.94,5.24,1.66l-2.39,9.17c-1.08-.41-2.26-.77-3.55-1.08-1.29-.31-2.73-.46-4.32-.46-3.39,0-5.92,1.05-7.59,3.16-1.67,2.11-2.51,4.88-2.51,8.33,0,3.65.78,6.48,2.35,8.48,1.57,2,4.3,3.01,8.21,3.01,1.39,0,2.88-.13,4.47-.39,1.59-.26,3.06-.67,4.39-1.23l1.62,9.41c-1.34.57-3.01,1.05-5.01,1.46-2,.41-4.22.62-6.63.62-3.7,0-6.89-.55-9.56-1.66-2.67-1.1-4.87-2.61-6.59-4.51-1.72-1.9-2.98-4.15-3.78-6.75-.8-2.59-1.2-5.41-1.2-8.44Z"/>
        <path class="cls-2" d="m187.7,39.47c0,3.19-.46,6.1-1.39,8.75-.93,2.65-2.26,4.91-4.01,6.79-1.75,1.88-3.84,3.33-6.28,4.36-2.44,1.03-5.18,1.54-8.21,1.54s-5.69-.51-8.13-1.54c-2.44-1.03-4.54-2.48-6.28-4.36-1.75-1.88-3.11-4.14-4.09-6.79-.98-2.65-1.46-5.56-1.46-8.75s.5-6.09,1.5-8.71c1-2.62,2.39-4.86,4.16-6.71,1.77-1.85,3.88-3.29,6.32-4.32,2.44-1.03,5.1-1.54,7.98-1.54s5.61.51,8.06,1.54c2.44,1.03,4.54,2.47,6.28,4.32,1.75,1.85,3.11,4.09,4.09,6.71.98,2.62,1.46,5.53,1.46,8.71Zm-11.72,0c0-3.55-.71-6.33-2.12-8.37-1.41-2.03-3.43-3.04-6.05-3.04s-4.65,1.02-6.09,3.04c-1.44,2.03-2.16,4.82-2.16,8.37s.72,6.36,2.16,8.44c1.44,2.08,3.47,3.12,6.09,3.12s4.64-1.04,6.05-3.12c1.41-2.08,2.12-4.9,2.12-8.44Z"/>
        <path class="cls-2" d="m190.02,20.66c1.95-.57,4.47-1.09,7.56-1.58,3.08-.49,6.32-.73,9.71-.73s6.31.45,8.6,1.35c2.29.9,4.1,2.17,5.44,3.82,1.34,1.65,2.29,3.6,2.85,5.86.56,2.26.85,4.78.85,7.56v22.9h-11.49v-21.51c0-3.7-.49-6.32-1.46-7.86-.98-1.54-2.8-2.31-5.47-2.31-.82,0-1.7.04-2.62.12-.92.08-1.75.17-2.47.27v31.3h-11.49V20.66Z"/>
        <path class="cls-2" d="m228.49,9.17l11.49-1.85v11.95h13.8v9.56h-13.8v14.26c0,2.42.42,4.34,1.27,5.78.85,1.44,2.56,2.16,5.13,2.16,1.23,0,2.51-.12,3.82-.35,1.31-.23,2.51-.55,3.58-.96l1.62,8.94c-1.39.57-2.93,1.05-4.63,1.46-1.7.41-3.78.62-6.25.62-3.14,0-5.73-.42-7.79-1.27-2.06-.85-3.7-2.03-4.93-3.55-1.23-1.52-2.09-3.35-2.58-5.51-.49-2.16-.73-4.55-.73-7.17V9.17Z"/>
        <path class="cls-2" d="m280.99,29.45c-1.03-.26-2.24-.53-3.62-.81-1.39-.28-2.88-.42-4.47-.42-.72,0-1.58.07-2.58.19-1,.13-1.76.27-2.27.42v30.99h-11.49V21.43c2.06-.72,4.48-1.4,7.29-2.04,2.8-.64,5.92-.96,9.37-.96.62,0,1.36.04,2.24.12.87.08,1.75.18,2.62.31.87.13,1.75.28,2.62.46.87.18,1.62.4,2.24.66l-1.93,9.48Z"/>
        <path class="cls-2" d="m319.69,39.47c0,3.19-.46,6.1-1.39,8.75-.93,2.65-2.26,4.91-4.01,6.79-1.75,1.88-3.84,3.33-6.28,4.36-2.44,1.03-5.18,1.54-8.21,1.54s-5.69-.51-8.13-1.54c-2.44-1.03-4.54-2.48-6.28-4.36-1.75-1.88-3.11-4.14-4.09-6.79-.98-2.65-1.46-5.56-1.46-8.75s.5-6.09,1.5-8.71c1-2.62,2.39-4.86,4.16-6.71,1.77-1.85,3.88-3.29,6.32-4.32,2.44-1.03,5.1-1.54,7.98-1.54s5.61.51,8.06,1.54c2.44,1.03,4.54,2.47,6.28,4.32,1.75,1.85,3.11,4.09,4.09,6.71.98,2.62,1.46,5.53,1.46,8.71Zm-11.72,0c0-3.55-.71-6.33-2.12-8.37-1.41-2.03-3.43-3.04-6.05-3.04s-4.65,1.02-6.09,3.04c-1.44,2.03-2.16,4.82-2.16,8.37s.72,6.36,2.16,8.44c1.44,2.08,3.47,3.12,6.09,3.12s4.64-1.04,6.05-3.12c1.41-2.08,2.12-4.9,2.12-8.44Z"/>
        <path class="cls-2" d="m338.2,60.6c-3.34-.05-6.05-.41-8.13-1.08-2.08-.67-3.73-1.61-4.93-2.81-1.21-1.21-2.03-2.67-2.47-4.4-.44-1.72-.66-3.66-.66-5.82V1.85l11.49-1.85v44.18c0,1.03.08,1.95.23,2.78.15.82.45,1.52.89,2.08.44.57,1.07,1.03,1.89,1.39.82.36,1.93.59,3.31.69l-1.62,9.48Z"/>
      </g>
      <g>
        <path class="cls-1" d="m79.07,39.41c0,3.19-.46,6.07-1.39,8.64s-2.22,4.78-3.89,6.63c-1.67,1.85-3.66,3.28-5.98,4.28-2.31,1-4.83,1.5-7.56,1.5s-5.24-.5-7.56-1.5c-2.31-1-4.31-2.43-5.98-4.28-1.67-1.85-2.97-4.06-3.89-6.63s-1.39-5.45-1.39-8.64.46-6,1.39-8.6c.93-2.59,2.22-4.82,3.89-6.67,1.67-1.85,3.66-3.28,5.98-4.28,2.31-1,4.83-1.5,7.56-1.5s5.24.5,7.56,1.5c2.31,1,4.3,2.43,5.98,4.28,1.67,1.85,2.97,4.07,3.89,6.67.93,2.6,1.39,5.46,1.39,8.6Zm-7.48,0c0-4.52-1.02-8.11-3.05-10.75-2.03-2.65-4.79-3.97-8.29-3.97s-6.26,1.32-8.29,3.97c-2.03,2.65-3.05,6.23-3.05,10.75s1.01,8.11,3.05,10.76c2.03,2.65,4.79,3.97,8.29,3.97s6.26-1.32,8.29-3.97c2.03-2.65,3.05-6.23,3.05-10.76Z"/>
        <path class="cls-1" d="m114.07,58.3c-1.65.41-3.82.85-6.52,1.31-2.7.46-5.82.69-9.37.69-3.08,0-5.68-.45-7.79-1.35-2.11-.9-3.8-2.17-5.09-3.82-1.29-1.64-2.21-3.58-2.78-5.82-.57-2.24-.85-4.71-.85-7.44v-22.51h7.17v20.97c0,4.88.77,8.38,2.31,10.49s4.14,3.16,7.79,3.16c.77,0,1.57-.03,2.39-.08.82-.05,1.59-.12,2.31-.19.72-.08,1.37-.15,1.97-.23.59-.08,1.01-.17,1.27-.27V19.37h7.17v38.94Z"/>
      </g>
      <g>
        <path class="cls-2" d="m236.34,72.73c-1.08,0-1.9.33-2.47,1s-.85,1.6-.85,2.79c0,.56.07,1.08.2,1.55s.34.87.6,1.2c.27.33.6.59,1,.78.4.19.86.28,1.4.28.33,0,.62-.01.86-.04.24-.02.43-.06.57-.1v-3.76h1.9v5.03c-.26.1-.7.21-1.33.33-.62.12-1.34.18-2.16.18-.75,0-1.44-.12-2.07-.36-.62-.24-1.16-.59-1.59-1.06s-.78-1.03-1.02-1.71c-.24-.67-.36-1.45-.36-2.33s.13-1.65.4-2.33c.27-.67.63-1.25,1.09-1.71.46-.47,1.01-.82,1.63-1.06.62-.24,1.29-.36,1.99-.36.48,0,.91.03,1.29.1.38.07.7.14.97.22.27.08.5.17.67.26.18.09.3.16.37.2l-.57,1.55c-.3-.18-.68-.33-1.12-.46-.45-.13-.92-.19-1.41-.19Z"/>
        <path class="cls-2" d="m240.39,77.85c0-.7.1-1.3.31-1.83.21-.52.48-.96.82-1.31s.73-.61,1.18-.79c.44-.18.9-.26,1.36-.26,1.09,0,1.94.34,2.54,1.01.61.67.91,1.68.91,3.02,0,.1,0,.21,0,.34s-.01.24-.02.34h-5.21c.05.63.27,1.12.67,1.47.4.35.97.52,1.73.52.44,0,.85-.04,1.22-.12.37-.08.66-.17.87-.26l.24,1.5c-.1.05-.24.1-.42.16-.18.06-.38.11-.6.15-.23.04-.47.08-.73.11s-.53.04-.8.04c-.69,0-1.3-.1-1.81-.31-.51-.21-.94-.49-1.27-.86-.33-.37-.58-.8-.74-1.3-.16-.5-.24-1.04-.24-1.64Zm5.3-.82c0-.25-.04-.49-.11-.72-.07-.23-.17-.42-.31-.59-.14-.17-.3-.3-.5-.39s-.43-.14-.7-.14-.53.05-.74.16c-.21.11-.39.25-.54.42-.15.17-.26.37-.34.59-.08.22-.14.45-.17.68h3.4Z"/>
        <path class="cls-2" d="m250.58,80.44c.48,0,.84-.06,1.06-.17.22-.12.33-.31.33-.6,0-.26-.12-.48-.35-.65-.24-.17-.63-.36-1.17-.56-.33-.12-.64-.25-.91-.39-.28-.14-.52-.29-.72-.48-.2-.18-.36-.4-.48-.66s-.17-.57-.17-.94c0-.72.27-1.3.8-1.71.53-.42,1.26-.63,2.17-.63.46,0,.91.04,1.33.13.42.08.74.17.95.25l-.33,1.48c-.2-.09-.46-.17-.77-.25-.31-.08-.67-.11-1.09-.11-.37,0-.67.06-.91.19-.23.13-.35.32-.35.58,0,.13.02.25.07.35s.12.19.23.28c.11.08.26.17.44.26.18.08.4.17.66.26.43.16.8.32,1.1.48.3.16.55.33.75.53.2.2.34.42.43.67.09.25.14.55.14.91,0,.76-.28,1.33-.84,1.71-.56.39-1.36.58-2.39.58-.69,0-1.25-.06-1.68-.17-.42-.12-.72-.21-.89-.28l.32-1.53c.27.11.6.22.97.32s.81.15,1.29.15Z"/>
        <path class="cls-2" d="m254.57,71.77l1.83-.3v2.39h2.81v1.53h-2.81v3.22c0,.63.1,1.09.3,1.36.2.27.54.41,1.03.41.33,0,.63-.04.88-.11s.46-.14.61-.2l.3,1.45c-.21.09-.49.18-.83.28s-.75.14-1.21.14c-.56,0-1.03-.08-1.41-.23-.38-.15-.68-.37-.9-.66-.22-.29-.38-.63-.47-1.04-.09-.41-.14-.87-.14-1.4v-6.84Z"/>
        <path class="cls-2" d="m262.76,73.66c.6,0,1.11.08,1.53.23.41.15.74.36.99.63.25.27.42.6.53.99.11.39.16.81.16,1.28v4.79c-.28.06-.71.13-1.28.22-.57.08-1.21.13-1.93.13-.47,0-.91-.04-1.3-.14s-.73-.24-1-.44c-.28-.2-.49-.46-.65-.79-.16-.32-.23-.72-.23-1.19s.09-.84.26-1.15c.18-.31.42-.57.72-.76.3-.2.65-.34,1.05-.42.4-.08.81-.13,1.25-.13.2,0,.41.01.63.04.22.03.46.07.71.13v-.3c0-.21-.03-.41-.08-.6-.05-.19-.14-.36-.26-.51-.13-.15-.29-.26-.5-.34-.21-.08-.47-.12-.78-.12-.42,0-.81.03-1.16.09-.35.06-.64.13-.86.21l-.23-1.48c.23-.08.57-.16,1.01-.24.44-.08.92-.12,1.42-.12Zm2.67-2.17c-.1.17-.21.32-.35.47-.14.15-.3.27-.48.37-.18.1-.38.15-.6.15-.18,0-.35-.03-.51-.08-.16-.06-.32-.12-.48-.19s-.31-.13-.45-.19c-.15-.05-.29-.08-.43-.08-.19,0-.35.07-.49.2-.14.13-.24.28-.32.45l-.92-.54c.05-.14.12-.29.22-.46s.22-.32.36-.47c.15-.15.31-.27.49-.37s.38-.15.6-.15c.18,0,.35.03.51.09.16.06.32.12.48.19s.31.13.45.19c.15.06.29.09.43.09.19,0,.35-.07.49-.2.14-.14.24-.29.32-.46l.92.54c-.06.14-.14.29-.23.46Zm-2.51,8.98c.56,0,.99-.03,1.28-.09v-2.02c-.1-.03-.25-.06-.44-.09s-.4-.05-.63-.05c-.2,0-.41.02-.61.05-.21.03-.39.09-.56.17-.17.08-.3.19-.4.34-.1.15-.15.33-.15.55,0,.43.14.73.41.9.27.17.64.25,1.1.25Z"/>
        <path class="cls-2" d="m274.49,77.8c0,.62-.09,1.19-.27,1.71s-.44.95-.77,1.31c-.33.36-.73.64-1.2.85-.47.2-.98.3-1.55.3s-1.08-.1-1.54-.3c-.46-.2-.86-.48-1.19-.85-.33-.36-.59-.8-.78-1.31-.19-.51-.28-1.08-.28-1.71s.09-1.19.28-1.7c.19-.51.45-.94.79-1.31s.74-.64,1.2-.84c.46-.2.97-.29,1.53-.29s1.06.1,1.53.29.87.48,1.2.84c.33.36.59.8.78,1.31.19.51.28,1.07.28,1.7Zm-1.87,0c0-.79-.17-1.41-.51-1.86s-.81-.69-1.41-.69-1.08.23-1.41.69c-.34.46-.51,1.08-.51,1.86s.17,1.42.51,1.89c.34.46.81.7,1.41.7s1.07-.23,1.41-.7c.34-.46.51-1.09.51-1.89Z"/>
        <path class="cls-2" d="m278.3,81.76v-10.47h6.61v1.62h-4.71v2.67h4.18v1.62h-4.18v4.56h-1.9Z"/>
        <path class="cls-2" d="m287.72,71.55c0,.34-.11.61-.33.82-.22.2-.48.3-.79.3s-.58-.1-.8-.3c-.22-.2-.33-.47-.33-.82s.11-.63.33-.83c.22-.2.49-.3.8-.3s.56.1.79.3c.22.2.33.48.33.83Zm-.2,10.21h-1.83v-7.9h1.83v7.9Z"/>
        <path class="cls-2" d="m289,74.12c.35-.1.81-.2,1.37-.29.56-.09,1.19-.14,1.87-.14.64,0,1.18.09,1.62.26.43.18.78.42,1.03.74.26.32.44.7.54,1.15.11.45.16.94.16,1.47v4.44h-1.83v-4.15c0-.42-.03-.78-.08-1.08-.06-.3-.15-.54-.27-.73-.13-.19-.3-.32-.51-.41-.22-.09-.48-.13-.79-.13-.23,0-.47.02-.73.05s-.44.06-.56.08v6.37h-1.83v-7.64Z"/>
        <path class="cls-2" d="m299.62,73.66c.6,0,1.11.08,1.53.23.41.15.74.36.99.63.25.27.42.6.53.99.11.39.16.81.16,1.28v4.79c-.28.06-.71.13-1.28.22-.57.08-1.21.13-1.93.13-.47,0-.91-.04-1.3-.14s-.73-.24-1-.44c-.28-.2-.49-.46-.65-.79-.16-.32-.23-.72-.23-1.19s.09-.84.26-1.15c.18-.31.42-.57.72-.76.3-.2.65-.34,1.05-.42.4-.08.81-.13,1.25-.13.2,0,.41.01.63.04.22.03.46.07.71.13v-.3c0-.21-.03-.41-.08-.6-.05-.19-.14-.36-.26-.51-.13-.15-.29-.26-.5-.34-.21-.08-.47-.12-.78-.12-.42,0-.81.03-1.16.09-.35.06-.64.13-.86.21l-.23-1.48c.23-.08.57-.16,1.01-.24.44-.08.92-.12,1.42-.12Zm.15,6.81c.56,0,.99-.03,1.28-.09v-2.02c-.1-.03-.25-.06-.44-.09s-.4-.05-.63-.05c-.2,0-.41.02-.61.05-.21.03-.39.09-.56.17-.17.08-.3.19-.4.34-.1.15-.15.33-.15.55,0,.43.14.73.41.9.27.17.64.25,1.1.25Z"/>
        <path class="cls-2" d="m304.21,74.12c.35-.1.81-.2,1.37-.29.56-.09,1.19-.14,1.87-.14.64,0,1.18.09,1.62.26.43.18.78.42,1.03.74.26.32.44.7.54,1.15.11.45.16.94.16,1.47v4.44h-1.83v-4.15c0-.42-.03-.78-.08-1.08-.06-.3-.15-.54-.27-.73-.13-.19-.3-.32-.51-.41-.22-.09-.48-.13-.79-.13-.23,0-.47.02-.73.05s-.44.06-.56.08v6.37h-1.83v-7.64Z"/>
        <path class="cls-2" d="m311.76,77.82c0-.58.09-1.13.27-1.64.18-.51.44-.95.78-1.32s.75-.67,1.23-.88c.48-.21,1.03-.32,1.63-.32.75,0,1.45.14,2.11.41l-.39,1.5c-.21-.09-.45-.17-.72-.23-.27-.06-.55-.09-.85-.09-.71,0-1.26.22-1.63.67-.37.45-.56,1.08-.56,1.9s.18,1.41.53,1.87.95.69,1.78.69c.31,0,.62-.03.92-.09.3-.06.56-.14.79-.23l.26,1.51c-.2.1-.51.19-.91.27-.41.08-.83.12-1.26.12-.67,0-1.26-.1-1.76-.31-.5-.21-.91-.49-1.24-.86-.33-.37-.57-.81-.73-1.31-.16-.51-.24-1.06-.24-1.65Z"/>
        <path class="cls-2" d="m318.04,77.85c0-.7.1-1.3.31-1.83.21-.52.48-.96.82-1.31s.73-.61,1.18-.79c.44-.18.9-.26,1.36-.26,1.09,0,1.94.34,2.54,1.01.61.67.91,1.68.91,3.02,0,.1,0,.21,0,.34s-.01.24-.02.34h-5.21c.05.63.27,1.12.67,1.47.4.35.97.52,1.73.52.44,0,.85-.04,1.22-.12.37-.08.66-.17.87-.26l.24,1.5c-.1.05-.24.1-.42.16-.18.06-.38.11-.6.15-.23.04-.47.08-.73.11s-.53.04-.8.04c-.69,0-1.3-.1-1.81-.31-.51-.21-.94-.49-1.27-.86-.33-.37-.58-.8-.74-1.3-.16-.5-.24-1.04-.24-1.64Zm5.3-.82c0-.25-.04-.49-.11-.72-.07-.23-.17-.42-.31-.59-.14-.17-.3-.3-.5-.39s-.43-.14-.7-.14-.53.05-.74.16c-.21.11-.39.25-.54.42-.15.17-.26.37-.34.59-.08.22-.14.45-.17.68h3.4Z"/>
        <path class="cls-2" d="m328.3,71.55c0,.34-.11.61-.33.82-.22.2-.48.3-.79.3s-.58-.1-.8-.3c-.22-.2-.33-.47-.33-.82s.11-.63.33-.83c.22-.2.49-.3.8-.3s.56.1.79.3c.22.2.33.48.33.83Zm-.2,10.21h-1.83v-7.9h1.83v7.9Z"/>
        <path class="cls-2" d="m334.08,75.5c-.15-.05-.36-.1-.63-.16-.27-.05-.58-.08-.93-.08-.2,0-.42.02-.64.06-.23.04-.39.08-.48.11v6.33h-1.83v-7.52c.35-.13.79-.25,1.32-.37.53-.12,1.11-.17,1.76-.17.12,0,.26,0,.42.02.16.02.32.04.48.06.16.03.32.06.47.09.15.04.27.07.36.1l-.32,1.54Z"/>
        <path class="cls-2" d="m337.45,73.66c.6,0,1.11.08,1.53.23.41.15.74.36.99.63.25.27.42.6.53.99.11.39.16.81.16,1.28v4.79c-.28.06-.71.13-1.28.22-.57.08-1.21.13-1.93.13-.47,0-.91-.04-1.3-.14s-.73-.24-1-.44c-.28-.2-.49-.46-.65-.79-.16-.32-.23-.72-.23-1.19s.09-.84.26-1.15c.18-.31.42-.57.72-.76.3-.2.65-.34,1.05-.42.4-.08.81-.13,1.25-.13.2,0,.41.01.63.04.22.03.46.07.71.13v-.3c0-.21-.03-.41-.08-.6-.05-.19-.14-.36-.26-.51-.13-.15-.29-.26-.5-.34-.21-.08-.47-.12-.78-.12-.42,0-.81.03-1.16.09-.35.06-.64.13-.86.21l-.23-1.48c.23-.08.57-.16,1.01-.24.44-.08.92-.12,1.42-.12Zm.15,6.81c.56,0,.99-.03,1.28-.09v-2.02c-.1-.03-.25-.06-.44-.09s-.4-.05-.63-.05c-.2,0-.41.02-.61.05-.21.03-.39.09-.56.17-.17.08-.3.19-.4.34-.1.15-.15.33-.15.55,0,.43.14.73.41.9.27.17.64.25,1.1.25Z"/>
      </g>
      <path class="cls-1" d="m0,9.57h8.16c5.18,0,9.94,2.83,12.41,7.38l14.98,27.6h-14.42L0,9.57Z"/>
      <path class="cls-2" d="m12.06,65.58h-4.08l30.61-49.47c2.55-4.12,7.05-6.63,11.9-6.63h7.7l-28.71,46.39c-3.74,6.04-10.33,9.71-17.43,9.71Z"/>
    </g>
  </g>
</svg>